<svg xmlns="http://www.w3.org/2000/svg" xmlns:xlink="http://www.w3.org/1999/xlink" version="1.1" viewBox="228 72 480 348" width="480px" height="348px"><defs><style>@font-face{
    font-family:"DIN Next";
    font-weight: 400;
    src:url("https://whimsical.com/fonts/139e8e25-0eea-4cb4-a5d4-79048803e73d.eot?#iefix");
    src:url("https://whimsical.com/fonts/139e8e25-0eea-4cb4-a5d4-79048803e73d.eot?#iefix") format("eot"),url("https://whimsical.com/fonts/094b15e3-94bd-435b-a595-d40edfde661a.woff2") format("woff2"),url("https://whimsical.com/fonts/7e5fbe11-4858-4bd1-9ec6-a1d9f9d227aa.woff") format("woff"),url("https://whimsical.com/fonts/0f11eff9-9f05-46f5-9703-027c510065d7.ttf") format("truetype"),url("https://whimsical.com/fonts/48b61978-3f30-4274-823c-5cdcd1876918.svg#48b61978-3f30-4274-823c-5cdcd1876918") format("svg");
}
@font-face{
    font-family:"DIN Next";
    font-weight: 400;
    font-style: italic;
    src:url("https://whimsical.com/fonts/df24d5e8-5087-42fd-99b1-b16042d666c8.eot?#iefix");
    src:url("https://whimsical.com/fonts/df24d5e8-5087-42fd-99b1-b16042d666c8.eot?#iefix") format("eot"),url("https://whimsical.com/fonts/46251881-ffe9-4bfb-99c7-d6ce3bebaf3e.woff2") format("woff2"),url("https://whimsical.com/fonts/790ebbf2-62c5-4a32-946f-99d405f9243e.woff") format("woff"),url("https://whimsical.com/fonts/d28199e6-0f4a-42df-97f4-606701c6f75a.ttf") format("truetype"),url("https://whimsical.com/fonts/37a462c0-d86e-492c-b9ab-35e6bd417f6c.svg#37a462c0-d86e-492c-b9ab-35e6bd417f6c") format("svg");
}
@font-face{
    font-weight: 500;
    font-family:"DIN Next";
    src:url("https://whimsical.com/fonts/c5b058fc-55ce-4e06-a175-5c7d9a7e90f4.eot?#iefix");
    src:url("https://whimsical.com/fonts/c5b058fc-55ce-4e06-a175-5c7d9a7e90f4.eot?#iefix") format("eot"),url("https://whimsical.com/fonts/7b29ae40-30ff-4f99-a2b9-cde88669fa2f.woff2") format("woff2"),url("https://whimsical.com/fonts/bf73077c-e354-4562-a085-f4703eb1d653.woff") format("woff"),url("https://whimsical.com/fonts/0ffa6947-5317-4d07-b525-14d08a028821.ttf") format("truetype"),url("https://whimsical.com/fonts/9e423e45-5450-4991-a157-dbe6cf61eb4e.svg#9e423e45-5450-4991-a157-dbe6cf61eb4e") format("svg");
}
@font-face{
    font-family:"DIN Next";
    font-weight: 500;
    font-style: italic;
    src:url("https://whimsical.com/fonts/9897c008-fd65-48a4-afc7-36de2fea97b9.eot?#iefix");
    src:url("https://whimsical.com/fonts/9897c008-fd65-48a4-afc7-36de2fea97b9.eot?#iefix") format("eot"),url("https://whimsical.com/fonts/c7717981-647d-4b76-8817-33062e42d11f.woff2") format("woff2"),url("https://whimsical.com/fonts/b852cd4c-1255-40b1-a2be-73a9105b0155.woff") format("woff"),url("https://whimsical.com/fonts/821b00ad-e741-4e2d-af1a-85594367c8a2.ttf") format("truetype"),url("https://whimsical.com/fonts/d3e3b689-a6b0-45f2-b279-f5e194f87409.svg#d3e3b689-a6b0-45f2-b279-f5e194f87409") format("svg");
}
@font-face{
    font-weight: 700;
    font-family:"DIN Next";
    src:url("https://whimsical.com/fonts/81cd3b08-fd39-4ae3-8d05-9d24709eba84.eot?#iefix");
    src:url("https://whimsical.com/fonts/81cd3b08-fd39-4ae3-8d05-9d24709eba84.eot?#iefix") format("eot"),url("https://whimsical.com/fonts/31704504-4671-47a6-a61e-397f07410d91.woff2") format("woff2"),url("https://whimsical.com/fonts/b8a280da-481f-44a0-8d9c-1bc64bd7227c.woff") format("woff"),url("https://whimsical.com/fonts/276d122a-0fab-447b-9fc0-5d7fb0eafce2.ttf") format("truetype"),url("https://whimsical.com/fonts/8fb8273a-8213-4928-808b-b5bfaf3fd7e9.svg#8fb8273a-8213-4928-808b-b5bfaf3fd7e9") format("svg");
}
@font-face{
    font-family:"DIN Next";
    font-weight: 700;
    font-style: italic;
    src:url("https://whimsical.com/fonts/00cc6df3-ed32-4004-8dd8-1c576600a408.eot?#iefix");
    src:url("https://whimsical.com/fonts/00cc6df3-ed32-4004-8dd8-1c576600a408.eot?#iefix") format("eot"),url("https://whimsical.com/fonts/4132c4c8-680c-4d6d-9251-a2da38503bbd.woff2") format("woff2"),url("https://whimsical.com/fonts/366401fe-6df4-47be-8f55-8a411cff0dd2.woff") format("woff"),url("https://whimsical.com/fonts/dbe4f7ba-fc16-44a6-a577-571620e9edaf.ttf") format("truetype"),url("https://whimsical.com/fonts/f874edca-ee87-4ccf-8b1d-921fbc3c1c36.svg#f874edca-ee87-4ccf-8b1d-921fbc3c1c36") format("svg");
}

@font-face {
    font-family: 'PFDINMonoPro';
    src:url('https://whimsical.com/fonts/PFDINMonoPro-Regular.woff') format('woff');
    font-weight: 400;
}
@font-face {
    font-family: 'PFDINMonoPro';
    src:url('https://whimsical.com/fonts/PFDINMonoPro-Italic.woff') format('woff');
    font-style: italic;
    font-weight: 400;
}
@font-face {
    font-family: 'PFDINMonoPro';
    src:url('https://whimsical.com/fonts/PFDINMonoPro-Bold.woff') format('woff');
    font-weight: 700;
}
@font-face {
    font-family: 'PFDINMonoPro';
    src:url('https://whimsical.com/fonts/PFDINMonoPro-BoldItalic.woff') format('woff');
    font-style: italic;
    font-weight: 700;
}
* {-webkit-font-smoothing: auto; -moz-osx-font-smoothing: auto;}@media print { svg { width: 100%; height: 100%; } }</style><g><filter id="white-fill-shadow" y="-50%" height="200%"><feDropShadow dx="0" dy="2" stdDeviation="6" flood-opacity="0.03" flood-color="#000000"></feDropShadow></filter><filter id="light-gray-fill-shadow" y="-50%" height="200%"><feDropShadow dx="0" dy="2" stdDeviation="6" flood-opacity="0.09" flood-color="#000000"></feDropShadow></filter><filter id="yellow-fill-shadow" y="-50%" height="200%"><feDropShadow dx="0" dy="2" stdDeviation="6" flood-opacity="0.12" flood-color="#000000"></feDropShadow></filter><filter id="fill-shadow" y="-50%" height="200%"><feDropShadow dx="0" dy="2" stdDeviation="6" flood-opacity="0.16" flood-color="#000000"></feDropShadow></filter><filter id="frame-shadow" y="-50%" height="200%"><feDropShadow dx="0" dy="3" stdDeviation="8" flood-opacity="0.06" flood-color="#000000"></feDropShadow></filter><filter id="button-shadow" y="-50%" height="200%"><feDropShadow dx="0" dy="2" stdDeviation="6" flood-opacity="0.03" flood-color="#000000"></feDropShadow></filter><filter id="button-hover-shadow" y="-50%" height="200%"><feDropShadow dx="0" dy="2" stdDeviation="6" flood-opacity="0.08" flood-color="#000000"></feDropShadow></filter><filter id="badge-shadow" y="-50%" height="200%"><feDropShadow dx="0" dy="2" stdDeviation="6" flood-opacity="0.08" flood-color="#000000"></feDropShadow></filter></g></defs><g><rect x="228" y="72" width="480" height="348" rx="3" ry="3" fill="#FFFFFF" filter="url(#white-fill-shadow)"></rect><g><rect x="228" y="72" width="480" height="348" rx="3" ry="3" fill="#FFFFFF"></rect></g><g><g><path d="M684,384c0,13.25482 -42.98074,24 -96,24c-53.01926,0 -96,-10.74518 -96,-24c0,-12.14214 0,-233.64567 0,-270.74846c9.15504,11.84195 48.65715,20.74846 96,20.74846c47.34285,0 86.84496,-8.90651 96,-20.74846c0,38.69737 0,258.33424 0,270.74846zM492,108c0,-13.25482 42.98074,-24 96,-24c53.01926,0 96,10.74518 96,24c0,13.25482 -42.98074,24 -96,24c-53.01926,0 -96,-10.74518 -96,-24z" fill="#FFFFFF" filter="url(#fill-shadow)"></path><g><path d="M684,384c0,13.25482 -42.98074,24 -96,24c-53.01926,0 -96,-10.74518 -96,-24c0,-12.14214 0,-233.64567 0,-270.74846c9.15504,11.84195 48.65715,20.74846 96,20.74846c47.34285,0 86.84496,-8.90651 96,-20.74846c0,38.69737 0,258.33424 0,270.74846zM492,108c0,-13.25482 42.98074,-24 96,-24c53.01926,0 96,10.74518 96,24c0,13.25482 -42.98074,24 -96,24c-53.01926,0 -96,-10.74518 -96,-24z" fill="#E8833A"></path></g><g><g><rect x="504" y="149" width="48" height="24" rx="3" ry="3" fill="#FFFFFF" filter="url(#fill-shadow)"></rect><g><rect x="504" y="149" width="48" height="24" rx="3" ry="3" fill="#207868"></rect><g class="content"><g><g><g><g><g></g><text fill="#FFFFFF" hover-props="{}"><tspan x="514.005859375" y="166.5" font-family="DIN Next, system-ui, sans-serif" font-size="15" font-style="normal" font-weight="normal">pid1</tspan></text></g></g></g></g></g></g></g><g><rect x="534" y="184" width="48" height="24" rx="3" ry="3" fill="#FFFFFF" filter="url(#fill-shadow)"></rect><g><rect x="534" y="184" width="48" height="24" rx="3" ry="3" fill="#207868"></rect><g class="content"><g><g><g><g><g></g><text fill="#FFFFFF" hover-props="{}"><tspan x="544.005859375" y="201.5" font-family="DIN Next, system-ui, sans-serif" font-size="15" font-style="normal" font-weight="normal">pid2</tspan></text></g></g></g></g></g></g></g><g><rect x="564" y="149" width="48" height="24" rx="3" ry="3" fill="#FFFFFF" filter="url(#fill-shadow)"></rect><g><rect x="564" y="149" width="48" height="24" rx="3" ry="3" fill="#207868"></rect><g class="content"><g><g><g><g><g></g><text fill="#FFFFFF" hover-props="{}"><tspan x="574.005859375" y="166.5" font-family="DIN Next, system-ui, sans-serif" font-size="15" font-style="normal" font-weight="normal">pid3</tspan></text></g></g></g></g></g></g></g><g><rect x="594" y="184" width="48" height="24" rx="3" ry="3" fill="#FFFFFF" filter="url(#fill-shadow)"></rect><g><rect x="594" y="184" width="48" height="24" rx="3" ry="3" fill="#207868"></rect><g class="content"><g><g><g><g><g></g><text fill="#FFFFFF" hover-props="{}"><tspan x="604.005859375" y="201.5" font-family="DIN Next, system-ui, sans-serif" font-size="15" font-style="normal" font-weight="normal">pid4</tspan></text></g></g></g></g></g></g></g><g><rect x="624" y="149" width="48" height="24" rx="3" ry="3" fill="#FFFFFF" filter="url(#fill-shadow)"></rect><g><rect x="624" y="149" width="48" height="24" rx="3" ry="3" fill="#207868"></rect><g class="content"><g><g><g><g><g></g><text fill="#FFFFFF" hover-props="{}"><tspan x="634.005859375" y="166.5" font-family="DIN Next, system-ui, sans-serif" font-size="15" font-style="normal" font-weight="normal">pid5</tspan></text></g></g></g></g></g></g></g><g><rect x="504" y="233" width="48" height="24" rx="3" ry="3" fill="#FFFFFF" filter="url(#fill-shadow)"></rect><g><rect x="504" y="233" width="48" height="24" rx="3" ry="3" fill="#207868"></rect><g class="content"><g><g><g><g><g></g><text fill="#FFFFFF" hover-props="{}"><tspan x="514.005859375" y="250.5" font-family="DIN Next, system-ui, sans-serif" font-size="15" font-style="normal" font-weight="normal">pid6</tspan></text></g></g></g></g></g></g></g><g><rect x="534" y="269" width="48" height="24" rx="3" ry="3" fill="#FFFFFF" filter="url(#fill-shadow)"></rect><g><rect x="534" y="269" width="48" height="24" rx="3" ry="3" fill="#207868"></rect><g class="content"><g><g><g><g><g></g><text fill="#FFFFFF" hover-props="{}"><tspan x="544.005859375" y="286.5" font-family="DIN Next, system-ui, sans-serif" font-size="15" font-style="normal" font-weight="normal">pid9</tspan></text></g></g></g></g></g></g></g><g><rect x="564" y="233" width="48" height="24" rx="3" ry="3" fill="#FFFFFF" filter="url(#fill-shadow)"></rect><g><rect x="564" y="233" width="48" height="24" rx="3" ry="3" fill="#207868"></rect><g class="content"><g><g><g><g><g></g><text fill="#FFFFFF" hover-props="{}"><tspan x="574.005859375" y="250.5" font-family="DIN Next, system-ui, sans-serif" font-size="15" font-style="normal" font-weight="normal">pid7</tspan></text></g></g></g></g></g></g></g><g><rect x="594" y="269" width="54" height="24" rx="3" ry="3" fill="#FFFFFF" filter="url(#fill-shadow)"></rect><g><rect x="594" y="269" width="54" height="24" rx="3" ry="3" fill="#207868"></rect><g class="content"><g><g><g><g><g></g><text fill="#FFFFFF" hover-props="{}"><tspan x="602.94091796875" y="286.5" font-family="DIN Next, system-ui, sans-serif" font-size="15" font-style="normal" font-weight="normal">pid10</tspan></text></g></g></g></g></g></g></g><g><rect x="624" y="233" width="48" height="24" rx="3" ry="3" fill="#FFFFFF" filter="url(#fill-shadow)"></rect><g><rect x="624" y="233" width="48" height="24" rx="3" ry="3" fill="#207868"></rect><g class="content"><g><g><g><g><g></g><text fill="#FFFFFF" hover-props="{}"><tspan x="634.005859375" y="250.5" font-family="DIN Next, system-ui, sans-serif" font-size="15" font-style="normal" font-weight="normal">pid8</tspan></text></g></g></g></g></g></g></g><g><rect x="504" y="317" width="54" height="24" rx="3" ry="3" fill="#FFFFFF" filter="url(#fill-shadow)"></rect><g><rect x="504" y="317" width="54" height="24" rx="3" ry="3" fill="#207868"></rect><g class="content"><g><g><g><g><g></g><text fill="#FFFFFF" hover-props="{}"><tspan x="512.94091796875" y="334.5" font-family="DIN Next, system-ui, sans-serif" font-size="15" font-style="normal" font-weight="normal">pid11</tspan></text></g></g></g></g></g></g></g><g><rect x="561" y="317" width="54" height="24" rx="3" ry="3" fill="#FFFFFF" filter="url(#fill-shadow)"></rect><g><rect x="561" y="317" width="54" height="24" rx="3" ry="3" fill="#207868"></rect><g class="content"><g><g><g><g><g></g><text fill="#FFFFFF" hover-props="{}"><tspan x="569.94091796875" y="334.5" font-family="DIN Next, system-ui, sans-serif" font-size="15" font-style="normal" font-weight="normal">pid12</tspan></text></g></g></g></g></g></g></g><g><rect x="618" y="317" width="54" height="24" rx="3" ry="3" fill="#FFFFFF" filter="url(#fill-shadow)"></rect><g><rect x="618" y="317" width="54" height="24" rx="3" ry="3" fill="#207868"></rect><g class="content"><g><g><g><g><g></g><text fill="#FFFFFF" hover-props="{}"><tspan x="626.94091796875" y="334.5" font-family="DIN Next, system-ui, sans-serif" font-size="15" font-style="normal" font-weight="normal">pid13</tspan></text></g></g></g></g></g></g></g><g><rect x="528" y="353" width="54" height="24" rx="3" ry="3" fill="#FFFFFF" filter="url(#fill-shadow)"></rect><g><rect x="528" y="353" width="54" height="24" rx="3" ry="3" fill="#207868"></rect><g class="content"><g><g><g><g><g></g><text fill="#FFFFFF" hover-props="{}"><tspan x="536.94091796875" y="370.5" font-family="DIN Next, system-ui, sans-serif" font-size="15" font-style="normal" font-weight="normal">pid14</tspan></text></g></g></g></g></g></g></g><g><rect x="594" y="353" width="54" height="24" rx="3" ry="3" fill="#FFFFFF" filter="url(#fill-shadow)"></rect><g><rect x="594" y="353" width="54" height="24" rx="3" ry="3" fill="#207868"></rect><g class="content"><g><g><g><g><g></g><text fill="#FFFFFF" hover-props="{}"><tspan x="602.94091796875" y="370.5" font-family="DIN Next, system-ui, sans-serif" font-size="15" font-style="normal" font-weight="normal">pid15</tspan></text></g></g></g></g></g></g></g><g><g class="content"><g><g><g><g id="12/SJRV/-1"><g><g></g><text fill="#293845" hover-props="{}"><tspan x="547.34912109375" y="113.5" font-family="DIN Next, system-ui, sans-serif" font-size="18" font-style="normal" font-weight="bold">Database</tspan></text></g></g></g></g></g></g></g></g></g><g><rect x="252" y="228" width="108" height="72" rx="3" ry="3" fill="#FFFFFF" filter="url(#fill-shadow)"></rect><g><rect x="252" y="228" width="108" height="72" rx="3" ry="3" fill="#6558F5"></rect><g class="content"><g><g><g><g><g></g><text fill="#FFFFFF" hover-props="{}"><tspan x="289.35107421875" y="259.5" font-family="DIN Next, system-ui, sans-serif" font-size="15" font-style="normal" font-weight="normal">Node</tspan></text></g></g></g></g><g><g><g><g><g></g><text fill="#FFFFFF" hover-props="{}"><tspan x="274.65283203125" y="279.5" font-family="DIN Next, system-ui, sans-serif" font-size="15" font-style="normal" font-weight="normal">process 2</tspan></text></g></g></g></g></g></g></g><g><g><line stroke="#788896" fill="none" stroke-linejoin="round" y1="240" stroke-linecap="round" stroke-width="4" x1="369" y2="240" x2="480"></line><polygon points="476.9079,234.45905 484,240 476.9079,245.54095" fill="#788896" stroke="#788896" stroke-width="2" stroke-linecap="round" stroke-linejoin="round"></polygon></g></g><g><g><line stroke="#788896" fill="none" stroke-linejoin="round" y1="252" stroke-linecap="round" stroke-width="4" x1="369" y2="252" x2="480"></line><polygon points="476.9079,246.45905 484,252 476.9079,257.54095" fill="#788896" stroke="#788896" stroke-width="2" stroke-linecap="round" stroke-linejoin="round"></polygon></g></g><g><g><line stroke="#788896" fill="none" stroke-linejoin="round" y1="264" stroke-linecap="round" stroke-width="4" x1="368.9999999999999" y2="264" x2="479.9999999999999"></line><polygon points="476.9079,258.45905 484,264 476.9079,269.54095" fill="#788896" stroke="#788896" stroke-width="2" stroke-linecap="round" stroke-linejoin="round"></polygon></g></g><g><g><line stroke="#788896" fill="none" stroke-linejoin="round" y1="276" stroke-linecap="round" stroke-width="4" x1="368.9999999999999" y2="276" x2="479.9999999999999"></line><polygon points="476.9079,270.45905 484,276 476.9079,281.54095" fill="#788896" stroke="#788896" stroke-width="2" stroke-linecap="round" stroke-linejoin="round"></polygon></g></g><g><g><line stroke="#788896" fill="none" stroke-linejoin="round" y1="288" stroke-linecap="round" stroke-width="4" x1="369" y2="288" x2="480"></line><polygon points="476.9079,282.45905 484,288 476.9079,293.54095" fill="#788896" stroke="#788896" stroke-width="2" stroke-linecap="round" stroke-linejoin="round"></polygon></g></g><g><rect x="252" y="144" width="108" height="72" rx="3" ry="3" fill="#FFFFFF" filter="url(#fill-shadow)"></rect><g><rect x="252" y="144" width="108" height="72" rx="3" ry="3" fill="#6558F5"></rect><g class="content"><g><g><g><g><g></g><text fill="#FFFFFF" hover-props="{}"><tspan x="289.35107421875" y="175.5" font-family="DIN Next, system-ui, sans-serif" font-size="15" font-style="normal" font-weight="normal">Node</tspan></text></g></g></g></g><g><g><g><g><g></g><text fill="#FFFFFF" hover-props="{}"><tspan x="274.65283203125" y="195.5" font-family="DIN Next, system-ui, sans-serif" font-size="15" font-style="normal" font-weight="normal">process 1</tspan></text></g></g></g></g></g></g></g><g><g><line stroke="#788896" fill="none" stroke-linejoin="round" y1="156" stroke-linecap="round" stroke-width="4" x1="369" y2="156" x2="480"></line><polygon points="476.9079,150.45905 484,156 476.9079,161.54095" fill="#788896" stroke="#788896" stroke-width="2" stroke-linecap="round" stroke-linejoin="round"></polygon></g></g><g><g><line stroke="#788896" fill="none" stroke-linejoin="round" y1="168" stroke-linecap="round" stroke-width="4" x1="369" y2="168" x2="480"></line><polygon points="476.9079,162.45905 484,168 476.9079,173.54095" fill="#788896" stroke="#788896" stroke-width="2" stroke-linecap="round" stroke-linejoin="round"></polygon></g></g><g><g><line stroke="#788896" fill="none" stroke-linejoin="round" y1="180" stroke-linecap="round" stroke-width="4" x1="368.9999999999999" y2="180" x2="479.9999999999999"></line><polygon points="476.9079,174.45905 484,180 476.9079,185.54095" fill="#788896" stroke="#788896" stroke-width="2" stroke-linecap="round" stroke-linejoin="round"></polygon></g></g><g><g><line stroke="#788896" fill="none" stroke-linejoin="round" y1="192" stroke-linecap="round" stroke-width="4" x1="368.9999999999999" y2="192" x2="479.9999999999999"></line><polygon points="476.9079,186.45905 484,192 476.9079,197.54095" fill="#788896" stroke="#788896" stroke-width="2" stroke-linecap="round" stroke-linejoin="round"></polygon></g></g><g><g><line stroke="#788896" fill="none" stroke-linejoin="round" y1="204" stroke-linecap="round" stroke-width="4" x1="369" y2="204" x2="480"></line><polygon points="476.9079,198.45905 484,204 476.9079,209.54095" fill="#788896" stroke="#788896" stroke-width="2" stroke-linecap="round" stroke-linejoin="round"></polygon></g></g><g><rect x="252" y="312" width="108" height="72" rx="3" ry="3" fill="#FFFFFF" filter="url(#fill-shadow)"></rect><g><rect x="252" y="312" width="108" height="72" rx="3" ry="3" fill="#6558F5"></rect><g class="content"><g><g><g><g><g></g><text fill="#FFFFFF" hover-props="{}"><tspan x="289.35107421875" y="343.5" font-family="DIN Next, system-ui, sans-serif" font-size="15" font-style="normal" font-weight="normal">Node</tspan></text></g></g></g></g><g><g><g><g><g></g><text fill="#FFFFFF" hover-props="{}"><tspan x="274.65283203125" y="363.5" font-family="DIN Next, system-ui, sans-serif" font-size="15" font-style="normal" font-weight="normal">process 3</tspan></text></g></g></g></g></g></g></g><g><g><line stroke="#788896" fill="none" stroke-linejoin="round" y1="324" stroke-linecap="round" stroke-width="4" x1="369" y2="324" x2="480"></line><polygon points="476.9079,318.45905 484,324 476.9079,329.54095" fill="#788896" stroke="#788896" stroke-width="2" stroke-linecap="round" stroke-linejoin="round"></polygon></g></g><g><g><line stroke="#788896" fill="none" stroke-linejoin="round" y1="336" stroke-linecap="round" stroke-width="4" x1="369" y2="336" x2="480"></line><polygon points="476.9079,330.45905 484,336 476.9079,341.54095" fill="#788896" stroke="#788896" stroke-width="2" stroke-linecap="round" stroke-linejoin="round"></polygon></g></g><g><g><line stroke="#788896" fill="none" stroke-linejoin="round" y1="348" stroke-linecap="round" stroke-width="4" x1="368.9999999999999" y2="348" x2="479.9999999999999"></line><polygon points="476.9079,342.45905 484,348 476.9079,353.54095" fill="#788896" stroke="#788896" stroke-width="2" stroke-linecap="round" stroke-linejoin="round"></polygon></g></g><g><g><line stroke="#788896" fill="none" stroke-linejoin="round" y1="360" stroke-linecap="round" stroke-width="4" x1="368.9999999999999" y2="360" x2="479.9999999999999"></line><polygon points="476.9079,354.45905 484,360 476.9079,365.54095" fill="#788896" stroke="#788896" stroke-width="2" stroke-linecap="round" stroke-linejoin="round"></polygon></g></g><g><g><line stroke="#788896" fill="none" stroke-linejoin="round" y1="372" stroke-linecap="round" stroke-width="4" x1="369" y2="372" x2="480"></line><polygon points="476.9079,366.45905 484,372 476.9079,377.54095" fill="#788896" stroke="#788896" stroke-width="2" stroke-linecap="round" stroke-linejoin="round"></polygon></g></g></g></g></svg>