<svg xmlns="http://www.w3.org/2000/svg" xmlns:xlink="http://www.w3.org/1999/xlink" version="1.1" viewBox="228 72 480 348" width="480px" height="348px"><defs><style>* {-webkit-font-smoothing: auto; -moz-osx-font-smoothing: auto;}@media print { svg { width: 100%; height: 100%; } }</style><g><filter id="white-fill-shadow" y="-50%" height="200%"><feDropShadow dx="0" dy="2" stdDeviation="6" flood-opacity="0.03" flood-color="#000000"></feDropShadow></filter><filter id="light-gray-fill-shadow" y="-50%" height="200%"><feDropShadow dx="0" dy="2" stdDeviation="6" flood-opacity="0.09" flood-color="#000000"></feDropShadow></filter><filter id="yellow-fill-shadow" y="-50%" height="200%"><feDropShadow dx="0" dy="2" stdDeviation="6" flood-opacity="0.12" flood-color="#000000"></feDropShadow></filter><filter id="fill-shadow" y="-50%" height="200%"><feDropShadow dx="0" dy="2" stdDeviation="6" flood-opacity="0.16" flood-color="#000000"></feDropShadow></filter><filter id="frame-shadow" y="-50%" height="200%"><feDropShadow dx="0" dy="3" stdDeviation="8" flood-opacity="0.06" flood-color="#000000"></feDropShadow></filter><filter id="button-shadow" y="-50%" height="200%"><feDropShadow dx="0" dy="2" stdDeviation="6" flood-opacity="0.03" flood-color="#000000"></feDropShadow></filter><filter id="button-hover-shadow" y="-50%" height="200%"><feDropShadow dx="0" dy="2" stdDeviation="6" flood-opacity="0.08" flood-color="#000000"></feDropShadow></filter><filter id="badge-shadow" y="-50%" height="200%"><feDropShadow dx="0" dy="2" stdDeviation="6" flood-opacity="0.08" flood-color="#000000"></feDropShadow></filter></g></defs><g><rect x="228" y="72" width="480" height="348" rx="3" ry="3" fill="#FFFFFF" filter="url(#white-fill-shadow)"></rect><g><rect x="228" y="72" width="480" height="348" rx="3" ry="3" fill="#FFFFFF"></rect></g><g><g><path d="M684,384c0,13.25482 -42.98074,24 -96,24c-53.01926,0 -96,-10.74518 -96,-24c0,-12.14214 0,-233.64567 0,-270.74846c9.15504,11.84195 48.65715,20.74846 96,20.74846c47.34285,0 86.84496,-8.90651 96,-20.74846c0,38.69737 0,258.33424 0,270.74846zM492,108c0,-13.25482 42.98074,-24 96,-24c53.01926,0 96,10.74518 96,24c0,13.25482 -42.98074,24 -96,24c-53.01926,0 -96,-10.74518 -96,-24z" fill="#FFFFFF" filter="url(#fill-shadow)"></path><g><path d="M684,384c0,13.25482 -42.98074,24 -96,24c-53.01926,0 -96,-10.74518 -96,-24c0,-12.14214 0,-233.64567 0,-270.74846c9.15504,11.84195 48.65715,20.74846 96,20.74846c47.34285,0 86.84496,-8.90651 96,-20.74846c0,38.69737 0,258.33424 0,270.74846zM492,108c0,-13.25482 42.98074,-24 96,-24c53.01926,0 96,10.74518 96,24c0,13.25482 -42.98074,24 -96,24c-53.01926,0 -96,-10.74518 -96,-24z" fill="#E8833A"></path></g><g><g><rect x="504" y="149" width="48" height="24" rx="3" ry="3" fill="#FFFFFF" filter="url(#fill-shadow)"></rect><g><rect x="504" y="149" width="48" height="24" rx="3" ry="3" fill="#207868"></rect><g class="content"><g><g><g><g><g></g><text fill="#FFFFFF" hover-props="{}"><tspan x="514.005859375" y="166.5" font-family="Arial, system-ui, sans-serif" font-size="15" font-style="normal" font-weight="normal">pid1</tspan></text></g></g></g></g></g></g></g><g><rect x="534" y="184" width="48" height="24" rx="3" ry="3" fill="#FFFFFF" filter="url(#fill-shadow)"></rect><g><rect x="534" y="184" width="48" height="24" rx="3" ry="3" fill="#207868"></rect><g class="content"><g><g><g><g><g></g><text fill="#FFFFFF" hover-props="{}"><tspan x="544.005859375" y="201.5" font-family="Arial, system-ui, sans-serif" font-size="15" font-style="normal" font-weight="normal">pid2</tspan></text></g></g></g></g></g></g></g><g><rect x="564" y="149" width="48" height="24" rx="3" ry="3" fill="#FFFFFF" filter="url(#fill-shadow)"></rect><g><rect x="564" y="149" width="48" height="24" rx="3" ry="3" fill="#207868"></rect><g class="content"><g><g><g><g><g></g><text fill="#FFFFFF" hover-props="{}"><tspan x="574.005859375" y="166.5" font-family="Arial, system-ui, sans-serif" font-size="15" font-style="normal" font-weight="normal">pid3</tspan></text></g></g></g></g></g></g></g><g><rect x="594" y="184" width="48" height="24" rx="3" ry="3" fill="#FFFFFF" filter="url(#fill-shadow)"></rect><g><rect x="594" y="184" width="48" height="24" rx="3" ry="3" fill="#207868"></rect><g class="content"><g><g><g><g><g></g><text fill="#FFFFFF" hover-props="{}"><tspan x="604.005859375" y="201.5" font-family="Arial, system-ui, sans-serif" font-size="15" font-style="normal" font-weight="normal">pid4</tspan></text></g></g></g></g></g></g></g><g><rect x="624" y="149" width="48" height="24" rx="3" ry="3" fill="#FFFFFF" filter="url(#fill-shadow)"></rect><g><rect x="624" y="149" width="48" height="24" rx="3" ry="3" fill="#207868"></rect><g class="content"><g><g><g><g><g></g><text fill="#FFFFFF" hover-props="{}"><tspan x="634.005859375" y="166.5" font-family="Arial, system-ui, sans-serif" font-size="15" font-style="normal" font-weight="normal">pid5</tspan></text></g></g></g></g></g></g></g><g><rect x="504" y="233" width="48" height="24" rx="3" ry="3" fill="#FFFFFF" filter="url(#fill-shadow)"></rect><g><rect x="504" y="233" width="48" height="24" rx="3" ry="3" fill="#207868"></rect><g class="content"><g><g><g><g><g></g><text fill="#FFFFFF" hover-props="{}"><tspan x="514.005859375" y="250.5" font-family="Arial, system-ui, sans-serif" font-size="15" font-style="normal" font-weight="normal">pid6</tspan></text></g></g></g></g></g></g></g><g><rect x="534" y="269" width="48" height="24" rx="3" ry="3" fill="#FFFFFF" filter="url(#fill-shadow)"></rect><g><rect x="534" y="269" width="48" height="24" rx="3" ry="3" fill="#207868"></rect><g class="content"><g><g><g><g><g></g><text fill="#FFFFFF" hover-props="{}"><tspan x="544.005859375" y="286.5" font-family="Arial, system-ui, sans-serif" font-size="15" font-style="normal" font-weight="normal">pid9</tspan></text></g></g></g></g></g></g></g><g><rect x="564" y="233" width="48" height="24" rx="3" ry="3" fill="#FFFFFF" filter="url(#fill-shadow)"></rect><g><rect x="564" y="233" width="48" height="24" rx="3" ry="3" fill="#207868"></rect><g class="content"><g><g><g><g><g></g><text fill="#FFFFFF" hover-props="{}"><tspan x="574.005859375" y="250.5" font-family="Arial, system-ui, sans-serif" font-size="15" font-style="normal" font-weight="normal">pid7</tspan></text></g></g></g></g></g></g></g><g><rect x="594" y="269" width="54" height="24" rx="3" ry="3" fill="#FFFFFF" filter="url(#fill-shadow)"></rect><g><rect x="594" y="269" width="54" height="24" rx="3" ry="3" fill="#207868"></rect><g class="content"><g><g><g><g><g></g><text fill="#FFFFFF" hover-props="{}"><tspan x="602.94091796875" y="286.5" font-family="Arial, system-ui, sans-serif" font-size="15" font-style="normal" font-weight="normal">pid10</tspan></text></g></g></g></g></g></g></g><g><rect x="624" y="233" width="48" height="24" rx="3" ry="3" fill="#FFFFFF" filter="url(#fill-shadow)"></rect><g><rect x="624" y="233" width="48" height="24" rx="3" ry="3" fill="#207868"></rect><g class="content"><g><g><g><g><g></g><text fill="#FFFFFF" hover-props="{}"><tspan x="634.005859375" y="250.5" font-family="Arial, system-ui, sans-serif" font-size="15" font-style="normal" font-weight="normal">pid8</tspan></text></g></g></g></g></g></g></g><g><rect x="504" y="317" width="54" height="24" rx="3" ry="3" fill="#FFFFFF" filter="url(#fill-shadow)"></rect><g><rect x="504" y="317" width="54" height="24" rx="3" ry="3" fill="#207868"></rect><g class="content"><g><g><g><g><g></g><text fill="#FFFFFF" hover-props="{}"><tspan x="512.94091796875" y="334.5" font-family="Arial, system-ui, sans-serif" font-size="15" font-style="normal" font-weight="normal">pid11</tspan></text></g></g></g></g></g></g></g><g><rect x="561" y="317" width="54" height="24" rx="3" ry="3" fill="#FFFFFF" filter="url(#fill-shadow)"></rect><g><rect x="561" y="317" width="54" height="24" rx="3" ry="3" fill="#207868"></rect><g class="content"><g><g><g><g><g></g><text fill="#FFFFFF" hover-props="{}"><tspan x="569.94091796875" y="334.5" font-family="Arial, system-ui, sans-serif" font-size="15" font-style="normal" font-weight="normal">pid12</tspan></text></g></g></g></g></g></g></g><g><rect x="618" y="317" width="54" height="24" rx="3" ry="3" fill="#FFFFFF" filter="url(#fill-shadow)"></rect><g><rect x="618" y="317" width="54" height="24" rx="3" ry="3" fill="#207868"></rect><g class="content"><g><g><g><g><g></g><text fill="#FFFFFF" hover-props="{}"><tspan x="626.94091796875" y="334.5" font-family="Arial, system-ui, sans-serif" font-size="15" font-style="normal" font-weight="normal">pid13</tspan></text></g></g></g></g></g></g></g><g><rect x="528" y="353" width="54" height="24" rx="3" ry="3" fill="#FFFFFF" filter="url(#fill-shadow)"></rect><g><rect x="528" y="353" width="54" height="24" rx="3" ry="3" fill="#207868"></rect><g class="content"><g><g><g><g><g></g><text fill="#FFFFFF" hover-props="{}"><tspan x="536.94091796875" y="370.5" font-family="Arial, system-ui, sans-serif" font-size="15" font-style="normal" font-weight="normal">pid14</tspan></text></g></g></g></g></g></g></g><g><rect x="594" y="353" width="54" height="24" rx="3" ry="3" fill="#FFFFFF" filter="url(#fill-shadow)"></rect><g><rect x="594" y="353" width="54" height="24" rx="3" ry="3" fill="#207868"></rect><g class="content"><g><g><g><g><g></g><text fill="#FFFFFF" hover-props="{}"><tspan x="602.94091796875" y="370.5" font-family="Arial, system-ui, sans-serif" font-size="15" font-style="normal" font-weight="normal">pid15</tspan></text></g></g></g></g></g></g></g><g><g class="content"><g><g><g><g id="12/SJRV/-1"><g><g></g><text fill="#293845" hover-props="{}"><tspan x="547.34912109375" y="113.5" font-family="Arial, system-ui, sans-serif" font-size="18" font-style="normal" font-weight="bold">Database</tspan></text></g></g></g></g></g></g></g></g></g><g><rect x="252" y="228" width="108" height="72" rx="3" ry="3" fill="#FFFFFF" filter="url(#fill-shadow)"></rect><g><rect x="252" y="228" width="108" height="72" rx="3" ry="3" fill="#6558F5"></rect><g class="content"><g><g><g><g><g></g><text fill="#FFFFFF" hover-props="{}"><tspan x="289.35107421875" y="259.5" font-family="Arial, system-ui, sans-serif" font-size="15" font-style="normal" font-weight="normal">Node</tspan></text></g></g></g></g><g><g><g><g><g></g><text fill="#FFFFFF" hover-props="{}"><tspan x="274.65283203125" y="279.5" font-family="Arial, system-ui, sans-serif" font-size="15" font-style="normal" font-weight="normal">process 2</tspan></text></g></g></g></g></g></g></g><g><g><line stroke="#788896" fill="none" stroke-linejoin="round" y1="240" stroke-linecap="round" stroke-width="4" x1="369" y2="240" x2="480"></line><polygon points="476.9079,234.45905 484,240 476.9079,245.54095" fill="#788896" stroke="#788896" stroke-width="2" stroke-linecap="round" stroke-linejoin="round"></polygon></g></g><g><g><line stroke="#788896" fill="none" stroke-linejoin="round" y1="252" stroke-linecap="round" stroke-width="4" x1="369" y2="252" x2="480"></line><polygon points="476.9079,246.45905 484,252 476.9079,257.54095" fill="#788896" stroke="#788896" stroke-width="2" stroke-linecap="round" stroke-linejoin="round"></polygon></g></g><g><g><line stroke="#788896" fill="none" stroke-linejoin="round" y1="264" stroke-linecap="round" stroke-width="4" x1="368.9999999999999" y2="264" x2="479.9999999999999"></line><polygon points="476.9079,258.45905 484,264 476.9079,269.54095" fill="#788896" stroke="#788896" stroke-width="2" stroke-linecap="round" stroke-linejoin="round"></polygon></g></g><g><g><line stroke="#788896" fill="none" stroke-linejoin="round" y1="276" stroke-linecap="round" stroke-width="4" x1="368.9999999999999" y2="276" x2="479.9999999999999"></line><polygon points="476.9079,270.45905 484,276 476.9079,281.54095" fill="#788896" stroke="#788896" stroke-width="2" stroke-linecap="round" stroke-linejoin="round"></polygon></g></g><g><g><line stroke="#788896" fill="none" stroke-linejoin="round" y1="288" stroke-linecap="round" stroke-width="4" x1="369" y2="288" x2="480"></line><polygon points="476.9079,282.45905 484,288 476.9079,293.54095" fill="#788896" stroke="#788896" stroke-width="2" stroke-linecap="round" stroke-linejoin="round"></polygon></g></g><g><rect x="252" y="144" width="108" height="72" rx="3" ry="3" fill="#FFFFFF" filter="url(#fill-shadow)"></rect><g><rect x="252" y="144" width="108" height="72" rx="3" ry="3" fill="#6558F5"></rect><g class="content"><g><g><g><g><g></g><text fill="#FFFFFF" hover-props="{}"><tspan x="289.35107421875" y="175.5" font-family="Arial, system-ui, sans-serif" font-size="15" font-style="normal" font-weight="normal">Node</tspan></text></g></g></g></g><g><g><g><g><g></g><text fill="#FFFFFF" hover-props="{}"><tspan x="274.65283203125" y="195.5" font-family="Arial, system-ui, sans-serif" font-size="15" font-style="normal" font-weight="normal">process 1</tspan></text></g></g></g></g></g></g></g><g><g><line stroke="#788896" fill="none" stroke-linejoin="round" y1="156" stroke-linecap="round" stroke-width="4" x1="369" y2="156" x2="480"></line><polygon points="476.9079,150.45905 484,156 476.9079,161.54095" fill="#788896" stroke="#788896" stroke-width="2" stroke-linecap="round" stroke-linejoin="round"></polygon></g></g><g><g><line stroke="#788896" fill="none" stroke-linejoin="round" y1="168" stroke-linecap="round" stroke-width="4" x1="369" y2="168" x2="480"></line><polygon points="476.9079,162.45905 484,168 476.9079,173.54095" fill="#788896" stroke="#788896" stroke-width="2" stroke-linecap="round" stroke-linejoin="round"></polygon></g></g><g><g><line stroke="#788896" fill="none" stroke-linejoin="round" y1="180" stroke-linecap="round" stroke-width="4" x1="368.9999999999999" y2="180" x2="479.9999999999999"></line><polygon points="476.9079,174.45905 484,180 476.9079,185.54095" fill="#788896" stroke="#788896" stroke-width="2" stroke-linecap="round" stroke-linejoin="round"></polygon></g></g><g><g><line stroke="#788896" fill="none" stroke-linejoin="round" y1="192" stroke-linecap="round" stroke-width="4" x1="368.9999999999999" y2="192" x2="479.9999999999999"></line><polygon points="476.9079,186.45905 484,192 476.9079,197.54095" fill="#788896" stroke="#788896" stroke-width="2" stroke-linecap="round" stroke-linejoin="round"></polygon></g></g><g><g><line stroke="#788896" fill="none" stroke-linejoin="round" y1="204" stroke-linecap="round" stroke-width="4" x1="369" y2="204" x2="480"></line><polygon points="476.9079,198.45905 484,204 476.9079,209.54095" fill="#788896" stroke="#788896" stroke-width="2" stroke-linecap="round" stroke-linejoin="round"></polygon></g></g><g><rect x="252" y="312" width="108" height="72" rx="3" ry="3" fill="#FFFFFF" filter="url(#fill-shadow)"></rect><g><rect x="252" y="312" width="108" height="72" rx="3" ry="3" fill="#6558F5"></rect><g class="content"><g><g><g><g><g></g><text fill="#FFFFFF" hover-props="{}"><tspan x="289.35107421875" y="343.5" font-family="Arial, system-ui, sans-serif" font-size="15" font-style="normal" font-weight="normal">Node</tspan></text></g></g></g></g><g><g><g><g><g></g><text fill="#FFFFFF" hover-props="{}"><tspan x="274.65283203125" y="363.5" font-family="Arial, system-ui, sans-serif" font-size="15" font-style="normal" font-weight="normal">process 3</tspan></text></g></g></g></g></g></g></g><g><g><line stroke="#788896" fill="none" stroke-linejoin="round" y1="324" stroke-linecap="round" stroke-width="4" x1="369" y2="324" x2="480"></line><polygon points="476.9079,318.45905 484,324 476.9079,329.54095" fill="#788896" stroke="#788896" stroke-width="2" stroke-linecap="round" stroke-linejoin="round"></polygon></g></g><g><g><line stroke="#788896" fill="none" stroke-linejoin="round" y1="336" stroke-linecap="round" stroke-width="4" x1="369" y2="336" x2="480"></line><polygon points="476.9079,330.45905 484,336 476.9079,341.54095" fill="#788896" stroke="#788896" stroke-width="2" stroke-linecap="round" stroke-linejoin="round"></polygon></g></g><g><g><line stroke="#788896" fill="none" stroke-linejoin="round" y1="348" stroke-linecap="round" stroke-width="4" x1="368.9999999999999" y2="348" x2="479.9999999999999"></line><polygon points="476.9079,342.45905 484,348 476.9079,353.54095" fill="#788896" stroke="#788896" stroke-width="2" stroke-linecap="round" stroke-linejoin="round"></polygon></g></g><g><g><line stroke="#788896" fill="none" stroke-linejoin="round" y1="360" stroke-linecap="round" stroke-width="4" x1="368.9999999999999" y2="360" x2="479.9999999999999"></line><polygon points="476.9079,354.45905 484,360 476.9079,365.54095" fill="#788896" stroke="#788896" stroke-width="2" stroke-linecap="round" stroke-linejoin="round"></polygon></g></g><g><g><line stroke="#788896" fill="none" stroke-linejoin="round" y1="372" stroke-linecap="round" stroke-width="4" x1="369" y2="372" x2="480"></line><polygon points="476.9079,366.45905 484,372 476.9079,377.54095" fill="#788896" stroke="#788896" stroke-width="2" stroke-linecap="round" stroke-linejoin="round"></polygon></g></g></g></g></svg>