<svg xmlns="http://www.w3.org/2000/svg" xmlns:xlink="http://www.w3.org/1999/xlink" version="1.1" viewBox="420 -84 612 1320" width="612px" height="1320px"><defs><style>* {-webkit-font-smoothing: auto; -moz-osx-font-smoothing: auto;}@media print { svg { width: 100%; height: 100%; } }</style><g><filter id="white-fill-shadow" y="-50%" height="200%"><feDropShadow dx="0" dy="2" stdDeviation="6" flood-opacity="0.03" flood-color="#000000"></feDropShadow></filter><filter id="light-gray-fill-shadow" y="-50%" height="200%"><feDropShadow dx="0" dy="2" stdDeviation="6" flood-opacity="0.09" flood-color="#000000"></feDropShadow></filter><filter id="yellow-fill-shadow" y="-50%" height="200%"><feDropShadow dx="0" dy="2" stdDeviation="6" flood-opacity="0.12" flood-color="#000000"></feDropShadow></filter><filter id="fill-shadow" y="-50%" height="200%"><feDropShadow dx="0" dy="2" stdDeviation="6" flood-opacity="0.16" flood-color="#000000"></feDropShadow></filter><filter id="frame-shadow" y="-50%" height="200%"><feDropShadow dx="0" dy="3" stdDeviation="8" flood-opacity="0.06" flood-color="#000000"></feDropShadow></filter><filter id="button-shadow" y="-50%" height="200%"><feDropShadow dx="0" dy="2" stdDeviation="6" flood-opacity="0.03" flood-color="#000000"></feDropShadow></filter><filter id="button-hover-shadow" y="-50%" height="200%"><feDropShadow dx="0" dy="2" stdDeviation="6" flood-opacity="0.08" flood-color="#000000"></feDropShadow></filter><filter id="badge-shadow" y="-50%" height="200%"><feDropShadow dx="0" dy="2" stdDeviation="6" flood-opacity="0.08" flood-color="#000000"></feDropShadow></filter></g></defs><g><rect x="420" y="-84" width="612" height="1320" rx="3" ry="3" fill="#FFFFFF" filter="url(#white-fill-shadow)"></rect><g><rect x="420" y="-84" width="612" height="1320" rx="3" ry="3" fill="#FFFFFF"></rect></g><g><g><rect x="528" y="36" width="420" height="456" rx="3" ry="3" fill="#FFFFFF" filter="url(#light-gray-fill-shadow)"></rect><g><rect x="528" y="36" width="420" height="456" rx="3" ry="3" fill="#C3CFD9"></rect><g class="content"><g><g><g><g id="12-1"><g><g></g><text fill="#293845" hover-props="{}"><tspan x="687.22509765625" y="69.5" font-family="Arial, system-ui, sans-serif" font-size="21" font-style="normal" font-weight="bold">Microtasks</tspan></text></g></g></g></g></g></g></g><g><g><rect x="552" y="144" width="84" height="24" rx="3" ry="3" fill="#FFFFFF" filter="url(#fill-shadow)"></rect><g><rect x="552" y="144" width="84" height="24" rx="3" ry="3" fill="#1AAE9F"></rect><g class="content"><g><g><g><g><g></g><text fill="#FFFFFF" hover-props="{}"><tspan x="565.5185546875" y="161.5" font-family="Arial, system-ui, sans-serif" font-size="15" font-style="normal" font-weight="normal">insert(...)</tspan></text></g></g></g></g></g></g></g><g><rect x="648" y="144" width="84" height="24" rx="3" ry="3" fill="#FFFFFF" filter="url(#fill-shadow)"></rect><g><rect x="648" y="144" width="84" height="24" rx="3" ry="3" fill="#207868"></rect><g class="content"><g><g><g><g><g></g><text fill="#FFFFFF" hover-props="{}"><tspan x="661.5185546875" y="161.5" font-family="Arial, system-ui, sans-serif" font-size="15" font-style="normal" font-weight="normal">insert(...)</tspan></text></g></g></g></g></g></g></g><g><rect x="840" y="144" width="84" height="24" rx="3" ry="3" fill="#FFFFFF" filter="url(#fill-shadow)"></rect><g><rect x="840" y="144" width="84" height="24" rx="3" ry="3" fill="#E8833A"></rect><g class="content"><g><g><g><g><g></g><text fill="#FFFFFF" hover-props="{}"><tspan x="851.53759765625" y="161.5" font-family="Arial, system-ui, sans-serif" font-size="15" font-style="normal" font-weight="normal">loadX(12)</tspan></text></g></g></g></g></g></g></g><g><g><line x1="528" y1="192" x2="948" y2="192" stroke="#9EADBA" stroke-width="2"></line></g></g><g><g><rect x="552" y="216" width="372" height="252" rx="3" ry="3" fill="#f2f5f7"></rect><rect y="216" rx="3" stroke="#C3CFD9" fill="none" stroke-linejoin="round" width="372" stroke-linecap="round" stroke-width="2" x="552" ry="3" height="252"></rect><g class="content"><g><g><g><g><g></g><text fill="#293845" hover-props="{}"><tspan x="676.5595703125" y="246.5" font-family="Arial, system-ui, sans-serif" font-size="18" font-style="normal" font-weight="normal">Loader/Batcher</tspan></text></g></g></g></g></g></g><g><g><rect x="576" y="276" width="324" height="72" rx="3" ry="3" fill="#FFFFFF" filter="url(#fill-shadow)"></rect><g><rect x="576" y="276" width="324" height="72" rx="3" ry="3" fill="#E8833A"></rect><g class="content"><g><g><g><g><g></g><text fill="#FFFFFF" hover-props="{}"><tspan x="666.55322265625" y="307.5" font-family="Arial, system-ui, sans-serif" font-size="15" font-style="normal" font-weight="normal">SELECT * FROM topics</tspan></text></g></g></g></g><g><g><g><g><g></g><text fill="#FFFFFF" hover-props="{}"><tspan x="671.673828125" y="327.5" font-family="Arial, system-ui, sans-serif" font-size="15" font-style="normal" font-weight="normal">WHERE id IN (11, 12)</tspan></text></g></g></g></g></g></g></g><g><rect x="576" y="372" width="324" height="72" rx="3" ry="3" fill="#FFFFFF" filter="url(#fill-shadow)"></rect><g><rect x="576" y="372" width="324" height="72" rx="3" ry="3" fill="#207868"></rect><g class="content"><g><g><g><g><g></g><text fill="#FFFFFF" hover-props="{}"><tspan x="661.0107421875" y="403.5" font-family="Arial, system-ui, sans-serif" font-size="15" font-style="normal" font-weight="normal">INSERT INTO comments</tspan></text></g></g></g></g><g><g><g><g><g></g><text fill="#FFFFFF" hover-props="{}"><tspan x="687.83154296875" y="423.5" font-family="Arial, system-ui, sans-serif" font-size="15" font-style="normal" font-weight="normal">VALUES (...), (...)</tspan></text></g></g></g></g></g></g></g></g></g><g><g><path d="M933,156h36c8.28426,0 15,6.71574 15,15v64M984,259v74c0,8.28426 -6.71574,15 -15,15h-33" fill="none" stroke="#4B5C6B" stroke-linecap="round" stroke-linejoin="round" stroke-width="4"></path><polygon points="939.0921,353.54095 932,348 939.0921,342.45905" fill="#4B5C6B" stroke="#4B5C6B" stroke-width="2" stroke-linecap="round" stroke-linejoin="round"></polygon><g class="content"><g><g><g><g><g></g><text fill="#293845" hover-props="{}"><tspan x="956.8828125" y="252.5" font-family="Arial, system-ui, sans-serif" font-size="15" font-style="normal" font-weight="normal">nextTick</tspan></text></g></g></g></g></g></g></g><g><rect x="648" y="96" width="84" height="24" rx="3" ry="3" fill="#FFFFFF" filter="url(#fill-shadow)"></rect><g><rect x="648" y="96" width="84" height="24" rx="3" ry="3" fill="#6558F5"></rect><g class="content"><g><g><g><g><g></g><text fill="#FFFFFF" hover-props="{}"><tspan x="669.58740234375" y="113.5" font-family="Arial, system-ui, sans-serif" font-size="15" font-style="normal" font-weight="normal">.then()</tspan></text></g></g></g></g></g></g></g><g><rect x="792" y="96" width="84" height="24" rx="3" ry="3" fill="#FFFFFF" filter="url(#fill-shadow)"></rect><g><rect x="792" y="96" width="84" height="24" rx="3" ry="3" fill="#6558F5"></rect><g class="content"><g><g><g><g><g></g><text fill="#FFFFFF" hover-props="{}"><tspan x="813.58740234375" y="113.5" font-family="Arial, system-ui, sans-serif" font-size="15" font-style="normal" font-weight="normal">.then()</tspan></text></g></g></g></g></g></g></g><g><g><line stroke="#4B5C6B" fill="none" stroke-linejoin="round" y1="124.0249223594996" stroke-linecap="round" stroke-width="4" x1="663.9501552810008" y2="138.6334368540003" x2="634.7331262919994"></line><polygon points="639.97677,142.20659 631.15542,140.42229 635.02079,132.29463" fill="#4B5C6B" stroke="#4B5C6B" stroke-width="2" stroke-linecap="round" stroke-linejoin="round"></polygon></g></g><g><g><line stroke="#4B5C6B" fill="none" stroke-linejoin="round" y1="126.99999999999999" stroke-linecap="round" stroke-width="4" x1="695.9999999999999" y2="133.99999999999997" x2="696"></line><polygon points="701.54095,130.9079 696,138 690.45905,130.9079" fill="#4B5C6B" stroke="#4B5C6B" stroke-width="2" stroke-linecap="round" stroke-linejoin="round"></polygon></g></g><g><g><line stroke="#4B5C6B" fill="none" stroke-linejoin="round" y1="125.40000000000002" stroke-linecap="round" stroke-width="4" x1="863.1999999999998" y2="136.79999999999976" x2="878.3999999999996"></line><polygon points="879.25089,130.51198 881.6,139.2 872.60175,139.3775" fill="#4B5C6B" stroke="#4B5C6B" stroke-width="2" stroke-linecap="round" stroke-linejoin="round"></polygon></g></g><g><rect x="744" y="144" width="84" height="24" rx="3" ry="3" fill="#FFFFFF" filter="url(#yellow-fill-shadow)"></rect><g><rect x="744" y="144" width="84" height="24" rx="3" ry="3" fill="#F7C325"></rect><g class="content"><g><g><g><g><g></g><text fill="#293845" hover-props="{}"><tspan x="755.53759765625" y="161.5" font-family="Arial, system-ui, sans-serif" font-size="15" font-style="normal" font-weight="normal">loadX(12)</tspan></text></g></g></g></g></g></g></g><g><g><line stroke="#4B5C6B" fill="none" stroke-linejoin="round" y1="123.65524619448105" stroke-linecap="round" stroke-width="4" x1="731.2243039375826" y2="139.12633840735862" x2="766.034261416557"></line><polygon points="765.45906,132.80713 769.68951,140.75089 760.95827,142.93391" fill="#4B5C6B" stroke="#4B5C6B" stroke-width="2" stroke-linecap="round" stroke-linejoin="round"></polygon></g></g></g></g><g><rect x="528" y="516" width="420" height="84" rx="3" ry="3" fill="#FFFFFF" filter="url(#fill-shadow)"></rect><g><rect x="528" y="516" width="420" height="84" rx="3" ry="3" fill="#2C88D9"></rect><g class="content"><g><g><g><g id="12-1"><g><g></g><text fill="#FFFFFF" hover-props="{}"><tspan x="689.64990234375" y="549.5" font-family="Arial, system-ui, sans-serif" font-size="21" font-style="normal" font-weight="bold">Macrotask</tspan></text></g></g></g></g></g><g><g><g><g><g></g><text fill="#FFFFFF" hover-props="{}"><tspan x="660.9443359375" y="578" font-family="Arial, system-ui, sans-serif" font-size="21" font-style="normal" font-weight="normal">one I/O response</tspan></text></g></g></g></g></g></g></g><g><g><path d="M567,312h-96c-8.28426,0 -15,6.71574 -15,15v684c0,8.28426 6.71574,15 15,15h45" fill="none" stroke="#4B5C6B" stroke-linecap="round" stroke-linejoin="round" stroke-width="4"></path><polygon points="512.9079,1020.45905 520,1026 512.9079,1031.54095" fill="#4B5C6B" stroke="#4B5C6B" stroke-width="2" stroke-linecap="round" stroke-linejoin="round"></polygon></g></g><g><rect x="528" y="600" width="420" height="360" rx="3" ry="3" fill="#FFFFFF" filter="url(#light-gray-fill-shadow)"></rect><g><rect x="528" y="600" width="420" height="360" rx="3" ry="3" fill="#C3CFD9"></rect><g class="content"><g><g><g><g id="12-1"><g><g></g><text fill="#293845" hover-props="{}"><tspan x="687.22509765625" y="633.5" font-family="Arial, system-ui, sans-serif" font-size="21" font-style="normal" font-weight="bold">Microtasks</tspan></text></g></g></g></g></g></g></g><g><g><rect x="552" y="660" width="84" height="24" rx="3" ry="3" fill="#FFFFFF" filter="url(#fill-shadow)"></rect><g><rect x="552" y="660" width="84" height="24" rx="3" ry="3" fill="#1AAE9F"></rect><g class="content"><g><g><g><g><g></g><text fill="#FFFFFF" hover-props="{}"><tspan x="573.58740234375" y="677.5" font-family="Arial, system-ui, sans-serif" font-size="15" font-style="normal" font-weight="normal">.then()</tspan></text></g></g></g></g></g></g></g><g><rect x="648" y="660" width="84" height="24" rx="3" ry="3" fill="#FFFFFF" filter="url(#fill-shadow)"></rect><g><rect x="648" y="660" width="84" height="24" rx="3" ry="3" fill="#207868"></rect><g class="content"><g><g><g><g><g></g><text fill="#FFFFFF" hover-props="{}"><tspan x="669.58740234375" y="677.5" font-family="Arial, system-ui, sans-serif" font-size="15" font-style="normal" font-weight="normal">.then()</tspan></text></g></g></g></g></g></g></g><g><rect x="648" y="708" width="84" height="24" rx="3" ry="3" fill="#FFFFFF" filter="url(#fill-shadow)"></rect><g><rect x="648" y="708" width="84" height="24" rx="3" ry="3" fill="#AC6363"></rect><g class="content"><g><g><g><g><g></g><text fill="#FFFFFF" hover-props="{}"><tspan x="659.53759765625" y="725.5" font-family="Arial, system-ui, sans-serif" font-size="15" font-style="normal" font-weight="normal">loadX(12)</tspan></text></g></g></g></g></g></g></g><g><rect x="552" y="708" width="84" height="24" rx="3" ry="3" fill="#FFFFFF" filter="url(#fill-shadow)"></rect><g><rect x="552" y="708" width="84" height="24" rx="3" ry="3" fill="#BD34D1"></rect><g class="content"><g><g><g><g><g></g><text fill="#FFFFFF" hover-props="{}"><tspan x="563.53759765625" y="725.5" font-family="Arial, system-ui, sans-serif" font-size="15" font-style="normal" font-weight="normal">loadX(12)</tspan></text></g></g></g></g></g></g></g><g><g><line stroke="#4B5C6B" fill="none" stroke-linejoin="round" y1="690.9999999999999" stroke-linecap="round" stroke-width="4" x1="600" y2="697.9999999999998" x2="600"></line><polygon points="605.54095,694.9079 600,702 594.45905,694.9079" fill="#4B5C6B" stroke="#4B5C6B" stroke-width="2" stroke-linecap="round" stroke-linejoin="round"></polygon></g></g><g><g><line stroke="#4B5C6B" fill="none" stroke-linejoin="round" y1="690.9999999999999" stroke-linecap="round" stroke-width="4" x1="695.9999999999999" y2="697.9999999999998" x2="696"></line><polygon points="701.54095,694.9079 696,702 690.45905,694.9079" fill="#4B5C6B" stroke="#4B5C6B" stroke-width="2" stroke-linecap="round" stroke-linejoin="round"></polygon></g></g><g><g><rect x="552" y="780" width="372" height="156" rx="3" ry="3" fill="#f2f5f7"></rect><rect y="780" rx="3" stroke="#C3CFD9" fill="none" stroke-linejoin="round" width="372" stroke-linecap="round" stroke-width="2" x="552" ry="3" height="156"></rect><g class="content"><g><g><g><g><g></g><text fill="#293845" hover-props="{}"><tspan x="676.5595703125" y="810.5" font-family="Arial, system-ui, sans-serif" font-size="18" font-style="normal" font-weight="normal">Loader/Batcher</tspan></text></g></g></g></g></g></g><g><g><rect x="576" y="840" width="324" height="72" rx="3" ry="3" fill="#FFFFFF" filter="url(#fill-shadow)"></rect><g><rect x="576" y="840" width="324" height="72" rx="3" ry="3" fill="#E8833A"></rect><g class="content"><g><g><g><g><g></g><text fill="#FFFFFF" hover-props="{}"><tspan x="651.94384765625" y="871.5" font-family="Arial, system-ui, sans-serif" font-size="15" font-style="normal" font-weight="normal">SELECT * FROM comments</tspan></text></g></g></g></g><g><g><g><g><g></g><text fill="#FFFFFF" hover-props="{}"><tspan x="671.673828125" y="891.5" font-family="Arial, system-ui, sans-serif" font-size="15" font-style="normal" font-weight="normal">WHERE id IN (21, 22)</tspan></text></g></g></g></g></g></g></g></g></g><g><g><line x1="528" y1="756" x2="948" y2="756" stroke="#9EADBA" stroke-width="2"></line></g></g><g><g><path d="M741,720h228c8.28426,0 15,6.71574 15,15v52M984,811v50c0,8.28426 -6.71574,15 -15,15h-57" fill="none" stroke="#4B5C6B" stroke-linecap="round" stroke-linejoin="round" stroke-width="4"></path><polygon points="915.0921,881.54095 908,876 915.0921,870.45905" fill="#4B5C6B" stroke="#4B5C6B" stroke-width="2" stroke-linecap="round" stroke-linejoin="round"></polygon><g class="content"><g><g><g><g><g></g><text fill="#293845" hover-props="{}"><tspan x="956.8828125" y="804.5" font-family="Arial, system-ui, sans-serif" font-size="15" font-style="normal" font-weight="normal">nextTick</tspan></text></g></g></g></g></g></g></g></g></g><g><g><path d="M567,408h-60c-8.28426,0 -15,6.71574 -15,15v121c0,7.73198 6.26802,14 14,14h10" fill="none" stroke="#4B5C6B" stroke-linecap="round" stroke-linejoin="round" stroke-width="4"></path><polygon points="512.9079,552.45905 520,558 512.9079,563.54095" fill="#4B5C6B" stroke="#4B5C6B" stroke-width="2" stroke-linecap="round" stroke-linejoin="round"></polygon></g></g><g><rect x="528" y="1068" width="420" height="132" rx="3" ry="3" fill="#FFFFFF" filter="url(#light-gray-fill-shadow)"></rect><g><rect x="528" y="1068" width="420" height="132" rx="3" ry="3" fill="#C3CFD9"></rect><g class="content"><g><g><g><g id="12-1"><g><g></g><text fill="#293845" hover-props="{}"><tspan x="687.22509765625" y="1101.5" font-family="Arial, system-ui, sans-serif" font-size="21" font-style="normal" font-weight="bold">Microtasks</tspan></text></g></g></g></g></g></g></g><g><g><rect x="744" y="1128" width="84" height="24" rx="3" ry="3" fill="#FFFFFF" filter="url(#yellow-fill-shadow)"></rect><g><rect x="744" y="1128" width="84" height="24" rx="3" ry="3" fill="#F7C325"></rect><g class="content"><g><g><g><g><g></g><text fill="#293845" hover-props="{}"><tspan x="765.58740234375" y="1145.5" font-family="Arial, system-ui, sans-serif" font-size="15" font-style="normal" font-weight="normal">.then()</tspan></text></g></g></g></g></g></g></g><g><rect x="840" y="1128" width="84" height="24" rx="3" ry="3" fill="#FFFFFF" filter="url(#fill-shadow)"></rect><g><rect x="840" y="1128" width="84" height="24" rx="3" ry="3" fill="#E8833A"></rect><g class="content"><g><g><g><g><g></g><text fill="#FFFFFF" hover-props="{}"><tspan x="861.58740234375" y="1145.5" font-family="Arial, system-ui, sans-serif" font-size="15" font-style="normal" font-weight="normal">.then()</tspan></text></g></g></g></g></g></g></g><g><g class="content"><g><g><g><g><g></g><text fill="#293845" hover-props="{}"><tspan x="828.443359375" y="1179.5" font-family="Arial, system-ui, sans-serif" font-size="27" font-style="normal" font-weight="normal">...</tspan></text></g></g></g></g></g></g></g></g><g><rect x="528" y="-48" width="420" height="84" rx="3" ry="3" fill="#FFFFFF" filter="url(#fill-shadow)"></rect><g><rect x="528" y="-48" width="420" height="84" rx="3" ry="3" fill="#2C88D9"></rect><g class="content"><g><g><g><g id="12-1"><g><g></g><text fill="#FFFFFF" hover-props="{}"><tspan x="689.64990234375" y="-14.5" font-family="Arial, system-ui, sans-serif" font-size="21" font-style="normal" font-weight="bold">Macrotask</tspan></text></g></g></g></g></g><g><g><g><g><g></g><text fill="#FFFFFF" hover-props="{}"><tspan x="660.9443359375" y="14" font-family="Arial, system-ui, sans-serif" font-size="21" font-style="normal" font-weight="normal">one I/O response</tspan></text></g></g></g></g></g></g></g><g><g><line stroke="#4B5C6B" fill="none" stroke-linejoin="round" y1="45.00000000000001" stroke-linecap="round" stroke-width="4" x1="660.0000000000001" y2="84.00000000000001" x2="660"></line><polygon points="665.54095,80.9079 660,88 654.45905,80.9079" fill="#4B5C6B" stroke="#4B5C6B" stroke-width="2" stroke-linecap="round" stroke-linejoin="round"></polygon></g></g><g><g><line stroke="#4B5C6B" fill="none" stroke-linejoin="round" y1="45.00000000000001" stroke-linecap="round" stroke-width="4" x1="816" y2="84.00000000000001" x2="816"></line><polygon points="821.54095,80.9079 816,88 810.45905,80.9079" fill="#4B5C6B" stroke="#4B5C6B" stroke-width="2" stroke-linecap="round" stroke-linejoin="round"></polygon></g></g><g><rect x="528" y="984" width="420" height="84" rx="3" ry="3" fill="#FFFFFF" filter="url(#fill-shadow)"></rect><g><rect x="528" y="984" width="420" height="84" rx="3" ry="3" fill="#2C88D9"></rect><g class="content"><g><g><g><g id="12-1"><g><g></g><text fill="#FFFFFF" hover-props="{}"><tspan x="689.64990234375" y="1017.5" font-family="Arial, system-ui, sans-serif" font-size="21" font-style="normal" font-weight="bold">Macrotask</tspan></text></g></g></g></g></g><g><g><g><g><g></g><text fill="#FFFFFF" hover-props="{}"><tspan x="660.9443359375" y="1046" font-family="Arial, system-ui, sans-serif" font-size="21" font-style="normal" font-weight="normal">one I/O response</tspan></text></g></g></g></g></g></g></g><g><g><line stroke="#4B5C6B" fill="none" stroke-linejoin="round" y1="609" stroke-linecap="round" stroke-width="4" x1="600" y2="648" x2="600"></line><polygon points="605.54095,644.9079 600,652 594.45905,644.9079" fill="#4B5C6B" stroke="#4B5C6B" stroke-width="2" stroke-linecap="round" stroke-linejoin="round"></polygon></g></g><g><g><line stroke="#4B5C6B" fill="none" stroke-linejoin="round" y1="609" stroke-linecap="round" stroke-width="4" x1="672" y2="648" x2="672"></line><polygon points="677.54095,644.9079 672,652 666.45905,644.9079" fill="#4B5C6B" stroke="#4B5C6B" stroke-width="2" stroke-linecap="round" stroke-linejoin="round"></polygon></g></g><g><g><line stroke="#4B5C6B" fill="none" stroke-linejoin="round" y1="1077" stroke-linecap="round" stroke-width="4" x1="804" y2="1116.0000000000002" x2="804"></line><polygon points="809.54095,1112.9079 804,1120 798.45905,1112.9079" fill="#4B5C6B" stroke="#4B5C6B" stroke-width="2" stroke-linecap="round" stroke-linejoin="round"></polygon></g></g><g><g><line stroke="#4B5C6B" fill="none" stroke-linejoin="round" y1="1077" stroke-linecap="round" stroke-width="4" x1="876" y2="1116.0000000000002" x2="876"></line><polygon points="881.54095,1112.9079 876,1120 870.45905,1112.9079" fill="#4B5C6B" stroke="#4B5C6B" stroke-width="2" stroke-linecap="round" stroke-linejoin="round"></polygon></g></g></g></g></svg>