<svg xmlns="http://www.w3.org/2000/svg" xmlns:xlink="http://www.w3.org/1999/xlink" version="1.1" viewBox="84 -60 683 552" width="683px" height="552px"><defs><style>* {-webkit-font-smoothing: auto; -moz-osx-font-smoothing: auto;}@media print { svg { width: 100%; height: 100%; } }</style><g><filter id="white-fill-shadow" y="-50%" height="200%"><feDropShadow dx="0" dy="2" stdDeviation="6" flood-opacity="0.03" flood-color="#000000"></feDropShadow></filter><filter id="light-gray-fill-shadow" y="-50%" height="200%"><feDropShadow dx="0" dy="2" stdDeviation="6" flood-opacity="0.09" flood-color="#000000"></feDropShadow></filter><filter id="yellow-fill-shadow" y="-50%" height="200%"><feDropShadow dx="0" dy="2" stdDeviation="6" flood-opacity="0.12" flood-color="#000000"></feDropShadow></filter><filter id="fill-shadow" y="-50%" height="200%"><feDropShadow dx="0" dy="2" stdDeviation="6" flood-opacity="0.16" flood-color="#000000"></feDropShadow></filter><filter id="frame-shadow" y="-50%" height="200%"><feDropShadow dx="0" dy="3" stdDeviation="8" flood-opacity="0.06" flood-color="#000000"></feDropShadow></filter><filter id="button-shadow" y="-50%" height="200%"><feDropShadow dx="0" dy="2" stdDeviation="6" flood-opacity="0.03" flood-color="#000000"></feDropShadow></filter><filter id="button-hover-shadow" y="-50%" height="200%"><feDropShadow dx="0" dy="2" stdDeviation="6" flood-opacity="0.08" flood-color="#000000"></feDropShadow></filter><filter id="badge-shadow" y="-50%" height="200%"><feDropShadow dx="0" dy="2" stdDeviation="6" flood-opacity="0.08" flood-color="#000000"></feDropShadow></filter></g></defs><g><rect x="84" y="-60" width="683.0000000000001" height="552" rx="3" ry="3" fill="#FFFFFF" filter="url(#white-fill-shadow)"></rect><g><rect x="84" y="-60" width="683.0000000000001" height="552" rx="3" ry="3" fill="#FFFFFF"></rect></g><g><g><rect x="156" y="84" width="168" height="36" rx="3" ry="3" fill="#FFFFFF" filter="url(#fill-shadow)"></rect><g><rect x="156" y="84" width="168" height="36" rx="3" ry="3" fill="#2C88D9"></rect><g class="content"><g><g><g><g><g></g><text fill="#FFFFFF" hover-props="{}"><tspan x="177.4619140625" y="107.5" font-family="Arial, system-ui, sans-serif" font-size="15" font-style="normal" font-weight="normal">redis.get(“100011”)</tspan></text></g></g></g></g></g></g></g><g><rect x="425" y="24" width="283" height="36" rx="3" ry="3" fill="#FFFFFF" filter="url(#fill-shadow)"></rect><g><rect x="425" y="24" width="283" height="36" rx="3" ry="3" fill="#1AAE9F"></rect><g class="content"><g><g><g><g><g></g><text fill="#FFFFFF" hover-props="{}"><tspan x="473.33544921875" y="47.5" font-family="Arial, system-ui, sans-serif" font-size="15" font-style="normal" font-weight="normal">SELECT * FROM comments ...</tspan></text></g></g></g></g></g></g></g><g><g><path d="M121.94444,-39l0,243M121.94444,228v240" fill="none" stroke="#788896" stroke-linecap="round" stroke-linejoin="round" stroke-width="4"></path><polygon points="127.4854,464.9079 121.94444,472 116.40349,464.9079" fill="#788896" stroke="#788896" stroke-width="2" stroke-linecap="round" stroke-linejoin="round"></polygon><g class="content"><g><g><g><g><g></g><text fill="#293845" hover-props="{}"><tspan x="107.59326171875" y="221.5" font-family="Arial, system-ui, sans-serif" font-size="15" font-style="normal" font-weight="normal">time</tspan></text></g></g></g></g></g></g></g><g><g class="content"><g><g><g><g><g></g><text fill="#293845" hover-props="{}"><tspan x="168" y="459.5" font-family="Arial, system-ui, sans-serif" font-size="27" font-style="normal" font-weight="normal">...</tspan></text></g></g></g></g></g></g><g><rect x="156" y="-36" width="228" height="36" rx="3" ry="3" fill="#FFFFFF" filter="url(#fill-shadow)"></rect><g><rect x="156" y="-36" width="228" height="36" rx="3" ry="3" fill="#E8833A"></rect><g class="content"><g><g><g><g><g></g><text fill="#FFFFFF" hover-props="{}"><tspan x="191.44482421875" y="-12.5" font-family="Arial, system-ui, sans-serif" font-size="15" font-style="normal" font-weight="normal">SELECT * FROM topics ...</tspan></text></g></g></g></g></g></g></g><g><rect x="336" y="144" width="348" height="36" rx="3" ry="3" fill="#FFFFFF" filter="url(#fill-shadow)"></rect><g><rect x="336" y="144" width="348" height="36" rx="3" ry="3" fill="#6558F5"></rect><g class="content"><g><g><g><g><g></g><text fill="#FFFFFF" hover-props="{}"><tspan x="377.564453125" y="167.5" font-family="Arial, system-ui, sans-serif" font-size="15" font-style="normal" font-weight="normal">SELECT * FROM users WHERE id=100021</tspan></text></g></g></g></g></g></g></g><g><rect x="180" y="204" width="168" height="36" rx="3" ry="3" fill="#FFFFFF" filter="url(#fill-shadow)"></rect><g><rect x="180" y="204" width="168" height="36" rx="3" ry="3" fill="#2C88D9"></rect><g class="content"><g><g><g><g><g></g><text fill="#FFFFFF" hover-props="{}"><tspan x="201.4619140625" y="227.5" font-family="Arial, system-ui, sans-serif" font-size="15" font-style="normal" font-weight="normal">redis.get(“100012”)</tspan></text></g></g></g></g></g></g></g><g><rect x="360" y="264" width="348" height="36" rx="3" ry="3" fill="#FFFFFF" filter="url(#fill-shadow)"></rect><g><rect x="360" y="264" width="348" height="36" rx="3" ry="3" fill="#6558F5"></rect><g class="content"><g><g><g><g><g></g><text fill="#FFFFFF" hover-props="{}"><tspan x="401.564453125" y="287.5" font-family="Arial, system-ui, sans-serif" font-size="15" font-style="normal" font-weight="normal">SELECT * FROM users WHERE id=100022</tspan></text></g></g></g></g></g></g></g><g><rect x="204" y="324" width="168" height="36" rx="3" ry="3" fill="#FFFFFF" filter="url(#fill-shadow)"></rect><g><rect x="204" y="324" width="168" height="36" rx="3" ry="3" fill="#2C88D9"></rect><g class="content"><g><g><g><g><g></g><text fill="#FFFFFF" hover-props="{}"><tspan x="225.4619140625" y="347.5" font-family="Arial, system-ui, sans-serif" font-size="15" font-style="normal" font-weight="normal">redis.get(“100013”)</tspan></text></g></g></g></g></g></g></g><g><rect x="384" y="384" width="360" height="36" rx="3" ry="3" fill="#FFFFFF" filter="url(#fill-shadow)"></rect><g><rect x="384" y="384" width="360" height="36" rx="3" ry="3" fill="#6558F5"></rect><g class="content"><g><g><g><g><g></g><text fill="#FFFFFF" hover-props="{}"><tspan x="431.564453125" y="407.5" font-family="Arial, system-ui, sans-serif" font-size="15" font-style="normal" font-weight="normal">SELECT * FROM users WHERE id=100023</tspan></text></g></g></g></g></g></g></g><g><g><line x1="144" y1="12" x2="744" y2="12" stroke="#9EADBA" stroke-width="2"></line></g></g><g><g><line x1="144" y1="72" x2="744" y2="72" stroke="#9EADBA" stroke-width="2"></line></g></g><g><g><line x1="144" y1="132" x2="744" y2="132" stroke="#9EADBA" stroke-width="2"></line></g></g><g><g><line x1="144" y1="192" x2="744" y2="192" stroke="#9EADBA" stroke-width="2"></line></g></g><g><g><line x1="144" y1="252" x2="744" y2="252" stroke="#9EADBA" stroke-width="2"></line></g></g><g><g><line x1="144" y1="312" x2="744" y2="312" stroke="#9EADBA" stroke-width="2"></line></g></g><g><g><line x1="144" y1="372" x2="744" y2="372" stroke="#9EADBA" stroke-width="2"></line></g></g><g><g><line x1="144" y1="432" x2="744" y2="432" stroke="#9EADBA" stroke-width="2"></line></g></g></g></g></svg>