<svg xmlns="http://www.w3.org/2000/svg" xmlns:xlink="http://www.w3.org/1999/xlink" version="1.1" viewBox="72 -48 661 552" width="661px" height="552px"><defs><style>* {-webkit-font-smoothing: auto; -moz-osx-font-smoothing: auto;}@media print { svg { width: 100%; height: 100%; } }</style><g><filter id="white-fill-shadow" y="-50%" height="200%"><feDropShadow dx="0" dy="2" stdDeviation="6" flood-opacity="0.03" flood-color="#000000"></feDropShadow></filter><filter id="light-gray-fill-shadow" y="-50%" height="200%"><feDropShadow dx="0" dy="2" stdDeviation="6" flood-opacity="0.09" flood-color="#000000"></feDropShadow></filter><filter id="yellow-fill-shadow" y="-50%" height="200%"><feDropShadow dx="0" dy="2" stdDeviation="6" flood-opacity="0.12" flood-color="#000000"></feDropShadow></filter><filter id="fill-shadow" y="-50%" height="200%"><feDropShadow dx="0" dy="2" stdDeviation="6" flood-opacity="0.16" flood-color="#000000"></feDropShadow></filter><filter id="frame-shadow" y="-50%" height="200%"><feDropShadow dx="0" dy="3" stdDeviation="8" flood-opacity="0.06" flood-color="#000000"></feDropShadow></filter><filter id="button-shadow" y="-50%" height="200%"><feDropShadow dx="0" dy="2" stdDeviation="6" flood-opacity="0.03" flood-color="#000000"></feDropShadow></filter><filter id="button-hover-shadow" y="-50%" height="200%"><feDropShadow dx="0" dy="2" stdDeviation="6" flood-opacity="0.08" flood-color="#000000"></feDropShadow></filter><filter id="badge-shadow" y="-50%" height="200%"><feDropShadow dx="0" dy="2" stdDeviation="6" flood-opacity="0.08" flood-color="#000000"></feDropShadow></filter></g></defs><g><rect x="72" y="-48" width="661" height="552" rx="3" ry="3" fill="#FFFFFF" filter="url(#white-fill-shadow)"></rect><g><rect x="72" y="-48" width="661" height="552" rx="3" ry="3" fill="#FFFFFF"></rect></g><g><g><rect x="144" y="96" width="168" height="36" rx="3" ry="3" fill="#FFFFFF" filter="url(#fill-shadow)"></rect><g><rect x="144" y="96" width="168" height="36" rx="3" ry="3" fill="#2C88D9"></rect><g class="content"><g><g><g><g><g></g><text fill="#FFFFFF" hover-props="{}"><tspan x="165.4619140625" y="119.5" font-family="Arial, system-ui, sans-serif" font-size="15" font-style="normal" font-weight="normal">redis.get(“100011”)</tspan></text></g></g></g></g></g></g></g><g><rect x="444" y="36" width="252" height="36" rx="3" ry="3" fill="#FFFFFF" filter="url(#fill-shadow)"></rect><g><rect x="444" y="36" width="252" height="36" rx="3" ry="3" fill="#1AAE9F"></rect><g class="content"><g><g><g><g><g></g><text fill="#FFFFFF" hover-props="{}"><tspan x="476.83544921875" y="59.5" font-family="Arial, system-ui, sans-serif" font-size="15" font-style="normal" font-weight="normal">SELECT * FROM comments ...</tspan></text></g></g></g></g></g></g></g><g><g><path d="M108.72222,-27l0,243M108.72222,240v240" fill="none" stroke="#788896" stroke-linecap="round" stroke-linejoin="round" stroke-width="4"></path><polygon points="114.26318,476.9079 108.72222,484 103.18127,476.9079" fill="#788896" stroke="#788896" stroke-width="2" stroke-linecap="round" stroke-linejoin="round"></polygon><g class="content"><g><g><g><g><g></g><text fill="#293845" hover-props="{}"><tspan x="94.59326171875" y="233.5" font-family="Arial, system-ui, sans-serif" font-size="15" font-style="normal" font-weight="normal">time</tspan></text></g></g></g></g></g></g></g><g><g class="content"><g><g><g><g><g></g><text fill="#293845" hover-props="{}"><tspan x="156" y="471.5" font-family="Arial, system-ui, sans-serif" font-size="27" font-style="normal" font-weight="normal">...</tspan></text></g></g></g></g></g></g><g><rect x="144" y="-24" width="228" height="36" rx="3" ry="3" fill="#FFFFFF" filter="url(#fill-shadow)"></rect><g><rect x="144" y="-24" width="228" height="36" rx="3" ry="3" fill="#E8833A"></rect><g class="content"><g><g><g><g><g></g><text fill="#FFFFFF" hover-props="{}"><tspan x="179.44482421875" y="-0.5" font-family="Arial, system-ui, sans-serif" font-size="15" font-style="normal" font-weight="normal">SELECT * FROM topics ...</tspan></text></g></g></g></g></g></g></g><g><rect x="324" y="156" width="324" height="36" rx="3" ry="3" fill="#FFFFFF" filter="url(#fill-shadow)"></rect><g><rect x="324" y="156" width="324" height="36" rx="3" ry="3" fill="#6558F5"></rect><g class="content"><g><g><g><g><g></g><text fill="#FFFFFF" hover-props="{}"><tspan x="353.564453125" y="179.5" font-family="Arial, system-ui, sans-serif" font-size="15" font-style="normal" font-weight="normal">SELECT * FROM users WHERE id=100021</tspan></text></g></g></g></g></g></g></g><g><rect x="168" y="216" width="168" height="36" rx="3" ry="3" fill="#FFFFFF" filter="url(#fill-shadow)"></rect><g><rect x="168" y="216" width="168" height="36" rx="3" ry="3" fill="#2C88D9"></rect><g class="content"><g><g><g><g><g></g><text fill="#FFFFFF" hover-props="{}"><tspan x="189.4619140625" y="239.5" font-family="Arial, system-ui, sans-serif" font-size="15" font-style="normal" font-weight="normal">redis.get(“100012”)</tspan></text></g></g></g></g></g></g></g><g><rect x="348" y="276" width="324" height="36" rx="3" ry="3" fill="#FFFFFF" filter="url(#fill-shadow)"></rect><g><rect x="348" y="276" width="324" height="36" rx="3" ry="3" fill="#6558F5"></rect><g class="content"><g><g><g><g><g></g><text fill="#FFFFFF" hover-props="{}"><tspan x="377.564453125" y="299.5" font-family="Arial, system-ui, sans-serif" font-size="15" font-style="normal" font-weight="normal">SELECT * FROM users WHERE id=100022</tspan></text></g></g></g></g></g></g></g><g><rect x="192" y="336" width="168" height="36" rx="3" ry="3" fill="#FFFFFF" filter="url(#fill-shadow)"></rect><g><rect x="192" y="336" width="168" height="36" rx="3" ry="3" fill="#2C88D9"></rect><g class="content"><g><g><g><g><g></g><text fill="#FFFFFF" hover-props="{}"><tspan x="213.4619140625" y="359.5" font-family="Arial, system-ui, sans-serif" font-size="15" font-style="normal" font-weight="normal">redis.get(“100013”)</tspan></text></g></g></g></g></g></g></g><g><rect x="372" y="396" width="324" height="36" rx="3" ry="3" fill="#FFFFFF" filter="url(#fill-shadow)"></rect><g><rect x="372" y="396" width="324" height="36" rx="3" ry="3" fill="#6558F5"></rect><g class="content"><g><g><g><g><g></g><text fill="#FFFFFF" hover-props="{}"><tspan x="401.564453125" y="419.5" font-family="Arial, system-ui, sans-serif" font-size="15" font-style="normal" font-weight="normal">SELECT * FROM users WHERE id=100023</tspan></text></g></g></g></g></g></g></g><g><g><line x1="132" y1="24" x2="708" y2="24" stroke="#9EADBA" stroke-width="2"></line></g></g><g><g><line x1="132" y1="84" x2="708" y2="84" stroke="#9EADBA" stroke-width="2"></line></g></g><g><g><line x1="132" y1="144" x2="708" y2="144" stroke="#9EADBA" stroke-width="2"></line></g></g><g><g><line x1="132" y1="204" x2="708" y2="204" stroke="#9EADBA" stroke-width="2"></line></g></g><g><g><line x1="132" y1="264" x2="708" y2="264" stroke="#9EADBA" stroke-width="2"></line></g></g><g><g><line x1="132" y1="324" x2="708" y2="324" stroke="#9EADBA" stroke-width="2"></line></g></g><g><g><line x1="132" y1="384" x2="708" y2="384" stroke="#9EADBA" stroke-width="2"></line></g></g><g><g><line x1="132" y1="444" x2="708" y2="444" stroke="#9EADBA" stroke-width="2"></line></g></g></g></g></svg>