<svg xmlns="http://www.w3.org/2000/svg" xmlns:xlink="http://www.w3.org/1999/xlink" width="1080" zoomAndPan="magnify" viewBox="240 280 330 310" height="1080" preserveAspectRatio="xMidYMid meet" version="1.0"><defs><g/></defs><path fill="#f1ead8" d="M 386.460938 316.0625 C 386.460938 316.757812 386.828125 317.324219 387.277344 317.324219 C 387.726562 317.324219 387.875 316.757812 387.609375 316.0625 C 387.34375 315.367188 386.972656 314.800781 386.792969 314.800781 C 386.609375 314.800781 386.460938 315.367188 386.460938 316.0625 M 457.179688 317.113281 L 455.136719 319.429688 L 457.457031 317.390625 C 458.730469 316.265625 459.773438 315.222656 459.773438 315.074219 C 459.773438 314.414062 459.089844 314.949219 457.179688 317.113281 M 405.867188 316.449219 C 405.183594 316.882812 404.847656 317.453125 405.113281 317.722656 C 405.382812 317.988281 406.082031 317.628906 406.667969 316.925781 C 407.882812 315.460938 407.652344 315.324219 405.867188 316.449219 M 397.109375 318.589844 C 397.378906 319.28125 397.746094 319.851562 397.925781 319.851562 C 398.109375 319.851562 398.257812 319.28125 398.257812 318.589844 C 398.257812 317.894531 397.890625 317.324219 397.441406 317.324219 C 396.992188 317.324219 396.84375 317.894531 397.109375 318.589844 M 424.128906 322.9375 C 424.367188 323.554688 424.671875 324.058594 424.800781 324.058594 C 424.933594 324.058594 425.238281 323.554688 425.476562 322.9375 C 425.710938 322.320312 425.410156 321.816406 424.800781 321.816406 C 424.195312 321.816406 423.894531 322.320312 424.128906 322.9375 M 409.214844 324.902344 C 408.71875 325.828125 408.5 326.585938 408.734375 326.585938 C 408.964844 326.585938 409.558594 325.828125 410.054688 324.902344 C 410.550781 323.976562 410.769531 323.21875 410.535156 323.21875 C 410.304688 323.21875 409.710938 323.976562 409.214844 324.902344 M 330.136719 330.796875 C 330.136719 331.953125 330.328125 332.425781 330.5625 331.847656 C 330.796875 331.269531 330.796875 330.320312 330.5625 329.742188 C 330.328125 329.164062 330.136719 329.636719 330.136719 330.796875 M 322.550781 331.636719 C 322.550781 332.792969 322.742188 333.269531 322.976562 332.691406 C 323.210938 332.109375 323.210938 331.164062 322.976562 330.585938 C 322.742188 330.007812 322.550781 330.480469 322.550781 331.636719 M 395.804688 331.214844 C 395.890625 332.8125 397.292969 335.496094 397.34375 334.164062 C 397.371094 333.46875 397.023438 332.332031 396.574219 331.636719 C 396.125 330.941406 395.777344 330.753906 395.804688 331.214844 M 406.125 337.53125 C 406.125 341.003906 406.273438 342.425781 406.457031 340.6875 C 406.636719 338.953125 406.636719 336.109375 406.457031 334.375 C 406.273438 332.636719 406.125 334.058594 406.125 337.53125 M 425.222656 335.003906 C 424.726562 335.929688 424.511719 336.6875 424.742188 336.6875 C 424.976562 336.6875 425.570312 335.929688 426.066406 335.003906 C 426.5625 334.078125 426.777344 333.320312 426.546875 333.320312 C 426.316406 333.320312 425.71875 334.078125 425.222656 335.003906 M 419.074219 347 C 415.84375 352.816406 413.0625 358.828125 412.261719 361.734375 C 411.976562 362.777344 411.523438 364.398438 411.253906 365.339844 C 410.839844 366.796875 411.113281 366.707031 413.089844 364.734375 C 415.832031 361.992188 416.859375 363.3125 414.703125 366.8125 C 411.503906 372.011719 426.074219 354.898438 429.933594 348.929688 C 432.796875 344.496094 429.613281 347.535156 426 352.683594 C 422.675781 357.417969 418.828125 360.886719 417.917969 359.976562 C 417.6875 359.746094 417.289062 357.992188 417.03125 356.078125 C 416.636719 353.140625 416.898438 352.242188 418.707031 350.328125 C 420.472656 348.457031 423.265625 341.738281 422.277344 341.738281 C 422.125 341.738281 420.683594 344.109375 419.074219 347 M 411.742188 345.105469 C 411.246094 346.035156 411.027344 346.792969 411.261719 346.792969 C 411.492188 346.792969 412.085938 346.035156 412.582031 345.105469 C 413.082031 344.179688 413.296875 343.421875 413.0625 343.421875 C 412.832031 343.421875 412.238281 344.179688 411.742188 345.105469 M 405.84375 350.160156 C 405.84375 353.554688 406.09375 356.082031 406.402344 355.773438 C 407 355.175781 406.832031 344.972656 406.210938 344.355469 C 406.007812 344.152344 405.84375 346.761719 405.84375 350.160156 M 343.484375 346.210938 C 343.484375 346.359375 344.71875 347.589844 346.222656 348.949219 L 348.960938 351.421875 L 346.488281 348.683594 C 344.179688 346.136719 343.484375 345.5625 343.484375 346.210938 M 454.652344 350.789062 L 452.609375 353.105469 L 454.929688 351.066406 C 457.09375 349.15625 457.632812 348.476562 456.96875 348.476562 C 456.820312 348.476562 455.777344 349.515625 454.652344 350.789062 M 436.601562 351.84375 C 436.3125 352.304688 436.457031 352.683594 436.921875 352.683594 C 437.386719 352.683594 438 352.304688 438.285156 351.84375 C 438.570312 351.378906 438.425781 351 437.964844 351 C 437.5 351 436.886719 351.378906 436.601562 351.84375 M 397.101562 353.355469 C 396.871094 353.726562 397.03125 354.578125 397.457031 355.25 C 398.0625 356.207031 398.234375 356.058594 398.246094 354.578125 C 398.257812 352.632812 397.832031 352.175781 397.101562 353.355469 M 460.15625 357.945312 L 456.824219 361.523438 L 460.40625 358.195312 C 462.375 356.367188 463.988281 354.753906 463.988281 354.617188 C 463.988281 353.980469 463.253906 354.617188 460.15625 357.945312 M 443.761719 357.800781 C 441.214844 359.179688 440.027344 360.070312 441.128906 359.773438 C 443.210938 359.21875 448.820312 356.136719 448.820312 355.546875 C 448.820312 355.058594 448.832031 355.054688 443.761719 357.800781 M 492.589844 360.050781 L 489.6875 363.207031 L 492.847656 360.308594 C 494.585938 358.710938 496.007812 357.289062 496.007812 357.148438 C 496.007812 356.507812 495.292969 357.113281 492.589844 360.050781 M 432.597656 362.839844 C 429.933594 364.214844 427.75 365.527344 427.75 365.757812 C 427.75 366.136719 437.78125 361.367188 438.636719 360.582031 C 439.738281 359.574219 436.804688 360.671875 432.597656 362.839844 M 450.082031 364.578125 C 446.839844 366.472656 440.960938 369.675781 437.019531 371.695312 C 429.484375 375.5625 428.117188 376.496094 426.066406 379.171875 C 425.371094 380.078125 426.320312 379.628906 428.171875 378.175781 C 430.027344 376.722656 436.664062 372.808594 442.917969 369.480469 C 452.648438 364.304688 457.867188 361.0625 456.371094 361.117188 C 456.15625 361.125 453.328125 362.683594 450.082031 364.578125 M 420.945312 372.679688 L 418.902344 374.996094 L 421.222656 372.953125 C 423.386719 371.046875 423.925781 370.363281 423.265625 370.363281 C 423.113281 370.363281 422.070312 371.40625 420.945312 372.679688 M 394.179688 372.890625 C 394.179688 374.046875 394.371094 374.519531 394.601562 373.941406 C 394.835938 373.363281 394.835938 372.417969 394.601562 371.835938 C 394.371094 371.257812 394.179688 371.730469 394.179688 372.890625 M 291.242188 375.679688 C 291.242188 375.824219 292.472656 377.054688 293.980469 378.414062 L 296.71875 380.886719 L 294.242188 378.152344 C 291.9375 375.601562 291.242188 375.027344 291.242188 375.679688 M 380.984375 383.835938 C 381.824219 384.761719 382.699219 385.519531 382.929688 385.519531 C 383.164062 385.519531 382.664062 384.761719 381.828125 383.835938 C 380.988281 382.90625 380.113281 382.152344 379.878906 382.152344 C 379.648438 382.152344 380.144531 382.90625 380.984375 383.835938 M 434.863281 387.414062 L 432.386719 390.148438 L 435.125 387.675781 C 436.632812 386.316406 437.863281 385.085938 437.863281 384.941406 C 437.863281 384.289062 437.167969 384.863281 434.863281 387.414062 M 367.921875 387.621094 C 369.011719 388.78125 370.09375 389.726562 370.324219 389.726562 C 370.554688 389.726562 369.855469 388.78125 368.765625 387.621094 C 367.675781 386.464844 366.597656 385.519531 366.363281 385.519531 C 366.132812 385.519531 366.835938 386.464844 367.921875 387.621094 M 390.886719 393.515625 C 390.894531 395.367188 391.070312 396.027344 391.269531 394.980469 C 391.472656 393.933594 391.464844 392.417969 391.253906 391.613281 C 391.042969 390.808594 390.878906 391.664062 390.886719 393.515625 M 411.742188 395.570312 C 411.742188 397.605469 412.210938 397.808594 412.878906 396.070312 C 413.140625 395.390625 412.988281 394.609375 412.546875 394.335938 C 412.105469 394.0625 411.742188 394.617188 411.742188 395.570312 M 350.4375 396.222656 C 351.710938 396.417969 353.796875 396.417969 355.070312 396.222656 C 356.347656 396.03125 355.304688 395.875 352.753906 395.875 C 350.207031 395.875 349.164062 396.03125 350.4375 396.222656 M 459.15625 396.203125 C 459.976562 396.417969 461.113281 396.402344 461.683594 396.171875 C 462.253906 395.941406 461.585938 395.769531 460.195312 395.785156 C 458.804688 395.800781 458.335938 395.988281 459.15625 396.203125 M 355.925781 407.160156 C 356.972656 407.363281 358.488281 407.355469 359.296875 407.144531 C 360.101562 406.933594 359.242188 406.769531 357.390625 406.777344 C 355.535156 406.785156 354.875 406.960938 355.925781 407.160156 M 485.054688 436.453125 C 486.140625 437.609375 487.222656 438.558594 487.453125 438.558594 C 487.683594 438.558594 486.984375 437.609375 485.894531 436.453125 C 484.808594 435.292969 483.726562 434.347656 483.496094 434.347656 C 483.261719 434.347656 483.964844 435.292969 485.054688 436.453125 M 408.566406 466.339844 C 408.566406 467.960938 408.738281 468.625 408.953125 467.8125 C 409.164062 467 409.164062 465.675781 408.953125 464.867188 C 408.738281 464.054688 408.566406 464.71875 408.566406 466.339844 M 413.425781 471.089844 C 413.425781 471.542969 414.015625 472.644531 414.738281 473.542969 C 415.972656 475.085938 415.988281 475.058594 415.042969 473.074219 C 413.816406 470.496094 413.425781 470.019531 413.425781 471.089844 M 408.4375 490.121094 C 408.472656 491.164062 408.699219 491.527344 408.941406 490.929688 C 409.296875 490.046875 409.640625 490.042969 410.769531 490.914062 C 411.734375 491.660156 411.671875 491.414062 410.558594 490.109375 C 408.558594 487.765625 408.355469 487.769531 408.4375 490.121094 M 391.976562 492.378906 C 391.707031 492.8125 391.875 493.402344 392.347656 493.691406 C 392.816406 493.984375 393.203125 493.628906 393.203125 492.910156 C 393.203125 491.429688 392.695312 491.210938 391.976562 492.378906 M 499.167969 506.464844 C 499.746094 506.699219 500.695312 506.699219 501.273438 506.464844 C 501.855469 506.230469 501.378906 506.039062 500.222656 506.039062 C 499.0625 506.039062 498.589844 506.230469 499.167969 506.464844 " fill-opacity="1" fill-rule="evenodd"/><path fill="#040404" d="M 399.734375 286.242188 C 398.40625 287.015625 398.257812 288.777344 398.257812 303.683594 L 398.257812 320.265625 L 394.035156 313.113281 C 391.710938 309.179688 389.0625 303.875 388.148438 301.328125 C 385.035156 292.648438 383.78125 290.804688 380.980469 290.804688 C 378.542969 290.804688 378.457031 290.933594 378.515625 294.59375 C 378.558594 297.453125 379.753906 300.726562 383.390625 307.941406 C 386.039062 313.199219 389.5 319.523438 391.082031 321.992188 C 396.902344 331.078125 397.183594 332.035156 397.804688 344.6875 L 398.378906 356.472656 L 391.542969 345.105469 C 384.785156 333.875 384.710938 333.691406 385.300781 329.53125 C 385.625 327.21875 385.925781 323.050781 385.964844 320.273438 L 386.039062 315.21875 L 383.511719 315.21875 C 381.226562 315.21875 380.847656 315.625 379.578125 319.429688 L 378.171875 323.640625 L 376.003906 319.007812 C 374.8125 316.460938 373.835938 313.800781 373.828125 313.09375 C 373.800781 308.664062 367.59375 306.148438 366.585938 310.152344 C 365.839844 313.128906 367.140625 316.292969 374.207031 328.691406 C 390.550781 357.375 392.699219 361.914062 394.535156 371.699219 C 395.097656 374.699219 394.617188 374.277344 386.671875 364.804688 C 365.570312 339.644531 359.667969 327.074219 359.058594 306 C 358.835938 298.339844 358.535156 296.589844 357.296875 295.683594 C 355.375 294.28125 354.84375 294.3125 353.234375 295.917969 C 351.71875 297.433594 351.511719 305.242188 352.71875 315.640625 C 353.121094 319.113281 353.3125 322.097656 353.140625 322.269531 C 352.328125 323.085938 344.355469 316.273438 341.074219 311.960938 C 338.023438 307.949219 337.019531 307.171875 335.175781 307.386719 C 331.421875 307.820312 331.8125 311.152344 336.324219 317.148438 C 340.71875 322.988281 344.492188 326.207031 351.613281 330.1875 C 356.199219 332.75 356.847656 333.507812 360.78125 340.921875 C 363.109375 345.308594 365.71875 349.949219 366.582031 351.230469 L 368.144531 353.570312 L 365.714844 352.652344 C 357.457031 349.539062 349.988281 343.601562 347.363281 338.050781 C 344.851562 332.75 343.324219 331.308594 340.996094 332.046875 C 338.703125 332.773438 338.710938 336.683594 341.015625 341.4375 C 344.097656 347.796875 351.214844 353.394531 364.816406 360.15625 C 374.992188 365.210938 377.835938 367.042969 381.039062 370.601562 C 386.871094 377.082031 391.515625 387.589844 391.515625 394.289062 C 391.515625 396.824219 391.476562 396.800781 388.640625 392.589844 C 383.332031 384.71875 373.308594 376.382812 361.910156 370.363281 C 343.628906 360.710938 338.445312 355.738281 333.355469 342.980469 C 331.183594 337.535156 330.597656 334.679688 330.246094 327.847656 C 329.742188 318.105469 328.589844 315.398438 325.105469 315.800781 C 322.960938 316.046875 322.824219 316.335938 322.578125 321.113281 C 322.207031 328.367188 323.882812 339.546875 326.199219 345.246094 C 328.179688 350.113281 328.183594 350.144531 326.414062 349.199219 C 321.878906 346.773438 316.15625 340.269531 313.457031 334.472656 C 310.355469 327.8125 308.855469 326.667969 306.421875 329.101562 C 304.910156 330.605469 304.875 331.03125 305.933594 334.542969 C 308.839844 344.1875 314.3125 350.203125 329.582031 360.523438 C 369.507812 387.503906 367.8125 386.253906 371.875 391.742188 C 373.894531 394.46875 375.375 396.875 375.160156 397.089844 C 374.949219 397.300781 373.515625 396.523438 371.980469 395.359375 C 368.472656 392.703125 353.382812 384.429688 334.082031 374.574219 C 321.53125 368.171875 318.210938 366.058594 312.878906 361.082031 C 308.414062 356.914062 305.75 353.582031 303.816406 349.734375 C 300.695312 343.527344 298.492188 342.1875 296.15625 345.070312 C 294.765625 346.785156 294.75 347.175781 295.929688 350.019531 C 301.105469 362.46875 312.34375 371.980469 333.960938 382.203125 C 346.125 387.957031 346.4375 389.132812 335.480469 387.917969 C 318.664062 386.050781 302.265625 378.335938 294.613281 368.683594 C 291.183594 364.355469 289.25 363.28125 287.027344 364.472656 C 286.101562 364.964844 285.339844 365.90625 285.339844 366.5625 C 285.339844 368.339844 293.257812 377.5 298.101562 381.320312 L 302.347656 384.675781 L 296.824219 384.675781 C 293.347656 384.675781 289.617188 384.046875 286.753906 382.976562 C 281.757812 381.109375 279.800781 381.382812 278.945312 384.074219 C 278.183594 386.472656 281.558594 389.289062 287.195312 390.960938 C 292.605469 392.566406 303.195312 392.632812 308.316406 391.09375 C 311.914062 390.011719 312.78125 390.09375 320.878906 392.28125 C 327.851562 394.164062 332.265625 394.753906 343.0625 395.234375 C 355.042969 395.765625 360.449219 396.632812 359.246094 397.832031 C 359.03125 398.050781 356.0625 398.910156 352.644531 399.746094 C 349.230469 400.582031 342.644531 402.796875 338.007812 404.664062 C 325.828125 409.574219 321.1875 410.773438 314.351562 410.773438 C 305.34375 410.773438 293.054688 406.582031 285.535156 400.941406 C 282.5 398.664062 279.683594 398.628906 278.289062 400.851562 C 276.007812 404.488281 290.097656 413.734375 301.753906 416.253906 L 304.261719 416.796875 L 299.699219 419.671875 C 295.242188 422.476562 294.214844 422.789062 285.976562 423.839844 C 283.136719 424.199219 281.707031 424.851562 281.046875 426.078125 C 277.886719 431.980469 292.847656 431.605469 304.796875 425.480469 C 306.378906 424.671875 309.191406 422.972656 311.042969 421.703125 C 312.898438 420.4375 316.683594 418.929688 319.449219 418.355469 C 322.21875 417.78125 324.996094 417.113281 325.625 416.875 C 327.316406 416.226562 317.316406 429.222656 313.417969 432.742188 C 308.617188 437.078125 301.367188 440.367188 295.21875 441.007812 C 288.925781 441.664062 287.871094 442.226562 287.871094 444.941406 C 287.871094 449.828125 297.128906 449.195312 308.796875 443.507812 C 315.632812 440.175781 318.335938 437.757812 327.039062 427.183594 C 337.511719 414.464844 346.855469 407.925781 356.125 406.828125 C 361.050781 406.246094 361.328125 406.871094 358.417969 412.007812 C 356.722656 415 355.914062 415.523438 350.6875 417.015625 C 346.269531 418.277344 343.96875 419.53125 341.21875 422.160156 C 339.222656 424.074219 337.585938 426.324219 337.585938 427.15625 C 337.585938 428.449219 338.101562 428.605469 341.03125 428.214844 C 342.925781 427.960938 346.421875 426.792969 348.796875 425.617188 C 351.171875 424.441406 353.234375 423.601562 353.378906 423.746094 C 353.527344 423.890625 353.277344 424.976562 352.828125 426.15625 C 352.378906 427.335938 351.894531 430.121094 351.753906 432.347656 C 351.535156 435.722656 351.75 436.445312 353.039062 436.710938 C 354.78125 437.0625 358.253906 434.164062 359.902344 430.980469 C 360.503906 429.824219 361.394531 426.292969 361.882812 423.136719 C 362.691406 417.90625 364.757812 413.269531 368.265625 408.804688 C 369.914062 406.710938 372.03125 407.503906 376.417969 411.863281 C 381.6875 417.101562 383.351562 421.464844 383.773438 431.144531 C 384.378906 445.117188 379.828125 455.578125 368.640625 465.917969 C 357.089844 476.601562 338.636719 482.636719 306.828125 486.136719 C 288.046875 488.203125 273.339844 491.421875 258.222656 496.773438 C 250.738281 499.421875 246.3125 502.597656 248.355469 503.859375 C 250.25 505.027344 258.058594 504.324219 262.464844 502.589844 C 273.160156 498.378906 289.367188 495.347656 312.308594 493.265625 C 318.101562 492.742188 325.875 491.773438 329.582031 491.117188 C 333.289062 490.457031 337.839844 489.675781 339.695312 489.378906 L 343.0625 488.835938 L 340.941406 490.542969 C 335.75 494.722656 323.519531 498.15625 310.039062 499.21875 C 304.386719 499.664062 298.355469 500.496094 296.636719 501.074219 C 292.808594 502.355469 291.308594 504.378906 292.828125 506.210938 C 294.167969 507.820312 303.605469 507.375 318.71875 504.984375 C 334.585938 502.476562 339.859375 500.257812 356.050781 489.285156 C 364.609375 483.484375 372.03125 479.421875 372.753906 480.148438 C 373.632812 481.023438 370.386719 484.851562 366.023438 488.085938 C 363.59375 489.886719 357.765625 493.492188 353.078125 496.09375 C 342.089844 502.191406 335.003906 509.808594 339.902344 510.25 C 343.171875 510.546875 344.667969 509.984375 347.179688 507.515625 C 348.625 506.097656 354.167969 502.710938 359.496094 499.988281 C 380.8125 489.109375 390.269531 476.90625 394.863281 454.355469 C 395.402344 451.703125 396.160156 449.335938 396.546875 449.097656 C 397.75 448.351562 398.417969 459.765625 397.5 465.496094 C 395.4375 478.414062 389.496094 486.988281 376.828125 495.324219 C 368.175781 501.015625 365.210938 504.332031 365.5625 507.921875 C 365.765625 510.003906 366.246094 510.589844 367.925781 510.785156 C 369.542969 510.972656 370.761719 510.160156 373.144531 507.3125 C 374.855469 505.269531 378.265625 502.457031 380.726562 501.0625 C 383.183594 499.667969 387 496.9375 389.199219 494.992188 C 391.402344 493.042969 393.203125 491.878906 393.203125 492.402344 C 393.203125 492.921875 391.96875 495.699219 390.464844 498.574219 C 388.316406 502.675781 387.730469 504.808594 387.75 508.457031 C 387.796875 516.390625 393.109375 522.285156 396.519531 518.179688 C 397.300781 517.238281 397.140625 516.25 395.78125 513.582031 C 393.484375 509.085938 393.578125 507.816406 396.625 501.996094 C 400.726562 494.160156 400.773438 494.152344 404.972656 500.488281 C 409.410156 507.183594 409.558594 509.457031 405.941406 515.269531 C 403.03125 519.945312 402.789062 522.96875 405.285156 523.445312 C 407.25 523.816406 410.425781 520.871094 413.265625 516.050781 C 416.675781 510.261719 416.320312 505.398438 411.902344 497.417969 C 406.796875 488.1875 407.339844 487.070312 413.769531 493.589844 C 416.742188 496.601562 421.007812 500.027344 423.25 501.203125 C 428.300781 503.847656 429.410156 504.757812 431.890625 508.289062 C 433.535156 510.632812 434.21875 511 436.070312 510.542969 C 439.394531 509.722656 439.917969 508.824219 438.730469 505.964844 C 437.453125 502.882812 432.414062 498.183594 427.957031 495.910156 C 423.058594 493.414062 416.714844 487.292969 413.523438 481.984375 C 409.378906 475.097656 407.324219 464.859375 408.902344 458.972656 C 409.742188 455.84375 410.632812 456.816406 411.183594 461.46875 C 411.476562 463.933594 413.144531 468.824219 414.984375 472.625 C 420.632812 484.265625 429.917969 492.738281 445.449219 500.421875 C 448.921875 502.140625 453.515625 505.242188 455.652344 507.316406 C 458.941406 510.503906 459.972656 511.042969 462.386719 510.8125 C 464.261719 510.632812 465.328125 510.046875 465.507812 509.105469 C 465.984375 506.59375 459.046875 500.164062 451.421875 496.046875 C 442.441406 491.195312 435.390625 485.867188 433.390625 482.429688 C 430.59375 477.617188 434.628906 479.421875 448.414062 489.15625 C 459.582031 497.039062 465.882812 500.078125 477.007812 502.945312 C 485.46875 505.125 509.597656 507.535156 512.363281 506.472656 C 514.039062 505.832031 514.105469 503.078125 512.476562 501.730469 C 511.800781 501.171875 507.347656 500.378906 502.578125 499.972656 C 488.796875 498.792969 478.277344 496.828125 470.304688 493.933594 C 467.15625 492.792969 462.101562 489.832031 462.542969 489.390625 C 462.722656 489.210938 469.472656 489.996094 477.542969 491.136719 C 485.613281 492.28125 497.367188 493.59375 503.660156 494.054688 C 519.210938 495.199219 529.5 497.601562 549.015625 504.648438 C 554.09375 506.480469 555.636719 506.726562 557.292969 505.972656 C 560.695312 504.425781 559.269531 502.359375 552.464844 498.972656 C 538.054688 491.792969 522.265625 487.960938 497.707031 485.679688 C 488.199219 484.796875 476.585938 483.304688 471.898438 482.363281 C 462.402344 480.457031 450.136719 476.171875 444.007812 472.617188 C 438.542969 469.449219 426.972656 457.640625 424.179688 452.386719 C 419.738281 444.03125 418.148438 432.460938 420.210938 423.527344 C 421.371094 418.503906 425.636719 412.273438 429.726562 409.621094 L 433.128906 407.417969 L 435.039062 409.207031 C 439.097656 413.019531 441.519531 417.566406 442.222656 422.695312 C 443.472656 431.816406 447.398438 437.921875 451.101562 436.5 C 452.171875 436.089844 452.335938 434.875 452.007812 429.761719 L 451.609375 423.523438 L 456.230469 425.988281 C 461.675781 428.894531 466.515625 429.3125 466.515625 426.878906 C 466.515625 424.207031 459.671875 418.6875 454.5 417.183594 C 451.925781 416.4375 449.414062 415.824219 448.914062 415.824219 C 448.140625 415.824219 443.761719 408.335938 443.761719 407.015625 C 443.761719 406.144531 448.5625 406.582031 452.796875 407.835938 C 460.132812 410.011719 467.777344 416.335938 481.519531 431.597656 C 489.113281 440.03125 495.335938 444.210938 504.574219 447.082031 C 511.527344 449.246094 515.898438 449.175781 517.125 446.878906 C 518.496094 444.320312 517.03125 443.257812 509.21875 441.148438 C 501.8125 439.152344 497.007812 436.925781 492.574219 433.441406 C 488.277344 430.0625 475.917969 415.089844 479 416.992188 C 479.492188 417.296875 482.050781 417.945312 484.679688 418.429688 C 487.636719 418.976562 492.199219 420.886719 496.660156 423.441406 C 505.761719 428.652344 511.035156 430.414062 517.796875 430.496094 C 522.367188 430.550781 523.332031 430.292969 524.367188 428.761719 C 526.171875 426.085938 524.179688 424.597656 517.828125 423.882812 C 513.164062 423.351562 505.984375 420.578125 502.921875 418.117188 C 502.109375 417.464844 503.304688 416.773438 507.613281 415.410156 C 515.96875 412.761719 523.992188 407.589844 526.234375 403.402344 C 526.984375 402 526.90625 401.355469 525.859375 400.308594 C 523.941406 398.394531 522.359375 398.667969 518.722656 401.542969 C 514.484375 404.898438 505.738281 408.8125 498.996094 410.375 C 490.660156 412.304688 480.070312 410.34375 463.503906 403.796875 C 459.367188 402.160156 453.800781 400.351562 451.136719 399.773438 C 442.730469 397.949219 444.398438 397.320312 462.179688 395.617188 C 466.980469 395.15625 471.378906 394.777344 471.960938 394.777344 C 472.542969 394.777344 473.355469 396.386719 473.769531 398.355469 C 474.773438 403.136719 478.128906 404.878906 486.316406 404.875 C 493.574219 404.871094 497.820312 403.753906 500.851562 401.050781 C 503.113281 399.035156 503.128906 398.953125 501.535156 397.722656 C 499.558594 396.199219 493.574219 396.09375 486.207031 397.449219 C 483.261719 397.992188 480.664062 398.253906 480.441406 398.027344 C 480.21875 397.804688 479.929688 396.714844 479.804688 395.605469 C 479.597656 393.789062 480.121094 393.4375 485.054688 392.074219 C 489.808594 390.761719 491.40625 390.6875 497.160156 391.519531 C 511.203125 393.546875 525.5 389.710938 525.5 383.917969 C 525.5 383.441406 524.738281 382.644531 523.808594 382.148438 C 522.523438 381.457031 520.796875 381.652344 516.558594 382.960938 C 511.117188 384.640625 502.742188 385.296875 502.753906 384.042969 C 502.757812 383.699219 504.097656 382.503906 505.730469 381.390625 C 511.140625 377.710938 517.917969 369.6875 517.917969 366.964844 C 517.917969 364.988281 517.464844 364.390625 515.632812 363.929688 C 513.738281 363.453125 513.0625 363.769531 511.632812 365.808594 C 503.109375 377.96875 485.1875 386.921875 467.566406 387.824219 C 462.816406 388.066406 458.929688 388.074219 458.929688 387.839844 C 458.929688 387.609375 463.007812 385.617188 467.988281 383.414062 C 485.269531 375.773438 494.382812 369.488281 501.382812 360.382812 C 507.9375 351.859375 509.980469 346.417969 507.425781 344.300781 C 505.164062 342.425781 503.21875 343.773438 500.589844 349.042969 C 494.976562 360.292969 489.257812 365.046875 469.707031 374.714844 C 456.898438 381.046875 435.171875 393.0625 430.070312 396.636719 C 426.78125 398.941406 427.191406 397.40625 431.390625 391.714844 C 435.664062 385.921875 437.28125 384.628906 451.734375 375.464844 C 457.742188 371.65625 463.867188 367.480469 465.34375 366.183594 C 466.824219 364.886719 471.984375 361.140625 476.816406 357.855469 C 485.929688 351.65625 490.792969 346.6875 495.675781 338.585938 C 498.917969 333.203125 499.351562 329.605469 496.910156 328.300781 C 494.300781 326.90625 493.09375 327.976562 490.175781 334.277344 C 487.332031 340.40625 482.988281 345.359375 477.746094 348.449219 C 475.046875 350.039062 474.804688 350.066406 475.382812 348.71875 C 479.296875 339.605469 482.867188 318.5 480.894531 316.128906 C 479.523438 314.476562 477.128906 314.417969 475.550781 315.996094 C 474.882812 316.664062 474.109375 319.800781 473.800781 323.101562 C 472.292969 339.351562 467.144531 352.324219 459.5625 359.003906 C 457.125 361.148438 449.824219 365.753906 443.335938 369.230469 C 436.851562 372.710938 429.542969 377.09375 427.097656 378.972656 C 422.703125 382.347656 415.84375 390.292969 413.085938 395.199219 L 411.667969 397.726562 L 412.199219 393.515625 C 412.953125 387.546875 415.664062 379.921875 418.460938 375.90625 C 423.75 368.316406 427.617188 365.308594 439.035156 359.886719 C 451.394531 354.023438 454.277344 351.90625 459.433594 344.90625 C 464.867188 337.53125 465.5 331.25 460.753906 331.796875 C 458.929688 332.007812 458.035156 333.035156 455.980469 337.261719 C 452.554688 344.3125 450.289062 346.542969 443.1875 349.859375 C 439.855469 351.414062 436.890625 352.683594 436.597656 352.683594 C 436.304688 352.683594 436.910156 351.5 437.941406 350.050781 C 438.976562 348.597656 441.003906 344.714844 442.449219 341.417969 C 446.046875 333.21875 445.792969 333.511719 454.140625 327.941406 C 461.609375 322.957031 469.414062 314.742188 470.425781 310.789062 C 471.035156 308.425781 469.4375 306.378906 466.988281 306.378906 C 465.636719 306.378906 464.21875 307.820312 461.71875 311.738281 C 458.6875 316.492188 452.136719 322.375 449.878906 322.375 C 449.46875 322.375 449.617188 319.628906 450.207031 316.273438 C 451.398438 309.492188 451.625 302.929688 450.808594 298.851562 C 450.148438 295.542969 446.777344 293.035156 444.730469 294.324219 C 443.5625 295.058594 443.332031 296.925781 443.28125 306.050781 C 443.246094 313.398438 442.75 318.808594 441.753906 322.796875 C 439.671875 331.121094 431.242188 347.746094 425.453125 354.941406 C 413.820312 369.402344 409.636719 374.433594 409.425781 374.222656 C 408.554688 373.355469 413.867188 356.925781 416.804688 351.40625 C 418.773438 347.710938 422.066406 341.488281 424.125 337.578125 C 426.183594 333.671875 428.550781 329.503906 429.386719 328.320312 C 431.832031 324.859375 435.917969 316.300781 436.574219 313.269531 C 437.25 310.160156 435.40625 307.222656 432.78125 307.222656 C 430.671875 307.222656 429.78125 308.683594 428.273438 314.625 C 427.53125 317.539062 426.386719 320.949219 425.726562 322.203125 L 424.527344 324.480469 L 424 321.957031 C 422.847656 316.40625 422.222656 315.21875 420.316406 314.945312 C 415.941406 314.320312 414.78125 319.160156 417.160156 328.089844 C 418.664062 333.734375 418.105469 335.71875 412.269531 345.496094 C 409.769531 349.679688 407.3125 353.863281 406.808594 354.789062 C 406.113281 356.066406 405.890625 353.523438 405.886719 344.265625 C 405.878906 331.132812 406.566406 328.277344 411.207031 322.160156 C 412.347656 320.660156 415.796875 314.324219 418.871094 308.089844 C 423.148438 299.402344 424.402344 296.050781 424.210938 293.777344 C 423.984375 291.113281 423.679688 290.777344 421.269531 290.546875 C 418.171875 290.246094 416.925781 292.019531 415.179688 299.222656 C 414.140625 303.523438 408.40625 315.046875 406.171875 317.324219 C 405.082031 318.4375 404.964844 316.734375 405.179688 303.164062 C 405.40625 288.71875 405.316406 287.664062 403.785156 286.539062 C 401.871094 285.128906 401.675781 285.113281 399.734375 286.242188 " fill-opacity="1" fill-rule="evenodd"/><g fill="#000000" fill-opacity="1"><g transform="translate(245.637326, 574.836124)"><g><path d="M 0 -23.765625 C 0 -25.503906 0.476562 -26.984375 1.4375 -28.203125 C 2.40625 -29.429688 3.722656 -30.4375 5.390625 -31.21875 C 7.066406 -32.007812 9.015625 -32.582031 11.234375 -32.9375 C 13.460938 -33.289062 15.847656 -33.46875 18.390625 -33.46875 C 19.597656 -33.46875 20.773438 -33.457031 21.921875 -33.4375 C 23.066406 -33.414062 24.113281 -33.382812 25.0625 -33.34375 C 26.007812 -33.300781 26.828125 -33.25 27.515625 -33.1875 C 28.203125 -33.125 28.703125 -33.054688 29.015625 -32.984375 C 29.316406 -32.910156 29.554688 -32.828125 29.734375 -32.734375 C 29.910156 -32.648438 30.046875 -32.546875 30.140625 -32.421875 C 30.234375 -32.304688 30.289062 -32.171875 30.3125 -32.015625 C 30.34375 -31.859375 30.359375 -31.675781 30.359375 -31.46875 C 30.359375 -31.28125 30.335938 -31.078125 30.296875 -30.859375 C 30.253906 -30.648438 30.1875 -30.453125 30.09375 -30.265625 C 30 -30.078125 29.882812 -29.914062 29.75 -29.78125 C 29.625 -29.644531 29.460938 -29.578125 29.265625 -29.578125 C 29.148438 -29.578125 29.019531 -29.628906 28.875 -29.734375 C 28.726562 -29.835938 28.523438 -29.972656 28.265625 -30.140625 C 28.003906 -30.304688 27.65625 -30.476562 27.21875 -30.65625 C 26.78125 -30.832031 26.191406 -31.003906 25.453125 -31.171875 C 24.710938 -31.335938 23.789062 -31.472656 22.6875 -31.578125 C 21.59375 -31.679688 20.269531 -31.734375 18.71875 -31.734375 L 18.71875 -17.375 L 28.015625 -17.375 L 28.015625 -15.40625 L 18.71875 -15.40625 L 18.71875 -6.65625 C 18.71875 -5.945312 18.820312 -5.34375 19.03125 -4.84375 C 19.238281 -4.34375 19.535156 -3.925781 19.921875 -3.59375 C 20.316406 -3.269531 20.785156 -3.035156 21.328125 -2.890625 C 21.867188 -2.742188 22.476562 -2.671875 23.15625 -2.671875 C 23.914062 -2.671875 24.675781 -2.75 25.4375 -2.90625 C 26.195312 -3.0625 26.914062 -3.253906 27.59375 -3.484375 C 28.28125 -3.722656 28.898438 -3.992188 29.453125 -4.296875 C 30.015625 -4.597656 30.46875 -4.890625 30.8125 -5.171875 L 31.6875 -4.203125 C 31.3125 -3.910156 30.8125 -3.503906 30.1875 -2.984375 C 29.5625 -2.472656 28.796875 -1.96875 27.890625 -1.46875 C 26.984375 -0.976562 25.929688 -0.550781 24.734375 -0.1875 C 23.535156 0.175781 22.171875 0.359375 20.640625 0.359375 C 20.140625 0.359375 19.5625 0.332031 18.90625 0.28125 C 18.257812 0.226562 17.59375 0.125 16.90625 -0.03125 C 16.21875 -0.1875 15.539062 -0.414062 14.875 -0.71875 C 14.21875 -1.03125 13.628906 -1.4375 13.109375 -1.9375 C 12.597656 -2.445312 12.179688 -3.070312 11.859375 -3.8125 C 11.535156 -4.550781 11.375 -5.4375 11.375 -6.46875 L 11.375 -15.40625 L 7.875 -15.40625 L 7.875 -17.375 L 11.375 -17.375 L 11.375 -31.46875 C 10.894531 -31.414062 10.34375 -31.328125 9.71875 -31.203125 C 9.101562 -31.078125 8.472656 -30.894531 7.828125 -30.65625 C 7.179688 -30.425781 6.539062 -30.15625 5.90625 -29.84375 C 5.28125 -29.53125 4.722656 -29.164062 4.234375 -28.75 C 3.742188 -28.332031 3.34375 -27.863281 3.03125 -27.34375 C 2.726562 -26.832031 2.578125 -26.28125 2.578125 -25.6875 C 2.578125 -25.207031 2.640625 -24.820312 2.765625 -24.53125 C 2.890625 -24.25 3.035156 -24.035156 3.203125 -23.890625 C 3.367188 -23.753906 3.535156 -23.664062 3.703125 -23.625 C 3.878906 -23.59375 4.003906 -23.578125 4.078125 -23.578125 C 4.453125 -23.578125 4.757812 -23.640625 5 -23.765625 C 5.238281 -23.890625 5.453125 -24.023438 5.640625 -24.171875 C 5.835938 -24.316406 6.019531 -24.453125 6.1875 -24.578125 C 6.363281 -24.703125 6.5625 -24.765625 6.78125 -24.765625 C 6.957031 -24.765625 7.144531 -24.722656 7.34375 -24.640625 C 7.550781 -24.554688 7.738281 -24.425781 7.90625 -24.25 C 8.082031 -24.070312 8.226562 -23.835938 8.34375 -23.546875 C 8.46875 -23.253906 8.53125 -22.898438 8.53125 -22.484375 C 8.53125 -21.890625 8.414062 -21.367188 8.1875 -20.921875 C 7.957031 -20.484375 7.65625 -20.125 7.28125 -19.84375 C 6.914062 -19.5625 6.5 -19.347656 6.03125 -19.203125 C 5.5625 -19.054688 5.097656 -18.984375 4.640625 -18.984375 C 3.921875 -18.984375 3.273438 -19.109375 2.703125 -19.359375 C 2.128906 -19.609375 1.640625 -19.945312 1.234375 -20.375 C 0.828125 -20.8125 0.519531 -21.316406 0.3125 -21.890625 C 0.101562 -22.460938 0 -23.085938 0 -23.765625 Z M 0 -23.765625 "/></g></g></g><g fill="#000000" fill-opacity="1"><g transform="translate(277.327035, 574.836124)"><g><path d="M 15.96875 -11.15625 C 15.96875 -13.03125 15.878906 -14.53125 15.703125 -15.65625 C 15.535156 -16.789062 15.304688 -17.648438 15.015625 -18.234375 C 14.734375 -18.828125 14.421875 -19.21875 14.078125 -19.40625 C 13.734375 -19.59375 13.382812 -19.6875 13.03125 -19.6875 C 12.601562 -19.6875 12.21875 -19.566406 11.875 -19.328125 C 11.539062 -19.097656 11.25 -18.832031 11 -18.53125 C 10.757812 -18.238281 10.550781 -17.941406 10.375 -17.640625 C 10.207031 -17.347656 10.0625 -17.125 9.9375 -16.96875 L 9.9375 -2.015625 C 9.9375 -1.816406 9.90625 -1.578125 9.84375 -1.296875 C 9.789062 -1.023438 9.644531 -0.765625 9.40625 -0.515625 C 9.175781 -0.273438 8.832031 -0.0703125 8.375 0.09375 C 7.925781 0.269531 7.304688 0.359375 6.515625 0.359375 C 5.722656 0.359375 5.097656 0.265625 4.640625 0.078125 C 4.191406 -0.109375 3.847656 -0.328125 3.609375 -0.578125 C 3.367188 -0.835938 3.21875 -1.097656 3.15625 -1.359375 C 3.09375 -1.628906 3.0625 -1.847656 3.0625 -2.015625 L 3.0625 -19.296875 C 3.0625 -19.734375 2.960938 -20.113281 2.765625 -20.4375 C 2.566406 -20.757812 2.226562 -20.921875 1.75 -20.921875 C 1.488281 -20.921875 1.269531 -20.875 1.09375 -20.78125 C 0.914062 -20.6875 0.722656 -20.5625 0.515625 -20.40625 L 0.046875 -20.953125 C 0.390625 -21.242188 0.773438 -21.523438 1.203125 -21.796875 C 1.628906 -22.078125 2.085938 -22.320312 2.578125 -22.53125 C 3.066406 -22.738281 3.59375 -22.910156 4.15625 -23.046875 C 4.726562 -23.179688 5.328125 -23.25 5.953125 -23.25 C 6.921875 -23.25 7.675781 -23.085938 8.21875 -22.765625 C 8.757812 -22.441406 9.15625 -22.054688 9.40625 -21.609375 C 9.65625 -21.160156 9.804688 -20.691406 9.859375 -20.203125 C 9.910156 -19.722656 9.9375 -19.316406 9.9375 -18.984375 C 10.488281 -19.773438 11.117188 -20.484375 11.828125 -21.109375 C 12.109375 -21.378906 12.421875 -21.640625 12.765625 -21.890625 C 13.117188 -22.148438 13.492188 -22.378906 13.890625 -22.578125 C 14.285156 -22.785156 14.703125 -22.945312 15.140625 -23.0625 C 15.585938 -23.1875 16.039062 -23.25 16.5 -23.25 C 17.519531 -23.25 18.421875 -23.050781 19.203125 -22.65625 C 19.984375 -22.269531 20.640625 -21.617188 21.171875 -20.703125 C 21.710938 -19.796875 22.125 -18.59375 22.40625 -17.09375 C 22.695312 -15.59375 22.84375 -13.734375 22.84375 -11.515625 C 22.84375 -9.347656 22.644531 -7.460938 22.25 -5.859375 C 21.863281 -4.265625 21.359375 -2.90625 20.734375 -1.78125 C 20.109375 -0.664062 19.398438 0.242188 18.609375 0.953125 C 17.816406 1.660156 17.015625 2.210938 16.203125 2.609375 C 15.398438 3.015625 14.628906 3.296875 13.890625 3.453125 C 13.148438 3.609375 12.515625 3.695312 11.984375 3.71875 L 11.734375 2.796875 C 12.179688 2.691406 12.59375 2.523438 12.96875 2.296875 C 13.351562 2.078125 13.703125 1.75 14.015625 1.3125 C 14.328125 0.882812 14.601562 0.335938 14.84375 -0.328125 C 15.082031 -0.992188 15.285156 -1.828125 15.453125 -2.828125 C 15.628906 -3.828125 15.757812 -5.007812 15.84375 -6.375 C 15.925781 -7.738281 15.96875 -9.332031 15.96875 -11.15625 Z M 15.96875 -11.15625 "/></g></g></g><g fill="#000000" fill-opacity="1"><g transform="translate(302.006936, 574.836124)"><g><path d="M 10.046875 -21.3125 L 10.046875 -4.765625 C 10.046875 -3.972656 10.195312 -3.425781 10.5 -3.125 C 10.800781 -2.820312 11.210938 -2.671875 11.734375 -2.671875 C 12.140625 -2.671875 12.5 -2.78125 12.8125 -3 C 13.125 -3.226562 13.390625 -3.484375 13.609375 -3.765625 C 13.878906 -4.078125 14.113281 -4.441406 14.3125 -4.859375 L 15 -4.546875 C 14.78125 -4.066406 14.515625 -3.539062 14.203125 -2.96875 C 13.898438 -2.40625 13.492188 -1.878906 12.984375 -1.390625 C 12.472656 -0.910156 11.832031 -0.503906 11.0625 -0.171875 C 10.300781 0.148438 9.335938 0.3125 8.171875 0.3125 C 7.515625 0.3125 6.882812 0.210938 6.28125 0.015625 C 5.675781 -0.171875 5.140625 -0.472656 4.671875 -0.890625 C 4.203125 -1.304688 3.820312 -1.828125 3.53125 -2.453125 C 3.25 -3.085938 3.109375 -3.84375 3.109375 -4.71875 L 3.109375 -21.3125 L 0.609375 -21.3125 L 0.609375 -22.9375 C 1.023438 -22.9375 1.601562 -23.039062 2.34375 -23.25 C 3.09375 -23.46875 3.859375 -23.832031 4.640625 -24.34375 C 5.429688 -24.851562 6.160156 -25.53125 6.828125 -26.375 C 7.503906 -27.226562 7.984375 -28.28125 8.265625 -29.53125 L 10.046875 -29.53125 L 10.046875 -22.9375 L 13.703125 -22.9375 C 14.898438 -22.9375 15.5 -23.132812 15.5 -23.53125 C 15.5 -23.6875 15.421875 -23.789062 15.265625 -23.84375 C 15.117188 -23.894531 14.953125 -23.957031 14.765625 -24.03125 C 14.578125 -24.113281 14.410156 -24.226562 14.265625 -24.375 C 14.117188 -24.53125 14.046875 -24.78125 14.046875 -25.125 C 14.046875 -25.539062 14.175781 -25.867188 14.4375 -26.109375 C 14.695312 -26.347656 15.035156 -26.46875 15.453125 -26.46875 C 15.722656 -26.46875 15.957031 -26.410156 16.15625 -26.296875 C 16.351562 -26.179688 16.519531 -26.03125 16.65625 -25.84375 C 16.789062 -25.664062 16.890625 -25.457031 16.953125 -25.21875 C 17.023438 -24.976562 17.0625 -24.738281 17.0625 -24.5 C 17.0625 -23.53125 16.78125 -22.753906 16.21875 -22.171875 C 15.664062 -21.597656 14.769531 -21.3125 13.53125 -21.3125 Z M 10.046875 -21.3125 "/></g></g></g><g fill="#000000" fill-opacity="1"><g transform="translate(317.459868, 574.836124)"><g/></g></g><g fill="#000000" fill-opacity="1"><g transform="translate(327.784219, 574.836124)"><g><path d="M 27.5625 -15.40625 L 18.71875 -15.40625 L 18.71875 -2.9375 C 18.71875 -1.78125 18.414062 -0.941406 17.8125 -0.421875 C 17.207031 0.0976562 16.285156 0.359375 15.046875 0.359375 C 13.796875 0.359375 12.867188 0.0976562 12.265625 -0.421875 C 11.671875 -0.941406 11.375 -1.78125 11.375 -2.9375 L 11.375 -15.40625 L 7.875 -15.40625 L 7.875 -17.375 L 11.375 -17.375 L 11.375 -31.46875 C 10.894531 -31.414062 10.34375 -31.328125 9.71875 -31.203125 C 9.101562 -31.078125 8.472656 -30.894531 7.828125 -30.65625 C 7.179688 -30.425781 6.539062 -30.15625 5.90625 -29.84375 C 5.28125 -29.53125 4.722656 -29.164062 4.234375 -28.75 C 3.742188 -28.332031 3.34375 -27.863281 3.03125 -27.34375 C 2.726562 -26.832031 2.578125 -26.28125 2.578125 -25.6875 C 2.578125 -25.207031 2.640625 -24.820312 2.765625 -24.53125 C 2.890625 -24.25 3.035156 -24.035156 3.203125 -23.890625 C 3.367188 -23.753906 3.535156 -23.664062 3.703125 -23.625 C 3.878906 -23.59375 4.003906 -23.578125 4.078125 -23.578125 C 4.453125 -23.578125 4.757812 -23.640625 5 -23.765625 C 5.238281 -23.890625 5.453125 -24.023438 5.640625 -24.171875 C 5.835938 -24.316406 6.019531 -24.453125 6.1875 -24.578125 C 6.363281 -24.703125 6.5625 -24.765625 6.78125 -24.765625 C 6.957031 -24.765625 7.144531 -24.722656 7.34375 -24.640625 C 7.550781 -24.554688 7.738281 -24.425781 7.90625 -24.25 C 8.082031 -24.070312 8.226562 -23.835938 8.34375 -23.546875 C 8.46875 -23.253906 8.53125 -22.898438 8.53125 -22.484375 C 8.53125 -21.890625 8.414062 -21.367188 8.1875 -20.921875 C 7.957031 -20.484375 7.65625 -20.125 7.28125 -19.84375 C 6.914062 -19.5625 6.5 -19.347656 6.03125 -19.203125 C 5.5625 -19.054688 5.097656 -18.984375 4.640625 -18.984375 C 3.921875 -18.984375 3.273438 -19.109375 2.703125 -19.359375 C 2.128906 -19.609375 1.640625 -19.945312 1.234375 -20.375 C 0.828125 -20.8125 0.519531 -21.316406 0.3125 -21.890625 C 0.101562 -22.460938 0 -23.085938 0 -23.765625 C 0 -25.503906 0.476562 -26.984375 1.4375 -28.203125 C 2.40625 -29.429688 3.722656 -30.4375 5.390625 -31.21875 C 7.066406 -32.007812 9.015625 -32.582031 11.234375 -32.9375 C 13.460938 -33.289062 15.847656 -33.46875 18.390625 -33.46875 C 19.410156 -33.46875 20.476562 -33.457031 21.59375 -33.4375 C 22.71875 -33.414062 23.773438 -33.382812 24.765625 -33.34375 C 25.765625 -33.300781 26.644531 -33.25 27.40625 -33.1875 C 28.164062 -33.125 28.703125 -33.054688 29.015625 -32.984375 C 29.316406 -32.910156 29.554688 -32.828125 29.734375 -32.734375 C 29.910156 -32.648438 30.046875 -32.546875 30.140625 -32.421875 C 30.234375 -32.304688 30.289062 -32.171875 30.3125 -32.015625 C 30.34375 -31.859375 30.359375 -31.675781 30.359375 -31.46875 C 30.359375 -31.28125 30.335938 -31.078125 30.296875 -30.859375 C 30.253906 -30.648438 30.1875 -30.453125 30.09375 -30.265625 C 30 -30.078125 29.882812 -29.914062 29.75 -29.78125 C 29.625 -29.644531 29.460938 -29.578125 29.265625 -29.578125 C 29.148438 -29.578125 29.019531 -29.628906 28.875 -29.734375 C 28.726562 -29.835938 28.523438 -29.972656 28.265625 -30.140625 C 28.003906 -30.304688 27.65625 -30.476562 27.21875 -30.65625 C 26.78125 -30.832031 26.191406 -31.003906 25.453125 -31.171875 C 24.710938 -31.335938 23.789062 -31.472656 22.6875 -31.578125 C 21.59375 -31.679688 20.269531 -31.734375 18.71875 -31.734375 L 18.71875 -17.375 L 27.5625 -17.375 Z M 27.5625 -15.40625 "/></g></g></g><g fill="#000000" fill-opacity="1"><g transform="translate(356.808857, 574.836124)"><g><path d="M 9.9375 -18.515625 C 10.507812 -19.378906 11.113281 -20.164062 11.75 -20.875 C 12.019531 -21.164062 12.3125 -21.453125 12.625 -21.734375 C 12.9375 -22.023438 13.257812 -22.28125 13.59375 -22.5 C 13.9375 -22.726562 14.285156 -22.910156 14.640625 -23.046875 C 15.003906 -23.179688 15.363281 -23.25 15.71875 -23.25 C 16.476562 -23.25 17.070312 -23.019531 17.5 -22.5625 C 17.9375 -22.101562 18.15625 -21.460938 18.15625 -20.640625 C 18.15625 -20.140625 18.113281 -19.648438 18.03125 -19.171875 C 17.945312 -18.703125 17.789062 -18.132812 17.5625 -17.46875 L 16.921875 -17.46875 C 16.835938 -17.925781 16.628906 -18.304688 16.296875 -18.609375 C 15.972656 -18.921875 15.5 -19.078125 14.875 -19.078125 C 14.40625 -19.078125 13.945312 -18.988281 13.5 -18.8125 C 13.050781 -18.644531 12.613281 -18.429688 12.1875 -18.171875 C 11.757812 -17.921875 11.351562 -17.644531 10.96875 -17.34375 C 10.59375 -17.050781 10.25 -16.769531 9.9375 -16.5 L 9.9375 -1.96875 C 9.9375 -1.769531 9.90625 -1.535156 9.84375 -1.265625 C 9.789062 -1.003906 9.644531 -0.753906 9.40625 -0.515625 C 9.175781 -0.273438 8.832031 -0.0703125 8.375 0.09375 C 7.925781 0.269531 7.304688 0.359375 6.515625 0.359375 C 5.722656 0.359375 5.097656 0.265625 4.640625 0.078125 C 4.191406 -0.109375 3.847656 -0.328125 3.609375 -0.578125 C 3.367188 -0.835938 3.21875 -1.097656 3.15625 -1.359375 C 3.09375 -1.628906 3.0625 -1.847656 3.0625 -2.015625 L 3.0625 -19.296875 C 3.0625 -19.734375 2.960938 -20.113281 2.765625 -20.4375 C 2.566406 -20.757812 2.226562 -20.921875 1.75 -20.921875 C 1.488281 -20.921875 1.269531 -20.875 1.09375 -20.78125 C 0.914062 -20.6875 0.722656 -20.5625 0.515625 -20.40625 L 0.046875 -20.953125 C 0.390625 -21.242188 0.773438 -21.523438 1.203125 -21.796875 C 1.628906 -22.078125 2.085938 -22.320312 2.578125 -22.53125 C 3.066406 -22.738281 3.59375 -22.910156 4.15625 -23.046875 C 4.726562 -23.179688 5.328125 -23.25 5.953125 -23.25 C 6.597656 -23.25 7.144531 -23.160156 7.59375 -22.984375 C 8.050781 -22.816406 8.425781 -22.59375 8.71875 -22.3125 C 9.007812 -22.039062 9.238281 -21.734375 9.40625 -21.390625 C 9.570312 -21.046875 9.691406 -20.695312 9.765625 -20.34375 C 9.847656 -19.988281 9.894531 -19.648438 9.90625 -19.328125 C 9.925781 -19.015625 9.9375 -18.742188 9.9375 -18.515625 Z M 9.9375 -18.515625 "/></g></g></g><g fill="#000000" fill-opacity="1"><g transform="translate(375.016443, 574.836124)"><g><path d="M 12.875 -11.59375 C 12.875 -11.96875 12.753906 -12.25 12.515625 -12.4375 C 12.273438 -12.632812 11.96875 -12.734375 11.59375 -12.734375 C 11.070312 -12.734375 10.578125 -12.613281 10.109375 -12.375 C 9.640625 -12.144531 9.222656 -11.796875 8.859375 -11.328125 C 8.503906 -10.867188 8.222656 -10.296875 8.015625 -9.609375 C 7.804688 -8.929688 7.703125 -8.144531 7.703125 -7.25 C 7.703125 -6.382812 7.765625 -5.664062 7.890625 -5.09375 C 8.015625 -4.53125 8.1875 -4.082031 8.40625 -3.75 C 8.625 -3.414062 8.875 -3.179688 9.15625 -3.046875 C 9.4375 -2.910156 9.734375 -2.84375 10.046875 -2.84375 C 10.441406 -2.84375 10.8125 -2.941406 11.15625 -3.140625 C 11.5 -3.347656 11.796875 -3.609375 12.046875 -3.921875 C 12.296875 -4.234375 12.492188 -4.582031 12.640625 -4.96875 C 12.796875 -5.351562 12.875 -5.742188 12.875 -6.140625 Z M 9.3125 -21.40625 C 8.800781 -21.40625 8.328125 -21.34375 7.890625 -21.21875 C 7.460938 -21.101562 7.09375 -20.957031 6.78125 -20.78125 C 6.46875 -20.601562 6.222656 -20.40625 6.046875 -20.1875 C 5.867188 -19.96875 5.78125 -19.765625 5.78125 -19.578125 C 5.78125 -19.347656 5.894531 -19.179688 6.125 -19.078125 C 6.351562 -18.984375 6.609375 -18.875 6.890625 -18.75 C 7.179688 -18.625 7.441406 -18.445312 7.671875 -18.21875 C 7.898438 -17.988281 8.015625 -17.632812 8.015625 -17.15625 C 8.015625 -16.84375 7.953125 -16.554688 7.828125 -16.296875 C 7.703125 -16.035156 7.53125 -15.800781 7.3125 -15.59375 C 7.09375 -15.394531 6.835938 -15.238281 6.546875 -15.125 C 6.253906 -15.007812 5.953125 -14.953125 5.640625 -14.953125 C 4.804688 -14.953125 4.128906 -15.234375 3.609375 -15.796875 C 3.097656 -16.367188 2.84375 -17.128906 2.84375 -18.078125 C 2.84375 -18.984375 3.082031 -19.757812 3.5625 -20.40625 C 4.039062 -21.0625 4.660156 -21.597656 5.421875 -22.015625 C 6.191406 -22.429688 7.0625 -22.738281 8.03125 -22.9375 C 9.007812 -23.144531 9.984375 -23.25 10.953125 -23.25 C 12.117188 -23.25 13.226562 -23.117188 14.28125 -22.859375 C 15.34375 -22.609375 16.28125 -22.207031 17.09375 -21.65625 C 17.90625 -21.101562 18.550781 -20.398438 19.03125 -19.546875 C 19.519531 -18.691406 19.765625 -17.660156 19.765625 -16.453125 L 19.765625 -3.8125 C 19.765625 -3.675781 19.769531 -3.523438 19.78125 -3.359375 C 19.800781 -3.191406 19.84375 -3.039062 19.90625 -2.90625 C 19.96875 -2.769531 20.054688 -2.65625 20.171875 -2.5625 C 20.296875 -2.476562 20.46875 -2.4375 20.6875 -2.4375 C 20.957031 -2.4375 21.207031 -2.535156 21.4375 -2.734375 C 21.664062 -2.941406 21.875 -3.148438 22.0625 -3.359375 L 22.609375 -2.890625 C 22.390625 -2.578125 22.125 -2.234375 21.8125 -1.859375 C 21.5 -1.484375 21.117188 -1.128906 20.671875 -0.796875 C 20.222656 -0.472656 19.695312 -0.203125 19.09375 0.015625 C 18.5 0.242188 17.820312 0.359375 17.0625 0.359375 C 16.125 0.359375 15.285156 0.078125 14.546875 -0.484375 C 13.816406 -1.046875 13.34375 -1.90625 13.125 -3.0625 C 12.644531 -2.425781 12.144531 -1.890625 11.625 -1.453125 C 11.113281 -1.023438 10.585938 -0.675781 10.046875 -0.40625 C 9.515625 -0.132812 8.972656 0.0546875 8.421875 0.171875 C 7.878906 0.296875 7.332031 0.359375 6.78125 0.359375 C 6.0625 0.359375 5.363281 0.242188 4.6875 0.015625 C 4.019531 -0.203125 3.421875 -0.550781 2.890625 -1.03125 C 2.367188 -1.519531 1.945312 -2.148438 1.625 -2.921875 C 1.300781 -3.703125 1.140625 -4.65625 1.140625 -5.78125 C 1.140625 -7.132812 1.40625 -8.242188 1.9375 -9.109375 C 2.476562 -9.972656 3.1875 -10.703125 4.0625 -11.296875 C 4.9375 -11.890625 5.925781 -12.394531 7.03125 -12.8125 C 8.144531 -13.226562 9.285156 -13.664062 10.453125 -14.125 C 11.316406 -14.46875 11.945312 -14.976562 12.34375 -15.65625 C 12.738281 -16.34375 12.9375 -17.039062 12.9375 -17.75 C 12.9375 -18.863281 12.613281 -19.75 11.96875 -20.40625 C 11.320312 -21.070312 10.4375 -21.40625 9.3125 -21.40625 Z M 9.3125 -21.40625 "/></g></g></g><g fill="#000000" fill-opacity="1"><g transform="translate(397.859908, 574.836124)"><g><path d="M 21.921875 -1.96875 C 21.921875 -1.769531 21.890625 -1.535156 21.828125 -1.265625 C 21.773438 -1.003906 21.628906 -0.753906 21.390625 -0.515625 C 21.160156 -0.273438 20.8125 -0.0703125 20.34375 0.09375 C 19.882812 0.269531 19.257812 0.359375 18.46875 0.359375 C 17.675781 0.359375 17.050781 0.265625 16.59375 0.078125 C 16.144531 -0.109375 15.804688 -0.328125 15.578125 -0.578125 C 15.347656 -0.835938 15.203125 -1.097656 15.140625 -1.359375 C 15.078125 -1.628906 15.046875 -1.847656 15.046875 -2.015625 L 15.046875 -17.84375 C 15.046875 -18.050781 15.015625 -18.265625 14.953125 -18.484375 C 14.898438 -18.703125 14.8125 -18.898438 14.6875 -19.078125 C 14.570312 -19.253906 14.421875 -19.398438 14.234375 -19.515625 C 14.054688 -19.628906 13.847656 -19.6875 13.609375 -19.6875 C 13.210938 -19.6875 12.816406 -19.566406 12.421875 -19.328125 C 12.035156 -19.097656 11.675781 -18.832031 11.34375 -18.53125 C 11.007812 -18.238281 10.71875 -17.941406 10.46875 -17.640625 C 10.21875 -17.347656 10.039062 -17.125 9.9375 -16.96875 L 9.9375 -1.96875 C 9.9375 -1.769531 9.90625 -1.535156 9.84375 -1.265625 C 9.789062 -1.003906 9.644531 -0.753906 9.40625 -0.515625 C 9.175781 -0.273438 8.832031 -0.0703125 8.375 0.09375 C 7.925781 0.269531 7.304688 0.359375 6.515625 0.359375 C 5.722656 0.359375 5.097656 0.265625 4.640625 0.078125 C 4.191406 -0.109375 3.847656 -0.328125 3.609375 -0.578125 C 3.367188 -0.835938 3.21875 -1.097656 3.15625 -1.359375 C 3.09375 -1.628906 3.0625 -1.847656 3.0625 -2.015625 L 3.0625 -19.296875 C 3.0625 -19.734375 2.960938 -20.113281 2.765625 -20.4375 C 2.566406 -20.757812 2.226562 -20.921875 1.75 -20.921875 C 1.488281 -20.921875 1.269531 -20.875 1.09375 -20.78125 C 0.914062 -20.6875 0.722656 -20.5625 0.515625 -20.40625 L 0.046875 -20.953125 C 0.390625 -21.242188 0.773438 -21.523438 1.203125 -21.796875 C 1.628906 -22.078125 2.085938 -22.320312 2.578125 -22.53125 C 3.066406 -22.738281 3.59375 -22.910156 4.15625 -23.046875 C 4.726562 -23.179688 5.328125 -23.25 5.953125 -23.25 C 6.921875 -23.25 7.675781 -23.085938 8.21875 -22.765625 C 8.757812 -22.441406 9.15625 -22.054688 9.40625 -21.609375 C 9.65625 -21.160156 9.804688 -20.691406 9.859375 -20.203125 C 9.910156 -19.722656 9.9375 -19.316406 9.9375 -18.984375 C 10.644531 -19.773438 11.398438 -20.484375 12.203125 -21.109375 C 12.535156 -21.378906 12.898438 -21.640625 13.296875 -21.890625 C 13.691406 -22.148438 14.097656 -22.378906 14.515625 -22.578125 C 14.929688 -22.785156 15.363281 -22.945312 15.8125 -23.0625 C 16.257812 -23.1875 16.707031 -23.25 17.15625 -23.25 C 18.019531 -23.25 18.753906 -23.085938 19.359375 -22.765625 C 19.972656 -22.453125 20.46875 -22.078125 20.84375 -21.640625 C 21.21875 -21.203125 21.488281 -20.738281 21.65625 -20.25 C 21.832031 -19.769531 21.921875 -19.347656 21.921875 -18.984375 C 22.640625 -19.773438 23.394531 -20.484375 24.1875 -21.109375 C 24.507812 -21.378906 24.863281 -21.640625 25.25 -21.890625 C 25.644531 -22.148438 26.050781 -22.378906 26.46875 -22.578125 C 26.894531 -22.785156 27.328125 -22.945312 27.765625 -23.0625 C 28.210938 -23.1875 28.660156 -23.25 29.109375 -23.25 C 29.972656 -23.25 30.710938 -23.085938 31.328125 -22.765625 C 31.941406 -22.441406 32.429688 -22.019531 32.796875 -21.5 C 33.171875 -20.976562 33.441406 -20.390625 33.609375 -19.734375 C 33.785156 -19.078125 33.875 -18.414062 33.875 -17.75 L 33.875 -3.890625 C 33.875 -3.753906 33.878906 -3.609375 33.890625 -3.453125 C 33.910156 -3.296875 33.953125 -3.144531 34.015625 -3 C 34.078125 -2.863281 34.171875 -2.75 34.296875 -2.65625 C 34.421875 -2.570312 34.585938 -2.53125 34.796875 -2.53125 C 35.078125 -2.53125 35.328125 -2.628906 35.546875 -2.828125 C 35.773438 -3.035156 35.988281 -3.242188 36.1875 -3.453125 L 36.71875 -2.984375 C 36.507812 -2.671875 36.234375 -2.320312 35.890625 -1.9375 C 35.546875 -1.550781 35.140625 -1.1875 34.671875 -0.84375 C 34.203125 -0.5 33.65625 -0.210938 33.03125 0.015625 C 32.414062 0.242188 31.722656 0.359375 30.953125 0.359375 C 30.285156 0.359375 29.707031 0.269531 29.21875 0.09375 C 28.738281 -0.0703125 28.332031 -0.300781 28 -0.59375 C 27.664062 -0.882812 27.414062 -1.226562 27.25 -1.625 C 27.082031 -2.019531 27 -2.441406 27 -2.890625 L 27 -17.84375 C 27 -18.050781 26.96875 -18.265625 26.90625 -18.484375 C 26.851562 -18.703125 26.769531 -18.898438 26.65625 -19.078125 C 26.539062 -19.253906 26.394531 -19.398438 26.21875 -19.515625 C 26.039062 -19.628906 25.832031 -19.6875 25.59375 -19.6875 C 25.1875 -19.6875 24.785156 -19.566406 24.390625 -19.328125 C 23.992188 -19.097656 23.628906 -18.832031 23.296875 -18.53125 C 22.960938 -18.238281 22.675781 -17.941406 22.4375 -17.640625 C 22.195312 -17.347656 22.023438 -17.125 21.921875 -16.96875 Z M 21.921875 -1.96875 "/></g></g></g><g fill="#000000" fill-opacity="1"><g transform="translate(434.834968, 574.836124)"><g><path d="M 8.578125 -10.28125 C 8.578125 -9.800781 8.644531 -9.28125 8.78125 -8.71875 C 8.925781 -8.15625 9.132812 -7.59375 9.40625 -7.03125 C 9.675781 -6.46875 10.007812 -5.925781 10.40625 -5.40625 C 10.800781 -4.894531 11.253906 -4.4375 11.765625 -4.03125 C 12.285156 -3.625 12.859375 -3.300781 13.484375 -3.0625 C 14.109375 -2.820312 14.796875 -2.703125 15.546875 -2.703125 C 16.066406 -2.703125 16.550781 -2.757812 17 -2.875 C 17.445312 -3 17.863281 -3.164062 18.25 -3.375 C 18.632812 -3.582031 19.003906 -3.820312 19.359375 -4.09375 C 19.722656 -4.375 20.082031 -4.675781 20.4375 -5 L 21 -4.453125 C 20.65625 -3.992188 20.210938 -3.488281 19.671875 -2.9375 C 19.140625 -2.382812 18.492188 -1.863281 17.734375 -1.375 C 16.972656 -0.894531 16.082031 -0.492188 15.0625 -0.171875 C 14.050781 0.148438 12.894531 0.3125 11.59375 0.3125 C 10.300781 0.3125 9.035156 0.078125 7.796875 -0.390625 C 6.566406 -0.859375 5.472656 -1.5625 4.515625 -2.5 C 3.566406 -3.445312 2.800781 -4.617188 2.21875 -6.015625 C 1.644531 -7.421875 1.359375 -9.066406 1.359375 -10.953125 C 1.359375 -12.304688 1.53125 -13.550781 1.875 -14.6875 C 2.21875 -15.820312 2.6875 -16.84375 3.28125 -17.75 C 3.875 -18.664062 4.5625 -19.46875 5.34375 -20.15625 C 6.125 -20.84375 6.945312 -21.410156 7.8125 -21.859375 C 8.675781 -22.316406 9.5625 -22.660156 10.46875 -22.890625 C 11.375 -23.128906 12.242188 -23.25 13.078125 -23.25 C 14.179688 -23.25 15.144531 -23.128906 15.96875 -22.890625 C 16.789062 -22.648438 17.472656 -22.328125 18.015625 -21.921875 C 18.554688 -21.515625 18.960938 -21.046875 19.234375 -20.515625 C 19.503906 -19.992188 19.640625 -19.441406 19.640625 -18.859375 C 19.640625 -18.148438 19.4375 -17.515625 19.03125 -16.953125 C 18.625 -16.398438 18.085938 -15.914062 17.421875 -15.5 Z M 13.078125 -14.828125 C 13.273438 -14.941406 13.4375 -15.054688 13.5625 -15.171875 C 13.6875 -15.285156 13.785156 -15.421875 13.859375 -15.578125 C 13.929688 -15.734375 13.984375 -15.925781 14.015625 -16.15625 C 14.054688 -16.382812 14.078125 -16.671875 14.078125 -17.015625 C 14.078125 -17.390625 14.035156 -17.800781 13.953125 -18.25 C 13.878906 -18.707031 13.742188 -19.140625 13.546875 -19.546875 C 13.347656 -19.953125 13.097656 -20.285156 12.796875 -20.546875 C 12.503906 -20.816406 12.148438 -20.953125 11.734375 -20.953125 C 11.191406 -20.953125 10.726562 -20.789062 10.34375 -20.46875 C 9.96875 -20.15625 9.65625 -19.742188 9.40625 -19.234375 C 9.164062 -18.722656 8.972656 -18.144531 8.828125 -17.5 C 8.691406 -16.851562 8.582031 -16.203125 8.5 -15.546875 C 8.425781 -14.890625 8.382812 -14.253906 8.375 -13.640625 C 8.363281 -13.035156 8.359375 -12.523438 8.359375 -12.109375 Z M 13.078125 -14.828125 "/></g></g></g><g fill="#000000" fill-opacity="1"><g transform="translate(456.065953, 574.836124)"><g><path d="M 30.078125 -16.140625 C 30.078125 -17.128906 30.007812 -17.941406 29.875 -18.578125 C 29.738281 -19.222656 29.59375 -19.757812 29.4375 -20.1875 C 29.28125 -20.613281 29.132812 -20.960938 29 -21.234375 C 28.863281 -21.515625 28.796875 -21.773438 28.796875 -22.015625 C 28.796875 -22.234375 28.882812 -22.414062 29.0625 -22.5625 C 29.238281 -22.71875 29.453125 -22.847656 29.703125 -22.953125 C 29.953125 -23.054688 30.207031 -23.128906 30.46875 -23.171875 C 30.726562 -23.222656 30.941406 -23.25 31.109375 -23.25 C 31.535156 -23.25 31.84375 -23.1875 32.03125 -23.0625 C 32.226562 -22.945312 32.390625 -22.71875 32.515625 -22.375 C 32.648438 -21.9375 32.742188 -21.363281 32.796875 -20.65625 C 32.847656 -19.945312 32.875 -19.191406 32.875 -18.390625 C 32.875 -17.234375 32.804688 -15.96875 32.671875 -14.59375 C 32.535156 -13.226562 32.320312 -11.847656 32.03125 -10.453125 C 31.738281 -9.066406 31.363281 -7.722656 30.90625 -6.421875 C 30.457031 -5.128906 29.910156 -3.976562 29.265625 -2.96875 C 28.617188 -1.957031 27.878906 -1.148438 27.046875 -0.546875 C 26.210938 0.0546875 25.265625 0.359375 24.203125 0.359375 C 23.367188 0.359375 22.617188 0.191406 21.953125 -0.140625 C 21.285156 -0.484375 20.691406 -0.941406 20.171875 -1.515625 C 19.648438 -2.097656 19.191406 -2.78125 18.796875 -3.5625 C 18.398438 -4.351562 18.050781 -5.195312 17.75 -6.09375 C 17.40625 -5.175781 17.007812 -4.328125 16.5625 -3.546875 C 16.125 -2.765625 15.628906 -2.082031 15.078125 -1.5 C 14.535156 -0.914062 13.9375 -0.457031 13.28125 -0.125 C 12.625 0.195312 11.914062 0.359375 11.15625 0.359375 C 10.207031 0.359375 9.367188 0.15625 8.640625 -0.25 C 7.921875 -0.664062 7.285156 -1.226562 6.734375 -1.9375 C 6.179688 -2.644531 5.703125 -3.46875 5.296875 -4.40625 C 4.898438 -5.351562 4.554688 -6.347656 4.265625 -7.390625 C 3.972656 -8.429688 3.726562 -9.503906 3.53125 -10.609375 C 3.34375 -11.710938 3.179688 -12.78125 3.046875 -13.8125 C 2.910156 -14.84375 2.796875 -15.804688 2.703125 -16.703125 C 2.617188 -17.597656 2.53125 -18.375 2.4375 -19.03125 C 2.332031 -19.625 2.175781 -20.085938 1.96875 -20.421875 C 1.769531 -20.753906 1.4375 -20.921875 0.96875 -20.921875 C 0.707031 -20.921875 0.488281 -20.875 0.3125 -20.78125 C 0.132812 -20.6875 -0.0546875 -20.5625 -0.265625 -20.40625 L -0.734375 -20.953125 C -0.390625 -21.242188 -0.0078125 -21.523438 0.40625 -21.796875 C 0.832031 -22.078125 1.289062 -22.320312 1.78125 -22.53125 C 2.28125 -22.738281 2.8125 -22.910156 3.375 -23.046875 C 3.945312 -23.179688 4.546875 -23.25 5.171875 -23.25 C 6.066406 -23.25 6.789062 -23.09375 7.34375 -22.78125 C 7.894531 -22.476562 8.332031 -22.097656 8.65625 -21.640625 C 8.976562 -21.179688 9.207031 -20.691406 9.34375 -20.171875 C 9.476562 -19.648438 9.570312 -19.179688 9.625 -18.765625 C 9.894531 -16.515625 10.160156 -14.53125 10.421875 -12.8125 C 10.679688 -11.09375 10.960938 -9.65625 11.265625 -8.5 C 11.566406 -7.34375 11.890625 -6.46875 12.234375 -5.875 C 12.585938 -5.289062 13.003906 -5 13.484375 -5 C 13.796875 -5 14.097656 -5.128906 14.390625 -5.390625 C 14.691406 -5.660156 14.976562 -6.035156 15.25 -6.515625 C 15.519531 -6.992188 15.773438 -7.570312 16.015625 -8.25 C 16.253906 -8.925781 16.460938 -9.675781 16.640625 -10.5 C 16.484375 -11.320312 16.351562 -12.132812 16.25 -12.9375 C 16.144531 -13.75 16.050781 -14.523438 15.96875 -15.265625 C 15.894531 -16.003906 15.816406 -16.691406 15.734375 -17.328125 C 15.660156 -17.972656 15.582031 -18.539062 15.5 -19.03125 C 15.269531 -20.4375 15.394531 -21.488281 15.875 -22.1875 C 16.363281 -22.894531 17.34375 -23.25 18.8125 -23.25 C 19.445312 -23.25 19.984375 -23.191406 20.421875 -23.078125 C 20.867188 -22.960938 21.238281 -22.75 21.53125 -22.4375 C 21.820312 -22.132812 22.054688 -21.71875 22.234375 -21.1875 C 22.410156 -20.664062 22.550781 -19.992188 22.65625 -19.171875 C 22.945312 -16.929688 23.222656 -14.929688 23.484375 -13.171875 C 23.753906 -11.410156 24.035156 -9.921875 24.328125 -8.703125 C 24.628906 -7.492188 24.957031 -6.570312 25.3125 -5.9375 C 25.664062 -5.3125 26.082031 -5 26.5625 -5 C 27.0625 -5 27.53125 -5.3125 27.96875 -5.9375 C 28.40625 -6.5625 28.78125 -7.390625 29.09375 -8.421875 C 29.40625 -9.453125 29.644531 -10.640625 29.8125 -11.984375 C 29.988281 -13.328125 30.078125 -14.710938 30.078125 -16.140625 Z M 30.078125 -16.140625 "/></g></g></g><g fill="#000000" fill-opacity="1"><g transform="translate(490.510315, 574.836124)"><g><path d="M 1.359375 -11.46875 C 1.359375 -13.414062 1.640625 -15.125 2.203125 -16.59375 C 2.773438 -18.070312 3.535156 -19.300781 4.484375 -20.28125 C 5.429688 -21.269531 6.53125 -22.007812 7.78125 -22.5 C 9.039062 -23 10.359375 -23.25 11.734375 -23.25 C 13.109375 -23.25 14.421875 -23.019531 15.671875 -22.5625 C 16.929688 -22.101562 18.035156 -21.40625 18.984375 -20.46875 C 19.929688 -19.53125 20.6875 -18.335938 21.25 -16.890625 C 21.8125 -15.453125 22.09375 -13.75 22.09375 -11.78125 C 22.09375 -9.820312 21.8125 -8.085938 21.25 -6.578125 C 20.6875 -5.078125 19.929688 -3.8125 18.984375 -2.78125 C 18.035156 -1.75 16.929688 -0.96875 15.671875 -0.4375 C 14.421875 0.09375 13.109375 0.359375 11.734375 0.359375 C 10.359375 0.359375 9.039062 0.109375 7.78125 -0.390625 C 6.53125 -0.890625 5.429688 -1.628906 4.484375 -2.609375 C 3.535156 -3.597656 2.773438 -4.832031 2.203125 -6.3125 C 1.640625 -7.789062 1.359375 -9.507812 1.359375 -11.46875 Z M 15.140625 -11.6875 C 15.140625 -12.882812 15.097656 -14.035156 15.015625 -15.140625 C 14.929688 -16.253906 14.769531 -17.242188 14.53125 -18.109375 C 14.289062 -18.984375 13.945312 -19.675781 13.5 -20.1875 C 13.050781 -20.695312 12.460938 -20.953125 11.734375 -20.953125 C 11.003906 -20.953125 10.414062 -20.679688 9.96875 -20.140625 C 9.519531 -19.597656 9.175781 -18.878906 8.9375 -17.984375 C 8.695312 -17.097656 8.539062 -16.085938 8.46875 -14.953125 C 8.394531 -13.816406 8.359375 -12.65625 8.359375 -11.46875 C 8.359375 -10.269531 8.394531 -9.097656 8.46875 -7.953125 C 8.539062 -6.816406 8.695312 -5.800781 8.9375 -4.90625 C 9.175781 -4.007812 9.519531 -3.285156 9.96875 -2.734375 C 10.414062 -2.191406 11.003906 -1.921875 11.734375 -1.921875 C 12.460938 -1.921875 13.050781 -2.203125 13.5 -2.765625 C 13.945312 -3.335938 14.289062 -4.085938 14.53125 -5.015625 C 14.769531 -5.941406 14.929688 -6.984375 15.015625 -8.140625 C 15.097656 -9.304688 15.140625 -10.488281 15.140625 -11.6875 Z M 15.140625 -11.6875 "/></g></g></g><g fill="#000000" fill-opacity="1"><g transform="translate(514.003238, 574.836124)"><g><path d="M 9.9375 -18.515625 C 10.507812 -19.378906 11.113281 -20.164062 11.75 -20.875 C 12.019531 -21.164062 12.3125 -21.453125 12.625 -21.734375 C 12.9375 -22.023438 13.257812 -22.28125 13.59375 -22.5 C 13.9375 -22.726562 14.285156 -22.910156 14.640625 -23.046875 C 15.003906 -23.179688 15.363281 -23.25 15.71875 -23.25 C 16.476562 -23.25 17.070312 -23.019531 17.5 -22.5625 C 17.9375 -22.101562 18.15625 -21.460938 18.15625 -20.640625 C 18.15625 -20.140625 18.113281 -19.648438 18.03125 -19.171875 C 17.945312 -18.703125 17.789062 -18.132812 17.5625 -17.46875 L 16.921875 -17.46875 C 16.835938 -17.925781 16.628906 -18.304688 16.296875 -18.609375 C 15.972656 -18.921875 15.5 -19.078125 14.875 -19.078125 C 14.40625 -19.078125 13.945312 -18.988281 13.5 -18.8125 C 13.050781 -18.644531 12.613281 -18.429688 12.1875 -18.171875 C 11.757812 -17.921875 11.351562 -17.644531 10.96875 -17.34375 C 10.59375 -17.050781 10.25 -16.769531 9.9375 -16.5 L 9.9375 -1.96875 C 9.9375 -1.769531 9.90625 -1.535156 9.84375 -1.265625 C 9.789062 -1.003906 9.644531 -0.753906 9.40625 -0.515625 C 9.175781 -0.273438 8.832031 -0.0703125 8.375 0.09375 C 7.925781 0.269531 7.304688 0.359375 6.515625 0.359375 C 5.722656 0.359375 5.097656 0.265625 4.640625 0.078125 C 4.191406 -0.109375 3.847656 -0.328125 3.609375 -0.578125 C 3.367188 -0.835938 3.21875 -1.097656 3.15625 -1.359375 C 3.09375 -1.628906 3.0625 -1.847656 3.0625 -2.015625 L 3.0625 -19.296875 C 3.0625 -19.734375 2.960938 -20.113281 2.765625 -20.4375 C 2.566406 -20.757812 2.226562 -20.921875 1.75 -20.921875 C 1.488281 -20.921875 1.269531 -20.875 1.09375 -20.78125 C 0.914062 -20.6875 0.722656 -20.5625 0.515625 -20.40625 L 0.046875 -20.953125 C 0.390625 -21.242188 0.773438 -21.523438 1.203125 -21.796875 C 1.628906 -22.078125 2.085938 -22.320312 2.578125 -22.53125 C 3.066406 -22.738281 3.59375 -22.910156 4.15625 -23.046875 C 4.726562 -23.179688 5.328125 -23.25 5.953125 -23.25 C 6.597656 -23.25 7.144531 -23.160156 7.59375 -22.984375 C 8.050781 -22.816406 8.425781 -22.59375 8.71875 -22.3125 C 9.007812 -22.039062 9.238281 -21.734375 9.40625 -21.390625 C 9.570312 -21.046875 9.691406 -20.695312 9.765625 -20.34375 C 9.847656 -19.988281 9.894531 -19.648438 9.90625 -19.328125 C 9.925781 -19.015625 9.9375 -18.742188 9.9375 -18.515625 Z M 9.9375 -18.515625 "/></g></g></g><g fill="#000000" fill-opacity="1"><g transform="translate(532.210837, 574.836124)"><g><path d="M 9.71875 -17.15625 C 10.238281 -17.851562 10.796875 -18.5625 11.390625 -19.28125 C 11.992188 -20.007812 12.640625 -20.664062 13.328125 -21.25 C 14.015625 -21.832031 14.757812 -22.3125 15.5625 -22.6875 C 16.363281 -23.0625 17.242188 -23.25 18.203125 -23.25 C 19.054688 -23.25 19.765625 -23.078125 20.328125 -22.734375 C 20.898438 -22.398438 21.359375 -22 21.703125 -21.53125 C 22.054688 -21.0625 22.300781 -20.570312 22.4375 -20.0625 C 22.582031 -19.550781 22.65625 -19.117188 22.65625 -18.765625 C 22.65625 -18.109375 22.566406 -17.425781 22.390625 -16.71875 C 22.222656 -16.007812 21.9375 -15.304688 21.53125 -14.609375 C 21.125 -13.910156 20.578125 -13.238281 19.890625 -12.59375 C 19.203125 -11.945312 18.332031 -11.351562 17.28125 -10.8125 C 18.6875 -7.84375 20.050781 -5.285156 21.375 -3.140625 C 22.707031 -1.003906 23.988281 0.75 25.21875 2.125 C 26.457031 3.507812 27.640625 4.53125 28.765625 5.1875 C 29.898438 5.851562 30.984375 6.1875 32.015625 6.1875 C 32.203125 6.1875 32.382812 6.160156 32.5625 6.109375 C 32.738281 6.066406 32.898438 6.015625 33.046875 5.953125 C 33.210938 5.890625 33.382812 5.816406 33.5625 5.734375 L 33.984375 6.515625 C 33.585938 6.742188 33.179688 6.957031 32.765625 7.15625 C 32.347656 7.351562 31.867188 7.523438 31.328125 7.671875 C 30.785156 7.828125 30.164062 7.945312 29.46875 8.03125 C 28.769531 8.125 27.929688 8.171875 26.953125 8.171875 C 26.078125 8.171875 25.207031 8.066406 24.34375 7.859375 C 23.488281 7.648438 22.628906 7.273438 21.765625 6.734375 C 20.898438 6.203125 20.019531 5.488281 19.125 4.59375 C 18.238281 3.695312 17.328125 2.5625 16.390625 1.1875 C 15.460938 -0.1875 14.503906 -1.820312 13.515625 -3.71875 C 12.535156 -5.613281 11.515625 -7.832031 10.453125 -10.375 C 11.890625 -11.425781 13.015625 -12.40625 13.828125 -13.3125 C 14.648438 -14.21875 15.269531 -15.035156 15.6875 -15.765625 C 16.113281 -16.492188 16.378906 -17.140625 16.484375 -17.703125 C 16.585938 -18.273438 16.640625 -18.765625 16.640625 -19.171875 C 16.640625 -19.222656 16.628906 -19.320312 16.609375 -19.46875 C 16.597656 -19.613281 16.550781 -19.75 16.46875 -19.875 C 16.382812 -20.007812 16.265625 -20.128906 16.109375 -20.234375 C 15.953125 -20.347656 15.734375 -20.40625 15.453125 -20.40625 C 14.898438 -20.40625 14.335938 -20.164062 13.765625 -19.6875 C 13.203125 -19.21875 12.660156 -18.632812 12.140625 -17.9375 C 11.628906 -17.25 11.164062 -16.503906 10.75 -15.703125 C 10.332031 -14.910156 9.988281 -14.1875 9.71875 -13.53125 L 9.71875 -1.96875 C 9.71875 -1.769531 9.679688 -1.535156 9.609375 -1.265625 C 9.546875 -1.003906 9.390625 -0.753906 9.140625 -0.515625 C 8.898438 -0.273438 8.539062 -0.0703125 8.0625 0.09375 C 7.59375 0.269531 6.96875 0.359375 6.1875 0.359375 C 5.394531 0.359375 4.773438 0.265625 4.328125 0.078125 C 3.878906 -0.109375 3.546875 -0.328125 3.328125 -0.578125 C 3.109375 -0.835938 2.972656 -1.097656 2.921875 -1.359375 C 2.867188 -1.628906 2.84375 -1.847656 2.84375 -2.015625 L 2.84375 -30.90625 C 2.84375 -31.332031 2.738281 -31.707031 2.53125 -32.03125 C 2.332031 -32.351562 1.992188 -32.515625 1.515625 -32.515625 C 1.265625 -32.515625 1.046875 -32.472656 0.859375 -32.390625 C 0.671875 -32.304688 0.472656 -32.179688 0.265625 -32.015625 L -0.171875 -32.5625 C 0.160156 -32.84375 0.535156 -33.117188 0.953125 -33.390625 C 1.378906 -33.671875 1.84375 -33.914062 2.34375 -34.125 C 2.84375 -34.332031 3.375 -34.503906 3.9375 -34.640625 C 4.507812 -34.773438 5.109375 -34.84375 5.734375 -34.84375 C 6.703125 -34.84375 7.453125 -34.710938 7.984375 -34.453125 C 8.523438 -34.191406 8.921875 -33.867188 9.171875 -33.484375 C 9.429688 -33.109375 9.585938 -32.707031 9.640625 -32.28125 C 9.691406 -31.851562 9.71875 -31.472656 9.71875 -31.140625 Z M 9.71875 -17.15625 "/></g></g></g></svg>