<svg xmlns="http://www.w3.org/2000/svg" xmlns:xlink="http://www.w3.org/1999/xlink" version="1.1" viewBox="228 60 756 468" width="756px" height="468px"><defs><style>@font-face{
    font-family:"DIN Next";
    font-weight: 400;
    src:url("https://whimsical.com/fonts/139e8e25-0eea-4cb4-a5d4-79048803e73d.eot?#iefix");
    src:url("https://whimsical.com/fonts/139e8e25-0eea-4cb4-a5d4-79048803e73d.eot?#iefix") format("eot"),url("https://whimsical.com/fonts/094b15e3-94bd-435b-a595-d40edfde661a.woff2") format("woff2"),url("https://whimsical.com/fonts/7e5fbe11-4858-4bd1-9ec6-a1d9f9d227aa.woff") format("woff"),url("https://whimsical.com/fonts/0f11eff9-9f05-46f5-9703-027c510065d7.ttf") format("truetype"),url("https://whimsical.com/fonts/48b61978-3f30-4274-823c-5cdcd1876918.svg#48b61978-3f30-4274-823c-5cdcd1876918") format("svg");
}
@font-face{
    font-family:"DIN Next";
    font-weight: 400;
    font-style: italic;
    src:url("https://whimsical.com/fonts/df24d5e8-5087-42fd-99b1-b16042d666c8.eot?#iefix");
    src:url("https://whimsical.com/fonts/df24d5e8-5087-42fd-99b1-b16042d666c8.eot?#iefix") format("eot"),url("https://whimsical.com/fonts/46251881-ffe9-4bfb-99c7-d6ce3bebaf3e.woff2") format("woff2"),url("https://whimsical.com/fonts/790ebbf2-62c5-4a32-946f-99d405f9243e.woff") format("woff"),url("https://whimsical.com/fonts/d28199e6-0f4a-42df-97f4-606701c6f75a.ttf") format("truetype"),url("https://whimsical.com/fonts/37a462c0-d86e-492c-b9ab-35e6bd417f6c.svg#37a462c0-d86e-492c-b9ab-35e6bd417f6c") format("svg");
}
@font-face{
    font-weight: 500;
    font-family:"DIN Next";
    src:url("https://whimsical.com/fonts/c5b058fc-55ce-4e06-a175-5c7d9a7e90f4.eot?#iefix");
    src:url("https://whimsical.com/fonts/c5b058fc-55ce-4e06-a175-5c7d9a7e90f4.eot?#iefix") format("eot"),url("https://whimsical.com/fonts/7b29ae40-30ff-4f99-a2b9-cde88669fa2f.woff2") format("woff2"),url("https://whimsical.com/fonts/bf73077c-e354-4562-a085-f4703eb1d653.woff") format("woff"),url("https://whimsical.com/fonts/0ffa6947-5317-4d07-b525-14d08a028821.ttf") format("truetype"),url("https://whimsical.com/fonts/9e423e45-5450-4991-a157-dbe6cf61eb4e.svg#9e423e45-5450-4991-a157-dbe6cf61eb4e") format("svg");
}
@font-face{
    font-family:"DIN Next";
    font-weight: 500;
    font-style: italic;
    src:url("https://whimsical.com/fonts/9897c008-fd65-48a4-afc7-36de2fea97b9.eot?#iefix");
    src:url("https://whimsical.com/fonts/9897c008-fd65-48a4-afc7-36de2fea97b9.eot?#iefix") format("eot"),url("https://whimsical.com/fonts/c7717981-647d-4b76-8817-33062e42d11f.woff2") format("woff2"),url("https://whimsical.com/fonts/b852cd4c-1255-40b1-a2be-73a9105b0155.woff") format("woff"),url("https://whimsical.com/fonts/821b00ad-e741-4e2d-af1a-85594367c8a2.ttf") format("truetype"),url("https://whimsical.com/fonts/d3e3b689-a6b0-45f2-b279-f5e194f87409.svg#d3e3b689-a6b0-45f2-b279-f5e194f87409") format("svg");
}
@font-face{
    font-weight: 700;
    font-family:"DIN Next";
    src:url("https://whimsical.com/fonts/81cd3b08-fd39-4ae3-8d05-9d24709eba84.eot?#iefix");
    src:url("https://whimsical.com/fonts/81cd3b08-fd39-4ae3-8d05-9d24709eba84.eot?#iefix") format("eot"),url("https://whimsical.com/fonts/31704504-4671-47a6-a61e-397f07410d91.woff2") format("woff2"),url("https://whimsical.com/fonts/b8a280da-481f-44a0-8d9c-1bc64bd7227c.woff") format("woff"),url("https://whimsical.com/fonts/276d122a-0fab-447b-9fc0-5d7fb0eafce2.ttf") format("truetype"),url("https://whimsical.com/fonts/8fb8273a-8213-4928-808b-b5bfaf3fd7e9.svg#8fb8273a-8213-4928-808b-b5bfaf3fd7e9") format("svg");
}
@font-face{
    font-family:"DIN Next";
    font-weight: 700;
    font-style: italic;
    src:url("https://whimsical.com/fonts/00cc6df3-ed32-4004-8dd8-1c576600a408.eot?#iefix");
    src:url("https://whimsical.com/fonts/00cc6df3-ed32-4004-8dd8-1c576600a408.eot?#iefix") format("eot"),url("https://whimsical.com/fonts/4132c4c8-680c-4d6d-9251-a2da38503bbd.woff2") format("woff2"),url("https://whimsical.com/fonts/366401fe-6df4-47be-8f55-8a411cff0dd2.woff") format("woff"),url("https://whimsical.com/fonts/dbe4f7ba-fc16-44a6-a577-571620e9edaf.ttf") format("truetype"),url("https://whimsical.com/fonts/f874edca-ee87-4ccf-8b1d-921fbc3c1c36.svg#f874edca-ee87-4ccf-8b1d-921fbc3c1c36") format("svg");
}

@font-face {
    font-family: 'PFDINMonoPro';
    src:url('https://whimsical.com/fonts/PFDINMonoPro-Regular.woff') format('woff');
    font-weight: 400;
}
@font-face {
    font-family: 'PFDINMonoPro';
    src:url('https://whimsical.com/fonts/PFDINMonoPro-Italic.woff') format('woff');
    font-style: italic;
    font-weight: 400;
}
@font-face {
    font-family: 'PFDINMonoPro';
    src:url('https://whimsical.com/fonts/PFDINMonoPro-Bold.woff') format('woff');
    font-weight: 700;
}
@font-face {
    font-family: 'PFDINMonoPro';
    src:url('https://whimsical.com/fonts/PFDINMonoPro-BoldItalic.woff') format('woff');
    font-style: italic;
    font-weight: 700;
}
* {-webkit-font-smoothing: auto; -moz-osx-font-smoothing: auto;}@media print { svg { width: 100%; height: 100%; } }</style><g><filter id="white-fill-shadow" y="-50%" height="200%"><feDropShadow dx="0" dy="2" stdDeviation="6" flood-opacity="0.03" flood-color="#000000"></feDropShadow></filter><filter id="light-gray-fill-shadow" y="-50%" height="200%"><feDropShadow dx="0" dy="2" stdDeviation="6" flood-opacity="0.09" flood-color="#000000"></feDropShadow></filter><filter id="yellow-fill-shadow" y="-50%" height="200%"><feDropShadow dx="0" dy="2" stdDeviation="6" flood-opacity="0.12" flood-color="#000000"></feDropShadow></filter><filter id="fill-shadow" y="-50%" height="200%"><feDropShadow dx="0" dy="2" stdDeviation="6" flood-opacity="0.16" flood-color="#000000"></feDropShadow></filter><filter id="frame-shadow" y="-50%" height="200%"><feDropShadow dx="0" dy="3" stdDeviation="8" flood-opacity="0.06" flood-color="#000000"></feDropShadow></filter><filter id="button-shadow" y="-50%" height="200%"><feDropShadow dx="0" dy="2" stdDeviation="6" flood-opacity="0.03" flood-color="#000000"></feDropShadow></filter><filter id="button-hover-shadow" y="-50%" height="200%"><feDropShadow dx="0" dy="2" stdDeviation="6" flood-opacity="0.08" flood-color="#000000"></feDropShadow></filter><filter id="badge-shadow" y="-50%" height="200%"><feDropShadow dx="0" dy="2" stdDeviation="6" flood-opacity="0.08" flood-color="#000000"></feDropShadow></filter></g></defs><g><rect x="228" y="60" width="756" height="468" rx="3" ry="3" fill="#FFFFFF" filter="url(#white-fill-shadow)"></rect><g><rect x="228" y="60" width="756" height="468" rx="3" ry="3" fill="#FFFFFF"></rect><g class="content"><g><g><g><g id="12-1"><g><g></g><text fill="#293845" hover-props="{}"><tspan x="562.62646484375" y="99.5" font-family="DIN Next, system-ui, sans-serif" font-size="27" font-style="normal" font-weight="bold">Cluster</tspan></text></g></g></g></g></g></g></g><g><g><rect x="252" y="156" width="312" height="348" rx="3" ry="3" fill="#FFFFFF" filter="url(#light-gray-fill-shadow)"></rect><g><rect x="252" y="156" width="312" height="348" rx="3" ry="3" fill="#C3CFD9"></rect></g><g><g><path d="M540,252c0,6.62741 -59.09851,12 -132,12c-72.90149,0 -132,-5.37259 -132,-12c0,-5.7773 0,-47.0767 0,-57.57677c10.98486,6.57704 65.90401,11.57677 132,11.57677c66.09599,0 121.01514,-4.99973 132,-11.57677c0,11.66424 0,51.49766 0,57.57677zM276,194.42323c0,0.57232 0,0.81033 0,0zM276,192c0,-6.62741 59.09851,-12 132,-12c72.90149,0 132,5.37259 132,12c0,6.62741 -59.09851,12 -132,12c-72.90149,0 -132,-5.37259 -132,-12z" fill="#FFFFFF" filter="url(#fill-shadow)"></path><g><path d="M540,252c0,6.62741 -59.09851,12 -132,12c-72.90149,0 -132,-5.37259 -132,-12c0,-5.7773 0,-47.0767 0,-57.57677c10.98486,6.57704 65.90401,11.57677 132,11.57677c66.09599,0 121.01514,-4.99973 132,-11.57677c0,11.66424 0,51.49766 0,57.57677zM276,194.42323c0,0.57232 0,0.81033 0,0zM276,192c0,-6.62741 59.09851,-12 132,-12c72.90149,0 132,5.37259 132,12c0,6.62741 -59.09851,12 -132,12c-72.90149,0 -132,-5.37259 -132,-12z" fill="#E8833A"></path></g><g><g><rect x="372" y="220" width="72" height="24" rx="12" ry="12" fill="#FFFFFF" filter="url(#yellow-fill-shadow)"></rect><g><rect x="372" y="220" width="72" height="24" rx="12" ry="12" fill="#F7C325"></rect><g class="content"><g><g><g><g><g></g><text fill="#293845" hover-props="{}"><tspan x="383.98583984375" y="237.5" font-family="DIN Next, system-ui, sans-serif" font-size="15" font-style="normal" font-weight="normal">sh0003</tspan></text></g></g></g></g></g></g></g><g><rect x="456" y="220" width="72" height="24" rx="12" ry="12" fill="#FFFFFF" filter="url(#yellow-fill-shadow)"></rect><g><rect x="456" y="220" width="72" height="24" rx="12" ry="12" fill="#F7C325"></rect><g class="content"><g><g><g><g><g></g><text fill="#293845" hover-props="{}"><tspan x="467.98583984375" y="237.5" font-family="DIN Next, system-ui, sans-serif" font-size="15" font-style="normal" font-weight="normal">sh0005</tspan></text></g></g></g></g></g></g></g><g><rect x="288" y="220" width="72" height="24" rx="12" ry="12" fill="#FFFFFF" filter="url(#yellow-fill-shadow)"></rect><g><rect x="288" y="220" width="72" height="24" rx="12" ry="12" fill="#F7C325"></rect><g class="content"><g><g><g><g><g></g><text fill="#293845" hover-props="{}"><tspan x="299.98583984375" y="237.5" font-family="DIN Next, system-ui, sans-serif" font-size="15" font-style="normal" font-weight="normal">sh0001</tspan></text></g></g></g></g></g></g></g></g></g><g><path d="M540,360c0,6.62741 -59.09851,12 -132,12c-72.90149,0 -132,-5.37259 -132,-12c0,-5.7773 0,-47.0767 0,-57.57677c10.98486,6.57704 65.90401,11.57677 132,11.57677c66.09599,0 121.01514,-4.99973 132,-11.57677c0,11.66424 0,51.49766 0,57.57677zM276,302.42323c0,0.57232 0,0.81033 0,0zM276,300c0,-6.62741 59.09851,-12 132,-12c72.90149,0 132,5.37259 132,12c0,6.62741 -59.09851,12 -132,12c-72.90149,0 -132,-5.37259 -132,-12z" fill="#FFFFFF" filter="url(#fill-shadow)"></path><g><path d="M540,360c0,6.62741 -59.09851,12 -132,12c-72.90149,0 -132,-5.37259 -132,-12c0,-5.7773 0,-47.0767 0,-57.57677c10.98486,6.57704 65.90401,11.57677 132,11.57677c66.09599,0 121.01514,-4.99973 132,-11.57677c0,11.66424 0,51.49766 0,57.57677zM276,302.42323c0,0.57232 0,0.81033 0,0zM276,300c0,-6.62741 59.09851,-12 132,-12c72.90149,0 132,5.37259 132,12c0,6.62741 -59.09851,12 -132,12c-72.90149,0 -132,-5.37259 -132,-12z" fill="#1AAE9F"></path></g><g><g><rect x="288" y="328" width="72" height="24" rx="12" ry="12" fill="#FFFFFF" filter="url(#fill-shadow)"></rect><g><rect x="288" y="328" width="72" height="24" rx="12" ry="12" fill="#207868"></rect><g class="content"><g><g><g><g><g></g><text fill="#FFFFFF" hover-props="{}"><tspan x="299.98583984375" y="345.5" font-family="DIN Next, system-ui, sans-serif" font-size="15" font-style="normal" font-weight="normal">sh0001</tspan></text></g></g></g></g></g></g></g><g><rect x="372" y="328" width="72" height="24" rx="12" ry="12" fill="#FFFFFF" filter="url(#fill-shadow)"></rect><g><rect x="372" y="328" width="72" height="24" rx="12" ry="12" fill="#207868"></rect><g class="content"><g><g><g><g><g></g><text fill="#FFFFFF" hover-props="{}"><tspan x="383.98583984375" y="345.5" font-family="DIN Next, system-ui, sans-serif" font-size="15" font-style="normal" font-weight="normal">sh0003</tspan></text></g></g></g></g></g></g></g><g><rect x="456" y="328" width="72" height="24" rx="12" ry="12" fill="#FFFFFF" filter="url(#fill-shadow)"></rect><g><rect x="456" y="328" width="72" height="24" rx="12" ry="12" fill="#207868"></rect><g class="content"><g><g><g><g><g></g><text fill="#FFFFFF" hover-props="{}"><tspan x="467.98583984375" y="345.5" font-family="DIN Next, system-ui, sans-serif" font-size="15" font-style="normal" font-weight="normal">sh0005</tspan></text></g></g></g></g></g></g></g></g></g><g><path d="M540,468c0,6.62741 -59.09851,12 -132,12c-72.90149,0 -132,-5.37259 -132,-12c0,-5.7773 0,-47.0767 0,-57.57677c10.98486,6.57704 65.90401,11.57677 132,11.57677c66.09599,0 121.01514,-4.99973 132,-11.57677c0,11.66424 0,51.49766 0,57.57677zM276,408c0,-6.62741 59.09851,-12 132,-12c72.90149,0 132,5.37259 132,12c0,6.62741 -59.09851,12 -132,12c-72.90149,0 -132,-5.37259 -132,-12z" fill="#FFFFFF" filter="url(#fill-shadow)"></path><g><path d="M540,468c0,6.62741 -59.09851,12 -132,12c-72.90149,0 -132,-5.37259 -132,-12c0,-5.7773 0,-47.0767 0,-57.57677c10.98486,6.57704 65.90401,11.57677 132,11.57677c66.09599,0 121.01514,-4.99973 132,-11.57677c0,11.66424 0,51.49766 0,57.57677zM276,408c0,-6.62741 59.09851,-12 132,-12c72.90149,0 132,5.37259 132,12c0,6.62741 -59.09851,12 -132,12c-72.90149,0 -132,-5.37259 -132,-12z" fill="#1AAE9F"></path></g><g><g><rect x="288" y="436" width="72" height="24" rx="12" ry="12" fill="#FFFFFF" filter="url(#fill-shadow)"></rect><g><rect x="288" y="436" width="72" height="24" rx="12" ry="12" fill="#207868"></rect><g class="content"><g><g><g><g><g></g><text fill="#FFFFFF" hover-props="{}"><tspan x="299.98583984375" y="453.5" font-family="DIN Next, system-ui, sans-serif" font-size="15" font-style="normal" font-weight="normal">sh0001</tspan></text></g></g></g></g></g></g></g><g><rect x="372" y="436" width="72" height="24" rx="12" ry="12" fill="#FFFFFF" filter="url(#fill-shadow)"></rect><g><rect x="372" y="436" width="72" height="24" rx="12" ry="12" fill="#207868"></rect><g class="content"><g><g><g><g><g></g><text fill="#FFFFFF" hover-props="{}"><tspan x="383.98583984375" y="453.5" font-family="DIN Next, system-ui, sans-serif" font-size="15" font-style="normal" font-weight="normal">sh0003</tspan></text></g></g></g></g></g></g></g><g><rect x="456" y="436" width="72" height="24" rx="12" ry="12" fill="#FFFFFF" filter="url(#fill-shadow)"></rect><g><rect x="456" y="436" width="72" height="24" rx="12" ry="12" fill="#207868"></rect><g class="content"><g><g><g><g><g></g><text fill="#FFFFFF" hover-props="{}"><tspan x="467.98583984375" y="453.5" font-family="DIN Next, system-ui, sans-serif" font-size="15" font-style="normal" font-weight="normal">sh0005</tspan></text></g></g></g></g></g></g></g></g></g><g><g class="content"><g><g><g><g id="12/Fo9;/-1"><g><g></g><text fill="#293845" hover-props="{}"><tspan x="384" y="195.5" font-family="DIN Next, system-ui, sans-serif" font-size="15" font-style="normal" font-weight="bold">master</tspan></text></g></g></g></g></g></g></g><g><g class="content"><g><g><g><g id="12/Fo9;/-1"><g><g></g><text fill="#293845" hover-props="{}"><tspan x="385" y="303.5" font-family="DIN Next, system-ui, sans-serif" font-size="15" font-style="normal" font-weight="bold">replica</tspan></text></g></g></g></g></g></g></g><g><g class="content"><g><g><g><g id="12/Fo9;/-1"><g><g></g><text fill="#293845" hover-props="{}"><tspan x="386" y="411.5" font-family="DIN Next, system-ui, sans-serif" font-size="15" font-style="normal" font-weight="bold">replica</tspan></text></g></g></g></g></g></g></g></g></g><g><g class="content"><g><g><g><g id="12/Fo9;/-1"><g><g></g><text fill="#293845" hover-props="{}"><tspan x="376.41162109375" y="138.5" font-family="DIN Next, system-ui, sans-serif" font-size="18" font-style="normal" font-weight="bold">Island 1</tspan></text></g></g></g></g></g></g></g><g><rect x="636" y="156" width="312" height="348" rx="3" ry="3" fill="#FFFFFF" filter="url(#light-gray-fill-shadow)"></rect><g><rect x="636" y="156" width="312" height="348" rx="3" ry="3" fill="#C3CFD9"></rect></g><g><g><path d="M924,252c0,6.62741 -59.09851,12 -132,12c-72.90149,0 -132,-5.37259 -132,-12c0,-5.7773 0,-47.0767 0,-57.57677c10.98486,6.57704 65.90401,11.57677 132,11.57677c66.09599,0 121.01514,-4.99973 132,-11.57677c0,11.66424 0,51.49766 0,57.57677zM660,194.42323c0,0.57232 0,0.81033 0,0zM660,192c0,-6.62741 59.09851,-12 132,-12c72.90149,0 132,5.37259 132,12c0,6.62741 -59.09851,12 -132,12c-72.90149,0 -132,-5.37259 -132,-12z" fill="#FFFFFF" filter="url(#fill-shadow)"></path><g><path d="M924,252c0,6.62741 -59.09851,12 -132,12c-72.90149,0 -132,-5.37259 -132,-12c0,-5.7773 0,-47.0767 0,-57.57677c10.98486,6.57704 65.90401,11.57677 132,11.57677c66.09599,0 121.01514,-4.99973 132,-11.57677c0,11.66424 0,51.49766 0,57.57677zM660,194.42323c0,0.57232 0,0.81033 0,0zM660,192c0,-6.62741 59.09851,-12 132,-12c72.90149,0 132,5.37259 132,12c0,6.62741 -59.09851,12 -132,12c-72.90149,0 -132,-5.37259 -132,-12z" fill="#E8833A"></path></g><g><g><rect x="756" y="220" width="72" height="24" rx="12" ry="12" fill="#FFFFFF" filter="url(#yellow-fill-shadow)"></rect><g><rect x="756" y="220" width="72" height="24" rx="12" ry="12" fill="#F7C325"></rect><g class="content"><g><g><g><g><g></g><text fill="#293845" hover-props="{}"><tspan x="767.98583984375" y="237.5" font-family="DIN Next, system-ui, sans-serif" font-size="15" font-style="normal" font-weight="normal">sh0004</tspan></text></g></g></g></g></g></g></g><g><rect x="840" y="220" width="72" height="24" rx="12" ry="12" fill="#FFFFFF" filter="url(#yellow-fill-shadow)"></rect><g><rect x="840" y="220" width="72" height="24" rx="12" ry="12" fill="#F7C325"></rect><g class="content"><g><g><g><g><g></g><text fill="#293845" hover-props="{}"><tspan x="851.98583984375" y="237.5" font-family="DIN Next, system-ui, sans-serif" font-size="15" font-style="normal" font-weight="normal">sh0006</tspan></text></g></g></g></g></g></g></g><g><rect x="672" y="220" width="72" height="24" rx="12" ry="12" fill="#FFFFFF" filter="url(#yellow-fill-shadow)"></rect><g><rect x="672" y="220" width="72" height="24" rx="12" ry="12" fill="#F7C325"></rect><g class="content"><g><g><g><g><g></g><text fill="#293845" hover-props="{}"><tspan x="683.98583984375" y="237.5" font-family="DIN Next, system-ui, sans-serif" font-size="15" font-style="normal" font-weight="normal">sh0002</tspan></text></g></g></g></g></g></g></g></g></g><g><path d="M924,360c0,6.62741 -59.09851,12 -132,12c-72.90149,0 -132,-5.37259 -132,-12c0,-5.7773 0,-47.0767 0,-57.57677c10.98486,6.57704 65.90401,11.57677 132,11.57677c66.09599,0 121.01514,-4.99973 132,-11.57677c0,11.66424 0,51.49766 0,57.57677zM660,302.42323c0,0.57232 0,0.81033 0,0zM660,300c0,-6.62741 59.09851,-12 132,-12c72.90149,0 132,5.37259 132,12c0,6.62741 -59.09851,12 -132,12c-72.90149,0 -132,-5.37259 -132,-12z" fill="#FFFFFF" filter="url(#fill-shadow)"></path><g><path d="M924,360c0,6.62741 -59.09851,12 -132,12c-72.90149,0 -132,-5.37259 -132,-12c0,-5.7773 0,-47.0767 0,-57.57677c10.98486,6.57704 65.90401,11.57677 132,11.57677c66.09599,0 121.01514,-4.99973 132,-11.57677c0,11.66424 0,51.49766 0,57.57677zM660,302.42323c0,0.57232 0,0.81033 0,0zM660,300c0,-6.62741 59.09851,-12 132,-12c72.90149,0 132,5.37259 132,12c0,6.62741 -59.09851,12 -132,12c-72.90149,0 -132,-5.37259 -132,-12z" fill="#1AAE9F"></path></g><g><g><rect x="672" y="328" width="72" height="24" rx="12" ry="12" fill="#FFFFFF" filter="url(#fill-shadow)"></rect><g><rect x="672" y="328" width="72" height="24" rx="12" ry="12" fill="#207868"></rect><g class="content"><g><g><g><g><g></g><text fill="#FFFFFF" hover-props="{}"><tspan x="683.98583984375" y="345.5" font-family="DIN Next, system-ui, sans-serif" font-size="15" font-style="normal" font-weight="normal">sh0002</tspan></text></g></g></g></g></g></g></g><g><rect x="756" y="328" width="72" height="24" rx="12" ry="12" fill="#FFFFFF" filter="url(#fill-shadow)"></rect><g><rect x="756" y="328" width="72" height="24" rx="12" ry="12" fill="#207868"></rect><g class="content"><g><g><g><g><g></g><text fill="#FFFFFF" hover-props="{}"><tspan x="767.98583984375" y="345.5" font-family="DIN Next, system-ui, sans-serif" font-size="15" font-style="normal" font-weight="normal">sh0004</tspan></text></g></g></g></g></g></g></g><g><rect x="840" y="328" width="72" height="24" rx="12" ry="12" fill="#FFFFFF" filter="url(#fill-shadow)"></rect><g><rect x="840" y="328" width="72" height="24" rx="12" ry="12" fill="#207868"></rect><g class="content"><g><g><g><g><g></g><text fill="#FFFFFF" hover-props="{}"><tspan x="851.98583984375" y="345.5" font-family="DIN Next, system-ui, sans-serif" font-size="15" font-style="normal" font-weight="normal">sh0006</tspan></text></g></g></g></g></g></g></g></g></g><g><path d="M924,468c0,6.62741 -59.09851,12 -132,12c-72.90149,0 -132,-5.37259 -132,-12c0,-5.7773 0,-47.0767 0,-57.57677c10.98486,6.57704 65.90401,11.57677 132,11.57677c66.09599,0 121.01514,-4.99973 132,-11.57677c0,11.66424 0,51.49766 0,57.57677zM660,408c0,-6.62741 59.09851,-12 132,-12c72.90149,0 132,5.37259 132,12c0,6.62741 -59.09851,12 -132,12c-72.90149,0 -132,-5.37259 -132,-12z" fill="#FFFFFF" filter="url(#fill-shadow)"></path><g><path d="M924,468c0,6.62741 -59.09851,12 -132,12c-72.90149,0 -132,-5.37259 -132,-12c0,-5.7773 0,-47.0767 0,-57.57677c10.98486,6.57704 65.90401,11.57677 132,11.57677c66.09599,0 121.01514,-4.99973 132,-11.57677c0,11.66424 0,51.49766 0,57.57677zM660,408c0,-6.62741 59.09851,-12 132,-12c72.90149,0 132,5.37259 132,12c0,6.62741 -59.09851,12 -132,12c-72.90149,0 -132,-5.37259 -132,-12z" fill="#1AAE9F"></path></g><g><g><rect x="672" y="436" width="72" height="24" rx="12" ry="12" fill="#FFFFFF" filter="url(#fill-shadow)"></rect><g><rect x="672" y="436" width="72" height="24" rx="12" ry="12" fill="#207868"></rect><g class="content"><g><g><g><g><g></g><text fill="#FFFFFF" hover-props="{}"><tspan x="683.98583984375" y="453.5" font-family="DIN Next, system-ui, sans-serif" font-size="15" font-style="normal" font-weight="normal">sh0002</tspan></text></g></g></g></g></g></g></g><g><rect x="756" y="436" width="72" height="24" rx="12" ry="12" fill="#FFFFFF" filter="url(#fill-shadow)"></rect><g><rect x="756" y="436" width="72" height="24" rx="12" ry="12" fill="#207868"></rect><g class="content"><g><g><g><g><g></g><text fill="#FFFFFF" hover-props="{}"><tspan x="767.98583984375" y="453.5" font-family="DIN Next, system-ui, sans-serif" font-size="15" font-style="normal" font-weight="normal">sh0004</tspan></text></g></g></g></g></g></g></g><g><rect x="840" y="436" width="72" height="24" rx="12" ry="12" fill="#FFFFFF" filter="url(#fill-shadow)"></rect><g><rect x="840" y="436" width="72" height="24" rx="12" ry="12" fill="#207868"></rect><g class="content"><g><g><g><g><g></g><text fill="#FFFFFF" hover-props="{}"><tspan x="851.98583984375" y="453.5" font-family="DIN Next, system-ui, sans-serif" font-size="15" font-style="normal" font-weight="normal">sh0006</tspan></text></g></g></g></g></g></g></g></g></g><g><g class="content"><g><g><g><g id="12/Fo9;/-1"><g><g></g><text fill="#293845" hover-props="{}"><tspan x="768" y="195.5" font-family="DIN Next, system-ui, sans-serif" font-size="15" font-style="normal" font-weight="bold">master</tspan></text></g></g></g></g></g></g></g><g><g class="content"><g><g><g><g id="12/Fo9;/-1"><g><g></g><text fill="#293845" hover-props="{}"><tspan x="769" y="303.5" font-family="DIN Next, system-ui, sans-serif" font-size="15" font-style="normal" font-weight="bold">replica</tspan></text></g></g></g></g></g></g></g><g><g class="content"><g><g><g><g id="12/Fo9;/-1"><g><g></g><text fill="#293845" hover-props="{}"><tspan x="770" y="411.5" font-family="DIN Next, system-ui, sans-serif" font-size="15" font-style="normal" font-weight="bold">replica</tspan></text></g></g></g></g></g></g></g></g></g><g><g class="content"><g><g><g><g id="12/Fo9;/-1"><g><g></g><text fill="#293845" hover-props="{}"><tspan x="760.41162109375" y="138.5" font-family="DIN Next, system-ui, sans-serif" font-size="18" font-style="normal" font-weight="bold">Island 2</tspan></text></g></g></g></g></g></g></g></g></g></svg>