<svg xmlns="http://www.w3.org/2000/svg" xmlns:xlink="http://www.w3.org/1999/xlink" version="1.1" viewBox="456 144 900 696" width="900px" height="696px"><defs><style>@font-face{
    font-family:"DIN Next";
    font-weight: 400;
    src:url("https://whimsical.com/fonts/139e8e25-0eea-4cb4-a5d4-79048803e73d.eot?#iefix");
    src:url("https://whimsical.com/fonts/139e8e25-0eea-4cb4-a5d4-79048803e73d.eot?#iefix") format("eot"),url("https://whimsical.com/fonts/094b15e3-94bd-435b-a595-d40edfde661a.woff2") format("woff2"),url("https://whimsical.com/fonts/7e5fbe11-4858-4bd1-9ec6-a1d9f9d227aa.woff") format("woff"),url("https://whimsical.com/fonts/0f11eff9-9f05-46f5-9703-027c510065d7.ttf") format("truetype"),url("https://whimsical.com/fonts/48b61978-3f30-4274-823c-5cdcd1876918.svg#48b61978-3f30-4274-823c-5cdcd1876918") format("svg");
}
@font-face{
    font-family:"DIN Next";
    font-weight: 400;
    font-style: italic;
    src:url("https://whimsical.com/fonts/df24d5e8-5087-42fd-99b1-b16042d666c8.eot?#iefix");
    src:url("https://whimsical.com/fonts/df24d5e8-5087-42fd-99b1-b16042d666c8.eot?#iefix") format("eot"),url("https://whimsical.com/fonts/46251881-ffe9-4bfb-99c7-d6ce3bebaf3e.woff2") format("woff2"),url("https://whimsical.com/fonts/790ebbf2-62c5-4a32-946f-99d405f9243e.woff") format("woff"),url("https://whimsical.com/fonts/d28199e6-0f4a-42df-97f4-606701c6f75a.ttf") format("truetype"),url("https://whimsical.com/fonts/37a462c0-d86e-492c-b9ab-35e6bd417f6c.svg#37a462c0-d86e-492c-b9ab-35e6bd417f6c") format("svg");
}
@font-face{
    font-weight: 500;
    font-family:"DIN Next";
    src:url("https://whimsical.com/fonts/c5b058fc-55ce-4e06-a175-5c7d9a7e90f4.eot?#iefix");
    src:url("https://whimsical.com/fonts/c5b058fc-55ce-4e06-a175-5c7d9a7e90f4.eot?#iefix") format("eot"),url("https://whimsical.com/fonts/7b29ae40-30ff-4f99-a2b9-cde88669fa2f.woff2") format("woff2"),url("https://whimsical.com/fonts/bf73077c-e354-4562-a085-f4703eb1d653.woff") format("woff"),url("https://whimsical.com/fonts/0ffa6947-5317-4d07-b525-14d08a028821.ttf") format("truetype"),url("https://whimsical.com/fonts/9e423e45-5450-4991-a157-dbe6cf61eb4e.svg#9e423e45-5450-4991-a157-dbe6cf61eb4e") format("svg");
}
@font-face{
    font-family:"DIN Next";
    font-weight: 500;
    font-style: italic;
    src:url("https://whimsical.com/fonts/9897c008-fd65-48a4-afc7-36de2fea97b9.eot?#iefix");
    src:url("https://whimsical.com/fonts/9897c008-fd65-48a4-afc7-36de2fea97b9.eot?#iefix") format("eot"),url("https://whimsical.com/fonts/c7717981-647d-4b76-8817-33062e42d11f.woff2") format("woff2"),url("https://whimsical.com/fonts/b852cd4c-1255-40b1-a2be-73a9105b0155.woff") format("woff"),url("https://whimsical.com/fonts/821b00ad-e741-4e2d-af1a-85594367c8a2.ttf") format("truetype"),url("https://whimsical.com/fonts/d3e3b689-a6b0-45f2-b279-f5e194f87409.svg#d3e3b689-a6b0-45f2-b279-f5e194f87409") format("svg");
}
@font-face{
    font-weight: 700;
    font-family:"DIN Next";
    src:url("https://whimsical.com/fonts/81cd3b08-fd39-4ae3-8d05-9d24709eba84.eot?#iefix");
    src:url("https://whimsical.com/fonts/81cd3b08-fd39-4ae3-8d05-9d24709eba84.eot?#iefix") format("eot"),url("https://whimsical.com/fonts/31704504-4671-47a6-a61e-397f07410d91.woff2") format("woff2"),url("https://whimsical.com/fonts/b8a280da-481f-44a0-8d9c-1bc64bd7227c.woff") format("woff"),url("https://whimsical.com/fonts/276d122a-0fab-447b-9fc0-5d7fb0eafce2.ttf") format("truetype"),url("https://whimsical.com/fonts/8fb8273a-8213-4928-808b-b5bfaf3fd7e9.svg#8fb8273a-8213-4928-808b-b5bfaf3fd7e9") format("svg");
}
@font-face{
    font-family:"DIN Next";
    font-weight: 700;
    font-style: italic;
    src:url("https://whimsical.com/fonts/00cc6df3-ed32-4004-8dd8-1c576600a408.eot?#iefix");
    src:url("https://whimsical.com/fonts/00cc6df3-ed32-4004-8dd8-1c576600a408.eot?#iefix") format("eot"),url("https://whimsical.com/fonts/4132c4c8-680c-4d6d-9251-a2da38503bbd.woff2") format("woff2"),url("https://whimsical.com/fonts/366401fe-6df4-47be-8f55-8a411cff0dd2.woff") format("woff"),url("https://whimsical.com/fonts/dbe4f7ba-fc16-44a6-a577-571620e9edaf.ttf") format("truetype"),url("https://whimsical.com/fonts/f874edca-ee87-4ccf-8b1d-921fbc3c1c36.svg#f874edca-ee87-4ccf-8b1d-921fbc3c1c36") format("svg");
}

@font-face {
    font-family: 'PFDINMonoPro';
    src:url('https://whimsical.com/fonts/PFDINMonoPro-Regular.woff') format('woff');
    font-weight: 400;
}
@font-face {
    font-family: 'PFDINMonoPro';
    src:url('https://whimsical.com/fonts/PFDINMonoPro-Italic.woff') format('woff');
    font-style: italic;
    font-weight: 400;
}
@font-face {
    font-family: 'PFDINMonoPro';
    src:url('https://whimsical.com/fonts/PFDINMonoPro-Bold.woff') format('woff');
    font-weight: 700;
}
@font-face {
    font-family: 'PFDINMonoPro';
    src:url('https://whimsical.com/fonts/PFDINMonoPro-BoldItalic.woff') format('woff');
    font-style: italic;
    font-weight: 700;
}
* {-webkit-font-smoothing: auto; -moz-osx-font-smoothing: auto;}@media print { svg { width: 100%; height: 100%; } }</style><g><filter id="white-fill-shadow" y="-50%" height="200%"><feDropShadow dx="0" dy="2" stdDeviation="6" flood-opacity="0.03" flood-color="#000000"></feDropShadow></filter><filter id="light-gray-fill-shadow" y="-50%" height="200%"><feDropShadow dx="0" dy="2" stdDeviation="6" flood-opacity="0.09" flood-color="#000000"></feDropShadow></filter><filter id="yellow-fill-shadow" y="-50%" height="200%"><feDropShadow dx="0" dy="2" stdDeviation="6" flood-opacity="0.12" flood-color="#000000"></feDropShadow></filter><filter id="fill-shadow" y="-50%" height="200%"><feDropShadow dx="0" dy="2" stdDeviation="6" flood-opacity="0.16" flood-color="#000000"></feDropShadow></filter><filter id="frame-shadow" y="-50%" height="200%"><feDropShadow dx="0" dy="3" stdDeviation="8" flood-opacity="0.06" flood-color="#000000"></feDropShadow></filter><filter id="button-shadow" y="-50%" height="200%"><feDropShadow dx="0" dy="2" stdDeviation="6" flood-opacity="0.03" flood-color="#000000"></feDropShadow></filter><filter id="button-hover-shadow" y="-50%" height="200%"><feDropShadow dx="0" dy="2" stdDeviation="6" flood-opacity="0.08" flood-color="#000000"></feDropShadow></filter><filter id="badge-shadow" y="-50%" height="200%"><feDropShadow dx="0" dy="2" stdDeviation="6" flood-opacity="0.08" flood-color="#000000"></feDropShadow></filter></g></defs><g><rect x="456" y="144" width="900" height="696" rx="3" ry="3" fill="#FFFFFF" filter="url(#white-fill-shadow)"></rect><g><rect x="456" y="144" width="900" height="696" rx="3" ry="3" fill="#FFFFFF"></rect><g class="content"><g><g><g><g id="12-2"><g id="12-1"><g><g></g><text fill="#293845" hover-props="{}"><tspan x="906" y="183.5" font-family="DIN Next, system-ui, sans-serif" font-size="27" font-style="normal" font-weight="bold">
</tspan></text></g></g></g></g><g><g id="12-1"><g><g></g><text fill="#293845" hover-props="{}"><tspan x="862.62646484375" y="219.5" font-family="DIN Next, system-ui, sans-serif" font-size="27" font-style="normal" font-weight="bold">Cluster</tspan></text></g></g></g></g></g></g></g><g><g><rect x="480" y="288" width="396" height="528" rx="3" ry="3" fill="#FFFFFF" filter="url(#light-gray-fill-shadow)"></rect><g><rect x="480" y="288" width="396" height="528" rx="3" ry="3" fill="#C3CFD9"></rect></g><g><g><path d="M852,492c0,19.88222 -77.90258,36 -174,36c-96.09742,0 -174,-16.11778 -174,-36c0,-17.30773 0,-113.60443 0,-138.25257c12.83081,18.25959 85.84698,32.25257 174,32.25257c88.15302,0 161.16919,-13.99298 174,-32.25257c0,29.13334 0,119.84504 0,138.25257zM504,348c0,-19.88222 77.90258,-36 174,-36c96.09742,0 174,16.11778 174,36c0,19.88222 -77.90258,36 -174,36c-96.09742,0 -174,-16.11778 -174,-36z" fill="#FFFFFF" filter="url(#fill-shadow)"></path><g><path d="M852,492c0,19.88222 -77.90258,36 -174,36c-96.09742,0 -174,-16.11778 -174,-36c0,-17.30773 0,-113.60443 0,-138.25257c12.83081,18.25959 85.84698,32.25257 174,32.25257c88.15302,0 161.16919,-13.99298 174,-32.25257c0,29.13334 0,119.84504 0,138.25257zM504,348c0,-19.88222 77.90258,-36 174,-36c96.09742,0 174,16.11778 174,36c0,19.88222 -77.90258,36 -174,36c-96.09742,0 -174,-16.11778 -174,-36z" fill="#E8833A"></path></g><g><g><g class="content"><g><g><g><g id="12/Fo9;/-1"><g><g></g><text fill="#293845" hover-props="{}"><tspan x="621.46533203125" y="354.5" font-family="DIN Next, system-ui, sans-serif" font-size="18" font-style="normal" font-weight="bold">Node (master)</tspan></text></g></g></g></g></g></g></g><g><rect x="684" y="396" width="156" height="96" rx="48" ry="48" fill="#FFFFFF" filter="url(#yellow-fill-shadow)"></rect><g><rect x="684" y="396" width="156" height="96" rx="48" ry="48" fill="#F7C325"></rect><g class="content"><g><g><g><g id="12-1"><g><g></g><text fill="#293845" hover-props="{}"><tspan x="737.3857421875" y="423.5" font-family="DIN Next, system-ui, sans-serif" font-size="15" font-style="normal" font-weight="bold">sh0004</tspan></text></g></g><g id="12-2"><g id="12-1"><g><g></g><text fill="#293845" hover-props="{}"><tspan x="786.6142578125" y="423.5" font-family="DIN Next, system-ui, sans-serif" font-size="15" font-style="normal" font-weight="bold">
</tspan></text></g></g></g></g><g><g><g></g><text hover-props="{}"><tspan x="762" y="444">​</tspan></text></g></g></g></g></g></g><g><g><g class="content"><g><g><g><g><g></g><text fill="#293845" hover-props="{}"><tspan x="738" y="446.5" font-family="DIN Next, system-ui, sans-serif" font-size="13" font-style="normal" font-weight="normal">users</tspan></text></g><g id="12/Fo9;/-1"><g><g></g><text fill="#293845" hover-props="{}"><tspan x="769.625" y="446.5" font-family="DIN Next, system-ui, sans-serif" font-size="13" font-style="normal" font-weight="normal">
</tspan></text></g></g></g><g><g><g></g><text fill="#293845" hover-props="{}"><tspan x="738" y="462.5" font-family="DIN Next, system-ui, sans-serif" font-size="13" font-style="normal" font-weight="normal">topics</tspan></text></g><g id="12/Fo9;/-2"><g><g></g><text fill="#293845" hover-props="{}"><tspan x="771.5361328125" y="462.5" font-family="DIN Next, system-ui, sans-serif" font-size="13" font-style="normal" font-weight="normal">
</tspan></text></g></g></g><g><g><g></g><text fill="#293845" hover-props="{}"><tspan x="738" y="478.5" font-family="DIN Next, system-ui, sans-serif" font-size="13" font-style="normal" font-weight="normal">comments</tspan></text></g></g></g></g></g></g></g></g><g><rect x="516" y="396" width="156" height="96" rx="48" ry="48" fill="#FFFFFF" filter="url(#yellow-fill-shadow)"></rect><g><rect x="516" y="396" width="156" height="96" rx="48" ry="48" fill="#F7C325"></rect><g class="content"><g><g><g><g id="12-1"><g><g></g><text fill="#293845" hover-props="{}"><tspan x="569.3857421875" y="423.5" font-family="DIN Next, system-ui, sans-serif" font-size="15" font-style="normal" font-weight="bold">sh0002</tspan></text></g></g><g id="12-2"><g id="12-1"><g><g></g><text fill="#293845" hover-props="{}"><tspan x="618.6142578125" y="423.5" font-family="DIN Next, system-ui, sans-serif" font-size="15" font-style="normal" font-weight="bold">
</tspan></text></g></g></g></g><g><g><g></g><text hover-props="{}"><tspan x="594" y="444">​</tspan></text></g></g></g></g></g></g><g><g><g class="content"><g><g><g><g><g></g><text fill="#293845" hover-props="{}"><tspan x="570" y="446.5" font-family="DIN Next, system-ui, sans-serif" font-size="13" font-style="normal" font-weight="normal">users</tspan></text></g><g id="12/Fo9;/-1"><g><g></g><text fill="#293845" hover-props="{}"><tspan x="601.625" y="446.5" font-family="DIN Next, system-ui, sans-serif" font-size="13" font-style="normal" font-weight="normal">
</tspan></text></g></g></g><g><g><g></g><text fill="#293845" hover-props="{}"><tspan x="570" y="462.5" font-family="DIN Next, system-ui, sans-serif" font-size="13" font-style="normal" font-weight="normal">topics</tspan></text></g><g id="12/Fo9;/-2"><g><g></g><text fill="#293845" hover-props="{}"><tspan x="603.5361328125" y="462.5" font-family="DIN Next, system-ui, sans-serif" font-size="13" font-style="normal" font-weight="normal">
</tspan></text></g></g></g><g><g><g></g><text fill="#293845" hover-props="{}"><tspan x="570" y="478.5" font-family="DIN Next, system-ui, sans-serif" font-size="13" font-style="normal" font-weight="normal">comments</tspan></text></g></g></g></g></g></g></g></g></g></g><g><path d="M852,744c0,19.88222 -77.90258,36 -174,36c-96.09742,0 -174,-16.11778 -174,-36c0,-17.30773 0,-113.60443 0,-138.25257c12.83081,18.25959 85.84698,32.25257 174,32.25257c88.15302,0 161.16919,-13.99298 174,-32.25257c0,29.13334 0,119.84504 0,138.25257zM504,600c0,-19.88222 77.90258,-36 174,-36c96.09742,0 174,16.11778 174,36c0,19.88222 -77.90258,36 -174,36c-96.09742,0 -174,-16.11778 -174,-36z" fill="#FFFFFF" filter="url(#fill-shadow)"></path><g><path d="M852,744c0,19.88222 -77.90258,36 -174,36c-96.09742,0 -174,-16.11778 -174,-36c0,-17.30773 0,-113.60443 0,-138.25257c12.83081,18.25959 85.84698,32.25257 174,32.25257c88.15302,0 161.16919,-13.99298 174,-32.25257c0,29.13334 0,119.84504 0,138.25257zM504,600c0,-19.88222 77.90258,-36 174,-36c96.09742,0 174,16.11778 174,36c0,19.88222 -77.90258,36 -174,36c-96.09742,0 -174,-16.11778 -174,-36z" fill="#1AAE9F"></path></g><g><g><g class="content"><g><g><g><g id="12/Fo9;/-1"><g><g></g><text fill="#293845" hover-props="{}"><tspan x="622.43798828125" y="606.5" font-family="DIN Next, system-ui, sans-serif" font-size="18" font-style="normal" font-weight="bold">Node (replica)</tspan></text></g></g></g></g></g></g></g><g><rect x="684" y="648" width="156" height="96" rx="48" ry="48" fill="#FFFFFF" filter="url(#fill-shadow)"></rect><g><rect x="684" y="648" width="156" height="96" rx="48" ry="48" fill="#207868"></rect><g class="content"><g><g><g><g id="12-1"><g><g></g><text fill="#FFFFFF" hover-props="{}"><tspan x="737.3857421875" y="675.5" font-family="DIN Next, system-ui, sans-serif" font-size="15" font-style="normal" font-weight="bold">sh0004</tspan></text></g></g><g id="12-2"><g id="12-1"><g><g></g><text fill="#FFFFFF" hover-props="{}"><tspan x="786.6142578125" y="675.5" font-family="DIN Next, system-ui, sans-serif" font-size="15" font-style="normal" font-weight="bold">
</tspan></text></g></g></g></g><g><g><g></g><text hover-props="{}"><tspan x="762" y="696">​</tspan></text></g></g></g></g></g></g><g><g><g class="content"><g><g><g><g><g></g><text fill="#FFFFFF" hover-props="{}"><tspan x="738" y="698.5" font-family="DIN Next, system-ui, sans-serif" font-size="13" font-style="normal" font-weight="normal">users</tspan></text></g><g id="12/Fo9;/-1"><g><g></g><text fill="#FFFFFF" hover-props="{}"><tspan x="769.625" y="698.5" font-family="DIN Next, system-ui, sans-serif" font-size="13" font-style="normal" font-weight="normal">
</tspan></text></g></g></g><g><g><g></g><text fill="#FFFFFF" hover-props="{}"><tspan x="738" y="714.5" font-family="DIN Next, system-ui, sans-serif" font-size="13" font-style="normal" font-weight="normal">topics</tspan></text></g><g id="12/Fo9;/-2"><g><g></g><text fill="#FFFFFF" hover-props="{}"><tspan x="771.5361328125" y="714.5" font-family="DIN Next, system-ui, sans-serif" font-size="13" font-style="normal" font-weight="normal">
</tspan></text></g></g></g><g><g><g></g><text fill="#FFFFFF" hover-props="{}"><tspan x="738" y="730.5" font-family="DIN Next, system-ui, sans-serif" font-size="13" font-style="normal" font-weight="normal">comments</tspan></text></g></g></g></g></g></g></g></g><g><rect x="516" y="648" width="156" height="96" rx="48" ry="48" fill="#FFFFFF" filter="url(#fill-shadow)"></rect><g><rect x="516" y="648" width="156" height="96" rx="48" ry="48" fill="#207868"></rect><g class="content"><g><g><g><g id="12-1"><g><g></g><text fill="#FFFFFF" hover-props="{}"><tspan x="569.3857421875" y="675.5" font-family="DIN Next, system-ui, sans-serif" font-size="15" font-style="normal" font-weight="bold">sh0002</tspan></text></g></g><g id="12-2"><g id="12-1"><g><g></g><text fill="#FFFFFF" hover-props="{}"><tspan x="618.6142578125" y="675.5" font-family="DIN Next, system-ui, sans-serif" font-size="15" font-style="normal" font-weight="bold">
</tspan></text></g></g></g></g><g><g><g></g><text hover-props="{}"><tspan x="594" y="696">​</tspan></text></g></g></g></g></g></g><g><g><g class="content"><g><g><g><g><g></g><text fill="#FFFFFF" hover-props="{}"><tspan x="570" y="698.5" font-family="DIN Next, system-ui, sans-serif" font-size="13" font-style="normal" font-weight="normal">users</tspan></text></g><g id="12/Fo9;/-1"><g><g></g><text fill="#FFFFFF" hover-props="{}"><tspan x="601.625" y="698.5" font-family="DIN Next, system-ui, sans-serif" font-size="13" font-style="normal" font-weight="normal">
</tspan></text></g></g></g><g><g><g></g><text fill="#FFFFFF" hover-props="{}"><tspan x="570" y="714.5" font-family="DIN Next, system-ui, sans-serif" font-size="13" font-style="normal" font-weight="normal">topics</tspan></text></g><g id="12/Fo9;/-2"><g><g></g><text fill="#FFFFFF" hover-props="{}"><tspan x="603.5361328125" y="714.5" font-family="DIN Next, system-ui, sans-serif" font-size="13" font-style="normal" font-weight="normal">
</tspan></text></g></g></g><g><g><g></g><text fill="#FFFFFF" hover-props="{}"><tspan x="570" y="730.5" font-family="DIN Next, system-ui, sans-serif" font-size="13" font-style="normal" font-weight="normal">comments</tspan></text></g></g></g></g></g></g></g></g></g></g><g><g><line stroke="#788896" fill="none" stroke-linejoin="round" y1="537" stroke-linecap="round" stroke-width="4" x1="678" y2="552.0000000000002" x2="678"></line><polygon points="683.54095,548.9079 678,556 672.45905,548.9079" fill="#788896" stroke="#788896" stroke-width="2" stroke-linecap="round" stroke-linejoin="round"></polygon></g></g></g></g><g><g class="content"><g><g><g><g id="12/Fo9;/-1"><g><g></g><text fill="#293845" hover-props="{}"><tspan x="641.14697265625" y="273.5" font-family="DIN Next, system-ui, sans-serif" font-size="21" font-style="normal" font-weight="bold">Island 1</tspan></text></g></g></g></g></g></g></g><g><rect x="936" y="288" width="396" height="528" rx="3" ry="3" fill="#FFFFFF" filter="url(#light-gray-fill-shadow)"></rect><g><rect x="936" y="288" width="396" height="528" rx="3" ry="3" fill="#C3CFD9"></rect></g><g><g><path d="M1308,492c0,19.88222 -77.90258,36 -174,36c-96.09742,0 -174,-16.11778 -174,-36c0,-17.30773 0,-113.60443 0,-138.25257c12.83081,18.25959 85.84698,32.25257 174,32.25257c88.15302,0 161.16919,-13.99298 174,-32.25257c0,29.13334 0,119.84504 0,138.25257zM960,353.74743c0,3.00309 0,5.10282 0,0zM960,348c0,-19.88222 77.90258,-36 174,-36c96.09742,0 174,16.11778 174,36c0,19.88222 -77.90258,36 -174,36c-96.09742,0 -174,-16.11778 -174,-36z" fill="#FFFFFF" filter="url(#fill-shadow)"></path><g><path d="M1308,492c0,19.88222 -77.90258,36 -174,36c-96.09742,0 -174,-16.11778 -174,-36c0,-17.30773 0,-113.60443 0,-138.25257c12.83081,18.25959 85.84698,32.25257 174,32.25257c88.15302,0 161.16919,-13.99298 174,-32.25257c0,29.13334 0,119.84504 0,138.25257zM960,353.74743c0,3.00309 0,5.10282 0,0zM960,348c0,-19.88222 77.90258,-36 174,-36c96.09742,0 174,16.11778 174,36c0,19.88222 -77.90258,36 -174,36c-96.09742,0 -174,-16.11778 -174,-36z" fill="#E8833A"></path></g><g><g><g class="content"><g><g><g><g id="12/Fo9;/-1"><g><g></g><text fill="#293845" hover-props="{}"><tspan x="1081.96533203125" y="354.5" font-family="DIN Next, system-ui, sans-serif" font-size="18" font-style="normal" font-weight="bold">Node (master)</tspan></text></g></g></g></g></g></g></g><g><rect x="1140" y="396" width="156" height="96" rx="48" ry="48" fill="#FFFFFF" filter="url(#yellow-fill-shadow)"></rect><g><rect x="1140" y="396" width="156" height="96" rx="48" ry="48" fill="#F7C325"></rect><g class="content"><g><g><g><g id="12-1"><g><g></g><text fill="#293845" hover-props="{}"><tspan x="1193.3857421875" y="423.5" font-family="DIN Next, system-ui, sans-serif" font-size="15" font-style="normal" font-weight="bold">sh0003</tspan></text></g></g><g id="12-2"><g id="12-1"><g><g></g><text fill="#293845" hover-props="{}"><tspan x="1242.6142578125" y="423.5" font-family="DIN Next, system-ui, sans-serif" font-size="15" font-style="normal" font-weight="bold">
</tspan></text></g></g></g></g><g><g><g></g><text hover-props="{}"><tspan x="1218" y="444">​</tspan></text></g></g></g></g></g></g><g><g><g class="content"><g><g><g><g><g></g><text fill="#293845" hover-props="{}"><tspan x="1194" y="446.5" font-family="DIN Next, system-ui, sans-serif" font-size="13" font-style="normal" font-weight="normal">users</tspan></text></g><g id="12/Fo9;/-1"><g><g></g><text fill="#293845" hover-props="{}"><tspan x="1225.625" y="446.5" font-family="DIN Next, system-ui, sans-serif" font-size="13" font-style="normal" font-weight="normal">
</tspan></text></g></g></g><g><g><g></g><text fill="#293845" hover-props="{}"><tspan x="1194" y="462.5" font-family="DIN Next, system-ui, sans-serif" font-size="13" font-style="normal" font-weight="normal">topics</tspan></text></g><g id="12/Fo9;/-2"><g><g></g><text fill="#293845" hover-props="{}"><tspan x="1227.5361328125" y="462.5" font-family="DIN Next, system-ui, sans-serif" font-size="13" font-style="normal" font-weight="normal">
</tspan></text></g></g></g><g><g><g></g><text fill="#293845" hover-props="{}"><tspan x="1194" y="478.5" font-family="DIN Next, system-ui, sans-serif" font-size="13" font-style="normal" font-weight="normal">comments</tspan></text></g></g></g></g></g></g></g></g><g><rect x="972" y="396" width="156" height="96" rx="48" ry="48" fill="#FFFFFF" filter="url(#yellow-fill-shadow)"></rect><g><rect x="972" y="396" width="156" height="96" rx="48" ry="48" fill="#F7C325"></rect><g class="content"><g><g><g><g id="12-1"><g><g></g><text fill="#293845" hover-props="{}"><tspan x="1025.3857421875" y="423.5" font-family="DIN Next, system-ui, sans-serif" font-size="15" font-style="normal" font-weight="bold">sh0001</tspan></text></g></g><g id="12-2"><g id="12-1"><g><g></g><text fill="#293845" hover-props="{}"><tspan x="1074.6142578125" y="423.5" font-family="DIN Next, system-ui, sans-serif" font-size="15" font-style="normal" font-weight="bold">
</tspan></text></g></g></g></g><g><g><g></g><text hover-props="{}"><tspan x="1050" y="444">​</tspan></text></g></g></g></g></g></g><g><g><g class="content"><g><g><g><g><g></g><text fill="#293845" hover-props="{}"><tspan x="1026" y="446.5" font-family="DIN Next, system-ui, sans-serif" font-size="13" font-style="normal" font-weight="normal">users</tspan></text></g><g id="12/Fo9;/-1"><g><g></g><text fill="#293845" hover-props="{}"><tspan x="1057.625" y="446.5" font-family="DIN Next, system-ui, sans-serif" font-size="13" font-style="normal" font-weight="normal">
</tspan></text></g></g></g><g><g><g></g><text fill="#293845" hover-props="{}"><tspan x="1026" y="462.5" font-family="DIN Next, system-ui, sans-serif" font-size="13" font-style="normal" font-weight="normal">topics</tspan></text></g><g id="12/Fo9;/-2"><g><g></g><text fill="#293845" hover-props="{}"><tspan x="1059.5361328125" y="462.5" font-family="DIN Next, system-ui, sans-serif" font-size="13" font-style="normal" font-weight="normal">
</tspan></text></g></g></g><g><g><g></g><text fill="#293845" hover-props="{}"><tspan x="1026" y="478.5" font-family="DIN Next, system-ui, sans-serif" font-size="13" font-style="normal" font-weight="normal">comments</tspan></text></g></g></g></g></g></g></g></g></g></g><g><path d="M1308,744c0,19.88222 -77.90258,36 -174,36c-96.09742,0 -174,-16.11778 -174,-36c0,-17.30773 0,-113.60443 0,-138.25257c12.83081,18.25959 85.84698,32.25257 174,32.25257c88.15302,0 161.16919,-13.99298 174,-32.25257c0,29.13334 0,119.84504 0,138.25257zM960,600c0,-19.88222 77.90258,-36 174,-36c96.09742,0 174,16.11778 174,36c0,19.88222 -77.90258,36 -174,36c-96.09742,0 -174,-16.11778 -174,-36z" fill="#FFFFFF" filter="url(#fill-shadow)"></path><g><path d="M1308,744c0,19.88222 -77.90258,36 -174,36c-96.09742,0 -174,-16.11778 -174,-36c0,-17.30773 0,-113.60443 0,-138.25257c12.83081,18.25959 85.84698,32.25257 174,32.25257c88.15302,0 161.16919,-13.99298 174,-32.25257c0,29.13334 0,119.84504 0,138.25257zM960,600c0,-19.88222 77.90258,-36 174,-36c96.09742,0 174,16.11778 174,36c0,19.88222 -77.90258,36 -174,36c-96.09742,0 -174,-16.11778 -174,-36z" fill="#1AAE9F"></path></g><g><g><g class="content"><g><g><g><g id="12/Fo9;/-1"><g><g></g><text fill="#293845" hover-props="{}"><tspan x="1081.93798828125" y="606.5" font-family="DIN Next, system-ui, sans-serif" font-size="18" font-style="normal" font-weight="bold">Node (replica)</tspan></text></g></g></g></g></g></g></g><g><rect x="1140" y="648" width="156" height="96" rx="48" ry="48" fill="#FFFFFF" filter="url(#fill-shadow)"></rect><g><rect x="1140" y="648" width="156" height="96" rx="48" ry="48" fill="#207868"></rect><g class="content"><g><g><g><g id="12-1"><g><g></g><text fill="#FFFFFF" hover-props="{}"><tspan x="1193.3857421875" y="675.5" font-family="DIN Next, system-ui, sans-serif" font-size="15" font-style="normal" font-weight="bold">sh0003</tspan></text></g></g><g id="12-2"><g id="12-1"><g><g></g><text fill="#FFFFFF" hover-props="{}"><tspan x="1242.6142578125" y="675.5" font-family="DIN Next, system-ui, sans-serif" font-size="15" font-style="normal" font-weight="bold">
</tspan></text></g></g></g></g><g><g><g></g><text hover-props="{}"><tspan x="1218" y="696">​</tspan></text></g></g></g></g></g></g><g><g><g class="content"><g><g><g><g><g></g><text fill="#FFFFFF" hover-props="{}"><tspan x="1194" y="698.5" font-family="DIN Next, system-ui, sans-serif" font-size="13" font-style="normal" font-weight="normal">users</tspan></text></g><g id="12/Fo9;/-1"><g><g></g><text fill="#FFFFFF" hover-props="{}"><tspan x="1225.625" y="698.5" font-family="DIN Next, system-ui, sans-serif" font-size="13" font-style="normal" font-weight="normal">
</tspan></text></g></g></g><g><g><g></g><text fill="#FFFFFF" hover-props="{}"><tspan x="1194" y="714.5" font-family="DIN Next, system-ui, sans-serif" font-size="13" font-style="normal" font-weight="normal">topics</tspan></text></g><g id="12/Fo9;/-2"><g><g></g><text fill="#FFFFFF" hover-props="{}"><tspan x="1227.5361328125" y="714.5" font-family="DIN Next, system-ui, sans-serif" font-size="13" font-style="normal" font-weight="normal">
</tspan></text></g></g></g><g><g><g></g><text fill="#FFFFFF" hover-props="{}"><tspan x="1194" y="730.5" font-family="DIN Next, system-ui, sans-serif" font-size="13" font-style="normal" font-weight="normal">comments</tspan></text></g></g></g></g></g></g></g></g><g><rect x="972" y="648" width="156" height="96" rx="48" ry="48" fill="#FFFFFF" filter="url(#fill-shadow)"></rect><g><rect x="972" y="648" width="156" height="96" rx="48" ry="48" fill="#207868"></rect><g class="content"><g><g><g><g id="12-1"><g><g></g><text fill="#FFFFFF" hover-props="{}"><tspan x="1025.3857421875" y="675.5" font-family="DIN Next, system-ui, sans-serif" font-size="15" font-style="normal" font-weight="bold">sh0001</tspan></text></g></g><g id="12-2"><g id="12-1"><g><g></g><text fill="#FFFFFF" hover-props="{}"><tspan x="1074.6142578125" y="675.5" font-family="DIN Next, system-ui, sans-serif" font-size="15" font-style="normal" font-weight="bold">
</tspan></text></g></g></g></g><g><g><g></g><text hover-props="{}"><tspan x="1050" y="696">​</tspan></text></g></g></g></g></g></g><g><g><g class="content"><g><g><g><g><g></g><text fill="#FFFFFF" hover-props="{}"><tspan x="1026" y="698.5" font-family="DIN Next, system-ui, sans-serif" font-size="13" font-style="normal" font-weight="normal">users</tspan></text></g><g id="12/Fo9;/-1"><g><g></g><text fill="#FFFFFF" hover-props="{}"><tspan x="1057.625" y="698.5" font-family="DIN Next, system-ui, sans-serif" font-size="13" font-style="normal" font-weight="normal">
</tspan></text></g></g></g><g><g><g></g><text fill="#FFFFFF" hover-props="{}"><tspan x="1026" y="714.5" font-family="DIN Next, system-ui, sans-serif" font-size="13" font-style="normal" font-weight="normal">topics</tspan></text></g><g id="12/Fo9;/-2"><g><g></g><text fill="#FFFFFF" hover-props="{}"><tspan x="1059.5361328125" y="714.5" font-family="DIN Next, system-ui, sans-serif" font-size="13" font-style="normal" font-weight="normal">
</tspan></text></g></g></g><g><g><g></g><text fill="#FFFFFF" hover-props="{}"><tspan x="1026" y="730.5" font-family="DIN Next, system-ui, sans-serif" font-size="13" font-style="normal" font-weight="normal">comments</tspan></text></g></g></g></g></g></g></g></g></g></g><g><g><line stroke="#788896" fill="none" stroke-linejoin="round" y1="536.9999999999999" stroke-linecap="round" stroke-width="4" x1="1134" y2="551.9999999999998" x2="1134"></line><polygon points="1139.54095,548.9079 1134,556 1128.45905,548.9079" fill="#788896" stroke="#788896" stroke-width="2" stroke-linecap="round" stroke-linejoin="round"></polygon></g></g></g></g><g><g class="content"><g><g><g><g id="12/Fo9;/-1"><g><g></g><text fill="#293845" hover-props="{}"><tspan x="1101.14697265625" y="273.5" font-family="DIN Next, system-ui, sans-serif" font-size="21" font-style="normal" font-weight="bold">Island 2</tspan></text></g></g></g></g></g></g></g></g></g></svg>