<svg xmlns="http://www.w3.org/2000/svg" xmlns:xlink="http://www.w3.org/1999/xlink" version="1.1" viewBox="228 96 972 564" width="972px" height="564px"><defs><style>* {-webkit-font-smoothing: auto; -moz-osx-font-smoothing: auto;}@media print { svg { width: 100%; height: 100%; } }</style><g><filter id="white-fill-shadow" y="-50%" height="200%"><feDropShadow dx="0" dy="2" stdDeviation="6" flood-opacity="0.03" flood-color="#000000"></feDropShadow></filter><filter id="light-gray-fill-shadow" y="-50%" height="200%"><feDropShadow dx="0" dy="2" stdDeviation="6" flood-opacity="0.09" flood-color="#000000"></feDropShadow></filter><filter id="yellow-fill-shadow" y="-50%" height="200%"><feDropShadow dx="0" dy="2" stdDeviation="6" flood-opacity="0.12" flood-color="#000000"></feDropShadow></filter><filter id="fill-shadow" y="-50%" height="200%"><feDropShadow dx="0" dy="2" stdDeviation="6" flood-opacity="0.16" flood-color="#000000"></feDropShadow></filter><filter id="frame-shadow" y="-50%" height="200%"><feDropShadow dx="0" dy="3" stdDeviation="8" flood-opacity="0.06" flood-color="#000000"></feDropShadow></filter><filter id="button-shadow" y="-50%" height="200%"><feDropShadow dx="0" dy="2" stdDeviation="6" flood-opacity="0.03" flood-color="#000000"></feDropShadow></filter><filter id="button-hover-shadow" y="-50%" height="200%"><feDropShadow dx="0" dy="2" stdDeviation="6" flood-opacity="0.08" flood-color="#000000"></feDropShadow></filter><filter id="badge-shadow" y="-50%" height="200%"><feDropShadow dx="0" dy="2" stdDeviation="6" flood-opacity="0.08" flood-color="#000000"></feDropShadow></filter></g></defs><g><rect x="228" y="96" width="972" height="564" rx="3" ry="3" fill="#FFFFFF" filter="url(#white-fill-shadow)"></rect><g><rect x="228" y="96" width="972" height="564" rx="3" ry="3" fill="#FFFFFF"></rect><g class="content"><g><g><g><g id="12-2"><g id="12-1"><g><g></g><text fill="#293845" hover-props="{}"><tspan x="714" y="135.5" font-family="Arial, system-ui, sans-serif" font-size="27" font-style="normal" font-weight="bold">
</tspan></text></g></g></g></g><g><g id="12-1"><g><g></g><text fill="#293845" hover-props="{}"><tspan x="670.62646484375" y="171.5" font-family="Arial, system-ui, sans-serif" font-size="27" font-style="normal" font-weight="bold">Cluster</tspan></text></g></g></g></g></g></g></g><g><g><rect x="252" y="180" width="156" height="456" rx="3" ry="3" fill="#FFFFFF" filter="url(#light-gray-fill-shadow)"></rect><g><rect x="252" y="180" width="156" height="456" rx="3" ry="3" fill="#C3CFD9"></rect></g><g><g><path d="M384,276c0,6.62741 -24.17666,12 -54,12c-29.82334,0 -54,-5.37259 -54,-12c0,-5.56209 0,-44.04916 0,-56.27859c6.51919,5.92563 28.22625,10.27859 54,10.27859c25.77375,0 47.48081,-4.35296 54,-10.27859c0,13.06083 0,50.40815 0,56.27859zM276,216c0,-6.62741 24.17666,-12 54,-12c29.82334,0 54,5.37259 54,12c0,6.62741 -24.17666,12 -54,12c-29.82334,0 -54,-5.37259 -54,-12z" fill="#FFFFFF" filter="url(#fill-shadow)"></path><g><path d="M384,276c0,6.62741 -24.17666,12 -54,12c-29.82334,0 -54,-5.37259 -54,-12c0,-5.56209 0,-44.04916 0,-56.27859c6.51919,5.92563 28.22625,10.27859 54,10.27859c25.77375,0 47.48081,-4.35296 54,-10.27859c0,13.06083 0,50.40815 0,56.27859zM276,216c0,-6.62741 24.17666,-12 54,-12c29.82334,0 54,5.37259 54,12c0,6.62741 -24.17666,12 -54,12c-29.82334,0 -54,-5.37259 -54,-12z" fill="#E8833A"></path></g><g><g><rect x="294" y="243" width="72" height="24" rx="12" ry="12" fill="#FFFFFF" filter="url(#yellow-fill-shadow)"></rect><g><rect x="294" y="243" width="72" height="24" rx="12" ry="12" fill="#F7C325"></rect><g class="content"><g><g><g><g><g></g><text fill="#293845" hover-props="{}"><tspan x="305.98583984375" y="260.5" font-family="Arial, system-ui, sans-serif" font-size="15" font-style="normal" font-weight="normal">sh0000</tspan></text></g></g></g></g></g></g></g></g></g><g><path d="M386,384c0,6.62741 -24.62438,12 -55,12c-30.37562,0 -55,-5.37259 -55,-12c0,-5.56696 0,-44.11654 0,-56.31063c6.59172,5.94197 28.71874,10.31063 55,10.31063c26.28126,0 48.40828,-4.36866 55,-10.31063c0,13.03168 0,50.43538 0,56.31063zM276,324c0,-6.62741 24.62438,-12 55,-12c30.37562,0 55,5.37259 55,12c0,6.62741 -24.62438,12 -55,12c-30.37562,0 -55,-5.37259 -55,-12z" fill="#FFFFFF" filter="url(#fill-shadow)"></path><g><path d="M386,384c0,6.62741 -24.62438,12 -55,12c-30.37562,0 -55,-5.37259 -55,-12c0,-5.56696 0,-44.11654 0,-56.31063c6.59172,5.94197 28.71874,10.31063 55,10.31063c26.28126,0 48.40828,-4.36866 55,-10.31063c0,13.03168 0,50.43538 0,56.31063zM276,324c0,-6.62741 24.62438,-12 55,-12c30.37562,0 55,5.37259 55,12c0,6.62741 -24.62438,12 -55,12c-30.37562,0 -55,-5.37259 -55,-12z" fill="#1AAE9F"></path></g><g><g><rect x="294" y="351" width="72" height="24" rx="12" ry="12" fill="#FFFFFF" filter="url(#fill-shadow)"></rect><g><rect x="294" y="351" width="72" height="24" rx="12" ry="12" fill="#207868"></rect><g class="content"><g><g><g><g><g></g><text fill="#FFFFFF" hover-props="{}"><tspan x="305.98583984375" y="368.5" font-family="Arial, system-ui, sans-serif" font-size="15" font-style="normal" font-weight="normal">sh0000</tspan></text></g></g></g></g></g></g></g></g></g><g><path d="M386,492c0,6.62741 -24.62438,12 -55,12c-30.37562,0 -55,-5.37259 -55,-12c0,-5.56696 0,-44.11654 0,-56.31063c6.59172,5.94197 28.71874,10.31063 55,10.31063c26.28126,0 48.40828,-4.36866 55,-10.31063c0,13.03168 0,50.43538 0,56.31063zM276,432c0,-6.62741 24.62438,-12 55,-12c30.37562,0 55,5.37259 55,12c0,6.62741 -24.62438,12 -55,12c-30.37562,0 -55,-5.37259 -55,-12z" fill="#FFFFFF" filter="url(#fill-shadow)"></path><g><path d="M386,492c0,6.62741 -24.62438,12 -55,12c-30.37562,0 -55,-5.37259 -55,-12c0,-5.56696 0,-44.11654 0,-56.31063c6.59172,5.94197 28.71874,10.31063 55,10.31063c26.28126,0 48.40828,-4.36866 55,-10.31063c0,13.03168 0,50.43538 0,56.31063zM276,432c0,-6.62741 24.62438,-12 55,-12c30.37562,0 55,5.37259 55,12c0,6.62741 -24.62438,12 -55,12c-30.37562,0 -55,-5.37259 -55,-12z" fill="#1AAE9F"></path></g><g><g><rect x="294" y="459" width="72" height="24" rx="12" ry="12" fill="#FFFFFF" filter="url(#fill-shadow)"></rect><g><rect x="294" y="459" width="72" height="24" rx="12" ry="12" fill="#207868"></rect><g class="content"><g><g><g><g><g></g><text fill="#FFFFFF" hover-props="{}"><tspan x="305.98583984375" y="476.5" font-family="Arial, system-ui, sans-serif" font-size="15" font-style="normal" font-weight="normal">sh0000</tspan></text></g></g></g></g></g></g></g></g></g><g><g class="content"><g><g><g><g><g></g><text fill="#293845" hover-props="{}"><tspan x="306" y="220.5" font-family="Arial, system-ui, sans-serif" font-size="15" font-style="normal" font-weight="normal">master</tspan></text></g></g></g></g></g></g><g><g class="content"><g><g><g><g><g></g><text fill="#293845" hover-props="{}"><tspan x="307" y="328.5" font-family="Arial, system-ui, sans-serif" font-size="15" font-style="normal" font-weight="normal">replica</tspan></text></g></g></g></g></g></g><g><g class="content"><g><g><g><g><g></g><text fill="#293845" hover-props="{}"><tspan x="307" y="436.5" font-family="Arial, system-ui, sans-serif" font-size="15" font-style="normal" font-weight="normal">replica</tspan></text></g></g></g></g></g></g><g><path d="M386,600c0,6.62741 -24.62438,12 -55,12c-30.37562,0 -55,-5.37259 -55,-12c0,-5.56696 0,-44.11654 0,-56.31063c6.59172,5.94197 28.71874,10.31063 55,10.31063c26.28126,0 48.40828,-4.36866 55,-10.31063c0,13.03168 0,50.43538 0,56.31063zM276,540c0,-6.62741 24.62438,-12 55,-12c30.37562,0 55,5.37259 55,12c0,6.62741 -24.62438,12 -55,12c-30.37562,0 -55,-5.37259 -55,-12z" fill="#FFFFFF" filter="url(#fill-shadow)"></path><g><path d="M386,600c0,6.62741 -24.62438,12 -55,12c-30.37562,0 -55,-5.37259 -55,-12c0,-5.56696 0,-44.11654 0,-56.31063c6.59172,5.94197 28.71874,10.31063 55,10.31063c26.28126,0 48.40828,-4.36866 55,-10.31063c0,13.03168 0,50.43538 0,56.31063zM276,540c0,-6.62741 24.62438,-12 55,-12c30.37562,0 55,5.37259 55,12c0,6.62741 -24.62438,12 -55,12c-30.37562,0 -55,-5.37259 -55,-12z" fill="#1AAE9F"></path></g><g><g><rect x="294" y="567" width="72" height="24" rx="12" ry="12" fill="#FFFFFF" filter="url(#fill-shadow)"></rect><g><rect x="294" y="567" width="72" height="24" rx="12" ry="12" fill="#207868"></rect><g class="content"><g><g><g><g><g></g><text fill="#FFFFFF" hover-props="{}"><tspan x="305.98583984375" y="584.5" font-family="Arial, system-ui, sans-serif" font-size="15" font-style="normal" font-weight="normal">sh0000</tspan></text></g></g></g></g></g></g></g></g></g><g><g class="content"><g><g><g><g><g></g><text fill="#293845" hover-props="{}"><tspan x="307" y="544.5" font-family="Arial, system-ui, sans-serif" font-size="15" font-style="normal" font-weight="normal">replica</tspan></text></g></g></g></g></g></g></g></g><g><g class="content"><g><g><g><g id="12/Fo9;/-1"><g><g></g><text fill="#293845" hover-props="{}"><tspan x="298.41162109375" y="162.5" font-family="Arial, system-ui, sans-serif" font-size="18" font-style="normal" font-weight="bold">Island 0</tspan></text></g></g></g></g></g></g></g><g><rect x="480" y="288" width="312" height="348" rx="3" ry="3" fill="#FFFFFF" filter="url(#light-gray-fill-shadow)"></rect><g><rect x="480" y="288" width="312" height="348" rx="3" ry="3" fill="#C3CFD9"></rect></g><g><g><path d="M768,384c0,6.62741 -59.09851,12 -132,12c-72.90149,0 -132,-5.37259 -132,-12c0,-5.7773 0,-47.0767 0,-57.57677c10.98486,6.57704 65.90401,11.57677 132,11.57677c66.09599,0 121.01514,-4.99973 132,-11.57677c0,11.66424 0,51.49766 0,57.57677zM504,324c0,-6.62741 59.09851,-12 132,-12c72.90149,0 132,5.37259 132,12c0,6.62741 -59.09851,12 -132,12c-72.90149,0 -132,-5.37259 -132,-12z" fill="#FFFFFF" filter="url(#fill-shadow)"></path><g><path d="M768,384c0,6.62741 -59.09851,12 -132,12c-72.90149,0 -132,-5.37259 -132,-12c0,-5.7773 0,-47.0767 0,-57.57677c10.98486,6.57704 65.90401,11.57677 132,11.57677c66.09599,0 121.01514,-4.99973 132,-11.57677c0,11.66424 0,51.49766 0,57.57677zM504,324c0,-6.62741 59.09851,-12 132,-12c72.90149,0 132,5.37259 132,12c0,6.62741 -59.09851,12 -132,12c-72.90149,0 -132,-5.37259 -132,-12z" fill="#E8833A"></path></g><g><g><g class="content"><g><g><g><g><g></g><text fill="#293845" hover-props="{}"><tspan x="612" y="328.5" font-family="Arial, system-ui, sans-serif" font-size="15" font-style="normal" font-weight="normal">master</tspan></text></g></g></g></g></g></g><g><rect x="600" y="351" width="72" height="24" rx="12" ry="12" fill="#FFFFFF" filter="url(#yellow-fill-shadow)"></rect><g><rect x="600" y="351" width="72" height="24" rx="12" ry="12" fill="#F7C325"></rect><g class="content"><g><g><g><g><g></g><text fill="#293845" hover-props="{}"><tspan x="611.98583984375" y="368.5" font-family="Arial, system-ui, sans-serif" font-size="15" font-style="normal" font-weight="normal">sh0004</tspan></text></g></g></g></g></g></g></g><g><rect x="684" y="351" width="72" height="24" rx="12" ry="12" fill="#FFFFFF" filter="url(#yellow-fill-shadow)"></rect><g><rect x="684" y="351" width="72" height="24" rx="12" ry="12" fill="#F7C325"></rect><g class="content"><g><g><g><g><g></g><text fill="#293845" hover-props="{}"><tspan x="695.98583984375" y="368.5" font-family="Arial, system-ui, sans-serif" font-size="15" font-style="normal" font-weight="normal">sh0006</tspan></text></g></g></g></g></g></g></g><g><rect x="516" y="351" width="72" height="24" rx="12" ry="12" fill="#FFFFFF" filter="url(#yellow-fill-shadow)"></rect><g><rect x="516" y="351" width="72" height="24" rx="12" ry="12" fill="#F7C325"></rect><g class="content"><g><g><g><g><g></g><text fill="#293845" hover-props="{}"><tspan x="527.98583984375" y="368.5" font-family="Arial, system-ui, sans-serif" font-size="15" font-style="normal" font-weight="normal">sh0002</tspan></text></g></g></g></g></g></g></g></g></g><g><path d="M768,492c0,6.62741 -59.09851,12 -132,12c-72.90149,0 -132,-5.37259 -132,-12c0,-5.7773 0,-47.0767 0,-57.57677c10.98486,6.57704 65.90401,11.57677 132,11.57677c66.09599,0 121.01514,-4.99973 132,-11.57677c0,11.66424 0,51.49766 0,57.57677zM504,432c0,-6.62741 59.09851,-12 132,-12c72.90149,0 132,5.37259 132,12c0,6.62741 -59.09851,12 -132,12c-72.90149,0 -132,-5.37259 -132,-12z" fill="#FFFFFF" filter="url(#fill-shadow)"></path><g><path d="M768,492c0,6.62741 -59.09851,12 -132,12c-72.90149,0 -132,-5.37259 -132,-12c0,-5.7773 0,-47.0767 0,-57.57677c10.98486,6.57704 65.90401,11.57677 132,11.57677c66.09599,0 121.01514,-4.99973 132,-11.57677c0,11.66424 0,51.49766 0,57.57677zM504,432c0,-6.62741 59.09851,-12 132,-12c72.90149,0 132,5.37259 132,12c0,6.62741 -59.09851,12 -132,12c-72.90149,0 -132,-5.37259 -132,-12z" fill="#1AAE9F"></path></g><g><g><g class="content"><g><g><g><g><g></g><text fill="#293845" hover-props="{}"><tspan x="613" y="436.5" font-family="Arial, system-ui, sans-serif" font-size="15" font-style="normal" font-weight="normal">replica</tspan></text></g></g></g></g></g></g><g><rect x="516" y="459" width="72" height="24" rx="12" ry="12" fill="#FFFFFF" filter="url(#fill-shadow)"></rect><g><rect x="516" y="459" width="72" height="24" rx="12" ry="12" fill="#207868"></rect><g class="content"><g><g><g><g><g></g><text fill="#FFFFFF" hover-props="{}"><tspan x="527.98583984375" y="476.5" font-family="Arial, system-ui, sans-serif" font-size="15" font-style="normal" font-weight="normal">sh0002</tspan></text></g></g></g></g></g></g></g><g><rect x="600" y="459" width="72" height="24" rx="12" ry="12" fill="#FFFFFF" filter="url(#fill-shadow)"></rect><g><rect x="600" y="459" width="72" height="24" rx="12" ry="12" fill="#207868"></rect><g class="content"><g><g><g><g><g></g><text fill="#FFFFFF" hover-props="{}"><tspan x="611.98583984375" y="476.5" font-family="Arial, system-ui, sans-serif" font-size="15" font-style="normal" font-weight="normal">sh0004</tspan></text></g></g></g></g></g></g></g><g><rect x="684" y="459" width="72" height="24" rx="12" ry="12" fill="#FFFFFF" filter="url(#fill-shadow)"></rect><g><rect x="684" y="459" width="72" height="24" rx="12" ry="12" fill="#207868"></rect><g class="content"><g><g><g><g><g></g><text fill="#FFFFFF" hover-props="{}"><tspan x="695.98583984375" y="476.5" font-family="Arial, system-ui, sans-serif" font-size="15" font-style="normal" font-weight="normal">sh0006</tspan></text></g></g></g></g></g></g></g></g></g><g><path d="M768,600c0,6.62741 -59.09851,12 -132,12c-72.90149,0 -132,-5.37259 -132,-12c0,-5.7773 0,-47.0767 0,-57.57677c10.98486,6.57704 65.90401,11.57677 132,11.57677c66.09599,0 121.01514,-4.99973 132,-11.57677c0,11.66424 0,51.49766 0,57.57677zM504,540c0,-6.62741 59.09851,-12 132,-12c72.90149,0 132,5.37259 132,12c0,6.62741 -59.09851,12 -132,12c-72.90149,0 -132,-5.37259 -132,-12z" fill="#FFFFFF" filter="url(#fill-shadow)"></path><g><path d="M768,600c0,6.62741 -59.09851,12 -132,12c-72.90149,0 -132,-5.37259 -132,-12c0,-5.7773 0,-47.0767 0,-57.57677c10.98486,6.57704 65.90401,11.57677 132,11.57677c66.09599,0 121.01514,-4.99973 132,-11.57677c0,11.66424 0,51.49766 0,57.57677zM504,540c0,-6.62741 59.09851,-12 132,-12c72.90149,0 132,5.37259 132,12c0,6.62741 -59.09851,12 -132,12c-72.90149,0 -132,-5.37259 -132,-12z" fill="#1AAE9F"></path></g><g><g><g class="content"><g><g><g><g><g></g><text fill="#293845" hover-props="{}"><tspan x="614" y="544.5" font-family="Arial, system-ui, sans-serif" font-size="15" font-style="normal" font-weight="normal">replica</tspan></text></g></g></g></g></g></g><g><rect x="516" y="567" width="72" height="24" rx="12" ry="12" fill="#FFFFFF" filter="url(#fill-shadow)"></rect><g><rect x="516" y="567" width="72" height="24" rx="12" ry="12" fill="#207868"></rect><g class="content"><g><g><g><g><g></g><text fill="#FFFFFF" hover-props="{}"><tspan x="527.98583984375" y="584.5" font-family="Arial, system-ui, sans-serif" font-size="15" font-style="normal" font-weight="normal">sh0002</tspan></text></g></g></g></g></g></g></g><g><rect x="600" y="567" width="72" height="24" rx="12" ry="12" fill="#FFFFFF" filter="url(#fill-shadow)"></rect><g><rect x="600" y="567" width="72" height="24" rx="12" ry="12" fill="#207868"></rect><g class="content"><g><g><g><g><g></g><text fill="#FFFFFF" hover-props="{}"><tspan x="611.98583984375" y="584.5" font-family="Arial, system-ui, sans-serif" font-size="15" font-style="normal" font-weight="normal">sh0004</tspan></text></g></g></g></g></g></g></g><g><rect x="684" y="567" width="72" height="24" rx="12" ry="12" fill="#FFFFFF" filter="url(#fill-shadow)"></rect><g><rect x="684" y="567" width="72" height="24" rx="12" ry="12" fill="#207868"></rect><g class="content"><g><g><g><g><g></g><text fill="#FFFFFF" hover-props="{}"><tspan x="695.98583984375" y="584.5" font-family="Arial, system-ui, sans-serif" font-size="15" font-style="normal" font-weight="normal">sh0006</tspan></text></g></g></g></g></g></g></g></g></g></g></g><g><g class="content"><g><g><g><g id="12/Fo9;/-1"><g><g></g><text fill="#293845" hover-props="{}"><tspan x="604.41162109375" y="270.5" font-family="Arial, system-ui, sans-serif" font-size="18" font-style="normal" font-weight="bold">Island 1</tspan></text></g></g></g></g></g></g></g><g><rect x="864" y="288" width="312" height="348" rx="3" ry="3" fill="#FFFFFF" filter="url(#light-gray-fill-shadow)"></rect><g><rect x="864" y="288" width="312" height="348" rx="3" ry="3" fill="#C3CFD9"></rect></g><g><g><path d="M1152,384c0,6.62741 -59.09851,12 -132,12c-72.90149,0 -132,-5.37259 -132,-12c0,-5.7773 0,-47.0767 0,-57.57677c10.98486,6.57704 65.90401,11.57677 132,11.57677c66.09599,0 121.01514,-4.99973 132,-11.57677c0,11.66424 0,51.49766 0,57.57677zM888,324c0,-6.62741 59.09851,-12 132,-12c72.90149,0 132,5.37259 132,12c0,6.62741 -59.09851,12 -132,12c-72.90149,0 -132,-5.37259 -132,-12z" fill="#FFFFFF" filter="url(#fill-shadow)"></path><g><path d="M1152,384c0,6.62741 -59.09851,12 -132,12c-72.90149,0 -132,-5.37259 -132,-12c0,-5.7773 0,-47.0767 0,-57.57677c10.98486,6.57704 65.90401,11.57677 132,11.57677c66.09599,0 121.01514,-4.99973 132,-11.57677c0,11.66424 0,51.49766 0,57.57677zM888,324c0,-6.62741 59.09851,-12 132,-12c72.90149,0 132,5.37259 132,12c0,6.62741 -59.09851,12 -132,12c-72.90149,0 -132,-5.37259 -132,-12z" fill="#E8833A"></path></g><g><g><g class="content"><g><g><g><g><g></g><text fill="#293845" hover-props="{}"><tspan x="996" y="328.5" font-family="Arial, system-ui, sans-serif" font-size="15" font-style="normal" font-weight="normal">master</tspan></text></g></g></g></g></g></g><g><rect x="984" y="351" width="72" height="24" rx="12" ry="12" fill="#FFFFFF" filter="url(#yellow-fill-shadow)"></rect><g><rect x="984" y="351" width="72" height="24" rx="12" ry="12" fill="#F7C325"></rect><g class="content"><g><g><g><g><g></g><text fill="#293845" hover-props="{}"><tspan x="995.98583984375" y="368.5" font-family="Arial, system-ui, sans-serif" font-size="15" font-style="normal" font-weight="normal">sh0004</tspan></text></g></g></g></g></g></g></g><g><rect x="1068" y="351" width="72" height="24" rx="12" ry="12" fill="#FFFFFF" filter="url(#yellow-fill-shadow)"></rect><g><rect x="1068" y="351" width="72" height="24" rx="12" ry="12" fill="#F7C325"></rect><g class="content"><g><g><g><g><g></g><text fill="#293845" hover-props="{}"><tspan x="1079.98583984375" y="368.5" font-family="Arial, system-ui, sans-serif" font-size="15" font-style="normal" font-weight="normal">sh0006</tspan></text></g></g></g></g></g></g></g><g><rect x="900" y="351" width="72" height="24" rx="12" ry="12" fill="#FFFFFF" filter="url(#yellow-fill-shadow)"></rect><g><rect x="900" y="351" width="72" height="24" rx="12" ry="12" fill="#F7C325"></rect><g class="content"><g><g><g><g><g></g><text fill="#293845" hover-props="{}"><tspan x="911.98583984375" y="368.5" font-family="Arial, system-ui, sans-serif" font-size="15" font-style="normal" font-weight="normal">sh0002</tspan></text></g></g></g></g></g></g></g></g></g><g><path d="M1152,492c0,6.62741 -59.09851,12 -132,12c-72.90149,0 -132,-5.37259 -132,-12c0,-5.7773 0,-47.0767 0,-57.57677c10.98486,6.57704 65.90401,11.57677 132,11.57677c66.09599,0 121.01514,-4.99973 132,-11.57677c0,11.66424 0,51.49766 0,57.57677zM888,434.42323c0,0.57232 0,0.81033 0,0zM888,432c0,-6.62741 59.09851,-12 132,-12c72.90149,0 132,5.37259 132,12c0,6.62741 -59.09851,12 -132,12c-72.90149,0 -132,-5.37259 -132,-12z" fill="#FFFFFF" filter="url(#fill-shadow)"></path><g><path d="M1152,492c0,6.62741 -59.09851,12 -132,12c-72.90149,0 -132,-5.37259 -132,-12c0,-5.7773 0,-47.0767 0,-57.57677c10.98486,6.57704 65.90401,11.57677 132,11.57677c66.09599,0 121.01514,-4.99973 132,-11.57677c0,11.66424 0,51.49766 0,57.57677zM888,434.42323c0,0.57232 0,0.81033 0,0zM888,432c0,-6.62741 59.09851,-12 132,-12c72.90149,0 132,5.37259 132,12c0,6.62741 -59.09851,12 -132,12c-72.90149,0 -132,-5.37259 -132,-12z" fill="#1AAE9F"></path></g><g><g><g class="content"><g><g><g><g><g></g><text fill="#293845" hover-props="{}"><tspan x="997" y="436.5" font-family="Arial, system-ui, sans-serif" font-size="15" font-style="normal" font-weight="normal">replica</tspan></text></g></g></g></g></g></g><g><rect x="900" y="459" width="72" height="24" rx="12" ry="12" fill="#FFFFFF" filter="url(#fill-shadow)"></rect><g><rect x="900" y="459" width="72" height="24" rx="12" ry="12" fill="#207868"></rect><g class="content"><g><g><g><g><g></g><text fill="#FFFFFF" hover-props="{}"><tspan x="911.98583984375" y="476.5" font-family="Arial, system-ui, sans-serif" font-size="15" font-style="normal" font-weight="normal">sh0002</tspan></text></g></g></g></g></g></g></g><g><rect x="984" y="459" width="72" height="24" rx="12" ry="12" fill="#FFFFFF" filter="url(#fill-shadow)"></rect><g><rect x="984" y="459" width="72" height="24" rx="12" ry="12" fill="#207868"></rect><g class="content"><g><g><g><g><g></g><text fill="#FFFFFF" hover-props="{}"><tspan x="995.98583984375" y="476.5" font-family="Arial, system-ui, sans-serif" font-size="15" font-style="normal" font-weight="normal">sh0004</tspan></text></g></g></g></g></g></g></g><g><rect x="1068" y="459" width="72" height="24" rx="12" ry="12" fill="#FFFFFF" filter="url(#fill-shadow)"></rect><g><rect x="1068" y="459" width="72" height="24" rx="12" ry="12" fill="#207868"></rect><g class="content"><g><g><g><g><g></g><text fill="#FFFFFF" hover-props="{}"><tspan x="1079.98583984375" y="476.5" font-family="Arial, system-ui, sans-serif" font-size="15" font-style="normal" font-weight="normal">sh0006</tspan></text></g></g></g></g></g></g></g></g></g><g><path d="M1152,600c0,6.62741 -59.09851,12 -132,12c-72.90149,0 -132,-5.37259 -132,-12c0,-5.7773 0,-47.0767 0,-57.57677c10.98486,6.57704 65.90401,11.57677 132,11.57677c66.09599,0 121.01514,-4.99973 132,-11.57677c0,11.66424 0,51.49766 0,57.57677zM888,542.42323c0,0.57232 0,0.81033 0,0zM888,540c0,-6.62741 59.09851,-12 132,-12c72.90149,0 132,5.37259 132,12c0,6.62741 -59.09851,12 -132,12c-72.90149,0 -132,-5.37259 -132,-12z" fill="#FFFFFF" filter="url(#fill-shadow)"></path><g><path d="M1152,600c0,6.62741 -59.09851,12 -132,12c-72.90149,0 -132,-5.37259 -132,-12c0,-5.7773 0,-47.0767 0,-57.57677c10.98486,6.57704 65.90401,11.57677 132,11.57677c66.09599,0 121.01514,-4.99973 132,-11.57677c0,11.66424 0,51.49766 0,57.57677zM888,542.42323c0,0.57232 0,0.81033 0,0zM888,540c0,-6.62741 59.09851,-12 132,-12c72.90149,0 132,5.37259 132,12c0,6.62741 -59.09851,12 -132,12c-72.90149,0 -132,-5.37259 -132,-12z" fill="#1AAE9F"></path></g><g><g><g class="content"><g><g><g><g><g></g><text fill="#293845" hover-props="{}"><tspan x="998" y="544.5" font-family="Arial, system-ui, sans-serif" font-size="15" font-style="normal" font-weight="normal">replica</tspan></text></g></g></g></g></g></g><g><rect x="900" y="567" width="72" height="24" rx="12" ry="12" fill="#FFFFFF" filter="url(#fill-shadow)"></rect><g><rect x="900" y="567" width="72" height="24" rx="12" ry="12" fill="#207868"></rect><g class="content"><g><g><g><g><g></g><text fill="#FFFFFF" hover-props="{}"><tspan x="911.98583984375" y="584.5" font-family="Arial, system-ui, sans-serif" font-size="15" font-style="normal" font-weight="normal">sh0002</tspan></text></g></g></g></g></g></g></g><g><rect x="984" y="567" width="72" height="24" rx="12" ry="12" fill="#FFFFFF" filter="url(#fill-shadow)"></rect><g><rect x="984" y="567" width="72" height="24" rx="12" ry="12" fill="#207868"></rect><g class="content"><g><g><g><g><g></g><text fill="#FFFFFF" hover-props="{}"><tspan x="995.98583984375" y="584.5" font-family="Arial, system-ui, sans-serif" font-size="15" font-style="normal" font-weight="normal">sh0004</tspan></text></g></g></g></g></g></g></g><g><rect x="1068" y="567" width="72" height="24" rx="12" ry="12" fill="#FFFFFF" filter="url(#fill-shadow)"></rect><g><rect x="1068" y="567" width="72" height="24" rx="12" ry="12" fill="#207868"></rect><g class="content"><g><g><g><g><g></g><text fill="#FFFFFF" hover-props="{}"><tspan x="1079.98583984375" y="584.5" font-family="Arial, system-ui, sans-serif" font-size="15" font-style="normal" font-weight="normal">sh0006</tspan></text></g></g></g></g></g></g></g></g></g></g></g><g><g class="content"><g><g><g><g id="12/Fo9;/-1"><g><g></g><text fill="#293845" hover-props="{}"><tspan x="988.41162109375" y="270.5" font-family="Arial, system-ui, sans-serif" font-size="18" font-style="normal" font-weight="bold">Island 2</tspan></text></g></g></g></g></g></g></g></g></g></svg>