<svg xmlns="http://www.w3.org/2000/svg" xmlns:xlink="http://www.w3.org/1999/xlink" version="1.1" viewBox="228 60 756 468" width="756px" height="468px"><defs><style>* {-webkit-font-smoothing: auto; -moz-osx-font-smoothing: auto;}@media print { svg { width: 100%; height: 100%; } }</style><g><filter id="white-fill-shadow" y="-50%" height="200%"><feDropShadow dx="0" dy="2" stdDeviation="6" flood-opacity="0.03" flood-color="#000000"></feDropShadow></filter><filter id="light-gray-fill-shadow" y="-50%" height="200%"><feDropShadow dx="0" dy="2" stdDeviation="6" flood-opacity="0.09" flood-color="#000000"></feDropShadow></filter><filter id="yellow-fill-shadow" y="-50%" height="200%"><feDropShadow dx="0" dy="2" stdDeviation="6" flood-opacity="0.12" flood-color="#000000"></feDropShadow></filter><filter id="fill-shadow" y="-50%" height="200%"><feDropShadow dx="0" dy="2" stdDeviation="6" flood-opacity="0.16" flood-color="#000000"></feDropShadow></filter><filter id="frame-shadow" y="-50%" height="200%"><feDropShadow dx="0" dy="3" stdDeviation="8" flood-opacity="0.06" flood-color="#000000"></feDropShadow></filter><filter id="button-shadow" y="-50%" height="200%"><feDropShadow dx="0" dy="2" stdDeviation="6" flood-opacity="0.03" flood-color="#000000"></feDropShadow></filter><filter id="button-hover-shadow" y="-50%" height="200%"><feDropShadow dx="0" dy="2" stdDeviation="6" flood-opacity="0.08" flood-color="#000000"></feDropShadow></filter><filter id="badge-shadow" y="-50%" height="200%"><feDropShadow dx="0" dy="2" stdDeviation="6" flood-opacity="0.08" flood-color="#000000"></feDropShadow></filter></g></defs><g><rect x="228" y="60" width="756" height="468" rx="3" ry="3" fill="#FFFFFF" filter="url(#white-fill-shadow)"></rect><g><rect x="228" y="60" width="756" height="468" rx="3" ry="3" fill="#FFFFFF"></rect><g class="content"><g><g><g><g id="12-1"><g><g></g><text fill="#293845" hover-props="{}"><tspan x="562.62646484375" y="99.5" font-family="Arial, system-ui, sans-serif" font-size="27" font-style="normal" font-weight="bold">Cluster</tspan></text></g></g></g></g></g></g></g><g><g><rect x="252" y="156" width="312" height="348" rx="3" ry="3" fill="#FFFFFF" filter="url(#light-gray-fill-shadow)"></rect><g><rect x="252" y="156" width="312" height="348" rx="3" ry="3" fill="#C3CFD9"></rect></g><g><g><path d="M540,252c0,6.62741 -59.09851,12 -132,12c-72.90149,0 -132,-5.37259 -132,-12c0,-5.7773 0,-47.0767 0,-57.57677c10.98486,6.57704 65.90401,11.57677 132,11.57677c66.09599,0 121.01514,-4.99973 132,-11.57677c0,11.66424 0,51.49766 0,57.57677zM276,194.42323c0,0.57232 0,0.81033 0,0zM276,192c0,-6.62741 59.09851,-12 132,-12c72.90149,0 132,5.37259 132,12c0,6.62741 -59.09851,12 -132,12c-72.90149,0 -132,-5.37259 -132,-12z" fill="#FFFFFF" filter="url(#fill-shadow)"></path><g><path d="M540,252c0,6.62741 -59.09851,12 -132,12c-72.90149,0 -132,-5.37259 -132,-12c0,-5.7773 0,-47.0767 0,-57.57677c10.98486,6.57704 65.90401,11.57677 132,11.57677c66.09599,0 121.01514,-4.99973 132,-11.57677c0,11.66424 0,51.49766 0,57.57677zM276,194.42323c0,0.57232 0,0.81033 0,0zM276,192c0,-6.62741 59.09851,-12 132,-12c72.90149,0 132,5.37259 132,12c0,6.62741 -59.09851,12 -132,12c-72.90149,0 -132,-5.37259 -132,-12z" fill="#E8833A"></path></g><g><g><g class="content"><g><g><g><g><g></g><text fill="#293845" hover-props="{}"><tspan x="362.58837890625" y="196.5" font-family="Arial, system-ui, sans-serif" font-size="15" font-style="normal" font-weight="normal">Node (master)</tspan></text></g></g></g></g></g></g><g><rect x="372" y="220" width="72" height="24" rx="12" ry="12" fill="#FFFFFF" filter="url(#yellow-fill-shadow)"></rect><g><rect x="372" y="220" width="72" height="24" rx="12" ry="12" fill="#F7C325"></rect><g class="content"><g><g><g><g><g></g><text fill="#293845" hover-props="{}"><tspan x="383.98583984375" y="237.5" font-family="Arial, system-ui, sans-serif" font-size="15" font-style="normal" font-weight="normal">sh0003</tspan></text></g></g></g></g></g></g></g><g><rect x="456" y="220" width="72" height="24" rx="12" ry="12" fill="#FFFFFF" filter="url(#yellow-fill-shadow)"></rect><g><rect x="456" y="220" width="72" height="24" rx="12" ry="12" fill="#F7C325"></rect><g class="content"><g><g><g><g><g></g><text fill="#293845" hover-props="{}"><tspan x="467.98583984375" y="237.5" font-family="Arial, system-ui, sans-serif" font-size="15" font-style="normal" font-weight="normal">sh0005</tspan></text></g></g></g></g></g></g></g><g><rect x="288" y="220" width="72" height="24" rx="12" ry="12" fill="#FFFFFF" filter="url(#yellow-fill-shadow)"></rect><g><rect x="288" y="220" width="72" height="24" rx="12" ry="12" fill="#F7C325"></rect><g class="content"><g><g><g><g><g></g><text fill="#293845" hover-props="{}"><tspan x="299.98583984375" y="237.5" font-family="Arial, system-ui, sans-serif" font-size="15" font-style="normal" font-weight="normal">sh0001</tspan></text></g></g></g></g></g></g></g></g></g><g><path d="M540,360c0,6.62741 -59.09851,12 -132,12c-72.90149,0 -132,-5.37259 -132,-12c0,-5.7773 0,-47.0767 0,-57.57677c10.98486,6.57704 65.90401,11.57677 132,11.57677c66.09599,0 121.01514,-4.99973 132,-11.57677c0,11.66424 0,51.49766 0,57.57677zM276,302.42323c0,0.57232 0,0.81033 0,0zM276,300c0,-6.62741 59.09851,-12 132,-12c72.90149,0 132,5.37259 132,12c0,6.62741 -59.09851,12 -132,12c-72.90149,0 -132,-5.37259 -132,-12z" fill="#FFFFFF" filter="url(#fill-shadow)"></path><g><path d="M540,360c0,6.62741 -59.09851,12 -132,12c-72.90149,0 -132,-5.37259 -132,-12c0,-5.7773 0,-47.0767 0,-57.57677c10.98486,6.57704 65.90401,11.57677 132,11.57677c66.09599,0 121.01514,-4.99973 132,-11.57677c0,11.66424 0,51.49766 0,57.57677zM276,302.42323c0,0.57232 0,0.81033 0,0zM276,300c0,-6.62741 59.09851,-12 132,-12c72.90149,0 132,5.37259 132,12c0,6.62741 -59.09851,12 -132,12c-72.90149,0 -132,-5.37259 -132,-12z" fill="#1AAE9F"></path></g><g><g><g class="content"><g><g><g><g><g></g><text fill="#293845" hover-props="{}"><tspan x="363.1845703125" y="304.5" font-family="Arial, system-ui, sans-serif" font-size="15" font-style="normal" font-weight="normal">Node (replica)</tspan></text></g></g></g></g></g></g><g><rect x="288" y="328" width="72" height="24" rx="12" ry="12" fill="#FFFFFF" filter="url(#fill-shadow)"></rect><g><rect x="288" y="328" width="72" height="24" rx="12" ry="12" fill="#207868"></rect><g class="content"><g><g><g><g><g></g><text fill="#FFFFFF" hover-props="{}"><tspan x="299.98583984375" y="345.5" font-family="Arial, system-ui, sans-serif" font-size="15" font-style="normal" font-weight="normal">sh0001</tspan></text></g></g></g></g></g></g></g><g><rect x="372" y="328" width="72" height="24" rx="12" ry="12" fill="#FFFFFF" filter="url(#fill-shadow)"></rect><g><rect x="372" y="328" width="72" height="24" rx="12" ry="12" fill="#207868"></rect><g class="content"><g><g><g><g><g></g><text fill="#FFFFFF" hover-props="{}"><tspan x="383.98583984375" y="345.5" font-family="Arial, system-ui, sans-serif" font-size="15" font-style="normal" font-weight="normal">sh0003</tspan></text></g></g></g></g></g></g></g><g><rect x="456" y="328" width="72" height="24" rx="12" ry="12" fill="#FFFFFF" filter="url(#fill-shadow)"></rect><g><rect x="456" y="328" width="72" height="24" rx="12" ry="12" fill="#207868"></rect><g class="content"><g><g><g><g><g></g><text fill="#FFFFFF" hover-props="{}"><tspan x="467.98583984375" y="345.5" font-family="Arial, system-ui, sans-serif" font-size="15" font-style="normal" font-weight="normal">sh0005</tspan></text></g></g></g></g></g></g></g></g></g><g><path d="M540,468c0,6.62741 -59.09851,12 -132,12c-72.90149,0 -132,-5.37259 -132,-12c0,-5.7773 0,-47.0767 0,-57.57677c10.98486,6.57704 65.90401,11.57677 132,11.57677c66.09599,0 121.01514,-4.99973 132,-11.57677c0,11.66424 0,51.49766 0,57.57677zM276,408c0,-6.62741 59.09851,-12 132,-12c72.90149,0 132,5.37259 132,12c0,6.62741 -59.09851,12 -132,12c-72.90149,0 -132,-5.37259 -132,-12z" fill="#FFFFFF" filter="url(#fill-shadow)"></path><g><path d="M540,468c0,6.62741 -59.09851,12 -132,12c-72.90149,0 -132,-5.37259 -132,-12c0,-5.7773 0,-47.0767 0,-57.57677c10.98486,6.57704 65.90401,11.57677 132,11.57677c66.09599,0 121.01514,-4.99973 132,-11.57677c0,11.66424 0,51.49766 0,57.57677zM276,408c0,-6.62741 59.09851,-12 132,-12c72.90149,0 132,5.37259 132,12c0,6.62741 -59.09851,12 -132,12c-72.90149,0 -132,-5.37259 -132,-12z" fill="#1AAE9F"></path></g><g><g><g class="content"><g><g><g><g><g></g><text fill="#293845" hover-props="{}"><tspan x="363.6845703125" y="412.5" font-family="Arial, system-ui, sans-serif" font-size="15" font-style="normal" font-weight="normal">Node (replica)</tspan></text></g></g></g></g></g></g><g><rect x="288" y="436" width="72" height="24" rx="12" ry="12" fill="#FFFFFF" filter="url(#fill-shadow)"></rect><g><rect x="288" y="436" width="72" height="24" rx="12" ry="12" fill="#207868"></rect><g class="content"><g><g><g><g><g></g><text fill="#FFFFFF" hover-props="{}"><tspan x="299.98583984375" y="453.5" font-family="Arial, system-ui, sans-serif" font-size="15" font-style="normal" font-weight="normal">sh0001</tspan></text></g></g></g></g></g></g></g><g><rect x="372" y="436" width="72" height="24" rx="12" ry="12" fill="#FFFFFF" filter="url(#fill-shadow)"></rect><g><rect x="372" y="436" width="72" height="24" rx="12" ry="12" fill="#207868"></rect><g class="content"><g><g><g><g><g></g><text fill="#FFFFFF" hover-props="{}"><tspan x="383.98583984375" y="453.5" font-family="Arial, system-ui, sans-serif" font-size="15" font-style="normal" font-weight="normal">sh0003</tspan></text></g></g></g></g></g></g></g><g><rect x="456" y="436" width="72" height="24" rx="12" ry="12" fill="#FFFFFF" filter="url(#fill-shadow)"></rect><g><rect x="456" y="436" width="72" height="24" rx="12" ry="12" fill="#207868"></rect><g class="content"><g><g><g><g><g></g><text fill="#FFFFFF" hover-props="{}"><tspan x="467.98583984375" y="453.5" font-family="Arial, system-ui, sans-serif" font-size="15" font-style="normal" font-weight="normal">sh0005</tspan></text></g></g></g></g></g></g></g></g></g></g></g><g><g class="content"><g><g><g><g id="12/Fo9;/-1"><g><g></g><text fill="#293845" hover-props="{}"><tspan x="376.41162109375" y="138.5" font-family="Arial, system-ui, sans-serif" font-size="18" font-style="normal" font-weight="bold">Island 1</tspan></text></g></g></g></g></g></g></g><g><rect x="636" y="156" width="312" height="348" rx="3" ry="3" fill="#FFFFFF" filter="url(#light-gray-fill-shadow)"></rect><g><rect x="636" y="156" width="312" height="348" rx="3" ry="3" fill="#C3CFD9"></rect></g><g><g><path d="M924,252c0,6.62741 -59.09851,12 -132,12c-72.90149,0 -132,-5.37259 -132,-12c0,-5.7773 0,-47.0767 0,-57.57677c10.98486,6.57704 65.90401,11.57677 132,11.57677c66.09599,0 121.01514,-4.99973 132,-11.57677c0,11.66424 0,51.49766 0,57.57677zM660,194.42323c0,0.57232 0,0.81033 0,0zM660,192c0,-6.62741 59.09851,-12 132,-12c72.90149,0 132,5.37259 132,12c0,6.62741 -59.09851,12 -132,12c-72.90149,0 -132,-5.37259 -132,-12z" fill="#FFFFFF" filter="url(#fill-shadow)"></path><g><path d="M924,252c0,6.62741 -59.09851,12 -132,12c-72.90149,0 -132,-5.37259 -132,-12c0,-5.7773 0,-47.0767 0,-57.57677c10.98486,6.57704 65.90401,11.57677 132,11.57677c66.09599,0 121.01514,-4.99973 132,-11.57677c0,11.66424 0,51.49766 0,57.57677zM660,194.42323c0,0.57232 0,0.81033 0,0zM660,192c0,-6.62741 59.09851,-12 132,-12c72.90149,0 132,5.37259 132,12c0,6.62741 -59.09851,12 -132,12c-72.90149,0 -132,-5.37259 -132,-12z" fill="#E8833A"></path></g><g><g><g class="content"><g><g><g><g><g></g><text fill="#293845" hover-props="{}"><tspan x="746" y="196.5" font-family="Arial, system-ui, sans-serif" font-size="15" font-style="normal" font-weight="normal">Node (master)</tspan></text></g></g></g></g></g></g><g><rect x="756" y="220" width="72" height="24" rx="12" ry="12" fill="#FFFFFF" filter="url(#yellow-fill-shadow)"></rect><g><rect x="756" y="220" width="72" height="24" rx="12" ry="12" fill="#F7C325"></rect><g class="content"><g><g><g><g><g></g><text fill="#293845" hover-props="{}"><tspan x="767.98583984375" y="237.5" font-family="Arial, system-ui, sans-serif" font-size="15" font-style="normal" font-weight="normal">sh0004</tspan></text></g></g></g></g></g></g></g><g><rect x="840" y="220" width="72" height="24" rx="12" ry="12" fill="#FFFFFF" filter="url(#yellow-fill-shadow)"></rect><g><rect x="840" y="220" width="72" height="24" rx="12" ry="12" fill="#F7C325"></rect><g class="content"><g><g><g><g><g></g><text fill="#293845" hover-props="{}"><tspan x="851.98583984375" y="237.5" font-family="Arial, system-ui, sans-serif" font-size="15" font-style="normal" font-weight="normal">sh0006</tspan></text></g></g></g></g></g></g></g><g><rect x="672" y="220" width="72" height="24" rx="12" ry="12" fill="#FFFFFF" filter="url(#yellow-fill-shadow)"></rect><g><rect x="672" y="220" width="72" height="24" rx="12" ry="12" fill="#F7C325"></rect><g class="content"><g><g><g><g><g></g><text fill="#293845" hover-props="{}"><tspan x="683.98583984375" y="237.5" font-family="Arial, system-ui, sans-serif" font-size="15" font-style="normal" font-weight="normal">sh0002</tspan></text></g></g></g></g></g></g></g></g></g><g><path d="M924,360c0,6.62741 -59.09851,12 -132,12c-72.90149,0 -132,-5.37259 -132,-12c0,-5.7773 0,-47.0767 0,-57.57677c10.98486,6.57704 65.90401,11.57677 132,11.57677c66.09599,0 121.01514,-4.99973 132,-11.57677c0,11.66424 0,51.49766 0,57.57677zM660,302.42323c0,0.57232 0,0.81033 0,0zM660,300c0,-6.62741 59.09851,-12 132,-12c72.90149,0 132,5.37259 132,12c0,6.62741 -59.09851,12 -132,12c-72.90149,0 -132,-5.37259 -132,-12z" fill="#FFFFFF" filter="url(#fill-shadow)"></path><g><path d="M924,360c0,6.62741 -59.09851,12 -132,12c-72.90149,0 -132,-5.37259 -132,-12c0,-5.7773 0,-47.0767 0,-57.57677c10.98486,6.57704 65.90401,11.57677 132,11.57677c66.09599,0 121.01514,-4.99973 132,-11.57677c0,11.66424 0,51.49766 0,57.57677zM660,302.42323c0,0.57232 0,0.81033 0,0zM660,300c0,-6.62741 59.09851,-12 132,-12c72.90149,0 132,5.37259 132,12c0,6.62741 -59.09851,12 -132,12c-72.90149,0 -132,-5.37259 -132,-12z" fill="#1AAE9F"></path></g><g><g><g class="content"><g><g><g><g><g></g><text fill="#293845" hover-props="{}"><tspan x="747" y="304.5" font-family="Arial, system-ui, sans-serif" font-size="15" font-style="normal" font-weight="normal">Node (replica)</tspan></text></g></g></g></g></g></g><g><rect x="672" y="328" width="72" height="24" rx="12" ry="12" fill="#FFFFFF" filter="url(#fill-shadow)"></rect><g><rect x="672" y="328" width="72" height="24" rx="12" ry="12" fill="#207868"></rect><g class="content"><g><g><g><g><g></g><text fill="#FFFFFF" hover-props="{}"><tspan x="683.98583984375" y="345.5" font-family="Arial, system-ui, sans-serif" font-size="15" font-style="normal" font-weight="normal">sh0002</tspan></text></g></g></g></g></g></g></g><g><rect x="756" y="328" width="72" height="24" rx="12" ry="12" fill="#FFFFFF" filter="url(#fill-shadow)"></rect><g><rect x="756" y="328" width="72" height="24" rx="12" ry="12" fill="#207868"></rect><g class="content"><g><g><g><g><g></g><text fill="#FFFFFF" hover-props="{}"><tspan x="767.98583984375" y="345.5" font-family="Arial, system-ui, sans-serif" font-size="15" font-style="normal" font-weight="normal">sh0004</tspan></text></g></g></g></g></g></g></g><g><rect x="840" y="328" width="72" height="24" rx="12" ry="12" fill="#FFFFFF" filter="url(#fill-shadow)"></rect><g><rect x="840" y="328" width="72" height="24" rx="12" ry="12" fill="#207868"></rect><g class="content"><g><g><g><g><g></g><text fill="#FFFFFF" hover-props="{}"><tspan x="851.98583984375" y="345.5" font-family="Arial, system-ui, sans-serif" font-size="15" font-style="normal" font-weight="normal">sh0006</tspan></text></g></g></g></g></g></g></g></g></g><g><path d="M924,468c0,6.62741 -59.09851,12 -132,12c-72.90149,0 -132,-5.37259 -132,-12c0,-5.7773 0,-47.0767 0,-57.57677c10.98486,6.57704 65.90401,11.57677 132,11.57677c66.09599,0 121.01514,-4.99973 132,-11.57677c0,11.66424 0,51.49766 0,57.57677zM660,408c0,-6.62741 59.09851,-12 132,-12c72.90149,0 132,5.37259 132,12c0,6.62741 -59.09851,12 -132,12c-72.90149,0 -132,-5.37259 -132,-12z" fill="#FFFFFF" filter="url(#fill-shadow)"></path><g><path d="M924,468c0,6.62741 -59.09851,12 -132,12c-72.90149,0 -132,-5.37259 -132,-12c0,-5.7773 0,-47.0767 0,-57.57677c10.98486,6.57704 65.90401,11.57677 132,11.57677c66.09599,0 121.01514,-4.99973 132,-11.57677c0,11.66424 0,51.49766 0,57.57677zM660,408c0,-6.62741 59.09851,-12 132,-12c72.90149,0 132,5.37259 132,12c0,6.62741 -59.09851,12 -132,12c-72.90149,0 -132,-5.37259 -132,-12z" fill="#1AAE9F"></path></g><g><g><g class="content"><g><g><g><g><g></g><text fill="#293845" hover-props="{}"><tspan x="747" y="412.5" font-family="Arial, system-ui, sans-serif" font-size="15" font-style="normal" font-weight="normal">Node (replica)</tspan></text></g></g></g></g></g></g><g><rect x="672" y="436" width="72" height="24" rx="12" ry="12" fill="#FFFFFF" filter="url(#fill-shadow)"></rect><g><rect x="672" y="436" width="72" height="24" rx="12" ry="12" fill="#207868"></rect><g class="content"><g><g><g><g><g></g><text fill="#FFFFFF" hover-props="{}"><tspan x="683.98583984375" y="453.5" font-family="Arial, system-ui, sans-serif" font-size="15" font-style="normal" font-weight="normal">sh0002</tspan></text></g></g></g></g></g></g></g><g><rect x="756" y="436" width="72" height="24" rx="12" ry="12" fill="#FFFFFF" filter="url(#fill-shadow)"></rect><g><rect x="756" y="436" width="72" height="24" rx="12" ry="12" fill="#207868"></rect><g class="content"><g><g><g><g><g></g><text fill="#FFFFFF" hover-props="{}"><tspan x="767.98583984375" y="453.5" font-family="Arial, system-ui, sans-serif" font-size="15" font-style="normal" font-weight="normal">sh0004</tspan></text></g></g></g></g></g></g></g><g><rect x="840" y="436" width="72" height="24" rx="12" ry="12" fill="#FFFFFF" filter="url(#fill-shadow)"></rect><g><rect x="840" y="436" width="72" height="24" rx="12" ry="12" fill="#207868"></rect><g class="content"><g><g><g><g><g></g><text fill="#FFFFFF" hover-props="{}"><tspan x="851.98583984375" y="453.5" font-family="Arial, system-ui, sans-serif" font-size="15" font-style="normal" font-weight="normal">sh0006</tspan></text></g></g></g></g></g></g></g></g></g></g></g><g><g class="content"><g><g><g><g id="12/Fo9;/-1"><g><g></g><text fill="#293845" hover-props="{}"><tspan x="760.41162109375" y="138.5" font-family="Arial, system-ui, sans-serif" font-size="18" font-style="normal" font-weight="bold">Island 2</tspan></text></g></g></g></g></g></g></g></g></g></svg>