<svg xmlns="http://www.w3.org/2000/svg" xmlns:xlink="http://www.w3.org/1999/xlink" version="1.1" viewBox="456 144 900 696" width="900px" height="696px"><defs><style>* {-webkit-font-smoothing: auto; -moz-osx-font-smoothing: auto;}@media print { svg { width: 100%; height: 100%; } }</style><g><filter id="white-fill-shadow" y="-50%" height="200%"><feDropShadow dx="0" dy="2" stdDeviation="6" flood-opacity="0.03" flood-color="#000000"></feDropShadow></filter><filter id="light-gray-fill-shadow" y="-50%" height="200%"><feDropShadow dx="0" dy="2" stdDeviation="6" flood-opacity="0.09" flood-color="#000000"></feDropShadow></filter><filter id="yellow-fill-shadow" y="-50%" height="200%"><feDropShadow dx="0" dy="2" stdDeviation="6" flood-opacity="0.12" flood-color="#000000"></feDropShadow></filter><filter id="fill-shadow" y="-50%" height="200%"><feDropShadow dx="0" dy="2" stdDeviation="6" flood-opacity="0.16" flood-color="#000000"></feDropShadow></filter><filter id="frame-shadow" y="-50%" height="200%"><feDropShadow dx="0" dy="3" stdDeviation="8" flood-opacity="0.06" flood-color="#000000"></feDropShadow></filter><filter id="button-shadow" y="-50%" height="200%"><feDropShadow dx="0" dy="2" stdDeviation="6" flood-opacity="0.03" flood-color="#000000"></feDropShadow></filter><filter id="button-hover-shadow" y="-50%" height="200%"><feDropShadow dx="0" dy="2" stdDeviation="6" flood-opacity="0.08" flood-color="#000000"></feDropShadow></filter><filter id="badge-shadow" y="-50%" height="200%"><feDropShadow dx="0" dy="2" stdDeviation="6" flood-opacity="0.08" flood-color="#000000"></feDropShadow></filter></g></defs><g><rect x="456" y="144" width="900" height="696" rx="3" ry="3" fill="#FFFFFF" filter="url(#white-fill-shadow)"></rect><g><rect x="456" y="144" width="900" height="696" rx="3" ry="3" fill="#FFFFFF"></rect><g class="content"><g><g><g><g id="12-2"><g id="12-1"><g><g></g><text fill="#293845" hover-props="{}"><tspan x="906" y="183.5" font-family="Arial, system-ui, sans-serif" font-size="27" font-style="normal" font-weight="bold">
</tspan></text></g></g></g></g><g><g id="12-1"><g><g></g><text fill="#293845" hover-props="{}"><tspan x="862.62646484375" y="219.5" font-family="Arial, system-ui, sans-serif" font-size="27" font-style="normal" font-weight="bold">Cluster</tspan></text></g></g></g></g></g></g></g><g><g><rect x="480" y="288" width="396" height="528" rx="3" ry="3" fill="#FFFFFF" filter="url(#light-gray-fill-shadow)"></rect><g><rect x="480" y="288" width="396" height="528" rx="3" ry="3" fill="#C3CFD9"></rect></g><g><g><path d="M852,492c0,19.88222 -77.90258,36 -174,36c-96.09742,0 -174,-16.11778 -174,-36c0,-17.30773 0,-113.60443 0,-138.25257c12.83081,18.25959 85.84698,32.25257 174,32.25257c88.15302,0 161.16919,-13.99298 174,-32.25257c0,29.13334 0,119.84504 0,138.25257zM504,348c0,-19.88222 77.90258,-36 174,-36c96.09742,0 174,16.11778 174,36c0,19.88222 -77.90258,36 -174,36c-96.09742,0 -174,-16.11778 -174,-36z" fill="#FFFFFF" filter="url(#fill-shadow)"></path><g><path d="M852,492c0,19.88222 -77.90258,36 -174,36c-96.09742,0 -174,-16.11778 -174,-36c0,-17.30773 0,-113.60443 0,-138.25257c12.83081,18.25959 85.84698,32.25257 174,32.25257c88.15302,0 161.16919,-13.99298 174,-32.25257c0,29.13334 0,119.84504 0,138.25257zM504,348c0,-19.88222 77.90258,-36 174,-36c96.09742,0 174,16.11778 174,36c0,19.88222 -77.90258,36 -174,36c-96.09742,0 -174,-16.11778 -174,-36z" fill="#E8833A"></path></g><g><g><g class="content"><g><g><g><g id="12/Fo9;/-1"><g><g></g><text fill="#293845" hover-props="{}"><tspan x="621.46533203125" y="354.5" font-family="Arial, system-ui, sans-serif" font-size="18" font-style="normal" font-weight="bold">Node (master)</tspan></text></g></g></g></g></g></g></g><g><rect x="684" y="396" width="156" height="96" rx="48" ry="48" fill="#FFFFFF" filter="url(#yellow-fill-shadow)"></rect><g><rect x="684" y="396" width="156" height="96" rx="48" ry="48" fill="#F7C325"></rect><g class="content"><g><g><g><g id="12-1"><g><g></g><text fill="#293845" hover-props="{}"><tspan x="737.3857421875" y="423.5" font-family="Arial, system-ui, sans-serif" font-size="15" font-style="normal" font-weight="bold">sh0004</tspan></text></g></g><g id="12-2"><g id="12-1"><g><g></g><text fill="#293845" hover-props="{}"><tspan x="786.6142578125" y="423.5" font-family="Arial, system-ui, sans-serif" font-size="15" font-style="normal" font-weight="bold">
</tspan></text></g></g></g></g><g><g><g></g><text hover-props="{}"><tspan x="762" y="444">​</tspan></text></g></g></g></g></g></g><g><g><g class="content"><g><g><g><g><g></g><text fill="#293845" hover-props="{}"><tspan x="738" y="446.5" font-family="Arial, system-ui, sans-serif" font-size="13" font-style="normal" font-weight="normal">users</tspan></text></g><g id="12/Fo9;/-1"><g><g></g><text fill="#293845" hover-props="{}"><tspan x="769.625" y="446.5" font-family="Arial, system-ui, sans-serif" font-size="13" font-style="normal" font-weight="normal">
</tspan></text></g></g></g><g><g><g></g><text fill="#293845" hover-props="{}"><tspan x="738" y="462.5" font-family="Arial, system-ui, sans-serif" font-size="13" font-style="normal" font-weight="normal">topics</tspan></text></g><g id="12/Fo9;/-2"><g><g></g><text fill="#293845" hover-props="{}"><tspan x="771.5361328125" y="462.5" font-family="Arial, system-ui, sans-serif" font-size="13" font-style="normal" font-weight="normal">
</tspan></text></g></g></g><g><g><g></g><text fill="#293845" hover-props="{}"><tspan x="738" y="478.5" font-family="Arial, system-ui, sans-serif" font-size="13" font-style="normal" font-weight="normal">comments</tspan></text></g></g></g></g></g></g></g></g><g><rect x="516" y="396" width="156" height="96" rx="48" ry="48" fill="#FFFFFF" filter="url(#yellow-fill-shadow)"></rect><g><rect x="516" y="396" width="156" height="96" rx="48" ry="48" fill="#F7C325"></rect><g class="content"><g><g><g><g id="12-1"><g><g></g><text fill="#293845" hover-props="{}"><tspan x="569.3857421875" y="423.5" font-family="Arial, system-ui, sans-serif" font-size="15" font-style="normal" font-weight="bold">sh0002</tspan></text></g></g><g id="12-2"><g id="12-1"><g><g></g><text fill="#293845" hover-props="{}"><tspan x="618.6142578125" y="423.5" font-family="Arial, system-ui, sans-serif" font-size="15" font-style="normal" font-weight="bold">
</tspan></text></g></g></g></g><g><g><g></g><text hover-props="{}"><tspan x="594" y="444">​</tspan></text></g></g></g></g></g></g><g><g><g class="content"><g><g><g><g><g></g><text fill="#293845" hover-props="{}"><tspan x="570" y="446.5" font-family="Arial, system-ui, sans-serif" font-size="13" font-style="normal" font-weight="normal">users</tspan></text></g><g id="12/Fo9;/-1"><g><g></g><text fill="#293845" hover-props="{}"><tspan x="601.625" y="446.5" font-family="Arial, system-ui, sans-serif" font-size="13" font-style="normal" font-weight="normal">
</tspan></text></g></g></g><g><g><g></g><text fill="#293845" hover-props="{}"><tspan x="570" y="462.5" font-family="Arial, system-ui, sans-serif" font-size="13" font-style="normal" font-weight="normal">topics</tspan></text></g><g id="12/Fo9;/-2"><g><g></g><text fill="#293845" hover-props="{}"><tspan x="603.5361328125" y="462.5" font-family="Arial, system-ui, sans-serif" font-size="13" font-style="normal" font-weight="normal">
</tspan></text></g></g></g><g><g><g></g><text fill="#293845" hover-props="{}"><tspan x="570" y="478.5" font-family="Arial, system-ui, sans-serif" font-size="13" font-style="normal" font-weight="normal">comments</tspan></text></g></g></g></g></g></g></g></g></g></g><g><path d="M852,744c0,19.88222 -77.90258,36 -174,36c-96.09742,0 -174,-16.11778 -174,-36c0,-17.30773 0,-113.60443 0,-138.25257c12.83081,18.25959 85.84698,32.25257 174,32.25257c88.15302,0 161.16919,-13.99298 174,-32.25257c0,29.13334 0,119.84504 0,138.25257zM504,600c0,-19.88222 77.90258,-36 174,-36c96.09742,0 174,16.11778 174,36c0,19.88222 -77.90258,36 -174,36c-96.09742,0 -174,-16.11778 -174,-36z" fill="#FFFFFF" filter="url(#fill-shadow)"></path><g><path d="M852,744c0,19.88222 -77.90258,36 -174,36c-96.09742,0 -174,-16.11778 -174,-36c0,-17.30773 0,-113.60443 0,-138.25257c12.83081,18.25959 85.84698,32.25257 174,32.25257c88.15302,0 161.16919,-13.99298 174,-32.25257c0,29.13334 0,119.84504 0,138.25257zM504,600c0,-19.88222 77.90258,-36 174,-36c96.09742,0 174,16.11778 174,36c0,19.88222 -77.90258,36 -174,36c-96.09742,0 -174,-16.11778 -174,-36z" fill="#1AAE9F"></path></g><g><g><g class="content"><g><g><g><g id="12/Fo9;/-1"><g><g></g><text fill="#293845" hover-props="{}"><tspan x="622.43798828125" y="606.5" font-family="Arial, system-ui, sans-serif" font-size="18" font-style="normal" font-weight="bold">Node (replica)</tspan></text></g></g></g></g></g></g></g><g><rect x="684" y="648" width="156" height="96" rx="48" ry="48" fill="#FFFFFF" filter="url(#fill-shadow)"></rect><g><rect x="684" y="648" width="156" height="96" rx="48" ry="48" fill="#207868"></rect><g class="content"><g><g><g><g id="12-1"><g><g></g><text fill="#FFFFFF" hover-props="{}"><tspan x="737.3857421875" y="675.5" font-family="Arial, system-ui, sans-serif" font-size="15" font-style="normal" font-weight="bold">sh0004</tspan></text></g></g><g id="12-2"><g id="12-1"><g><g></g><text fill="#FFFFFF" hover-props="{}"><tspan x="786.6142578125" y="675.5" font-family="Arial, system-ui, sans-serif" font-size="15" font-style="normal" font-weight="bold">
</tspan></text></g></g></g></g><g><g><g></g><text hover-props="{}"><tspan x="762" y="696">​</tspan></text></g></g></g></g></g></g><g><g><g class="content"><g><g><g><g><g></g><text fill="#FFFFFF" hover-props="{}"><tspan x="738" y="698.5" font-family="Arial, system-ui, sans-serif" font-size="13" font-style="normal" font-weight="normal">users</tspan></text></g><g id="12/Fo9;/-1"><g><g></g><text fill="#FFFFFF" hover-props="{}"><tspan x="769.625" y="698.5" font-family="Arial, system-ui, sans-serif" font-size="13" font-style="normal" font-weight="normal">
</tspan></text></g></g></g><g><g><g></g><text fill="#FFFFFF" hover-props="{}"><tspan x="738" y="714.5" font-family="Arial, system-ui, sans-serif" font-size="13" font-style="normal" font-weight="normal">topics</tspan></text></g><g id="12/Fo9;/-2"><g><g></g><text fill="#FFFFFF" hover-props="{}"><tspan x="771.5361328125" y="714.5" font-family="Arial, system-ui, sans-serif" font-size="13" font-style="normal" font-weight="normal">
</tspan></text></g></g></g><g><g><g></g><text fill="#FFFFFF" hover-props="{}"><tspan x="738" y="730.5" font-family="Arial, system-ui, sans-serif" font-size="13" font-style="normal" font-weight="normal">comments</tspan></text></g></g></g></g></g></g></g></g><g><rect x="516" y="648" width="156" height="96" rx="48" ry="48" fill="#FFFFFF" filter="url(#fill-shadow)"></rect><g><rect x="516" y="648" width="156" height="96" rx="48" ry="48" fill="#207868"></rect><g class="content"><g><g><g><g id="12-1"><g><g></g><text fill="#FFFFFF" hover-props="{}"><tspan x="569.3857421875" y="675.5" font-family="Arial, system-ui, sans-serif" font-size="15" font-style="normal" font-weight="bold">sh0002</tspan></text></g></g><g id="12-2"><g id="12-1"><g><g></g><text fill="#FFFFFF" hover-props="{}"><tspan x="618.6142578125" y="675.5" font-family="Arial, system-ui, sans-serif" font-size="15" font-style="normal" font-weight="bold">
</tspan></text></g></g></g></g><g><g><g></g><text hover-props="{}"><tspan x="594" y="696">​</tspan></text></g></g></g></g></g></g><g><g><g class="content"><g><g><g><g><g></g><text fill="#FFFFFF" hover-props="{}"><tspan x="570" y="698.5" font-family="Arial, system-ui, sans-serif" font-size="13" font-style="normal" font-weight="normal">users</tspan></text></g><g id="12/Fo9;/-1"><g><g></g><text fill="#FFFFFF" hover-props="{}"><tspan x="601.625" y="698.5" font-family="Arial, system-ui, sans-serif" font-size="13" font-style="normal" font-weight="normal">
</tspan></text></g></g></g><g><g><g></g><text fill="#FFFFFF" hover-props="{}"><tspan x="570" y="714.5" font-family="Arial, system-ui, sans-serif" font-size="13" font-style="normal" font-weight="normal">topics</tspan></text></g><g id="12/Fo9;/-2"><g><g></g><text fill="#FFFFFF" hover-props="{}"><tspan x="603.5361328125" y="714.5" font-family="Arial, system-ui, sans-serif" font-size="13" font-style="normal" font-weight="normal">
</tspan></text></g></g></g><g><g><g></g><text fill="#FFFFFF" hover-props="{}"><tspan x="570" y="730.5" font-family="Arial, system-ui, sans-serif" font-size="13" font-style="normal" font-weight="normal">comments</tspan></text></g></g></g></g></g></g></g></g></g></g><g><g><line stroke="#788896" fill="none" stroke-linejoin="round" y1="537" stroke-linecap="round" stroke-width="4" x1="678" y2="552.0000000000002" x2="678"></line><polygon points="683.54095,548.9079 678,556 672.45905,548.9079" fill="#788896" stroke="#788896" stroke-width="2" stroke-linecap="round" stroke-linejoin="round"></polygon></g></g></g></g><g><g class="content"><g><g><g><g id="12/Fo9;/-1"><g><g></g><text fill="#293845" hover-props="{}"><tspan x="641.14697265625" y="273.5" font-family="Arial, system-ui, sans-serif" font-size="21" font-style="normal" font-weight="bold">Island 1</tspan></text></g></g></g></g></g></g></g><g><rect x="936" y="288" width="396" height="528" rx="3" ry="3" fill="#FFFFFF" filter="url(#light-gray-fill-shadow)"></rect><g><rect x="936" y="288" width="396" height="528" rx="3" ry="3" fill="#C3CFD9"></rect></g><g><g><path d="M1308,492c0,19.88222 -77.90258,36 -174,36c-96.09742,0 -174,-16.11778 -174,-36c0,-17.30773 0,-113.60443 0,-138.25257c12.83081,18.25959 85.84698,32.25257 174,32.25257c88.15302,0 161.16919,-13.99298 174,-32.25257c0,29.13334 0,119.84504 0,138.25257zM960,353.74743c0,3.00309 0,5.10282 0,0zM960,348c0,-19.88222 77.90258,-36 174,-36c96.09742,0 174,16.11778 174,36c0,19.88222 -77.90258,36 -174,36c-96.09742,0 -174,-16.11778 -174,-36z" fill="#FFFFFF" filter="url(#fill-shadow)"></path><g><path d="M1308,492c0,19.88222 -77.90258,36 -174,36c-96.09742,0 -174,-16.11778 -174,-36c0,-17.30773 0,-113.60443 0,-138.25257c12.83081,18.25959 85.84698,32.25257 174,32.25257c88.15302,0 161.16919,-13.99298 174,-32.25257c0,29.13334 0,119.84504 0,138.25257zM960,353.74743c0,3.00309 0,5.10282 0,0zM960,348c0,-19.88222 77.90258,-36 174,-36c96.09742,0 174,16.11778 174,36c0,19.88222 -77.90258,36 -174,36c-96.09742,0 -174,-16.11778 -174,-36z" fill="#E8833A"></path></g><g><g><g class="content"><g><g><g><g id="12/Fo9;/-1"><g><g></g><text fill="#293845" hover-props="{}"><tspan x="1081.96533203125" y="354.5" font-family="Arial, system-ui, sans-serif" font-size="18" font-style="normal" font-weight="bold">Node (master)</tspan></text></g></g></g></g></g></g></g><g><rect x="1140" y="396" width="156" height="96" rx="48" ry="48" fill="#FFFFFF" filter="url(#yellow-fill-shadow)"></rect><g><rect x="1140" y="396" width="156" height="96" rx="48" ry="48" fill="#F7C325"></rect><g class="content"><g><g><g><g id="12-1"><g><g></g><text fill="#293845" hover-props="{}"><tspan x="1193.3857421875" y="423.5" font-family="Arial, system-ui, sans-serif" font-size="15" font-style="normal" font-weight="bold">sh0003</tspan></text></g></g><g id="12-2"><g id="12-1"><g><g></g><text fill="#293845" hover-props="{}"><tspan x="1242.6142578125" y="423.5" font-family="Arial, system-ui, sans-serif" font-size="15" font-style="normal" font-weight="bold">
</tspan></text></g></g></g></g><g><g><g></g><text hover-props="{}"><tspan x="1218" y="444">​</tspan></text></g></g></g></g></g></g><g><g><g class="content"><g><g><g><g><g></g><text fill="#293845" hover-props="{}"><tspan x="1194" y="446.5" font-family="Arial, system-ui, sans-serif" font-size="13" font-style="normal" font-weight="normal">users</tspan></text></g><g id="12/Fo9;/-1"><g><g></g><text fill="#293845" hover-props="{}"><tspan x="1225.625" y="446.5" font-family="Arial, system-ui, sans-serif" font-size="13" font-style="normal" font-weight="normal">
</tspan></text></g></g></g><g><g><g></g><text fill="#293845" hover-props="{}"><tspan x="1194" y="462.5" font-family="Arial, system-ui, sans-serif" font-size="13" font-style="normal" font-weight="normal">topics</tspan></text></g><g id="12/Fo9;/-2"><g><g></g><text fill="#293845" hover-props="{}"><tspan x="1227.5361328125" y="462.5" font-family="Arial, system-ui, sans-serif" font-size="13" font-style="normal" font-weight="normal">
</tspan></text></g></g></g><g><g><g></g><text fill="#293845" hover-props="{}"><tspan x="1194" y="478.5" font-family="Arial, system-ui, sans-serif" font-size="13" font-style="normal" font-weight="normal">comments</tspan></text></g></g></g></g></g></g></g></g><g><rect x="972" y="396" width="156" height="96" rx="48" ry="48" fill="#FFFFFF" filter="url(#yellow-fill-shadow)"></rect><g><rect x="972" y="396" width="156" height="96" rx="48" ry="48" fill="#F7C325"></rect><g class="content"><g><g><g><g id="12-1"><g><g></g><text fill="#293845" hover-props="{}"><tspan x="1025.3857421875" y="423.5" font-family="Arial, system-ui, sans-serif" font-size="15" font-style="normal" font-weight="bold">sh0001</tspan></text></g></g><g id="12-2"><g id="12-1"><g><g></g><text fill="#293845" hover-props="{}"><tspan x="1074.6142578125" y="423.5" font-family="Arial, system-ui, sans-serif" font-size="15" font-style="normal" font-weight="bold">
</tspan></text></g></g></g></g><g><g><g></g><text hover-props="{}"><tspan x="1050" y="444">​</tspan></text></g></g></g></g></g></g><g><g><g class="content"><g><g><g><g><g></g><text fill="#293845" hover-props="{}"><tspan x="1026" y="446.5" font-family="Arial, system-ui, sans-serif" font-size="13" font-style="normal" font-weight="normal">users</tspan></text></g><g id="12/Fo9;/-1"><g><g></g><text fill="#293845" hover-props="{}"><tspan x="1057.625" y="446.5" font-family="Arial, system-ui, sans-serif" font-size="13" font-style="normal" font-weight="normal">
</tspan></text></g></g></g><g><g><g></g><text fill="#293845" hover-props="{}"><tspan x="1026" y="462.5" font-family="Arial, system-ui, sans-serif" font-size="13" font-style="normal" font-weight="normal">topics</tspan></text></g><g id="12/Fo9;/-2"><g><g></g><text fill="#293845" hover-props="{}"><tspan x="1059.5361328125" y="462.5" font-family="Arial, system-ui, sans-serif" font-size="13" font-style="normal" font-weight="normal">
</tspan></text></g></g></g><g><g><g></g><text fill="#293845" hover-props="{}"><tspan x="1026" y="478.5" font-family="Arial, system-ui, sans-serif" font-size="13" font-style="normal" font-weight="normal">comments</tspan></text></g></g></g></g></g></g></g></g></g></g><g><path d="M1308,744c0,19.88222 -77.90258,36 -174,36c-96.09742,0 -174,-16.11778 -174,-36c0,-17.30773 0,-113.60443 0,-138.25257c12.83081,18.25959 85.84698,32.25257 174,32.25257c88.15302,0 161.16919,-13.99298 174,-32.25257c0,29.13334 0,119.84504 0,138.25257zM960,600c0,-19.88222 77.90258,-36 174,-36c96.09742,0 174,16.11778 174,36c0,19.88222 -77.90258,36 -174,36c-96.09742,0 -174,-16.11778 -174,-36z" fill="#FFFFFF" filter="url(#fill-shadow)"></path><g><path d="M1308,744c0,19.88222 -77.90258,36 -174,36c-96.09742,0 -174,-16.11778 -174,-36c0,-17.30773 0,-113.60443 0,-138.25257c12.83081,18.25959 85.84698,32.25257 174,32.25257c88.15302,0 161.16919,-13.99298 174,-32.25257c0,29.13334 0,119.84504 0,138.25257zM960,600c0,-19.88222 77.90258,-36 174,-36c96.09742,0 174,16.11778 174,36c0,19.88222 -77.90258,36 -174,36c-96.09742,0 -174,-16.11778 -174,-36z" fill="#1AAE9F"></path></g><g><g><g class="content"><g><g><g><g id="12/Fo9;/-1"><g><g></g><text fill="#293845" hover-props="{}"><tspan x="1081.93798828125" y="606.5" font-family="Arial, system-ui, sans-serif" font-size="18" font-style="normal" font-weight="bold">Node (replica)</tspan></text></g></g></g></g></g></g></g><g><rect x="1140" y="648" width="156" height="96" rx="48" ry="48" fill="#FFFFFF" filter="url(#fill-shadow)"></rect><g><rect x="1140" y="648" width="156" height="96" rx="48" ry="48" fill="#207868"></rect><g class="content"><g><g><g><g id="12-1"><g><g></g><text fill="#FFFFFF" hover-props="{}"><tspan x="1193.3857421875" y="675.5" font-family="Arial, system-ui, sans-serif" font-size="15" font-style="normal" font-weight="bold">sh0003</tspan></text></g></g><g id="12-2"><g id="12-1"><g><g></g><text fill="#FFFFFF" hover-props="{}"><tspan x="1242.6142578125" y="675.5" font-family="Arial, system-ui, sans-serif" font-size="15" font-style="normal" font-weight="bold">
</tspan></text></g></g></g></g><g><g><g></g><text hover-props="{}"><tspan x="1218" y="696">​</tspan></text></g></g></g></g></g></g><g><g><g class="content"><g><g><g><g><g></g><text fill="#FFFFFF" hover-props="{}"><tspan x="1194" y="698.5" font-family="Arial, system-ui, sans-serif" font-size="13" font-style="normal" font-weight="normal">users</tspan></text></g><g id="12/Fo9;/-1"><g><g></g><text fill="#FFFFFF" hover-props="{}"><tspan x="1225.625" y="698.5" font-family="Arial, system-ui, sans-serif" font-size="13" font-style="normal" font-weight="normal">
</tspan></text></g></g></g><g><g><g></g><text fill="#FFFFFF" hover-props="{}"><tspan x="1194" y="714.5" font-family="Arial, system-ui, sans-serif" font-size="13" font-style="normal" font-weight="normal">topics</tspan></text></g><g id="12/Fo9;/-2"><g><g></g><text fill="#FFFFFF" hover-props="{}"><tspan x="1227.5361328125" y="714.5" font-family="Arial, system-ui, sans-serif" font-size="13" font-style="normal" font-weight="normal">
</tspan></text></g></g></g><g><g><g></g><text fill="#FFFFFF" hover-props="{}"><tspan x="1194" y="730.5" font-family="Arial, system-ui, sans-serif" font-size="13" font-style="normal" font-weight="normal">comments</tspan></text></g></g></g></g></g></g></g></g><g><rect x="972" y="648" width="156" height="96" rx="48" ry="48" fill="#FFFFFF" filter="url(#fill-shadow)"></rect><g><rect x="972" y="648" width="156" height="96" rx="48" ry="48" fill="#207868"></rect><g class="content"><g><g><g><g id="12-1"><g><g></g><text fill="#FFFFFF" hover-props="{}"><tspan x="1025.3857421875" y="675.5" font-family="Arial, system-ui, sans-serif" font-size="15" font-style="normal" font-weight="bold">sh0001</tspan></text></g></g><g id="12-2"><g id="12-1"><g><g></g><text fill="#FFFFFF" hover-props="{}"><tspan x="1074.6142578125" y="675.5" font-family="Arial, system-ui, sans-serif" font-size="15" font-style="normal" font-weight="bold">
</tspan></text></g></g></g></g><g><g><g></g><text hover-props="{}"><tspan x="1050" y="696">​</tspan></text></g></g></g></g></g></g><g><g><g class="content"><g><g><g><g><g></g><text fill="#FFFFFF" hover-props="{}"><tspan x="1026" y="698.5" font-family="Arial, system-ui, sans-serif" font-size="13" font-style="normal" font-weight="normal">users</tspan></text></g><g id="12/Fo9;/-1"><g><g></g><text fill="#FFFFFF" hover-props="{}"><tspan x="1057.625" y="698.5" font-family="Arial, system-ui, sans-serif" font-size="13" font-style="normal" font-weight="normal">
</tspan></text></g></g></g><g><g><g></g><text fill="#FFFFFF" hover-props="{}"><tspan x="1026" y="714.5" font-family="Arial, system-ui, sans-serif" font-size="13" font-style="normal" font-weight="normal">topics</tspan></text></g><g id="12/Fo9;/-2"><g><g></g><text fill="#FFFFFF" hover-props="{}"><tspan x="1059.5361328125" y="714.5" font-family="Arial, system-ui, sans-serif" font-size="13" font-style="normal" font-weight="normal">
</tspan></text></g></g></g><g><g><g></g><text fill="#FFFFFF" hover-props="{}"><tspan x="1026" y="730.5" font-family="Arial, system-ui, sans-serif" font-size="13" font-style="normal" font-weight="normal">comments</tspan></text></g></g></g></g></g></g></g></g></g></g><g><g><line stroke="#788896" fill="none" stroke-linejoin="round" y1="536.9999999999999" stroke-linecap="round" stroke-width="4" x1="1134" y2="551.9999999999998" x2="1134"></line><polygon points="1139.54095,548.9079 1134,556 1128.45905,548.9079" fill="#788896" stroke="#788896" stroke-width="2" stroke-linecap="round" stroke-linejoin="round"></polygon></g></g></g></g><g><g class="content"><g><g><g><g id="12/Fo9;/-1"><g><g></g><text fill="#293845" hover-props="{}"><tspan x="1101.14697265625" y="273.5" font-family="Arial, system-ui, sans-serif" font-size="21" font-style="normal" font-weight="bold">Island 2</tspan></text></g></g></g></g></g></g></g></g></g></svg>