<svg xmlns="http://www.w3.org/2000/svg" xmlns:xlink="http://www.w3.org/1999/xlink" version="1.1" viewBox="126 -153 1899 1330" width="1899px" height="1330px"><defs><style>@font-face{
    font-family:"DIN Next";
    font-weight: 400;
    src:url("https://whimsical.com/fonts/139e8e25-0eea-4cb4-a5d4-79048803e73d.eot?#iefix");
    src:url("https://whimsical.com/fonts/139e8e25-0eea-4cb4-a5d4-79048803e73d.eot?#iefix") format("eot"),url("https://whimsical.com/fonts/094b15e3-94bd-435b-a595-d40edfde661a.woff2") format("woff2"),url("https://whimsical.com/fonts/7e5fbe11-4858-4bd1-9ec6-a1d9f9d227aa.woff") format("woff"),url("https://whimsical.com/fonts/0f11eff9-9f05-46f5-9703-027c510065d7.ttf") format("truetype"),url("https://whimsical.com/fonts/48b61978-3f30-4274-823c-5cdcd1876918.svg#48b61978-3f30-4274-823c-5cdcd1876918") format("svg");
}
@font-face{
    font-family:"DIN Next";
    font-weight: 400;
    font-style: italic;
    src:url("https://whimsical.com/fonts/df24d5e8-5087-42fd-99b1-b16042d666c8.eot?#iefix");
    src:url("https://whimsical.com/fonts/df24d5e8-5087-42fd-99b1-b16042d666c8.eot?#iefix") format("eot"),url("https://whimsical.com/fonts/46251881-ffe9-4bfb-99c7-d6ce3bebaf3e.woff2") format("woff2"),url("https://whimsical.com/fonts/790ebbf2-62c5-4a32-946f-99d405f9243e.woff") format("woff"),url("https://whimsical.com/fonts/d28199e6-0f4a-42df-97f4-606701c6f75a.ttf") format("truetype"),url("https://whimsical.com/fonts/37a462c0-d86e-492c-b9ab-35e6bd417f6c.svg#37a462c0-d86e-492c-b9ab-35e6bd417f6c") format("svg");
}
@font-face{
    font-weight: 500;
    font-family:"DIN Next";
    src:url("https://whimsical.com/fonts/c5b058fc-55ce-4e06-a175-5c7d9a7e90f4.eot?#iefix");
    src:url("https://whimsical.com/fonts/c5b058fc-55ce-4e06-a175-5c7d9a7e90f4.eot?#iefix") format("eot"),url("https://whimsical.com/fonts/7b29ae40-30ff-4f99-a2b9-cde88669fa2f.woff2") format("woff2"),url("https://whimsical.com/fonts/bf73077c-e354-4562-a085-f4703eb1d653.woff") format("woff"),url("https://whimsical.com/fonts/0ffa6947-5317-4d07-b525-14d08a028821.ttf") format("truetype"),url("https://whimsical.com/fonts/9e423e45-5450-4991-a157-dbe6cf61eb4e.svg#9e423e45-5450-4991-a157-dbe6cf61eb4e") format("svg");
}
@font-face{
    font-family:"DIN Next";
    font-weight: 500;
    font-style: italic;
    src:url("https://whimsical.com/fonts/9897c008-fd65-48a4-afc7-36de2fea97b9.eot?#iefix");
    src:url("https://whimsical.com/fonts/9897c008-fd65-48a4-afc7-36de2fea97b9.eot?#iefix") format("eot"),url("https://whimsical.com/fonts/c7717981-647d-4b76-8817-33062e42d11f.woff2") format("woff2"),url("https://whimsical.com/fonts/b852cd4c-1255-40b1-a2be-73a9105b0155.woff") format("woff"),url("https://whimsical.com/fonts/821b00ad-e741-4e2d-af1a-85594367c8a2.ttf") format("truetype"),url("https://whimsical.com/fonts/d3e3b689-a6b0-45f2-b279-f5e194f87409.svg#d3e3b689-a6b0-45f2-b279-f5e194f87409") format("svg");
}
@font-face{
    font-weight: 700;
    font-family:"DIN Next";
    src:url("https://whimsical.com/fonts/81cd3b08-fd39-4ae3-8d05-9d24709eba84.eot?#iefix");
    src:url("https://whimsical.com/fonts/81cd3b08-fd39-4ae3-8d05-9d24709eba84.eot?#iefix") format("eot"),url("https://whimsical.com/fonts/31704504-4671-47a6-a61e-397f07410d91.woff2") format("woff2"),url("https://whimsical.com/fonts/b8a280da-481f-44a0-8d9c-1bc64bd7227c.woff") format("woff"),url("https://whimsical.com/fonts/276d122a-0fab-447b-9fc0-5d7fb0eafce2.ttf") format("truetype"),url("https://whimsical.com/fonts/8fb8273a-8213-4928-808b-b5bfaf3fd7e9.svg#8fb8273a-8213-4928-808b-b5bfaf3fd7e9") format("svg");
}
@font-face{
    font-family:"DIN Next";
    font-weight: 700;
    font-style: italic;
    src:url("https://whimsical.com/fonts/00cc6df3-ed32-4004-8dd8-1c576600a408.eot?#iefix");
    src:url("https://whimsical.com/fonts/00cc6df3-ed32-4004-8dd8-1c576600a408.eot?#iefix") format("eot"),url("https://whimsical.com/fonts/4132c4c8-680c-4d6d-9251-a2da38503bbd.woff2") format("woff2"),url("https://whimsical.com/fonts/366401fe-6df4-47be-8f55-8a411cff0dd2.woff") format("woff"),url("https://whimsical.com/fonts/dbe4f7ba-fc16-44a6-a577-571620e9edaf.ttf") format("truetype"),url("https://whimsical.com/fonts/f874edca-ee87-4ccf-8b1d-921fbc3c1c36.svg#f874edca-ee87-4ccf-8b1d-921fbc3c1c36") format("svg");
}

@font-face {
    font-family: 'PFDINMonoPro';
    src:url('https://whimsical.com/fonts/PFDINMonoPro-Regular.woff') format('woff');
    font-weight: 400;
}
@font-face {
    font-family: 'PFDINMonoPro';
    src:url('https://whimsical.com/fonts/PFDINMonoPro-Italic.woff') format('woff');
    font-style: italic;
    font-weight: 400;
}
@font-face {
    font-family: 'PFDINMonoPro';
    src:url('https://whimsical.com/fonts/PFDINMonoPro-Bold.woff') format('woff');
    font-weight: 700;
}
@font-face {
    font-family: 'PFDINMonoPro';
    src:url('https://whimsical.com/fonts/PFDINMonoPro-BoldItalic.woff') format('woff');
    font-style: italic;
    font-weight: 700;
}
* {-webkit-font-smoothing: auto; -moz-osx-font-smoothing: auto;}@media print { svg { width: 100%; height: 100%; } }</style><g><filter id="white-fill-shadow" y="-50%" height="200%"><feDropShadow dx="0" dy="2" stdDeviation="6" flood-opacity="0.03" flood-color="#000000"></feDropShadow></filter><filter id="light-gray-fill-shadow" y="-50%" height="200%"><feDropShadow dx="0" dy="2" stdDeviation="6" flood-opacity="0.09" flood-color="#000000"></feDropShadow></filter><filter id="yellow-fill-shadow" y="-50%" height="200%"><feDropShadow dx="0" dy="2" stdDeviation="6" flood-opacity="0.12" flood-color="#000000"></feDropShadow></filter><filter id="fill-shadow" y="-50%" height="200%"><feDropShadow dx="0" dy="2" stdDeviation="6" flood-opacity="0.16" flood-color="#000000"></feDropShadow></filter><filter id="frame-shadow" y="-50%" height="200%"><feDropShadow dx="0" dy="3" stdDeviation="8" flood-opacity="0.06" flood-color="#000000"></feDropShadow></filter><filter id="button-shadow" y="-50%" height="200%"><feDropShadow dx="0" dy="2" stdDeviation="6" flood-opacity="0.03" flood-color="#000000"></feDropShadow></filter><filter id="button-hover-shadow" y="-50%" height="200%"><feDropShadow dx="0" dy="2" stdDeviation="6" flood-opacity="0.08" flood-color="#000000"></feDropShadow></filter><filter id="badge-shadow" y="-50%" height="200%"><feDropShadow dx="0" dy="2" stdDeviation="6" flood-opacity="0.08" flood-color="#000000"></feDropShadow></filter></g></defs><g><g><rect width="1899" height="1330" x="126" y="-153" fill="#ffffff"></rect></g><g><g><rect x="168" y="12" width="444" height="1128" rx="3" ry="3" fill="#FFFFFF" filter="url(#fill-shadow)"></rect><g><rect x="168" y="12" width="444" height="1128" rx="3" ry="3" fill="#2C88D9"></rect><g class="content"><g><g><g><g id="12-1"><g><g></g><text fill="#FFFFFF" hover-props="{}"><tspan x="306.607421875" y="60.5" font-family="DIN Next, system-ui, sans-serif" font-size="36" font-style="normal" font-weight="bold">Databases</tspan></text></g></g></g></g></g></g></g><g><g><path d="M560.33624,750.42961c14.82477,9.14864 24.81901,24.81214 27.14595,42.54458c2.32694,17.73244 -3.26745,35.5979 -15.19526,48.52546c7.77317,11.99147 10.53014,26.73952 7.64135,40.87644c-2.88879,14.13692 -11.17666,26.45554 -22.97108,34.1429c5.353,13.8206 4.16689,29.44343 -3.20571,42.22404c-7.3726,12.78061 -20.08288,21.24757 -34.35225,22.88375c-1.90423,15.95669 -10.08487,30.38562 -22.60207,39.86531c-12.5172,9.47969 -28.25608,13.16581 -43.48454,10.18428c-8.06864,12.77522 -20.98883,21.39219 -35.54077,23.70349c-14.55194,2.31129 -29.3651,-1.90077 -40.74794,-11.5865c-11.13212,9.46772 -26.15464,12.37901 -39.83028,7.71891c-13.67563,-4.66011 -24.10893,-16.24571 -27.66254,-30.71774c-15.77964,4.22399 -32.54506,-0.22975 -44.42639,-11.80189c-11.88133,-11.57214 -17.2235,-28.65069 -14.15613,-45.25615c-11.00913,-3.13271 -20.22715,-10.95115 -25.3751,-21.52238c-5.14796,-10.57123 -5.74535,-22.90856 -1.64449,-33.96186c-17.12664,-8.33266 -28.98174,-25.14367 -31.45277,-44.60131c-2.47103,-19.45764 4.78248,-38.88082 19.24431,-51.53166c-13.64768,-13.39005 -19.14059,-33.45389 -14.31497,-52.28793c4.82563,-18.83404 19.19633,-33.41949 37.45117,-38.01082c-2.77857,-12.29277 -0.37164,-25.23155 6.61665,-35.56858c6.98828,-10.33704 17.8944,-17.09087 29.98082,-18.56623c2.68735,-15.51822 11.43675,-29.1942 24.17653,-37.78973c12.73978,-8.59553 28.33708,-11.34627 43.09877,-7.60091c4.42524,-10.79248 13.85312,-18.49562 25.00293,-20.42889c11.14981,-1.93326 22.47958,2.17071 30.04676,10.88383c10.31248,-10.73344 25.27797,-15.10193 39.47193,-11.522c14.19396,3.57993 25.55644,14.58872 29.96888,29.03601c16.44475,-4.79572 34.11132,-0.83363 47.17872,10.58079c13.06741,11.41442 19.84059,28.80053 18.08784,46.42976c14.33136,0.22297 27.39512,8.56773 34.0399,21.74373c6.64478,13.176 5.80422,29.06874 -2.19022,41.41131z" fill="#FFFFFF" filter="url(#light-gray-fill-shadow)"></path><g><path d="M560.33624,750.42961c14.82477,9.14864 24.81901,24.81214 27.14595,42.54458c2.32694,17.73244 -3.26745,35.5979 -15.19526,48.52546c7.77317,11.99147 10.53014,26.73952 7.64135,40.87644c-2.88879,14.13692 -11.17666,26.45554 -22.97108,34.1429c5.353,13.8206 4.16689,29.44343 -3.20571,42.22404c-7.3726,12.78061 -20.08288,21.24757 -34.35225,22.88375c-1.90423,15.95669 -10.08487,30.38562 -22.60207,39.86531c-12.5172,9.47969 -28.25608,13.16581 -43.48454,10.18428c-8.06864,12.77522 -20.98883,21.39219 -35.54077,23.70349c-14.55194,2.31129 -29.3651,-1.90077 -40.74794,-11.5865c-11.13212,9.46772 -26.15464,12.37901 -39.83028,7.71891c-13.67563,-4.66011 -24.10893,-16.24571 -27.66254,-30.71774c-15.77964,4.22399 -32.54506,-0.22975 -44.42639,-11.80189c-11.88133,-11.57214 -17.2235,-28.65069 -14.15613,-45.25615c-11.00913,-3.13271 -20.22715,-10.95115 -25.3751,-21.52238c-5.14796,-10.57123 -5.74535,-22.90856 -1.64449,-33.96186c-17.12664,-8.33266 -28.98174,-25.14367 -31.45277,-44.60131c-2.47103,-19.45764 4.78248,-38.88082 19.24431,-51.53166c-13.64768,-13.39005 -19.14059,-33.45389 -14.31497,-52.28793c4.82563,-18.83404 19.19633,-33.41949 37.45117,-38.01082c-2.77857,-12.29277 -0.37164,-25.23155 6.61665,-35.56858c6.98828,-10.33704 17.8944,-17.09087 29.98082,-18.56623c2.68735,-15.51822 11.43675,-29.1942 24.17653,-37.78973c12.73978,-8.59553 28.33708,-11.34627 43.09877,-7.60091c4.42524,-10.79248 13.85312,-18.49562 25.00293,-20.42889c11.14981,-1.93326 22.47958,2.17071 30.04676,10.88383c10.31248,-10.73344 25.27797,-15.10193 39.47193,-11.522c14.19396,3.57993 25.55644,14.58872 29.96888,29.03601c16.44475,-4.79572 34.11132,-0.83363 47.17872,10.58079c13.06741,11.41442 19.84059,28.80053 18.08784,46.42976c14.33136,0.22297 27.39512,8.56773 34.0399,21.74373c6.64478,13.176 5.80422,29.06874 -2.19022,41.41131z" fill="#C3CFD9"></path><g class="content"><g><g><g><g id="12-1"><g><g></g><text fill="#293845" hover-props="{}"><tspan x="390" y="639.5" font-family="DIN Next, system-ui, sans-serif" font-size="27" font-style="normal" font-weight="normal">
</tspan></text></g></g></g><g><g><g></g><text fill="#293845" hover-props="{}"><tspan x="344.00732421875" y="675.5" font-family="DIN Next, system-ui, sans-serif" font-size="27" font-style="normal" font-weight="normal">Island 2</tspan></text></g></g></g></g></g></g><g><g><path d="M528,849c0,13.25482 -59.09851,24 -132,24c-72.90149,0 -132,-10.74518 -132,-24c0,-11.61914 0,-95.07852 0,-115.49971c10.98486,12.2145 65.90401,21.49971 132,21.49971c66.09599,0 121.01514,-9.28521 132,-21.49971c0,22.87515 0,103.28061 0,115.49971zM264,733.50029c0,1.46293 0,2.20859 0,0zM264,729c0,-13.25482 59.09851,-24 132,-24c72.90149,0 132,10.74518 132,24c0,13.25482 -59.09851,24 -132,24c-72.90149,0 -132,-10.74518 -132,-24z" fill="#FFFFFF" filter="url(#fill-shadow)"></path><g><path d="M528,849c0,13.25482 -59.09851,24 -132,24c-72.90149,0 -132,-10.74518 -132,-24c0,-11.61914 0,-95.07852 0,-115.49971c10.98486,12.2145 65.90401,21.49971 132,21.49971c66.09599,0 121.01514,-9.28521 132,-21.49971c0,22.87515 0,103.28061 0,115.49971zM264,733.50029c0,1.46293 0,2.20859 0,0zM264,729c0,-13.25482 59.09851,-24 132,-24c72.90149,0 132,10.74518 132,24c0,13.25482 -59.09851,24 -132,24c-72.90149,0 -132,-10.74518 -132,-24z" fill="#788896"></path></g><g><g><rect x="276" y="777" width="72" height="24" rx="3" ry="3" fill="#FFFFFF" filter="url(#fill-shadow)"></rect><g><rect x="276" y="777" width="72" height="24" rx="3" ry="3" fill="#4B5C6B"></rect><g class="content"><g><g><g><g><g></g><text fill="#FFFFFF" hover-props="{}"><tspan x="287.98583984375" y="794.5" font-family="DIN Next, system-ui, sans-serif" font-size="15" font-style="normal" font-weight="normal">sh0001</tspan></text></g></g></g></g></g></g></g><g><rect x="360" y="777" width="72" height="24" rx="3" ry="3" fill="#FFFFFF" filter="url(#fill-shadow)"></rect><g><rect x="360" y="777" width="72" height="24" rx="3" ry="3" fill="#4B5C6B"></rect><g class="content"><g><g><g><g><g></g><text fill="#FFFFFF" hover-props="{}"><tspan x="371.98583984375" y="794.5" font-family="DIN Next, system-ui, sans-serif" font-size="15" font-style="normal" font-weight="normal">sh0004</tspan></text></g></g></g></g></g></g></g><g><rect x="444" y="777" width="72" height="24" rx="3" ry="3" fill="#FFFFFF" filter="url(#fill-shadow)"></rect><g><rect x="444" y="777" width="72" height="24" rx="3" ry="3" fill="#4B5C6B"></rect><g class="content"><g><g><g><g><g></g><text fill="#FFFFFF" hover-props="{}"><tspan x="455.98583984375" y="794.5" font-family="DIN Next, system-ui, sans-serif" font-size="15" font-style="normal" font-weight="normal">sh0005</tspan></text></g></g></g></g></g></g></g><g><rect x="276" y="813" width="72" height="24" rx="3" ry="3" fill="#FFFFFF" filter="url(#fill-shadow)"></rect><g><rect x="276" y="813" width="72" height="24" rx="3" ry="3" fill="#4B5C6B"></rect><g class="content"><g><g><g><g><g></g><text fill="#FFFFFF" hover-props="{}"><tspan x="287.98583984375" y="830.5" font-family="DIN Next, system-ui, sans-serif" font-size="15" font-style="normal" font-weight="normal">sh0006</tspan></text></g></g></g></g></g></g></g><g><rect x="360" y="813" width="72" height="24" rx="3" ry="3" fill="#FFFFFF" filter="url(#fill-shadow)"></rect><g><rect x="360" y="813" width="72" height="24" rx="3" ry="3" fill="#4B5C6B"></rect><g class="content"><g><g><g><g><g></g><text fill="#FFFFFF" hover-props="{}"><tspan x="371.98583984375" y="830.5" font-family="DIN Next, system-ui, sans-serif" font-size="15" font-style="normal" font-weight="normal">sh0008</tspan></text></g></g></g></g></g></g></g><g><rect x="444" y="813" width="72" height="24" rx="3" ry="3" fill="#FFFFFF" filter="url(#fill-shadow)"></rect><g><rect x="444" y="813" width="72" height="24" rx="3" ry="3" fill="#4B5C6B"></rect><g class="content"><g><g><g><g><g></g><text fill="#FFFFFF" hover-props="{}"><tspan x="455.98583984375" y="830.5" font-family="DIN Next, system-ui, sans-serif" font-size="15" font-style="normal" font-weight="normal">sh0011</tspan></text></g></g></g></g></g></g></g><g><g class="content"><g><g><g><g><g></g><text fill="#FFFFFF" hover-props="{}"><tspan x="337" y="739.5" font-family="DIN Next, system-ui, sans-serif" font-size="18" font-style="normal" font-weight="normal">Node (master)</tspan></text></g></g></g></g></g></g></g></g><g><path d="M528,972c0,6.62741 -59.09851,12 -132,12c-72.90149,0 -132,-5.37259 -132,-12c0,-5.7773 0,-47.0767 0,-57.57677c10.98486,6.57704 65.90401,11.57677 132,11.57677c66.09599,0 121.01514,-4.99973 132,-11.57677c0,11.66424 0,51.49766 0,57.57677zM264,912c0,-6.62741 59.09851,-12 132,-12c72.90149,0 132,5.37259 132,12c0,6.62741 -59.09851,12 -132,12c-72.90149,0 -132,-5.37259 -132,-12z" fill="#FFFFFF" filter="url(#fill-shadow)"></path><g><path d="M528,972c0,6.62741 -59.09851,12 -132,12c-72.90149,0 -132,-5.37259 -132,-12c0,-5.7773 0,-47.0767 0,-57.57677c10.98486,6.57704 65.90401,11.57677 132,11.57677c66.09599,0 121.01514,-4.99973 132,-11.57677c0,11.66424 0,51.49766 0,57.57677zM264,912c0,-6.62741 59.09851,-12 132,-12c72.90149,0 132,5.37259 132,12c0,6.62741 -59.09851,12 -132,12c-72.90149,0 -132,-5.37259 -132,-12z" fill="#788896"></path><g class="content"><g><g><g><g><g></g><text fill="#FFFFFF" hover-props="{}"><tspan x="342.21923828125" y="954.5" font-family="DIN Next, system-ui, sans-serif" font-size="18" font-style="normal" font-weight="normal">Node (replica)</tspan></text></g></g></g></g></g></g></g><g><g><line stroke="#788896" fill="none" stroke-linejoin="round" y1="881.4999999999998" stroke-linecap="round" stroke-width="4" x1="396" y2="888.5" x2="396"></line><polygon points="401.54095,885.4079 396,892.5 390.45905,885.4079" fill="#788896" stroke="#788896" stroke-width="2" stroke-linecap="round" stroke-linejoin="round"></polygon></g></g></g></g><g><path d="M561.97665,252.2172c14.39032,8.92352 23.9041,24.27955 25.71116,41.49994c1.80706,17.2204 -4.3008,34.32106 -16.50661,46.21484c9.69574,11.03211 13.54022,26.26308 10.29145,40.77249c-3.24877,14.50941 -13.17894,26.45795 -26.58254,31.98558c4.80397,17.5767 1.77811,36.44718 -8.25662,51.49161c-10.03473,15.04444 -26.0378,24.70282 -43.66735,26.3547c0.59631,14.52502 -6.51897,28.2333 -18.56797,35.773c-12.049,7.5397 -27.12113,7.71524 -39.33207,0.45811c-3.93729,10.90972 -13.18833,18.84644 -24.30415,20.85119c-11.11582,2.00474 -22.42833,-2.22333 -29.71998,-11.10791c-12.8533,13.54436 -31.87474,18.7196 -49.53108,13.47613c-17.65635,-5.24347 -31.09929,-20.05977 -35.00491,-38.58108c-13.40443,2.45726 -27.15411,-1.65817 -37.2022,-11.13503c-10.04809,-9.47685 -15.251,-23.23655 -14.07739,-37.22929c-17.19124,-1.96953 -32.18514,-12.93948 -39.67215,-29.02524c-7.48701,-16.08576 -6.41014,-35.0164 2.84927,-50.08832c-12.53198,-5.69704 -21.19478,-17.82364 -22.75897,-31.85913c-1.56419,-14.03549 4.20492,-27.87382 15.15667,-36.35619c-15.57224,-14.5147 -22.16013,-36.67896 -17.15139,-57.70405c5.00874,-21.02509 20.8049,-37.51421 41.12488,-42.92897c-5.71747,-14.24801 -3.75443,-30.5476 5.16897,-42.91902c8.92339,-12.37142 23.49344,-18.99337 38.3649,-17.43648c-0.3056,-14.79915 7.0331,-28.65153 19.27215,-36.37773c12.23905,-7.7262 27.53545,-8.16278 40.16986,-1.1465c7.21634,-11.4906 18.97784,-19.11287 32.14449,-20.83188c13.16665,-1.71901 26.39798,2.64025 36.16159,11.91398c10.95278,-7.06846 24.357,-8.83343 36.67965,-4.82969c12.32265,4.00374 22.32726,13.37444 27.37686,25.64221c14.30109,-2.63831 28.98997,1.5628 39.93278,11.42102c10.94281,9.85823 16.95648,24.30776 16.3486,39.28211c16.12758,1.08357 30.50238,10.87054 37.80929,25.74216c7.30691,14.87162 6.46015,32.61801 -2.22719,46.67743z" fill="#FFFFFF" filter="url(#light-gray-fill-shadow)"></path><g><path d="M561.97665,252.2172c14.39032,8.92352 23.9041,24.27955 25.71116,41.49994c1.80706,17.2204 -4.3008,34.32106 -16.50661,46.21484c9.69574,11.03211 13.54022,26.26308 10.29145,40.77249c-3.24877,14.50941 -13.17894,26.45795 -26.58254,31.98558c4.80397,17.5767 1.77811,36.44718 -8.25662,51.49161c-10.03473,15.04444 -26.0378,24.70282 -43.66735,26.3547c0.59631,14.52502 -6.51897,28.2333 -18.56797,35.773c-12.049,7.5397 -27.12113,7.71524 -39.33207,0.45811c-3.93729,10.90972 -13.18833,18.84644 -24.30415,20.85119c-11.11582,2.00474 -22.42833,-2.22333 -29.71998,-11.10791c-12.8533,13.54436 -31.87474,18.7196 -49.53108,13.47613c-17.65635,-5.24347 -31.09929,-20.05977 -35.00491,-38.58108c-13.40443,2.45726 -27.15411,-1.65817 -37.2022,-11.13503c-10.04809,-9.47685 -15.251,-23.23655 -14.07739,-37.22929c-17.19124,-1.96953 -32.18514,-12.93948 -39.67215,-29.02524c-7.48701,-16.08576 -6.41014,-35.0164 2.84927,-50.08832c-12.53198,-5.69704 -21.19478,-17.82364 -22.75897,-31.85913c-1.56419,-14.03549 4.20492,-27.87382 15.15667,-36.35619c-15.57224,-14.5147 -22.16013,-36.67896 -17.15139,-57.70405c5.00874,-21.02509 20.8049,-37.51421 41.12488,-42.92897c-5.71747,-14.24801 -3.75443,-30.5476 5.16897,-42.91902c8.92339,-12.37142 23.49344,-18.99337 38.3649,-17.43648c-0.3056,-14.79915 7.0331,-28.65153 19.27215,-36.37773c12.23905,-7.7262 27.53545,-8.16278 40.16986,-1.1465c7.21634,-11.4906 18.97784,-19.11287 32.14449,-20.83188c13.16665,-1.71901 26.39798,2.64025 36.16159,11.91398c10.95278,-7.06846 24.357,-8.83343 36.67965,-4.82969c12.32265,4.00374 22.32726,13.37444 27.37686,25.64221c14.30109,-2.63831 28.98997,1.5628 39.93278,11.42102c10.94281,9.85823 16.95648,24.30776 16.3486,39.28211c16.12758,1.08357 30.50238,10.87054 37.80929,25.74216c7.30691,14.87162 6.46015,32.61801 -2.22719,46.67743z" fill="#C3CFD9"></path><g class="content"><g><g><g><g id="12-1"><g><g></g><text fill="#293845" hover-props="{}"><tspan x="390" y="135.5" font-family="DIN Next, system-ui, sans-serif" font-size="27" font-style="normal" font-weight="normal">
</tspan></text></g></g></g><g><g><g></g><text fill="#293845" hover-props="{}"><tspan x="344.00732421875" y="171.5" font-family="DIN Next, system-ui, sans-serif" font-size="27" font-style="normal" font-weight="normal">Island 1</tspan></text></g></g></g></g></g></g><g><g><path d="M528,345c0,13.25482 -59.09851,24 -132,24c-72.90149,0 -132,-10.74518 -132,-24c0,-11.61914 0,-95.07852 0,-115.49971c10.98486,12.2145 65.90401,21.49971 132,21.49971c66.09599,0 121.01514,-9.28521 132,-21.49971c0,22.87515 0,103.28061 0,115.49971zM264,229.50029c0,1.46293 0,2.20859 0,0zM264,225c0,-13.25482 59.09851,-24 132,-24c72.90149,0 132,10.74518 132,24c0,13.25482 -59.09851,24 -132,24c-72.90149,0 -132,-10.74518 -132,-24z" fill="#FFFFFF" filter="url(#fill-shadow)"></path><g><path d="M528,345c0,13.25482 -59.09851,24 -132,24c-72.90149,0 -132,-10.74518 -132,-24c0,-11.61914 0,-95.07852 0,-115.49971c10.98486,12.2145 65.90401,21.49971 132,21.49971c66.09599,0 121.01514,-9.28521 132,-21.49971c0,22.87515 0,103.28061 0,115.49971zM264,229.50029c0,1.46293 0,2.20859 0,0zM264,225c0,-13.25482 59.09851,-24 132,-24c72.90149,0 132,10.74518 132,24c0,13.25482 -59.09851,24 -132,24c-72.90149,0 -132,-10.74518 -132,-24z" fill="#788896"></path></g><g><g><rect x="276" y="273" width="72" height="24" rx="3" ry="3" fill="#FFFFFF" filter="url(#fill-shadow)"></rect><g><rect x="276" y="273" width="72" height="24" rx="3" ry="3" fill="#4B5C6B"></rect><g class="content"><g><g><g><g><g></g><text fill="#FFFFFF" hover-props="{}"><tspan x="287.98583984375" y="290.5" font-family="DIN Next, system-ui, sans-serif" font-size="15" font-style="normal" font-weight="normal">sh0000</tspan></text></g></g></g></g></g></g></g><g><rect x="360" y="273" width="72" height="24" rx="3" ry="3" fill="#FFFFFF" filter="url(#fill-shadow)"></rect><g><rect x="360" y="273" width="72" height="24" rx="3" ry="3" fill="#4B5C6B"></rect><g class="content"><g><g><g><g><g></g><text fill="#FFFFFF" hover-props="{}"><tspan x="371.98583984375" y="290.5" font-family="DIN Next, system-ui, sans-serif" font-size="15" font-style="normal" font-weight="normal">sh0002</tspan></text></g></g></g></g></g></g></g><g><rect x="444" y="273" width="72" height="24" rx="3" ry="3" fill="#FFFFFF" filter="url(#fill-shadow)"></rect><g><rect x="444" y="273" width="72" height="24" rx="3" ry="3" fill="#4B5C6B"></rect><g class="content"><g><g><g><g><g></g><text fill="#FFFFFF" hover-props="{}"><tspan x="455.98583984375" y="290.5" font-family="DIN Next, system-ui, sans-serif" font-size="15" font-style="normal" font-weight="normal">sh0003</tspan></text></g></g></g></g></g></g></g><g><rect x="276" y="309" width="72" height="24" rx="3" ry="3" fill="#FFFFFF" filter="url(#fill-shadow)"></rect><g><rect x="276" y="309" width="72" height="24" rx="3" ry="3" fill="#4B5C6B"></rect><g class="content"><g><g><g><g><g></g><text fill="#FFFFFF" hover-props="{}"><tspan x="287.98583984375" y="326.5" font-family="DIN Next, system-ui, sans-serif" font-size="15" font-style="normal" font-weight="normal">sh0007</tspan></text></g></g></g></g></g></g></g><g><rect x="360" y="309" width="72" height="24" rx="3" ry="3" fill="#FFFFFF" filter="url(#fill-shadow)"></rect><g><rect x="360" y="309" width="72" height="24" rx="3" ry="3" fill="#4B5C6B"></rect><g class="content"><g><g><g><g><g></g><text fill="#FFFFFF" hover-props="{}"><tspan x="371.98583984375" y="326.5" font-family="DIN Next, system-ui, sans-serif" font-size="15" font-style="normal" font-weight="normal">sh0009</tspan></text></g></g></g></g></g></g></g><g><rect x="444" y="309" width="72" height="24" rx="3" ry="3" fill="#FFFFFF" filter="url(#fill-shadow)"></rect><g><rect x="444" y="309" width="72" height="24" rx="3" ry="3" fill="#4B5C6B"></rect><g class="content"><g><g><g><g><g></g><text fill="#FFFFFF" hover-props="{}"><tspan x="455.98583984375" y="326.5" font-family="DIN Next, system-ui, sans-serif" font-size="15" font-style="normal" font-weight="normal">sh0010</tspan></text></g></g></g></g></g></g></g><g><g class="content"><g><g><g><g><g></g><text fill="#FFFFFF" hover-props="{}"><tspan x="339" y="235.5" font-family="DIN Next, system-ui, sans-serif" font-size="18" font-style="normal" font-weight="normal">Node (master)</tspan></text></g></g></g></g></g></g></g></g><g><path d="M528,468c0,6.62741 -59.09851,12 -132,12c-72.90149,0 -132,-5.37259 -132,-12c0,-5.7773 0,-47.0767 0,-57.57677c10.98486,6.57704 65.90401,11.57677 132,11.57677c66.09599,0 121.01514,-4.99973 132,-11.57677c0,11.66424 0,51.49766 0,57.57677zM264,410.42323c0,0.57232 0,0.81033 0,0zM264,408c0,-6.62741 59.09851,-12 132,-12c72.90149,0 132,5.37259 132,12c0,6.62741 -59.09851,12 -132,12c-72.90149,0 -132,-5.37259 -132,-12z" fill="#FFFFFF" filter="url(#fill-shadow)"></path><g><path d="M528,468c0,6.62741 -59.09851,12 -132,12c-72.90149,0 -132,-5.37259 -132,-12c0,-5.7773 0,-47.0767 0,-57.57677c10.98486,6.57704 65.90401,11.57677 132,11.57677c66.09599,0 121.01514,-4.99973 132,-11.57677c0,11.66424 0,51.49766 0,57.57677zM264,410.42323c0,0.57232 0,0.81033 0,0zM264,408c0,-6.62741 59.09851,-12 132,-12c72.90149,0 132,5.37259 132,12c0,6.62741 -59.09851,12 -132,12c-72.90149,0 -132,-5.37259 -132,-12z" fill="#788896"></path><g class="content"><g><g><g><g><g></g><text fill="#FFFFFF" hover-props="{}"><tspan x="342.21923828125" y="450.5" font-family="DIN Next, system-ui, sans-serif" font-size="18" font-style="normal" font-weight="normal">Node (replica)</tspan></text></g></g></g></g></g></g></g><g><g><line stroke="#788896" fill="none" stroke-linejoin="round" y1="377.50000000000006" stroke-linecap="round" stroke-width="4" x1="396" y2="384.5" x2="396"></line><polygon points="401.54095,381.4079 396,388.5 390.45905,381.4079" fill="#788896" stroke="#788896" stroke-width="2" stroke-linecap="round" stroke-linejoin="round"></polygon></g></g></g></g><g><g class="content"><g><g><g><g><g></g><text fill="#293845" hover-props="{}"><tspan x="372.26123046875" y="1108" font-family="DIN Next, system-ui, sans-serif" font-size="60" font-style="normal" font-weight="normal">...</tspan></text></g></g></g></g></g></g></g></g><g><rect x="720" y="12" width="348" height="1128" rx="3" ry="3" fill="#FFFFFF" filter="url(#fill-shadow)"></rect><g><rect x="720" y="12" width="348" height="1128" rx="3" ry="3" fill="#D3455B"></rect><g class="content"><g><g><g><g id="12-1"><g><g></g><text fill="#FFFFFF" hover-props="{}"><tspan x="795.68798828125" y="60.5" font-family="DIN Next, system-ui, sans-serif" font-size="36" font-style="normal" font-weight="bold">Discovery &amp; </tspan></text></g></g></g><g><g id="12-1"><g><g></g><text fill="#FFFFFF" hover-props="{}"><tspan x="796.30029296875" y="109" font-family="DIN Next, system-ui, sans-serif" font-size="36" font-style="normal" font-weight="bold">Connectivity</tspan></text></g></g><g id="12-2"><g id="12-1"><g><g></g><text fill="#FFFFFF" hover-props="{}"><tspan x="991.69970703125" y="109" font-family="DIN Next, system-ui, sans-serif" font-size="36" font-style="normal" font-weight="bold">
</tspan></text></g></g></g></g><g><g id="12-1"><g><g></g><text fill="#FFFFFF" hover-props="{}"><tspan x="848.712890625" y="157.5" font-family="DIN Next, system-ui, sans-serif" font-size="36" font-style="normal" font-weight="bold">Layer</tspan></text></g></g></g></g></g></g></g><g><g><rect x="756" y="216" width="276" height="96" rx="3" ry="3" fill="#FFFFFF" filter="url(#light-gray-fill-shadow)"></rect><g><rect x="756" y="216" width="276" height="96" rx="3" ry="3" fill="#C3CFD9"></rect><g class="content"><g><g><g><g><g></g><text fill="#293845" hover-props="{}"><tspan x="822.39892578125" y="255.5" font-family="DIN Next, system-ui, sans-serif" font-size="27" font-style="normal" font-weight="normal">Nodes Auto-</tspan></text></g></g><g><g><g></g><text fill="#293845" hover-props="{}"><tspan x="837.20849609375" y="291.5" font-family="DIN Next, system-ui, sans-serif" font-size="27" font-style="normal" font-weight="normal">Discovery</tspan></text></g></g></g></g></g></g></g><g><rect x="756" y="348" width="276" height="96" rx="3" ry="3" fill="#FFFFFF" filter="url(#light-gray-fill-shadow)"></rect><g><rect x="756" y="348" width="276" height="96" rx="3" ry="3" fill="#C3CFD9"></rect><g class="content"><g><g><g><g><g></g><text fill="#293845" hover-props="{}"><tspan x="786.6796875" y="387.5" font-family="DIN Next, system-ui, sans-serif" font-size="27" font-style="normal" font-weight="normal">Microshards Auto-</tspan></text></g></g><g><g><g></g><text fill="#293845" hover-props="{}"><tspan x="837.20849609375" y="423.5" font-family="DIN Next, system-ui, sans-serif" font-size="27" font-style="normal" font-weight="normal">Discovery</tspan></text></g></g></g></g></g></g></g><g><rect x="756" y="612" width="276" height="96" rx="3" ry="3" fill="#FFFFFF" filter="url(#light-gray-fill-shadow)"></rect><g><rect x="756" y="612" width="276" height="96" rx="3" ry="3" fill="#C3CFD9"></rect><g class="content"><g><g><g><g><g></g><text fill="#293845" hover-props="{}"><tspan x="801.9345703125" y="651.5" font-family="DIN Next, system-ui, sans-serif" font-size="27" font-style="normal" font-weight="normal">Master/Replica </tspan></text></g></g><g><g><g></g><text fill="#293845" hover-props="{}"><tspan x="847.279296875" y="687.5" font-family="DIN Next, system-ui, sans-serif" font-size="27" font-style="normal" font-weight="normal">Failover</tspan></text></g></g></g></g></g></g></g><g><rect x="756" y="744" width="276" height="96" rx="3" ry="3" fill="#FFFFFF" filter="url(#light-gray-fill-shadow)"></rect><g><rect x="756" y="744" width="276" height="96" rx="3" ry="3" fill="#C3CFD9"></rect><g class="content"><g><g><g><g><g></g><text fill="#293845" hover-props="{}"><tspan x="852.22021484375" y="801.5" font-family="DIN Next, system-ui, sans-serif" font-size="27" font-style="normal" font-weight="normal">Retries</tspan></text></g></g></g></g></g></g></g><g><rect x="756" y="480" width="276" height="96" rx="3" ry="3" fill="#FFFFFF" filter="url(#light-gray-fill-shadow)"></rect><g><rect x="756" y="480" width="276" height="96" rx="3" ry="3" fill="#C3CFD9"></rect><g class="content"><g><g><g><g><g></g><text fill="#293845" hover-props="{}"><tspan x="821.697265625" y="519.5" font-family="DIN Next, system-ui, sans-serif" font-size="27" font-style="normal" font-weight="normal">Microshards</tspan></text></g><g id="12-1"><g><g></g><text fill="#293845" hover-props="{}"><tspan x="966.302734375" y="519.5" font-family="DIN Next, system-ui, sans-serif" font-size="27" font-style="normal" font-weight="normal">
</tspan></text></g></g></g><g><g><g></g><text fill="#293845" hover-props="{}"><tspan x="849.4658203125" y="555.5" font-family="DIN Next, system-ui, sans-serif" font-size="27" font-style="normal" font-weight="normal">Routing</tspan></text></g></g></g></g></g></g></g></g></g><g><rect x="1176" y="12" width="348" height="1128" rx="3" ry="3" fill="#FFFFFF" filter="url(#yellow-fill-shadow)"></rect><g><rect x="1176" y="12" width="348" height="1128" rx="3" ry="3" fill="#F7C325"></rect><g class="content"><g><g><g><g id="12-1"><g><g></g><text fill="#293845" hover-props="{}"><tspan x="1266.87939453125" y="60.5" font-family="DIN Next, system-ui, sans-serif" font-size="36" font-style="normal" font-weight="bold">Low-Level</tspan></text></g></g><g id="12-2"><g id="12-1"><g><g></g><text fill="#293845" hover-props="{}"><tspan x="1433.12060546875" y="60.5" font-family="DIN Next, system-ui, sans-serif" font-size="36" font-style="normal" font-weight="bold">
</tspan></text></g></g></g></g><g><g id="12-1"><g><g></g><text fill="#293845" hover-props="{}"><tspan x="1288.29736328125" y="109" font-family="DIN Next, system-ui, sans-serif" font-size="36" font-style="normal" font-weight="bold">Queries</tspan></text></g></g><g id="12-3"><g id="12-1"><g><g></g><text fill="#293845" hover-props="{}"><tspan x="1411.70263671875" y="109" font-family="DIN Next, system-ui, sans-serif" font-size="36" font-style="normal" font-weight="bold">
</tspan></text></g></g></g></g><g><g id="12-1"><g><g></g><text fill="#293845" hover-props="{}"><tspan x="1304.712890625" y="157.5" font-family="DIN Next, system-ui, sans-serif" font-size="36" font-style="normal" font-weight="bold">Layer</tspan></text></g></g></g></g></g></g></g><g><g><rect x="1212" y="216" width="276" height="96" rx="3" ry="3" fill="#FFFFFF" filter="url(#light-gray-fill-shadow)"></rect><g><rect x="1212" y="216" width="276" height="96" rx="3" ry="3" fill="#C3CFD9"></rect><g class="content"><g><g><g><g><g></g><text fill="#293845" hover-props="{}"><tspan x="1278.88525390625" y="255.5" font-family="DIN Next, system-ui, sans-serif" font-size="27" font-style="normal" font-weight="normal">Connections</tspan></text></g><g id="12-1"><g><g></g><text fill="#293845" hover-props="{}"><tspan x="1421.11474609375" y="255.5" font-family="DIN Next, system-ui, sans-serif" font-size="27" font-style="normal" font-weight="normal">
</tspan></text></g></g></g><g><g><g></g><text fill="#293845" hover-props="{}"><tspan x="1306.5859375" y="291.5" font-family="DIN Next, system-ui, sans-serif" font-size="27" font-style="normal" font-weight="normal">Pooling</tspan></text></g></g></g></g></g></g></g><g><rect x="1212" y="348" width="276" height="96" rx="3" ry="3" fill="#FFFFFF" filter="url(#light-gray-fill-shadow)"></rect><g><rect x="1212" y="348" width="276" height="96" rx="3" ry="3" fill="#C3CFD9"></rect><g class="content"><g><g><g><g><g></g><text fill="#293845" hover-props="{}"><tspan x="1262.07861328125" y="387.5" font-family="DIN Next, system-ui, sans-serif" font-size="27" font-style="normal" font-weight="normal">node-postgres </tspan></text></g></g><g><g><g></g><text fill="#293845" hover-props="{}"><tspan x="1306.95068359375" y="423.5" font-family="DIN Next, system-ui, sans-serif" font-size="27" font-style="normal" font-weight="normal">binding</tspan></text></g></g></g></g></g></g></g><g><rect x="1212" y="480" width="276" height="96" rx="3" ry="3" fill="#FFFFFF" filter="url(#light-gray-fill-shadow)"></rect><g><rect x="1212" y="480" width="276" height="96" rx="3" ry="3" fill="#C3CFD9"></rect><g class="content"><g><g><g><g><g></g><text fill="#293845" hover-props="{}"><tspan x="1305.046875" y="519.5" font-family="DIN Next, system-ui, sans-serif" font-size="27" font-style="normal" font-weight="normal">Queries</tspan></text></g><g id="12-1"><g><g></g><text fill="#293845" hover-props="{}"><tspan x="1394.953125" y="519.5" font-family="DIN Next, system-ui, sans-serif" font-size="27" font-style="normal" font-weight="normal">
</tspan></text></g></g></g><g><g><g></g><text fill="#293845" hover-props="{}"><tspan x="1299.0263671875" y="555.5" font-family="DIN Next, system-ui, sans-serif" font-size="27" font-style="normal" font-weight="normal">Batching</tspan></text></g></g></g></g></g></g></g><g><rect x="1212" y="612" width="276" height="96" rx="3" ry="3" fill="#FFFFFF" filter="url(#light-gray-fill-shadow)"></rect><g><rect x="1212" y="612" width="276" height="96" rx="3" ry="3" fill="#C3CFD9"></rect><g class="content"><g><g><g><g><g></g><text fill="#293845" hover-props="{}"><tspan x="1257.5166015625" y="651.5" font-family="DIN Next, system-ui, sans-serif" font-size="27" font-style="normal" font-weight="normal">Replication Lag </tspan></text></g></g><g><g><g></g><text fill="#293845" hover-props="{}"><tspan x="1299.431640625" y="687.5" font-family="DIN Next, system-ui, sans-serif" font-size="27" font-style="normal" font-weight="normal">Tracking</tspan></text></g></g></g></g></g></g></g><g><rect x="1212" y="744" width="276" height="96" rx="3" ry="3" fill="#FFFFFF" filter="url(#light-gray-fill-shadow)"></rect><g><rect x="1212" y="744" width="276" height="96" rx="3" ry="3" fill="#C3CFD9"></rect><g class="content"><g><g><g><g><g></g><text fill="#293845" hover-props="{}"><tspan x="1256.63818359375" y="783.5" font-family="DIN Next, system-ui, sans-serif" font-size="27" font-style="normal" font-weight="normal">Instrumentation</tspan></text></g><g id="12-1"><g><g></g><text fill="#293845" hover-props="{}"><tspan x="1443.36181640625" y="783.5" font-family="DIN Next, system-ui, sans-serif" font-size="27" font-style="normal" font-weight="normal">
</tspan></text></g></g></g><g><g><g></g><text fill="#293845" hover-props="{}"><tspan x="1278.80419921875" y="819.5" font-family="DIN Next, system-ui, sans-serif" font-size="27" font-style="normal" font-weight="normal">and Logging</tspan></text></g></g></g></g></g></g></g></g></g><g><rect x="1632" y="12" width="348" height="1128" rx="3" ry="3" fill="#FFFFFF" filter="url(#fill-shadow)"></rect><g><rect x="1632" y="12" width="348" height="1128" rx="3" ry="3" fill="#1AAE9F"></rect><g class="content"><g><g><g><g id="12-1"><g><g></g><text fill="#FFFFFF" hover-props="{}"><tspan x="1779.9189453125" y="60.5" font-family="DIN Next, system-ui, sans-serif" font-size="36" font-style="normal" font-weight="bold">Ent</tspan></text></g></g><g id="12-2"><g id="12-1"><g><g></g><text fill="#FFFFFF" hover-props="{}"><tspan x="1832.0810546875" y="60.5" font-family="DIN Next, system-ui, sans-serif" font-size="36" font-style="normal" font-weight="bold">
</tspan></text></g></g></g></g><g><g id="12-1"><g><g></g><text fill="#FFFFFF" hover-props="{}"><tspan x="1778.53271484375" y="109" font-family="DIN Next, system-ui, sans-serif" font-size="36" font-style="normal" font-weight="bold">API</tspan></text></g></g><g id="12-3"><g id="12-1"><g><g></g><text fill="#FFFFFF" hover-props="{}"><tspan x="1833.46728515625" y="109" font-family="DIN Next, system-ui, sans-serif" font-size="36" font-style="normal" font-weight="bold">
</tspan></text></g></g></g></g><g><g id="12-1"><g><g></g><text fill="#FFFFFF" hover-props="{}"><tspan x="1760.712890625" y="157.5" font-family="DIN Next, system-ui, sans-serif" font-size="36" font-style="normal" font-weight="bold">Layer</tspan></text></g></g></g></g></g></g></g><g><g><rect x="1668" y="216" width="276" height="84" rx="3" ry="3" fill="#FFFFFF" filter="url(#light-gray-fill-shadow)"></rect><g><rect x="1668" y="216" width="276" height="84" rx="3" ry="3" fill="#C3CFD9"></rect><g class="content"><g><g><g><g><g></g><text fill="#293845" hover-props="{}"><tspan x="1754.17626953125" y="267.5" font-family="DIN Next, system-ui, sans-serif" font-size="27" font-style="normal" font-weight="normal">Ent Read</tspan></text></g></g></g></g></g></g></g><g><rect x="1668" y="324" width="276" height="84" rx="3" ry="3" fill="#FFFFFF" filter="url(#light-gray-fill-shadow)"></rect><g><rect x="1668" y="324" width="276" height="84" rx="3" ry="3" fill="#C3CFD9"></rect><g class="content"><g><g><g><g><g></g><text fill="#293845" hover-props="{}"><tspan x="1732.88720703125" y="375.5" font-family="DIN Next, system-ui, sans-serif" font-size="27" font-style="normal" font-weight="normal">Ent Mutation</tspan></text></g></g></g></g></g></g></g><g><rect x="1668" y="432" width="276" height="84" rx="3" ry="3" fill="#FFFFFF" filter="url(#light-gray-fill-shadow)"></rect><g><rect x="1668" y="432" width="276" height="84" rx="3" ry="3" fill="#C3CFD9"></rect><g class="content"><g><g><g><g><g></g><text fill="#293845" hover-props="{}"><tspan x="1740.48779296875" y="483.5" font-family="DIN Next, system-ui, sans-serif" font-size="27" font-style="normal" font-weight="normal">Ent Privacy</tspan></text></g></g></g></g></g></g></g><g><rect x="1668" y="540" width="276" height="84" rx="3" ry="3" fill="#FFFFFF" filter="url(#light-gray-fill-shadow)"></rect><g><rect x="1668" y="540" width="276" height="84" rx="3" ry="3" fill="#C3CFD9"></rect><g class="content"><g><g><g><g><g></g><text fill="#293845" hover-props="{}"><tspan x="1734.1845703125" y="591.5" font-family="DIN Next, system-ui, sans-serif" font-size="27" font-style="normal" font-weight="normal">Ent Triggers</tspan></text></g></g></g></g></g></g></g><g><rect x="1668" y="648" width="276" height="96" rx="3" ry="3" fill="#FFFFFF" filter="url(#light-gray-fill-shadow)"></rect><g><rect x="1668" y="648" width="276" height="96" rx="3" ry="3" fill="#C3CFD9"></rect><g class="content"><g><g><g><g><g></g><text fill="#293845" hover-props="{}"><tspan x="1711.248046875" y="687.5" font-family="DIN Next, system-ui, sans-serif" font-size="27" font-style="normal" font-weight="normal">Ent Microshards</tspan></text></g><g id="12-1"><g><g></g><text fill="#293845" hover-props="{}"><tspan x="1900.751953125" y="687.5" font-family="DIN Next, system-ui, sans-serif" font-size="27" font-style="normal" font-weight="normal">
</tspan></text></g></g></g><g><g><g></g><text fill="#293845" hover-props="{}"><tspan x="1761.78955078125" y="723.5" font-family="DIN Next, system-ui, sans-serif" font-size="27" font-style="normal" font-weight="normal">Locator</tspan></text></g></g></g></g></g></g></g><g><rect x="1668" y="768" width="276" height="96" rx="3" ry="3" fill="#FFFFFF" filter="url(#light-gray-fill-shadow)"></rect><g><rect x="1668" y="768" width="276" height="96" rx="3" ry="3" fill="#C3CFD9"></rect><g class="content"><g><g><g><g><g></g><text fill="#293845" hover-props="{}"><tspan x="1739.38037109375" y="807.5" font-family="DIN Next, system-ui, sans-serif" font-size="27" font-style="normal" font-weight="normal">Ent Custom</tspan></text></g><g id="12-1"><g><g></g><text fill="#293845" hover-props="{}"><tspan x="1872.61962890625" y="807.5" font-family="DIN Next, system-ui, sans-serif" font-size="27" font-style="normal" font-weight="normal">
</tspan></text></g></g></g><g><g><g></g><text fill="#293845" hover-props="{}"><tspan x="1770.6181640625" y="843.5" font-family="DIN Next, system-ui, sans-serif" font-size="27" font-style="normal" font-weight="normal">Fields</tspan></text></g></g></g></g></g></g></g><g><rect x="1668" y="888" width="276" height="84" rx="3" ry="3" fill="#FFFFFF" filter="url(#light-gray-fill-shadow)"></rect><g><rect x="1668" y="888" width="276" height="84" rx="3" ry="3" fill="#C3CFD9"></rect><g class="content"><g><g><g><g><g></g><text fill="#293845" hover-props="{}"><tspan x="1736.1005859375" y="939.5" font-family="DIN Next, system-ui, sans-serif" font-size="27" font-style="normal" font-weight="normal">Ent Loaders</tspan></text></g></g></g></g></g></g></g><g><rect x="1668" y="996" width="276" height="84" rx="3" ry="3" fill="#FFFFFF" filter="url(#light-gray-fill-shadow)"></rect><g><rect x="1668" y="996" width="276" height="84" rx="3" ry="3" fill="#C3CFD9"></rect><g class="content"><g><g><g><g><g></g><text fill="#293845" hover-props="{}"><tspan x="1737.35595703125" y="1047.5" font-family="DIN Next, system-ui, sans-serif" font-size="27" font-style="normal" font-weight="normal">Ent Caching</tspan></text></g></g></g></g></g></g></g></g></g><g><g><rect x="590" y="544" width="152" height="64" pointer-events="none" fill="rgba(0,0,0,0)"></rect><g><line stroke="#788896" fill="none" stroke-linejoin="miter" y1="576" stroke-linecap="butt" stroke-width="32" x1="710" y2="576" x2="654"></line></g><line stroke="#788896" fill="#788896" stroke-linejoin="round" y1="562" stroke-linecap="round" stroke-width="4" x1="710" y2="590" x2="710"></line><polygon points="654.36068,599.51141 622,576 654.36068,552.48859" fill="#788896" stroke="#788896" stroke-width="4" stroke-linecap="round" stroke-linejoin="round"></polygon></g></g><g><g><rect x="1046" y="544" width="152" height="64" pointer-events="none" fill="rgba(0,0,0,0)"></rect><g><line stroke="#788896" fill="none" stroke-linejoin="miter" y1="576" stroke-linecap="butt" stroke-width="32" x1="1166" y2="576" x2="1110"></line></g><line stroke="#788896" fill="#788896" stroke-linejoin="round" y1="562" stroke-linecap="round" stroke-width="4" x1="1166" y2="590" x2="1166"></line><polygon points="1110.36068,599.51141 1078,576 1110.36068,552.48859" fill="#788896" stroke="#788896" stroke-width="4" stroke-linecap="round" stroke-linejoin="round"></polygon></g></g><g><g><rect x="1502" y="544" width="152" height="64" pointer-events="none" fill="rgba(0,0,0,0)"></rect><g><line stroke="#788896" fill="none" stroke-linejoin="miter" y1="576" stroke-linecap="butt" stroke-width="32" x1="1622" y2="576" x2="1566"></line></g><line stroke="#788896" fill="#788896" stroke-linejoin="round" y1="562" stroke-linecap="round" stroke-width="4" x1="1622" y2="590" x2="1622"></line><polygon points="1566.36068,599.51141 1534,576 1566.36068,552.48859" fill="#788896" stroke="#788896" stroke-width="4" stroke-linecap="round" stroke-linejoin="round"></polygon></g></g><g><g><path d="M1980,-24c0,-7.66294 -6.21206,-13.875 -13.875,-13.875c-7.66294,0 -594.58706,0 -602.25,0c-7.66294,0 -13.875,-6.21206 -13.875,-13.875c0,-7.66294 0,0 0,0c0,0 0,-7.66294 0,0c0,7.66294 -6.21206,13.875 -13.875,13.875c-7.66294,0 -594.58706,0 -602.25,0c-7.66294,0 -13.875,6.21206 -13.875,13.875" fill="rgba(0,0,0,0)"></path><path d="M1980,-24c0,-7.66294 -6.21206,-13.875 -13.875,-13.875c-7.66294,0 -594.58706,0 -602.25,0c-7.66294,0 -13.875,-6.21206 -13.875,-13.875c0,-7.66294 0,0 0,0c0,0 0,-7.66294 0,0c0,7.66294 -6.21206,13.875 -13.875,13.875c-7.66294,0 -594.58706,0 -602.25,0c-7.66294,0 -13.875,6.21206 -13.875,13.875" fill="none" stroke="#788896" stroke-linecap="round" stroke-linejoin="round" stroke-width="2"></path><g class="content"><g><g><g><g id="12-1"><g><g></g><text fill="#293845" hover-props="{}"><tspan x="1227.9638671875" y="-75.74999999999999" font-family="DIN Next, system-ui, sans-serif" font-size="36" font-style="normal" font-weight="bold">Ent Framework</tspan></text></g></g></g></g></g></g></g></g><g><g class="content"><g><g><g><g><g></g><text fill="#293845" hover-props="{}"><tspan x="216" y="-38.5" font-family="DIN Next, system-ui, sans-serif" font-size="18" font-style="normal" font-weight="normal"> </tspan></text></g></g></g></g></g></g></g></g></svg>