<svg xmlns="http://www.w3.org/2000/svg" width="768" height="185" viewBox="420 0 384 302" version="1.1"><path d="M 170 45.500 C 170 46.325, 170.436 47, 170.969 47 C 171.501 47, 171.678 46.325, 171.362 45.500 C 171.045 44.675, 170.609 44, 170.393 44 C 170.177 44, 170 44.675, 170 45.500 M 253.924 46.750 L 251.500 49.500 254.250 47.076 C 255.762 45.742, 257 44.505, 257 44.326 C 257 43.541, 256.190 44.180, 253.924 46.750 M 193.029 45.961 C 192.220 46.473, 191.818 47.152, 192.136 47.470 C 192.455 47.788, 193.284 47.362, 193.980 46.524 C 195.423 44.786, 195.146 44.622, 193.029 45.961 M 182.638 48.500 C 182.955 49.325, 183.391 50, 183.607 50 C 183.823 50, 184 49.325, 184 48.500 C 184 47.675, 183.564 47, 183.031 47 C 182.499 47, 182.322 47.675, 182.638 48.500 M 214.702 53.667 C 214.984 54.400, 215.343 55, 215.500 55 C 215.657 55, 216.016 54.400, 216.298 53.667 C 216.579 52.933, 216.220 52.333, 215.500 52.333 C 214.780 52.333, 214.421 52.933, 214.702 53.667 M 197 56 C 196.411 57.100, 196.155 58, 196.430 58 C 196.705 58, 197.411 57.100, 198 56 C 198.589 54.900, 198.845 54, 198.570 54 C 198.295 54, 197.589 54.900, 197 56 M 103.158 63 C 103.158 64.375, 103.385 64.938, 103.662 64.250 C 103.940 63.563, 103.940 62.438, 103.662 61.750 C 103.385 61.063, 103.158 61.625, 103.158 63 M 94.158 64 C 94.158 65.375, 94.385 65.938, 94.662 65.250 C 94.940 64.563, 94.940 63.438, 94.662 62.750 C 94.385 62.063, 94.158 62.625, 94.158 64 M 181.086 63.500 C 181.190 65.394, 182.856 68.584, 182.914 67 C 182.945 66.175, 182.533 64.825, 182 64 C 181.467 63.175, 181.055 62.950, 181.086 63.500 M 193.336 71 C 193.336 75.125, 193.513 76.813, 193.728 74.750 C 193.944 72.688, 193.944 69.313, 193.728 67.250 C 193.513 65.188, 193.336 66.875, 193.336 71 M 216 68 C 215.411 69.100, 215.155 70, 215.430 70 C 215.705 70, 216.411 69.100, 217 68 C 217.589 66.900, 217.845 66, 217.570 66 C 217.295 66, 216.589 66.900, 216 68 M 208.702 82.250 C 204.867 89.158, 201.570 96.296, 200.619 99.750 C 200.279 100.987, 199.740 102.914, 199.422 104.032 C 198.931 105.762, 199.255 105.654, 201.599 103.311 C 204.854 100.055, 206.073 101.625, 203.517 105.782 C 199.720 111.955, 217.008 91.632, 221.588 84.539 C 224.987 79.275, 221.211 82.882, 216.921 88.997 C 212.974 94.624, 208.412 98.745, 207.329 97.662 C 207.056 97.389, 206.582 95.305, 206.277 93.032 C 205.810 89.544, 206.121 88.477, 208.268 86.199 C 210.361 83.980, 213.676 76, 212.505 76 C 212.322 76, 210.611 78.813, 208.702 82.250 M 200 80 C 199.411 81.100, 199.155 82, 199.430 82 C 199.705 82, 200.411 81.100, 201 80 C 201.589 78.900, 201.845 78, 201.570 78 C 201.295 78, 200.589 78.900, 200 80 M 193 86 C 193 90.033, 193.299 93.034, 193.664 92.669 C 194.375 91.958, 194.174 79.841, 193.439 79.106 C 193.198 78.864, 193 81.967, 193 86 M 119 81.313 C 119 81.485, 120.463 82.948, 122.250 84.563 L 125.500 87.500 122.563 84.250 C 119.825 81.221, 119 80.540, 119 81.313 M 250.924 86.750 L 248.500 89.500 251.250 87.076 C 253.820 84.810, 254.459 84, 253.674 84 C 253.495 84, 252.258 85.237, 250.924 86.750 M 229.500 88 C 229.160 88.550, 229.332 89, 229.882 89 C 230.432 89, 231.160 88.550, 231.500 88 C 231.840 87.450, 231.668 87, 231.118 87 C 230.568 87, 229.840 87.450, 229.500 88 M 182.625 89.798 C 182.354 90.237, 182.545 91.249, 183.051 92.048 C 183.768 93.182, 183.973 93.007, 183.985 91.250 C 184 88.937, 183.492 88.394, 182.625 89.798 M 257.453 95.250 L 253.500 99.500 257.750 95.547 C 260.087 93.373, 262 91.460, 262 91.297 C 262 90.540, 261.129 91.298, 257.453 95.250 M 238 95.076 C 234.975 96.715, 233.568 97.771, 234.873 97.422 C 237.346 96.760, 244 93.100, 244 92.401 C 244 91.822, 244.017 91.814, 238 95.076 M 295.946 97.750 L 292.500 101.500 296.250 98.054 C 298.313 96.158, 300 94.471, 300 94.304 C 300 93.540, 299.154 94.260, 295.946 97.750 M 224.750 101.064 C 221.588 102.696, 219 104.256, 219 104.530 C 219 104.977, 230.900 99.312, 231.917 98.381 C 233.226 97.183, 229.745 98.486, 224.750 101.064 M 245.500 103.127 C 241.650 105.377, 234.675 109.182, 230 111.582 C 221.054 116.174, 219.432 117.282, 217 120.460 C 216.175 121.538, 217.300 121.007, 219.500 119.280 C 221.700 117.552, 229.575 112.904, 237 108.950 C 248.543 102.804, 254.737 98.950, 252.964 99.018 C 252.709 99.027, 249.350 100.877, 245.500 103.127 M 210.924 112.750 L 208.500 115.500 211.250 113.076 C 213.820 110.810, 214.459 110, 213.674 110 C 213.495 110, 212.258 111.237, 210.924 112.750 M 179.158 113 C 179.158 114.375, 179.385 114.938, 179.662 114.250 C 179.940 113.563, 179.940 112.438, 179.662 111.750 C 179.385 111.063, 179.158 111.625, 179.158 113 M 57 116.313 C 57 116.485, 58.462 117.948, 60.250 119.563 L 63.500 122.500 60.563 119.250 C 57.825 116.221, 57 115.540, 57 116.313 M 163.500 126 C 164.495 127.100, 165.535 128, 165.810 128 C 166.085 128, 165.495 127.100, 164.500 126 C 163.505 124.900, 162.465 124, 162.190 124 C 161.915 124, 162.505 124.900, 163.500 126 M 227.437 130.250 L 224.500 133.500 227.750 130.563 C 229.537 128.948, 231 127.485, 231 127.313 C 231 126.540, 230.175 127.221, 227.437 130.250 M 148 130.500 C 149.292 131.875, 150.574 133, 150.849 133 C 151.124 133, 150.292 131.875, 149 130.500 C 147.708 129.125, 146.426 128, 146.151 128 C 145.876 128, 146.708 129.125, 148 130.500 M 175.252 137.500 C 175.263 139.700, 175.468 140.482, 175.707 139.238 C 175.946 137.994, 175.937 136.194, 175.687 135.238 C 175.437 134.282, 175.241 135.300, 175.252 137.500 M 200 139.941 C 200 142.356, 200.556 142.599, 201.349 140.532 C 201.659 139.725, 201.482 138.798, 200.956 138.473 C 200.430 138.148, 200 138.809, 200 139.941 M 127.250 140.716 C 128.762 140.945, 131.238 140.945, 132.750 140.716 C 134.262 140.487, 133.025 140.300, 130 140.300 C 126.975 140.300, 125.737 140.487, 127.250 140.716 M 256.269 140.693 C 257.242 140.947, 258.592 140.930, 259.269 140.656 C 259.946 140.382, 259.150 140.175, 257.500 140.195 C 255.850 140.215, 255.296 140.439, 256.269 140.693 M 133.762 153.707 C 135.006 153.946, 136.806 153.937, 137.762 153.687 C 138.718 153.437, 137.700 153.241, 135.500 153.252 C 133.300 153.263, 132.518 153.468, 133.762 153.707 M 287 188.500 C 288.292 189.875, 289.574 191, 289.849 191 C 290.124 191, 289.292 189.875, 288 188.500 C 286.708 187.125, 285.426 186, 285.151 186 C 284.876 186, 285.708 187.125, 287 188.500 M 196.232 224 C 196.232 225.925, 196.438 226.713, 196.689 225.750 C 196.941 224.787, 196.941 223.213, 196.689 222.250 C 196.438 221.287, 196.232 222.075, 196.232 224 M 202 229.642 C 202 230.179, 202.700 231.491, 203.555 232.559 C 205.022 234.389, 205.042 234.357, 203.920 232 C 202.462 228.939, 202 228.372, 202 229.642 M 196.079 252.250 C 196.122 253.488, 196.391 253.919, 196.676 253.208 C 197.097 252.160, 197.506 252.157, 198.847 253.191 C 199.994 254.076, 199.917 253.782, 198.595 252.233 C 196.222 249.452, 195.981 249.453, 196.079 252.250 M 176.543 254.931 C 176.226 255.443, 176.425 256.144, 176.984 256.490 C 177.543 256.835, 178 256.416, 178 255.559 C 178 253.802, 177.400 253.544, 176.543 254.931 M 303.750 271.662 C 304.438 271.940, 305.563 271.940, 306.250 271.662 C 306.938 271.385, 306.375 271.158, 305 271.158 C 303.625 271.158, 303.063 271.385, 303.750 271.662" stroke="none" fill="#f1ead8" fill-rule="evenodd"/><path d="M 185.750 10.080 C 184.177 10.996, 184 13.092, 184 30.797 L 184 50.495 178.988 41.998 C 176.231 37.324, 173.088 31.025, 172.004 28 C 168.307 17.688, 166.818 15.500, 163.498 15.500 C 160.601 15.500, 160.502 15.652, 160.569 20 C 160.622 23.397, 162.040 27.284, 166.355 35.854 C 169.499 42.099, 173.607 49.609, 175.484 52.543 C 182.390 63.338, 182.726 64.474, 183.460 79.500 L 184.144 93.500 176.030 80 C 168.011 66.657, 167.925 66.442, 168.621 61.500 C 169.008 58.750, 169.364 53.800, 169.412 50.500 L 169.500 44.500 166.500 44.500 C 163.789 44.500, 163.339 44.982, 161.832 49.500 L 160.163 54.500 157.591 49 C 156.177 45.975, 155.015 42.813, 155.010 41.973 C 154.976 36.713, 147.610 33.722, 146.415 38.482 C 145.529 42.014, 147.072 45.774, 155.457 60.500 C 174.855 94.572, 177.402 99.964, 179.582 111.586 C 180.251 115.150, 179.679 114.648, 170.251 103.398 C 145.207 73.509, 138.203 58.581, 137.479 33.546 C 137.216 24.451, 136.861 22.372, 135.390 21.296 C 133.109 19.628, 132.479 19.664, 130.571 21.571 C 128.769 23.374, 128.525 32.648, 129.957 45 C 130.435 49.125, 130.660 52.668, 130.456 52.874 C 129.495 53.844, 120.032 45.750, 116.137 40.627 C 112.516 35.865, 111.326 34.941, 109.137 35.194 C 104.682 35.711, 105.149 39.669, 110.503 46.792 C 115.717 53.729, 120.193 57.549, 128.645 62.278 C 134.087 65.322, 134.855 66.221, 139.526 75.027 C 142.290 80.237, 145.386 85.749, 146.407 87.275 L 148.263 90.051 145.382 88.964 C 135.578 85.266, 126.718 78.211, 123.600 71.619 C 120.620 65.320, 118.808 63.609, 116.048 64.485 C 113.326 65.349, 113.334 69.993, 116.067 75.639 C 119.725 83.195, 128.171 89.843, 144.313 97.873 C 156.388 103.879, 159.764 106.056, 163.565 110.283 C 170.484 117.980, 176 130.459, 176 138.418 C 176 141.431, 175.953 141.404, 172.585 136.402 C 166.286 127.049, 154.391 117.148, 140.866 110 C 119.172 98.535, 113.019 92.629, 106.979 77.472 C 104.401 71.004, 103.704 67.614, 103.287 59.500 C 102.692 47.928, 101.321 44.712, 97.187 45.190 C 94.644 45.483, 94.483 45.823, 94.191 51.500 C 93.747 60.117, 95.738 73.394, 98.488 80.163 C 100.838 85.945, 100.840 85.985, 98.741 84.861 C 93.359 81.981, 86.567 74.253, 83.364 67.366 C 79.686 59.458, 77.904 58.096, 75.014 60.986 C 73.224 62.776, 73.179 63.278, 74.436 67.453 C 77.884 78.909, 84.381 86.053, 102.500 98.309 C 149.880 130.359, 147.869 128.874, 152.690 135.393 C 155.087 138.634, 156.842 141.492, 156.590 141.744 C 156.338 141.996, 154.639 141.071, 152.816 139.689 C 148.652 136.535, 130.746 126.706, 107.841 115.003 C 92.948 107.394, 89.007 104.884, 82.678 98.973 C 77.378 94.023, 74.218 90.064, 71.924 85.498 C 68.218 78.123, 65.607 76.532, 62.834 79.957 C 61.185 81.993, 61.164 82.459, 62.566 85.834 C 68.708 100.624, 82.045 111.922, 107.697 124.063 C 122.131 130.895, 122.503 132.292, 109.500 130.849 C 89.545 128.635, 70.082 119.467, 61.004 108.005 C 56.932 102.864, 54.637 101.589, 52 103 C 50.900 103.589, 50 104.706, 50 105.483 C 50 107.596, 59.393 118.474, 65.140 123.016 L 70.180 127 63.627 127 C 59.501 127, 55.075 126.252, 51.674 124.979 C 45.747 122.762, 43.424 123.089, 42.410 126.284 C 41.506 129.133, 45.510 132.480, 52.198 134.466 C 58.620 136.373, 71.185 136.451, 77.266 134.621 C 81.533 133.336, 82.561 133.434, 92.174 136.035 C 100.445 138.272, 105.685 138.970, 118.500 139.539 C 132.715 140.171, 139.131 141.203, 137.705 142.628 C 137.449 142.885, 133.923 143.907, 129.870 144.900 C 125.816 145.894, 118 148.523, 112.500 150.743 C 98.048 156.576, 92.540 158, 84.424 158 C 73.735 158, 59.155 153.020, 50.229 146.321 C 46.626 143.617, 43.284 143.575, 41.630 146.214 C 38.924 150.531, 55.645 161.515, 69.477 164.508 L 72.454 165.152 67.039 168.566 C 61.751 171.900, 60.532 172.271, 50.753 173.517 C 47.384 173.946, 45.686 174.719, 44.905 176.178 C 41.153 183.189, 58.907 182.743, 73.087 175.469 C 74.964 174.506, 78.301 172.487, 80.502 170.982 C 82.704 169.476, 87.192 167.687, 90.477 167.005 C 93.761 166.323, 97.060 165.531, 97.806 165.244 C 99.813 164.474, 87.946 179.915, 83.320 184.093 C 77.619 189.242, 69.018 193.152, 61.719 193.913 C 54.251 194.691, 53 195.361, 53 198.584 C 53 204.389, 63.990 203.636, 77.833 196.882 C 85.946 192.925, 89.153 190.052, 99.485 177.490 C 111.911 162.381, 122.997 154.617, 134.001 153.313 C 139.847 152.621, 140.176 153.365, 136.720 159.467 C 134.708 163.020, 133.750 163.641, 127.548 165.415 C 122.305 166.914, 119.575 168.399, 116.311 171.526 C 113.940 173.798, 112 176.469, 112 177.460 C 112 178.993, 112.613 179.181, 116.089 178.715 C 118.338 178.413, 122.485 177.025, 125.303 175.630 C 128.122 174.235, 130.569 173.236, 130.742 173.408 C 130.915 173.581, 130.620 174.869, 130.088 176.269 C 129.555 177.670, 128.980 180.979, 128.810 183.623 C 128.551 187.632, 128.806 188.493, 130.339 188.806 C 132.404 189.227, 136.526 185.783, 138.484 182 C 139.196 180.625, 140.253 176.432, 140.833 172.683 C 141.794 166.472, 144.246 160.963, 148.409 155.659 C 150.362 153.171, 152.875 154.115, 158.080 159.294 C 164.335 165.516, 166.310 170.700, 166.808 182.195 C 167.527 198.791, 162.126 211.216, 148.853 223.500 C 135.143 236.188, 113.244 243.358, 75.500 247.516 C 53.209 249.972, 35.758 253.794, 17.819 260.149 C 8.935 263.296, 3.685 267.069, 6.107 268.566 C 8.354 269.955, 17.621 269.120, 22.853 267.058 C 35.542 262.056, 54.778 258.455, 82 255.985 C 88.875 255.362, 98.100 254.212, 102.500 253.430 C 106.900 252.649, 112.300 251.720, 114.500 251.367 L 118.500 250.724 115.983 252.751 C 109.819 257.716, 95.304 261.793, 79.307 263.053 C 72.601 263.582, 65.444 264.574, 63.404 265.257 C 58.859 266.780, 57.079 269.185, 58.885 271.362 C 60.472 273.273, 71.672 272.742, 89.611 269.904 C 108.439 266.925, 114.699 264.290, 133.910 251.256 C 144.070 244.363, 152.875 239.542, 153.735 240.402 C 154.777 241.444, 150.926 245.990, 145.746 249.832 C 142.861 251.972, 135.947 256.252, 130.383 259.343 C 117.344 266.586, 108.935 275.632, 114.750 276.158 C 118.626 276.509, 120.405 275.840, 123.384 272.911 C 125.098 271.225, 131.675 267.202, 138 263.970 C 163.295 251.045, 174.519 236.550, 179.969 209.767 C 180.611 206.614, 181.510 203.803, 181.967 203.521 C 183.398 202.636, 184.188 216.193, 183.101 223 C 180.653 238.344, 173.602 248.526, 158.568 258.427 C 148.301 265.188, 144.782 269.126, 145.197 273.390 C 145.438 275.864, 146.012 276.560, 148.003 276.793 C 149.921 277.017, 151.368 276.053, 154.196 272.670 C 156.226 270.242, 160.274 266.900, 163.193 265.245 C 166.112 263.589, 170.637 260.343, 173.250 258.032 C 175.863 255.721, 178 254.337, 178 254.956 C 178 255.575, 176.537 258.876, 174.750 262.291 C 172.201 267.161, 171.507 269.692, 171.531 274.028 C 171.585 283.453, 177.891 290.451, 181.937 285.576 C 182.864 284.459, 182.675 283.283, 181.059 280.116 C 178.334 274.775, 178.444 273.265, 182.062 266.352 C 186.929 257.048, 186.983 257.038, 191.967 264.564 C 197.232 272.514, 197.409 275.215, 193.116 282.120 C 189.665 287.672, 189.377 291.266, 192.339 291.830 C 194.668 292.274, 198.441 288.774, 201.809 283.046 C 205.854 276.170, 205.432 270.396, 200.192 260.915 C 194.132 249.950, 194.778 248.626, 202.408 256.370 C 205.933 259.947, 210.996 264.016, 213.658 265.413 C 219.651 268.555, 220.966 269.635, 223.910 273.827 C 225.864 276.611, 226.676 277.049, 228.873 276.507 C 232.817 275.533, 233.436 274.466, 232.028 271.066 C 230.512 267.408, 224.533 261.823, 219.243 259.124 C 213.432 256.159, 205.903 248.891, 202.113 242.585 C 197.196 234.405, 194.756 222.243, 196.630 215.250 C 197.627 211.532, 198.685 212.689, 199.339 218.215 C 199.686 221.143, 201.664 226.953, 203.850 231.465 C 210.551 245.293, 221.569 255.357, 240 264.482 C 244.125 266.525, 249.574 270.210, 252.109 272.672 C 256.012 276.461, 257.238 277.098, 260.101 276.824 C 262.326 276.611, 263.594 275.917, 263.806 274.797 C 264.370 271.817, 256.140 264.179, 247.091 259.286 C 236.434 253.523, 228.065 247.197, 225.693 243.112 C 222.374 237.394, 227.160 239.539, 243.520 251.100 C 256.774 260.466, 264.250 264.074, 277.454 267.481 C 287.495 270.072, 316.128 272.932, 319.410 271.673 C 321.399 270.909, 321.478 267.641, 319.545 266.037 C 318.744 265.373, 313.457 264.433, 307.795 263.949 C 291.445 262.550, 278.958 260.213, 269.500 256.779 C 265.763 255.422, 259.761 251.906, 260.285 251.381 C 260.500 251.166, 268.512 252.100, 278.088 253.457 C 287.665 254.814, 301.612 256.373, 309.083 256.922 C 327.534 258.279, 339.748 261.133, 362.907 269.502 C 368.930 271.678, 370.764 271.973, 372.728 271.078 C 376.764 269.239, 375.075 266.787, 367 262.761 C 349.899 254.236, 331.161 249.684, 302.018 246.974 C 290.733 245.925, 276.951 244.152, 271.391 243.035 C 260.121 240.771, 245.564 235.679, 238.289 231.456 C 231.806 227.694, 218.074 213.668, 214.760 207.425 C 209.492 197.502, 207.605 183.761, 210.053 173.147 C 211.429 167.180, 216.488 159.779, 221.344 156.630 L 225.383 154.011 227.648 156.139 C 232.465 160.665, 235.340 166.067, 236.174 172.161 C 237.655 182.993, 242.314 190.245, 246.708 188.558 C 247.981 188.070, 248.175 186.626, 247.785 180.554 L 247.310 173.145 252.796 176.073 C 259.260 179.522, 265 180.018, 265 177.127 C 265 173.954, 256.882 167.398, 250.741 165.613 C 247.689 164.726, 244.707 164, 244.113 164 C 243.195 164, 238 155.104, 238 153.533 C 238 152.499, 243.698 153.018, 248.722 154.510 C 257.429 157.096, 266.497 164.604, 282.806 182.732 C 291.819 192.751, 299.205 197.717, 310.165 201.128 C 318.416 203.697, 323.603 203.611, 325.062 200.883 C 326.688 197.845, 324.949 196.585, 315.677 194.080 C 306.890 191.706, 301.189 189.062, 295.927 184.923 C 290.826 180.910, 276.161 163.127, 279.816 165.386 C 280.403 165.749, 283.436 166.518, 286.555 167.095 C 290.067 167.744, 295.479 170.009, 300.774 173.045 C 311.573 179.237, 317.834 181.328, 325.858 181.424 C 331.283 181.489, 332.428 181.186, 333.653 179.366 C 335.794 176.186, 333.431 174.420, 325.896 173.568 C 320.359 172.941, 311.841 169.645, 308.206 166.722 C 307.241 165.947, 308.660 165.127, 313.774 163.506 C 323.689 160.362, 333.208 154.217, 335.871 149.241 C 336.762 147.577, 336.669 146.812, 335.427 145.569 C 333.150 143.293, 331.270 143.618, 326.957 147.034 C 321.926 151.019, 311.547 155.670, 303.548 157.525 C 293.656 159.819, 281.089 157.488, 261.427 149.712 C 256.517 147.770, 249.912 145.619, 246.750 144.931 C 236.776 142.764, 238.754 142.019, 259.856 139.994 C 265.552 139.447, 270.775 139, 271.464 139 C 272.152 139, 273.117 140.912, 273.608 143.250 C 274.800 148.929, 278.781 150.998, 288.500 150.993 C 297.110 150.988, 302.153 149.660, 305.748 146.451 C 308.434 144.054, 308.453 143.960, 306.559 142.498 C 304.214 140.689, 297.111 140.561, 288.371 142.172 C 284.872 142.816, 281.793 143.126, 281.527 142.860 C 281.261 142.594, 280.921 141.299, 280.772 139.981 C 280.527 137.824, 281.146 137.408, 287 135.789 C 292.642 134.229, 294.539 134.142, 301.369 135.128 C 318.031 137.535, 335 132.980, 335 126.101 C 335 125.534, 334.097 124.587, 332.994 123.997 C 331.465 123.178, 329.420 123.408, 324.389 124.962 C 317.931 126.956, 307.993 127.738, 308.007 126.250 C 308.011 125.838, 309.600 124.420, 311.539 123.099 C 317.957 118.728, 326 109.197, 326 105.962 C 326 103.617, 325.464 102.903, 323.291 102.358 C 321.039 101.793, 320.239 102.169, 318.544 104.589 C 308.426 119.033, 287.159 129.667, 266.250 130.738 C 260.613 131.026, 256 131.036, 256 130.759 C 256 130.483, 260.837 128.116, 266.750 125.500 C 287.257 116.427, 298.073 108.961, 306.380 98.146 C 314.159 88.018, 316.583 81.558, 313.548 79.040 C 310.865 76.813, 308.558 78.416, 305.437 84.675 C 298.776 98.036, 291.989 103.683, 268.789 115.166 C 253.587 122.690, 227.805 136.963, 221.750 141.208 C 217.846 143.945, 218.335 142.122, 223.319 135.360 C 228.391 128.479, 230.307 126.946, 247.462 116.060 C 254.592 111.536, 261.859 106.575, 263.612 105.036 C 265.366 103.496, 271.491 99.044, 277.225 95.141 C 288.039 87.780, 293.812 81.876, 299.607 72.253 C 303.456 65.860, 303.969 61.589, 301.072 60.039 C 297.975 58.381, 296.544 59.651, 293.077 67.134 C 289.704 74.414, 284.550 80.298, 278.330 83.968 C 275.127 85.858, 274.836 85.891, 275.524 84.288 C 280.168 73.466, 284.404 48.397, 282.065 45.578 C 280.437 43.617, 277.597 43.546, 275.722 45.420 C 274.929 46.214, 274.014 49.941, 273.649 53.863 C 271.856 73.162, 265.749 88.570, 256.748 96.505 C 253.856 99.055, 245.192 104.522, 237.495 108.654 C 229.798 112.786, 221.125 117.993, 218.222 120.226 C 213.009 124.236, 204.868 133.674, 201.598 139.500 L 199.913 142.500 200.543 137.500 C 201.437 130.409, 204.654 121.354, 207.976 116.583 C 214.253 107.568, 218.839 103.994, 232.391 97.556 C 247.056 90.590, 250.477 88.075, 256.599 79.759 C 263.046 71.001, 263.796 63.540, 258.164 64.192 C 256.001 64.442, 254.936 65.662, 252.500 70.682 C 248.436 79.056, 245.747 81.706, 237.316 85.644 C 233.364 87.490, 229.846 89, 229.497 89 C 229.149 89, 229.867 87.591, 231.093 85.870 C 232.319 84.148, 234.726 79.536, 236.443 75.620 C 240.712 65.879, 240.411 66.228, 250.317 59.611 C 259.180 53.691, 268.439 43.930, 269.643 39.237 C 270.363 36.431, 268.468 34, 265.561 34 C 263.957 34, 262.276 35.712, 259.309 40.366 C 255.711 46.010, 247.937 53, 245.258 53 C 244.773 53, 244.949 49.737, 245.648 45.750 C 247.062 37.697, 247.330 29.901, 246.361 25.057 C 245.576 21.129, 241.576 18.146, 239.149 19.678 C 237.762 20.553, 237.489 22.770, 237.431 33.609 C 237.385 42.337, 236.798 48.761, 235.615 53.500 C 233.145 63.388, 223.142 83.135, 216.273 91.682 C 202.465 108.859, 197.502 114.836, 197.252 114.585 C 196.219 113.552, 202.524 94.038, 206.010 87.481 C 208.343 83.091, 212.251 75.701, 214.694 71.059 C 217.137 66.416, 219.948 61.466, 220.941 60.059 C 223.840 55.951, 228.690 45.784, 229.470 42.183 C 230.270 38.490, 228.082 35, 224.967 35 C 222.465 35, 221.410 36.734, 219.618 43.792 C 218.739 47.253, 217.379 51.303, 216.596 52.792 L 215.172 55.500 214.549 52.500 C 213.181 45.910, 212.439 44.497, 210.175 44.173 C 204.985 43.431, 203.607 49.179, 206.431 59.788 C 208.216 66.491, 207.553 68.849, 200.626 80.461 C 197.660 85.432, 194.744 90.400, 194.147 91.500 C 193.323 93.017, 193.059 89.997, 193.052 79 C 193.043 63.400, 193.859 60.008, 199.367 52.744 C 200.720 50.960, 204.812 43.437, 208.461 36.028 C 213.539 25.713, 215.025 21.728, 214.797 19.028 C 214.531 15.866, 214.168 15.468, 211.306 15.191 C 207.630 14.835, 206.153 16.942, 204.082 25.500 C 202.846 30.605, 196.040 44.293, 193.391 47 C 192.099 48.320, 191.957 46.298, 192.211 30.180 C 192.482 13.019, 192.377 11.769, 190.559 10.430 C 188.285 8.755, 188.054 8.738, 185.750 10.080" stroke="none" fill="#040404" fill-rule="evenodd"/></svg>